<?xml version="1.0" encoding="UTF-8"?>
<svg id="Layer_1" data-name="Layer 1" xmlns="http://www.w3.org/2000/svg" viewBox="0 0 2122 2122">
  <path d="m1050.73,80.18C494.55,80.18,43.69,503.26,43.69,1025.16s450.86,944.98,1007.04,944.98,1007.04-423.08,1007.04-944.98S1606.91,80.18,1050.73,80.18Zm356.83,851.19h.04c0,80.22.05,160.44.01,240.65-.03,67.32,9.88,147.85-55.31,189.98-51.23,33.1-134.68,39.15-177.96-9.36-40.44-45.32-31.19-117.45,17.95-152.23,26.74-18.92,59.94-24.3,91.23-30.99,23.62-5.05,59.4-6.26,71.46-30.84,12.74-26,4.01-70.07,3.97-98.26-.07-43.56,0-87.12.01-130.67,0-18.36,0-36.72.02-55.08,0-13.23,4.45-40.44-2.89-53.16-13.6-23.54-58.38-4.95-78.97-.98-77.25,14.9-154.31,30.83-231.4,46.53-21.81,4.44-73.57,5.09-88.62,24.05-16.79,21.16-5.26,78.01-5.24,102.97.04,83.29.08,166.57.04,249.86-.03,65.95,14.78,153.2-31.11,208.12-38.34,45.89-125.67,63.69-177.55,33.47-49.5-28.83-65.46-96.47-34.67-144.6,15.95-24.95,40.64-38.91,68.22-47.62,32.3-10.2,74.63-8.79,104.37-25.04,26.13-14.28,22.2-46.56,22.11-72.01-.13-40.72.04-81.43.05-122.14.01-81.43.01-162.85.01-244.27,0-37.83-8.12-85.73,2.11-122.4,9.35-33.5,50.69-33.47,79.45-39.46,91.02-18.98,182.26-36.97,273.42-55.25,22.49-4.51,44.96-9.08,67.48-13.41,16.68-3.21,40.03-12.22,57.07-8.35,33.62,7.65,24.67,50.39,24.69,76.47.07,94.67.01,189.35.01,284.02Z"/>
</svg>