<?xml version="1.0" encoding="UTF-8"?>
<svg id="Layer_1" data-name="Layer 1" xmlns="http://www.w3.org/2000/svg" viewBox="0 0 2122 2122">
  <path d="m1057.25,154.34c-556.17,0-1007.04,423.08-1007.04,944.98s450.86,944.98,1007.04,944.98,1007.04-423.08,1007.04-944.98S1613.43,154.34,1057.25,154.34Zm383.98,570.73h238.43v72.25h-238.43v-72.25Zm0,93.94h238.43v72.23h-238.43v-72.23Zm0,93.94h238.43v72.23h-238.43v-72.23Zm0,93.89h238.43v72.31h-238.43v-72.31Zm0,93.96h238.43v72.29h-238.43v-72.29Zm0,93.94h238.43v72.25h-238.43v-72.25Zm0,93.94h238.43v72.29h-238.43v-72.29ZM371.83,1006.9h238.41v72.25h-238.41v-72.25Zm0,93.96h238.41v72.23h-238.41v-72.23Zm0,93.92h238.41v72.27h-238.41v-72.27Zm0,93.91h238.41v72.29h-238.41v-72.29Zm0,166.18v-72.23h238.41v72.23h-238.41Zm505.79,0h-238.45v-72.23h238.45v72.23Zm0-93.89h-238.45v-72.29h238.45v72.29Zm0-93.92h-238.45v-72.27h238.45v72.27Zm267.36,187.81h-238.43v-72.23h238.45l-.02,72.23Zm0-93.89h-238.43v-72.29h238.45l-.02,72.29Zm0-93.92h-238.43v-72.27h238.45l-.02,72.27Zm0-93.96h-238.43v-72.23h238.45l-.02,72.23Zm0-93.94h-238.43v-72.25h238.45l-.02,72.25Zm0-93.94h-238.43v-72.25h238.45l-.02,72.25Zm0-93.91h-238.43v-72.27h238.45l-.02,72.27Zm267.34,563.57h-238.43v-72.23h238.45l-.02,72.23Zm0-93.89h-238.43v-72.29h238.45l-.02,72.29Zm0-93.92h-238.43v-72.27h238.45l-.02,72.27Zm0-93.96h-238.43v-72.23h238.45l-.02,72.23Zm0-93.94h-238.43v-72.25h238.45l-.02,72.25Zm28.93,375.72v-72.23h238.43v72.23h-238.43Z"/>
</svg>