<?xml version="1.0" encoding="UTF-8"?>
<svg id="Layer_1" data-name="Layer 1" xmlns="http://www.w3.org/2000/svg" viewBox="0 0 2122 2122">
  <defs>
    <style>
      .cls-1 {
        fill: #fff;
      }
    </style>
  </defs>
  <path class="cls-1" d="m1269.95,985.45c-61.9,0-110.65,56.11-110.65,124.46s49.87,124.01,110.65,124.01,109.98-55.89,110.65-124.35c.67-68.46-48.75-124.12-110.65-124.12Z"/>
  <path class="cls-1" d="m1065.49,129.9c-549.37,0-994.72,417.91-994.72,933.42s445.35,933.42,994.72,933.42,994.72-417.91,994.72-933.42S1614.86,129.9,1065.49,129.9Zm610.55,1245.28c-94.04,70.03-199.5,123.25-311.69,157.3-25.25-34.09-47.6-70.25-66.79-108.09,36.52-13.66,71.77-30.53,105.31-50.43-8.69-6.46-17.37-13.13-25.71-20.04-197.32,93.32-426.07,93.32-623.39,0-8.16,6.68-16.62,13.32-25.38,19.92,33.48,19.8,68.64,36.6,105.08,50.2-19.23,37.89-41.57,74.13-66.79,108.32-112.15-34.15-217.59-87.36-311.69-157.3-21.71-229.76,21.82-463.09,182.12-702.09,80.87-37.45,166.38-63.95,254.25-78.82,12.28,21.67,23.43,43.97,33.4,66.79,93.33-13.91,188.2-13.91,281.53,0,8.8-21.15,21.38-47.31,32.51-66.79,87.76,14.87,173.17,41.25,254.03,78.48,139.38,204.94,208.62,436.15,183.24,702.53Z"/>
  <path class="cls-1" d="m860.85,985.45c-61.89,0-110.65,56.11-110.65,124.46s49.87,124.01,110.65,124.01,110.21-55.89,110.76-124.35c.55-68.46-48.87-124.12-110.76-124.12Z"/>
</svg>