<?xml version="1.0" encoding="UTF-8"?>
<svg id="Layer_1" data-name="Layer 1" xmlns="http://www.w3.org/2000/svg" viewBox="0 0 2122 2122">
  <path d="m1046.04,104.85c-556.17,0-1007.04,423.08-1007.04,944.98s450.86,944.98,1007.04,944.98,1007.04-423.08,1007.04-944.98S1602.22,104.85,1046.04,104.85Zm-229.82,1137.76c-1.61,14.06-2.44,28.46-4.77,42.39-2.65,15.87-5.4,14.24-20.65,13.31-65.52-4.02-132.26-.63-197.92-.62-30.64,0-61.28.03-91.92.06-17.02.02-34.04,0-51.06.06-12.58.04-40.17,5.85-51.4,1.62-12.2-4.59-12.42-20.58-2.3-28.38,17.57-13.53,46.25-2.47,58.06-26.2,10.35-20.79,3.79-54.42,4.14-77.04.53-33.52,1.13-67.05,1.33-100.58.2-33.35-.22-66.67-.9-100.02-.6-29.64,3.21-62.66-1.66-91.91-3.55-21.33-16.01-25.72-35.55-30.16-12.25-2.78-48.78-13.26-29.47-34.28,4.07-4.43,22.1-.64,26.93-.5,14.94.42,29.89.74,44.84.99,34.87.58,69.75.74,104.63.7,64.56-.06,129.6,1.69,193.95-3.84,6.59-.57,29.3-6.73,35.09-.45,5.64,6.11-.26,32.03-.53,38.82-.63,16.04-.45,32.09-.78,48.14-.24,11.7,3.41,34.25-1.6,44.98-3.34,7.16-11.09,9.75-20.86,6.72-10.28-3.18-9.73-8.11-12.85-19.29-6.87-24.65-11.38-56.12-32.97-73.01-20.04-15.67-56.74-8.29-80.37-8.29-15.22,0-30.44-.02-45.66-.04-14.34-.02-43.54-5.23-56.53.15-17.65,7.3-9.52,39.54-9.51,56.13.03,35.81.06,71.63-.12,107.44-.05,9.56-3.21,21.33,5.87,26.88,7.9,4.83,32.76.17,42.8.1,21.59-.15,58.14,4.29,75.82-11.04,7.92-6.87,9.75-17.36,12.46-26.91,1.8-6.33,4.14-30.56,8.56-35.13,8.26-8.55,27.02-5.76,30.95,3.55,2.85,6.76-.75,25.25-1.1,31.75-.72,13.41-2.12,26.78-2.55,40.21-.49,14.95.5,29.79.99,44.72.3,9.23,5.8,45.4-1.3,53.04-5.44,5.84-24.32,1.3-28.29-3.35-6.95-8.14-6.45-30.04-11.69-40.38-14.14-27.9-49.07-24.31-76.33-25.42-11.74-.48-39.19-5.84-48.67-.18-10.73,6.41-7.46,17.39-7.43,29.82.08,36.16-.5,72.36.01,108.52.44,31.01,9.22,51.18,42.24,55.18,35.13,4.26,73.44,1.59,108.77.64,31.64-.85,59.13-5.12,77.82-32.86,9.45-14.03,26.89-78.61,44.65-76.76,5.1.53,10.34-.79,16.31,1.32,1.35,29.11-6.22,60.46-9.52,89.39Zm253.9,33.4c-34.51,38.27-106.46,46.43-146.69,12.88-44.31-36.94-28.63-116.01-28.63-166.67h-.17c0-28.79.41-57.61.05-86.39-.19-14.73,1.69-14.98-9.85-19.91-11.94-5.1-32.97,6.47-44.31-.25-5.83-3.46-7.62-13.4-4.72-19.74,4.19-9.16,12.87-8,22.22-10.77,19.8-5.86,36.55-17.7,49.11-34,13.34-17.31,20.73-37.37,25.91-58.36,3.45-13.98,3.69-17.32,17.23-19.42,4.75-.74,12.66-1.31,16.2,2.64,9.37,10.43,2.41,48.89,2.39,61.04,0,7.66-4.4,32.35,1.72,39.16,5.48,6.1,29.49-.21,37.32-.65,13.85-.77,56.93-10.22,62.15,4.23,1.35,3.75-3.65,34.99-4.7,36.23-7.77,9.1-24.18,2.8-36.36,1.85-13.86-1.08-57.25-10.27-63.52,1.74-4.62,8.85-.36,32.38-.36,43,0,16.85-.02,33.69-.01,50.54,0,30.14-1.59,60.88.31,90.96,1.36,21.45,6.65,48.62,28.43,58.56,19.42,8.86,44.29.83,60.3-11.25,8.76-6.61,11.02-13.57,20.95-3.49,10.05,10.19,3.23,19-4.97,28.08Zm180.07,29.87c-36.3,4.1-75.92-2.64-110.44-14.2-18.71-6.27-13.52-14.64-12.72-33.31.85-19.97.38-39.98-1.82-59.85-.16-1.49-.02-3-.02-6.31,15.34,0,22.89-3.1,30.73,10.02,8.03,13.44,11.09,30,18.76,43.8,13.24,23.8,35.12,33.05,61.82,32.15,26.59-.9,51-12.1,55.95-40.7,5.11-29.56-18.95-50.05-42.02-63.15-45.34-25.73-108.57-39.02-121.27-97.86-12.15-56.32,25.65-97.25,77.98-109.73,28.89-6.89,57.76-4.42,86.87-.39,10.3,1.42,39.58,1.55,46.51,10.27,7.77,9.78-1.47,33.46-2.54,46.18-1.01,12.02,4.38,32.3-7.33,38.26-13.17,6.7-19.07-1.1-23.51-10.35-13.17-27.5-13.29-49.71-47.48-57.46-23.87-5.41-55.17.6-68.99,23.1-14.94,24.34,5.42,50.1,25.52,63.23,45.61,29.8,114.12,38.57,134.73,96.43,25.44,71.4-35.09,122.47-100.75,129.88Zm482.18-297.2c-18.88,10.17-25.51,21.33-34.08,41.04-18.72,43.04-37.56,86.02-55.67,129.31-32.36,77.37-60.24,164.65-120.01,226.17-26.41,27.19-62.38,43.92-100.5,45.37-19.09.73-37.84-3.36-55.76-9.64-25.56-8.94-22.25-15.03-16.72-39.69,3.67-16.36,1.41-44,9.45-58.35,4.52-8.06,19.17-15.26,28.22-8.12,10.84,8.55,7.78,37.78,12.02,49.88,4.89,13.95,12.55,20.47,27.55,21.63,37.18,2.88,71.56-27.55,92.55-54.66,10.92-14.1,22.25-25.78,17.8-43.69-5.52-22.19-17.91-44.47-26.54-65.73-18.23-44.91-36.24-89.94-55.2-134.55-14.62-34.38-26.56-83.95-60.03-103.68-9.81-5.78-28.06-24.28-8.48-31.02,7.89-2.71,24,1.5,32.62,1.63,13.44.2,26.88-.13,40.32-.21,24.39-.16,52.84-7.77,76.75-3.49,10.45,1.87,19.46,12.91,9.57,24.45-10.59,12.36-36.97,1.78-44.36,21.51-6,16.02,11.05,44.16,16.37,59.35,17.12,48.82,35.8,97.08,54,145.52.87,2.33,1.87,4.51,5.71,6.45,18.04-41.25,36.13-82.47,53.14-124.15,9.27-22.72,44.52-75.98,17.73-95.8-10.79-7.98-28.94-8.14-31.52-24.63-3.09-19.75,24.25-12.82,37.3-12.62,19.39.29,38.22,1.49,57.64.35,13.27-.78,36.35-6.97,40.44,7.49,4.22,14.94-9.85,24.25-20.29,29.87Z"/>
</svg>