<svg width="60" height="57" viewBox="0 0 60 57" fill="none" xmlns="http://www.w3.org/2000/svg">
<g clip-path="url(#clip0_4124_1393)">
<path d="M36.2332 16.457H23.7699C20.2197 16.457 17.3242 19.2078 17.3242 22.5804V34.4205C17.3242 37.7932 20.2197 40.5439 23.7699 40.5439H36.2332C39.7833 40.5439 42.6788 37.7932 42.6788 34.4205V22.5804C42.6788 19.2078 39.7833 16.457 36.2332 16.457ZM30.1274 35.8079C25.8849 35.8079 22.4354 32.5309 22.4354 28.5005C22.4354 24.47 25.8849 21.1931 30.1274 21.1931C34.37 21.1931 37.8194 24.47 37.8194 28.5005C37.8194 32.5309 34.37 35.8079 30.1274 35.8079ZM38.26 22.4489C37.2529 22.4489 36.4346 21.6715 36.4346 20.7147C36.4346 19.7579 37.2529 18.9805 38.26 18.9805C39.2672 18.9805 40.0854 19.7579 40.0854 20.7147C40.0854 21.6715 39.2672 22.4489 38.26 22.4489Z" fill="black" fill-opacity="0.5"/>
<path d="M30.1255 23.8242C27.4062 23.8242 25.2031 25.9291 25.2031 28.5005C25.2031 31.0718 27.4188 33.1767 30.1255 33.1767C32.8322 33.1767 35.0479 31.0718 35.0479 28.5005C35.0479 25.9291 32.8322 23.8242 30.1255 23.8242Z" fill="black" fill-opacity="0.5"/>
<path d="M30 0C13.4326 0 0 12.761 0 28.5C0 44.239 13.4326 57 30 57C46.5674 57 60 44.239 60 28.5C60 12.761 46.5674 0 30 0ZM45.6106 34.4201C45.6106 39.3355 41.4058 43.33 36.2316 43.33H23.7684C18.5942 43.33 14.3894 39.3355 14.3894 34.4201V22.5799C14.3894 17.6645 18.5942 13.67 23.7684 13.67H36.2316C41.4058 13.67 45.6106 17.6645 45.6106 22.5799V34.4201Z" fill="black" fill-opacity="0.5"/>
</g>
<defs>
<clipPath id="clip0_4124_1393">
<rect width="60" height="57" fill="white"/>
</clipPath>
</defs>
</svg>
