<?xml version="1.0" encoding="UTF-8"?>
<svg id="Layer_1" data-name="Layer 1" xmlns="http://www.w3.org/2000/svg" viewBox="0 0 2122 2122">
  <path d="m1062.14,128.34c-556.17,0-1007.04,423.08-1007.04,944.98s450.86,944.98,1007.04,944.98,1007.04-423.08,1007.04-944.98S1618.32,128.34,1062.14,128.34Zm-265.84,896.99c-8.73,12.23-34.8-5.43-43.57,6.63-7.31,10.06,7.36,33.23-4.19,41.3-13.74,9.6-33.51-9.46-41.95,8.77-1.31,2.83-1.29,25.88.1,28.64,4.34,8.58,4.24,6.03,14.73,7.14,13.58,1.44,25.09-4.6,30.7,9.18,8.15,20.03-11.41,33.38,18.32,34.14,20.1.51,25.74-4.06,26.5,16.88.49,13.61,4.78,118.08-5.69,118.07-42.49-.03-84.99-.02-128.96-.02,0-9.11,4.92-37.1-3.54-42.76-9.08-6.07-29.68,5.77-37.98-1.09-5.44-4.51-3.65-13.53-3.66-20.27-.03-24.02-1.46-25.03-26.03-24.49-20.83.46-17.94,6.71-17.91,26.35.02,14.46.17,28.94.03,43.4-.18,17.57-1.44,18.75-19.1,19.02-19.52.3-39.07-.17-58.59-.11-12.06.04-39.02,5.48-49.58.32-12.58-6.15-7.45-22.88-7.43-36.56.04-37.86-.02-75.71-.03-113.57-.01-77.66-.9-155.37-.15-233.02.12-12.9-1.63-14.98,9.39-19.49,13.79-5.64,42.59.22,57.72.24,16.26.02,42.45-5.22,57.72-.17,13.83,4.57,10.05,13.67,9.99,28.05-.06,15.09-4.27,37.72-.12,52.08,3.44,11.88,6.92,9.83,18.85,9.85,19.21.03,24.54,2.78,25.27-17.65.98-27.59-.41-26.3,27.22-27.25,17.04-.58,17.35-.64,17.91-17.67.65-19.66-4.01-26.64,17.48-27.38,18.11-.62,36.36.09,54.48.09,14.46,0,42.06-5.81,54.48-.12,17.79,8.15,8.25,65.97,8.28,85.44.01,10.16,5.19,37.73-.73,46.02Zm176.62-121.35c-.71,3.64-.36,7.5-.36,11.26-.02,60.19-.01,120.38-.01,180.58,0,63.09-.16,126.17.19,189.26.05,8.69-2.23,11.37-11.12,11.27-38.48-.45-76.97-.24-115.46-.04-5.27.03-7.83-.75-7.82-7,.12-114.01.03-228.02-.04-342.03-.01-15.04-.01-30.09-.41-45.13-.16-6.14,2.43-8.27,8.2-8.25,39.35.14,78.71.25,118.07.2,7.07,0,10.25,2.37,8.77,9.88Zm312.18,381.67c.06,8.1-2.09,10.77-10.78,10.72-66.85-.42-133.7-.23-200.55-.24q-11.86,0-11.94-11.94c-.04-7.52-.31-15.07.13-22.57.42-6.96-2.53-9.25-9.16-9.01-9.25.33-18.52.04-27.78.05-4.67,0-7.26-1.1-7.23-6.96.26-50.06.15-100.12.15-150.18h.24c0-49.2.13-98.39-.15-147.59-.04-6.96,2.21-9.3,8.93-9.04,8.67.33,17.36.02,26.04-.08,5.98-.07,8.97-2.89,8.82-9.16-.2-8.39.38-16.8-.1-25.17-.44-7.8,2.17-10.7,10.34-10.64,41.96.32,83.92.11,125.88.11,25.47,0,50.94.22,76.4-.09,7.85-.09,10.72,2.66,10.67,10.61-.24,38.2-.21,76.4.11,114.6.06,7.73-2.78,9.88-10.19,9.82-37.62-.29-75.24.06-112.86-.28-8.19-.07-10.99,2.22-10.89,10.76.45,36.75.19,73.5.21,110.26,0,11.22.28,11.53,11.85,11.54,37.04.04,74.09.24,111.12-.15,8.44-.09,10.89,2.69,10.81,10.92-.37,37.91-.37,75.82-.09,113.73Zm398.18,7.19c-6.38,8.84-37.35,3.24-47.18,3.22-19.38-.04-38.77-.02-58.15.06-14.01.06-23.17,3.74-28.48-8.78-8.08-19.06,11.79-34.07-16.96-34.64-20.23-.4-26.27,4.18-26.31-17.62-.04-19.31,2.9-26.77-17.79-27.38-24.33-.72-24.77,1.84-24.73,25.61.02,15.18,3.57,36.92-.26,51.42-4.33,16.4-12.66,11.4-30.55,11.39-22.11-.02-44.22-.06-66.32.01-15.79.05-33.67,6.47-38-10.23-4.92-18.97.49-47.81.5-67.67.03-41.66,0-83.32,0-124.98,0-38.01,0-76.01,0-114.02,0-19-.02-38.01,0-57.01,0-9.17-3.12-22.3,5.67-27.59,8.07-4.85,28.35-.69,37.24-.67,17.36.02,34.72.06,52.08,0,10.92-.03,32.4-5.22,39.02,5.5,6.62,10.73.51,44.54.52,57.39,0,13.73-3.97,23.65,9.96,27.35,8.55,2.27,27.88,2.48,32.5-5.63,5.28-9.26-5.49-27.06.69-36.13,8.26-12.14,33.61,5.11,42.18-6.79,7.08-9.84-7.29-32.62,3.87-40.54,8.82-6.26,39.27-.86,50.14-.88,18.29-.04,36.58-.09,54.88-.13,18.07-.04,25.41-3.09,26.17,17.06.68,18.1.03,36.36.07,54.48.03,13.93,5.67,41.92.21,54.48-7.44,17.1-21.15,1.93-35.45,8.58-15.88,7.38-2.08,23.32-7.69,37.17-4.93,12.18-13.97,7.69-27.28,7.97-21.06.45-18.38,6.65-17.77,26.96.63,21.18,6.72,16.62,26.72,17.14,28.22.73,12,13.02,18.14,33.62,4.12,13.84,12.93,9.24,26.89,9.65,16.24.47,15.98,1.99,16.41,17.31.51,18.12-.1,36.35-.09,54.48,0,12.83,6.62,49.52-.84,59.86Z"/>
</svg>