<?xml version="1.0" encoding="UTF-8"?>
<svg id="Layer_1" data-name="Layer 1" xmlns="http://www.w3.org/2000/svg" viewBox="0 0 2122 2122">
  <path d="m1030.89,160.43c-531.25,0-961.92,404.13-961.92,902.64s430.66,902.64,961.92,902.64,961.93-404.13,961.93-902.64S1562.15,160.43,1030.89,160.43Zm-236.19,1329.5h-177.54v-570.32h177.54v570.32Zm-88.74-648.15c-56.92,0-102.92-46.13-102.92-102.86s46-102.71,102.92-102.71,102.78,46.06,102.78,102.71-46,102.86-102.78,102.86Zm752.79,648.15h-177.15v-277.28c0-66.19-1.29-151.24-92.13-151.24s-106.35,72.04-106.35,146.41v282.11h-177.18v-570.32h170.04v78.01h2.33c23.71-44.88,81.53-92.13,167.87-92.13,179.48,0,212.58,118.04,212.58,271.64v312.8Z"/>
</svg>