<?xml version="1.0" encoding="UTF-8"?>
<svg id="Layer_1" data-name="Layer 1" xmlns="http://www.w3.org/2000/svg" viewBox="0 0 2122 2122">
  <defs>
    <style>
      .cls-1 {
        fill: #fff;
        fill-rule: evenodd;
      }
    </style>
  </defs>
  <path class="cls-1" d="m1072.77,99.9c-549.37,0-994.72,417.91-994.72,933.42s445.35,933.42,994.72,933.42,994.72-417.91,994.72-933.42S1622.14,99.9,1072.77,99.9Zm293.8,1065.78c-101.94,126.43-267.18,134.8-343.42,57.21-5.88-5.94-10.58-12.92-16.33-20.02-.84,2.86-1.62,5.27-2.25,7.69-36.59,143.4-40.65,175.25-78.27,241.83-17.94,31.64-38.14,61.64-60.48,90.34-2.53,3.25-4.89,7.44-9.93,6.41-5.51-1.18-5.94-6.13-6.54-10.55-6.03-43.56-9.34-87.27-7.9-131.25,1.9-57.31,8.99-76.98,82.86-387.61,1.08-4.74-.13-8.68-1.72-12.95-17.67-47.71-21.16-96.11-5.73-145.18,33.44-105.95,153.55-114.07,174.57-26.64,12.93,54.07-21.29,124.83-47.57,229.42-21.76,86.31,79.81,147.65,166.65,84.65,80.07-58.07,111.15-197.31,105.24-295.98-11.64-196.74-227.37-239.27-364.25-175.91-156.91,72.55-192.58,267.05-121.74,355.94,8.99,11.31,15.91,18.22,12.94,29.68-4.57,17.8-8.59,35.73-13.5,53.43-3.66,13.17-14.69,17.96-28,12.55-26.12-10.55-47.88-27.21-65.52-49.09-60.17-74.5-77.38-221.86,2.17-346.62,88.13-138.22,252.07-194.12,401.74-177.17,178.76,20.33,291.76,142.48,312.92,281.04,9.64,63.13,2.7,218.78-85.91,328.79Z"/>
</svg>