<?xml version="1.0" encoding="UTF-8"?>
<svg id="Layer_1" data-name="Layer 1" xmlns="http://www.w3.org/2000/svg" viewBox="0 0 2122 2122">
  <path d="m1074.14,193.86c-549.37,0-994.72,417.91-994.72,933.42s445.35,933.42,994.72,933.42,994.72-417.91,994.72-933.42S1623.51,193.86,1074.14,193.86Zm400.93,1015.53c-9.24,9.52-20.25,17.14-32.41,22.42,1.93,11.17,2.91,22.48,2.91,33.82,0,156.39-183.29,283.17-409.4,283.17s-409.4-126.78-409.4-283.17c0-11.34.98-22.65,2.91-33.82-51.41-22.31-75.01-82.07-52.71-133.48,22.31-51.42,82.07-75.02,133.48-52.71,12.19,5.28,23.22,12.91,32.47,22.44,70.31-49.92,167.03-81.95,274.56-85.29l51.35-247.68c2.49-12.01,14.22-19.75,26.24-17.32l172.51,34.91c19.28-33.22,61.84-44.52,95.06-25.24,33.22,19.28,44.52,61.84,25.23,95.06-19.28,33.22-61.84,44.52-95.06,25.24-18.74-10.88-31.34-29.88-34.08-51.38l-150.76-30.51-45.04,217.23c104.29,4.65,197.95,36.31,266.5,84.98,39.02-40.21,103.27-41.18,143.48-2.15,40.22,39.03,41.19,103.27,2.16,143.48Z"/>
  <path d="m1187.11,1377.22h0c-91.58,60.32-210.29,60.32-301.87,0-7.97-5.64-19.01-3.75-24.65,4.22-5.64,7.97-3.75,19.01,4.22,24.65.3.21.6.41.92.61,103.42,68.15,237.48,68.15,340.9,0,7.97-5.64,9.86-16.68,4.22-24.65-5.4-7.62-15.79-9.74-23.74-4.83Z"/>
  <circle cx="872.89" cy="1210.59" r="68.31"/>
  <circle cx="1199.46" cy="1210.59" r="68.31"/>
</svg>