<?xml version="1.0" encoding="UTF-8"?>
<svg id="Layer_1" data-name="Layer 1" xmlns="http://www.w3.org/2000/svg" viewBox="0 0 2122 2122">
  <path d="m1005.55,865.57c-104.46.33-195.6,65.9-201.51,175.65-3.64,67.65,40.1,97.35,84.53,139.24,18.58,17.52,35.57,44.24,22.73,70.17-11.81,23.86-39.49,24.53-62.03,18.06-16.35-4.7-31.35-12.85-45.66-21.9-5.75-3.63-17.57-16.1-24.46-12.73-7,3.43-24.04,65.97-23.48,74.17,1.61,23.58,45.01,42.55,63.81,50.36,25.05,10.4,52.07,15.27,79.14,15.49,48.07.33,87.12-17.88,115.44-57.13,38.82-53.81,40.23-135.49-2.4-187.33-22.19-26.98-52.15-43.99-78.39-66.32-21.92-18.66-36.88-44.4-15.3-70.26,18.74-22.44,53.92-20.93,80-16.64,11.22,1.85,30.22,12.73,41.28,11.23,10.63-1.43,10.88-9.22,14.24-18.88,6.53-18.78,12.65-37.72,19-56.57,2.31-6.87,11.97-23.37,8.12-31.34-8.27-17.11-59.27-15.31-75.07-15.26Z"/>
  <path d="m872.88,745.04c18.16-5.36,36.18-11.18,54.35-16.49,5.56-1.63,7.93-5.01,9.1-10.4,3.1-14.25,6.71-28.39,11.5-42.19,15.63-45.04,38.69-84.71,80.12-111.15,2.07-1.32,4.29-2.67,4.24-6.21-4.62-5.43-11.04-3.76-16.97-3.15-32,3.31-57.18,19.5-78.45,42.55-36.45,39.49-57.28,87.47-73.9,137.62-3.35,10.12-.55,12.54,10,9.42Z"/>
  <path d="m1106.63,588.38c-4.55,1.71,2.18,81.97,12.98,80.52,10.14-3.26,21.7-6.83,33.14-10.74,9.53-3.26-25.4-77.55-46.12-69.77Z"/>
  <path d="m1058.79,78.15C502.62,78.15,51.76,501.24,51.76,1023.13s450.86,944.98,1007.04,944.98,1007.04-423.08,1007.04-944.98S1614.97,78.15,1058.79,78.15Zm438.34,1384.03c-9.49,7.08-33.3,7.3-45.03,9.84-14.98,3.24-29.97,6.48-44.95,9.73-64.93,14.04-129.86,28.07-194.8,42.04-6.96,1.5-13.69,4.36-21.11,4.5-113.78-20.68-227.38-42.3-341.04-63.59-55.93-10.48-111.84-21.03-167.79-31.38-14.9-2.76-55.89-2.66-65.7-14.63-5.4-6.58.36-22,1.33-29.42,2.21-16.93,4.41-33.85,6.61-50.78,14.87-114.64,29.89-229.26,45.07-343.85,7.49-56.56,10.72-115.45,21.95-171.35,9.13-45.43,78.56-38.96,112.73-56.77,18.07-9.42,19.12-35.18,25.21-53.16,8.97-26.44,19.92-52.25,33.49-76.67,23.44-42.2,54.87-82.13,99.01-103.86,19.65-9.67,41.73-15.33,63.71-14.8,10.16.24,19.65,1.62,28.79,6.29,10.38,5.31,16.79,16.85,26.67,21.84,16.21,8.2,35.49,4.67,52.24,15.4,18.03,11.54,31.66,29.6,41.97,48.07,11.27,20.16,8.92,38.63,34.51,31.31,27.11-7.75,34.37.58,53.69,19.68,15.76,15.59,29.43,35.64,51.8,40.36,19.75,4.17,56.04-5.05,72.8,6.94,13.34,9.55,11.49,48.24,13.74,63.5,4.09,27.72,8.22,55.44,12.31,83.16,8.34,56.59,16.66,113.17,25.08,169.75,18.79,126.21,36.82,252.54,55.89,378.7,2.33,15.41,15.29,49.12,1.83,59.15Z"/>
  <path d="m980.82,702.85c-2.28,7.78,2.03,8.32,8.24,6.35,22.47-7.1,45.12-13.62,67.46-21.09,20.44-6.84,17.98-1.39,18.01-28.76-.28-13.63-2.34-31.48-6.38-49.04-4.23-18.37-6.98-19.56-22.18-8.73-35.15,25.04-53.38,61.16-65.15,101.27Z"/>
</svg>