<?xml version="1.0" encoding="UTF-8"?>
<svg id="Layer_1" data-name="Layer 1" xmlns="http://www.w3.org/2000/svg" viewBox="0 0 2122 2122">
  <path d="m1051.57,103.98c-549.37,0-994.72,417.91-994.72,933.42s445.35,933.42,994.72,933.42,994.72-417.91,994.72-933.42S1600.95,103.98,1051.57,103.98Zm501.94,1237.36l-4.95,10.19c-12.89,26.52-34.83,45.36-67.06,57.58l-4.99,1.91c-17.32,6.64-36.88,14.14-60.01,16.03-9.11,55.22-45.65,66.91-74.94,66.91-4.29,0-9.08-.23-14.43-.66-7.2-.58-14.37-1.78-22.88-3.29-11.75-2.09-22.8-3.15-32.84-3.15-26.58,0-47.87,7.19-67.02,22.66-8.01,6.46-16.68,12.14-25.39,17.72l-4.59,2.95c-46.56,30.21-94.41,45.52-142.25,45.52-42.65,0-85.18-12.19-126.39-36.22-14.97-8.73-29.41-18.36-43.83-28.02l-17.08-11.35c-9.35-6.12-19.97-9.91-33.41-11.95-4.83-.73-9.63-1-14.38-1-12.33,0-25.75,1.87-39.97,3.85-7.53,1.05-15.07,2.09-22.63,2.93-3.83.42-7.65.63-11.39.63-41.55,0-72.04-26.9-74.14-65.4-.05-.95-.13-1.76-.21-2.45-2.41-.68-6.62-1.57-13.61-2.34-22.32-2.46-41.79-10.59-57.43-17.13-30.6-12.79-51.08-31.44-62.61-57l-4.36-9.65v-43.65l11.95-13.85c6.02-6.98,22.01-25.52,49.97-31.06,55.36-10.96,98.5-44.86,135.76-106.69,2.7-4.48,4.86-8.22,6.57-11.34-4.19-1.67-9.6-3.71-16.56-6.16-3.35-1.09-6.68-2.23-9.98-3.59-15.77-6.49-33.98-14.61-50.4-28.87-25.23-21.92-35.84-53.19-28.41-83.65,7.96-32.59,34.81-58.11,70.06-66.6,7.22-1.74,14.7-2.62,22.23-2.62,8.12,0,15.64.99,22.57,2.46-1.1-26.13-.89-54.5.61-86.57,4.43-94.63,50.52-170.58,133.3-219.64,56.34-33.38,114.78-50.31,173.71-50.31s116.18,16.59,171.96,49.31c76.79,45.05,122.68,113.86,132.7,198.99,4.3,36.47,4.34,72.35,2.65,107.87,6.78-1.29,14.05-2.15,21.77-2.15,14.25,0,28.18,2.95,41.4,8.75,34.39,15.11,56.08,46.88,55.25,80.96-.58,23.25-11.94,46.18-31.15,62.9-17.39,15.14-37.11,23.07-52.96,29.44l-3.4,1.37c-4.96,2.01-9.99,3.86-15.02,5.69-1.78.65-3.57,1.29-5.34,1.95,34.45,66.27,79.13,103.96,139.68,118.16,22.98,5.39,41.17,16.85,54.05,34.05l9.82,13.12v42.46Z"/>
</svg>