<?xml version="1.0" encoding="UTF-8"?>
<svg id="Layer_1" data-name="Layer 1" xmlns="http://www.w3.org/2000/svg" viewBox="0 0 2122 2122">
  <path d="m1046.48,119.5c-556.17,0-1007.04,423.08-1007.04,944.98s450.86,944.98,1007.04,944.98,1007.04-423.08,1007.04-944.98S1602.66,119.5,1046.48,119.5ZM426.14,1228.09c-1.27,7.99-1.13,25.4-5.58,31.91-3.22,4.71-8.15,13.05-10.01.8-3.33-22.02-6.52-44.06-9.77-66.23,1.92-12.96,3.85-25.92,5.77-38.88.87-5.85.22-24.29,4.32-29.13,12.96-15.28,13.37,25.19,15.01,35.65,3.54,22.59,3.86,43.27.26,65.88Zm48.12,27.34c-.77,7.22-.17,51.52-7.96,54.32-11.27,4.05-11.3-34.8-12.26-41.92-3.09-22.94-6.11-45.89-9.15-68.84-.16-1.23-.23-2.46-.27-2.92,1.7-13.73,7.6-118.64,18.2-120.3,6.99-1.1,18.77,103.56,19.02,115.79.43,21.06-5.34,42.91-7.57,63.86Zm38.52,76.52c-10.93.06-15.86-120.09-16.08-132.5-.48-26.53,3.86-53.06,5.79-79.48.74-10.18,1.37-20.36,2.07-30.54.39-5.67-1.74-25.25,2.26-30.08,15.02-18.17,14.28,21.69,15.25,29.73,3.31,27.27,6.61,54.54,9.63,81.84.85,7.64.12,15.46.12,23.19.51,15.2-6.04,137.77-19.04,137.84Zm65.02-68.5c-1.43,18.33,2.88,50.26-5.91,66.71-14.03,26.25-16.83-30.17-17.62-38.55-2.37-25.26-4.72-50.62-6-75.96-1.37-27.14.32-53.91,2.54-80.95,1.86-22.71-.41-53.31,6.95-74.81,10.34-30.23,15.48,8.7,16.65,21.77,2.35,26.25,4.32,52.54,6.67,78.79,1.02,11.38,2.67,22.7,3.87,32.74-2.42,23.4-5.31,46.81-7.14,70.26Zm51.22,15.86c-1.06,10.63.8,56.62-10.85,59.65-15.44,4.02-12.33-49.26-13.21-59.32-2.46-27.96-6.82-56.18-7.31-84.26-.4-23.5,4.03-47.39,6.37-70.75,1.09-10.96-.48-69.16,12.55-68.07,13.57,1.14,11.24,47.21,12.21,56.77,2.75,27.33,7.61,54.82,7.61,82.29.34.02.67.05,1.01.07-2.79,27.87-5.58,55.74-8.37,83.62Zm51.67,33.82c-.65,7.47-.12,27.64-11.64,27.91-11.7.28-10.78-20.39-11.52-27.81-3.63-36.38-4.67-73.05-6.86-109.54-.35-5.86-.05-11.77-.05-17.65.55-35.15,1.89-70.34,2.99-105.48.91-29.01-2.08-65.18,5.25-93.16,1.82-6.95,4.8-18.92,15.07-12.81,7.87,4.68,5.55,24.56,5.91,31.7,1.73,34.01,1.85,68.04,4.02,102.03,4.4,68.97,2.79,135.95-3.18,204.8Zm51.03-1.26c-.83,8.32,1.19,30.07-12.01,29.85-13.21-.22-10.11-22.68-10.75-31.1-2.76-36.31-5.8-72.6-7.93-108.95-1.78-30.34,1.86-60.68,2.58-91.03.75-21.58-2.25-188.24,16.72-187.74,18.85.5,16.91,165.59,18,186.94,3.47,68.14.17,134.19-6.62,202.02Zm42.39,29.34c-16.65.27-12.88-27.09-13.52-36.81-5.26-80.12-4.79-159.47-3.15-239.72.82-39.86,2.29-79.7,3.63-119.55.31-9.3-4.02-40.33,9.1-44.22,20.51-6.08,15.31,27.97,15.31,37.53l-.46.02c3.55,83.09,9.57,166.52,9.21,249.71-.17,40.01-6.84,79.12-8.53,118.96-.39,9.31,3.95,33.83-11.6,34.09Zm68.17-43.27c-.97,10.48,1.32,34.19-8.51,40.96-11.72,8.07-16.25-3.34-18.71-12.31-4.52-16.46-2.54-38.25-3.64-55.21-1.22-18.9-2.84-37.79-3.71-56.71-3.23-69.92,3.13-140.31,4.99-210.24.85-31.72-4.36-69.94,2.63-100.86,2.24-9.9,9.16-19.72,20.31-10.33,8.08,6.81,5.41,32.27,5.45,41.43.21,48.63,4.71,97.14,3.73,158.48,2.47,68.6,3.79,136.29-2.55,204.78Zm52.1,18.57c-1.06,10-2.74,30.62-18.64,23.92-13.97-5.89-9.9-33.47-10.61-45.09-2.68-43.7-3.95-87.01-3.79-130.81-.45-43.15.77-86.3,2.27-129.42.78-22.42,1.69-44.84,2.4-67.27.55-17.41-2.29-37.85.95-54.95,2.14-11.3,11.98-25.22,22.95-13.35,9.91,10.73,4.69,40.55,5.18,54.38,1.52,42.68,2.99,85.36,4.47,128.04,2.73,78.89,3.18,155.89-5.17,234.55Zm62.01-117.42c-1.23,40.35-3.05,81.92-7.06,122.05-1.19,11.9-12.79,33.59-27,14.5-7.09-9.52-3.76-42.81-4.53-54.77-5.43-83.83-2.24-166.83.39-250.68.62-19.75,1.1-39.51,1.56-59.27.37-15.66-4.54-41.12,1.7-55.36,3.71-8.46,13.6-14.41,22.66-7.13,9.25,7.43,5.13,30.04,5.13,40.16-.07,0-.14,0-.2,0,2.89,83.14,9.9,167.35,7.36,250.51Zm53.56,16.74c-.68,18.43-.85,36.87-1.38,55.31-.46,15.93,2.05,39.95-3.49,55.21-3.98,10.97-13.33,21.43-25.86,12.28-11.17-8.16-6.96-37.82-7.69-49.46-3.3-53.15-6.1-106.37-3.13-169.86,1.4-75.25,2.8-150.5,4.21-225.74.22-11.98-3.39-33.17,9.99-39.89,13.23-6.64,20.34,4.93,22.46,16.67,6.77,37.46,2.17,80.79,2.83,118.88,1.31,75.31,4.84,151.36,2.06,226.61Zm58.4-25.78c-.2,26-1.83,51.83-3.93,77.74-1.46,17.99,1.6,43.1-4.83,59.92-5.49,14.37-21.87,18.91-30.81,4.8-10.24-16.18-3.76-49.74-4.77-68.14-2.65-48.62-3.06-96.95-3.06-145.63.68,0,1.36,0,2.04,0,0-48.03.82-96.02,1.61-144.05.44-27,.77-54,.69-81-.06-17.57-4.44-43.77,2.35-60.28,5.87-14.3,20.48-17.41,29.85-4.88,10.89,14.57,4.32,55.45,4.89,73.23,1.53,48.01,1.77,96.05,3.26,144.06,1.49,48.05,3.09,96.14,2.72,144.22Zm608.29,62.85c-29.8,62.32-89.96,88.27-155.8,88.55-76.18.32-152.36-.18-228.53.19-16.77.08-33.61.06-50.37.84-16.4.77-30.33,4.92-46.35,1.86-31.31-5.98-63.7-.07-95.47-2.69-30.7-2.54-23.13-29.41-23.13-54.27,0-39.38,0-78.75,0-118.12,0-77.04.02-154.07.04-231.11,0-34.23-.29-68.48.03-102.72.13-13.95-1.21-22.54,10.71-30.73,13.7-9.41,35.4-13.06,51.4-16.14,155.69-29.94,299.4,75.49,330.2,227.79,1.33,6.57,1,13.47,1.47,20.7,13.48,3.51,35.89-9.04,50.29-10.22,14.9-1.22,29.87-.14,44.48,3.02,32.16,6.96,61.89,23.18,84.42,47.23,44.4,47.38,54.49,117.52,26.61,175.83Z"/>
</svg>