<?xml version="1.0" encoding="UTF-8"?>
<svg id="Layer_1" data-name="Layer 1" xmlns="http://www.w3.org/2000/svg" viewBox="0 0 2122 2122">
  <defs>
    <style>
      .cls-1 {
        fill: #fff;
      }
    </style>
  </defs>
  <path class="cls-1" d="m1058.08,100.54c-549.37,0-994.72,417.91-994.72,933.42s445.35,933.42,994.72,933.42,994.73-417.91,994.73-933.42S1607.46,100.54,1058.08,100.54Zm382.39,1287.01v-.18c-2.15,5.45-2.95,11.44-5.81,16.63-8.22,14.57-20.47,23.51-37.01,26.46-6.26,2.41-12.51,2.41-18.68-.09-12.6-.63-24.31-10.64-34.77-16.63-12.07-6.97-24.4-13.68-36.92-20.02-24.67-12.33-50.06-22.97-75.89-32.63-26.19-9.65-52.47-18.41-79.47-25.56-28.43-7.51-57.74-10.55-86.08-17.7-2.5.45-4.92.36-6.97-1.25-1.52-.18-3.04-.27-4.56-.36-2.5.36-4.92.54-7.06-1.25-1.52-.09-3.04-.27-4.56-.45-2.95.36-5.99.54-8.67-1.25-2.5-.09-5.09-.27-7.6-.45-3.04.45-6.08.89-8.76-1.16-2.06,0-4.11-.27-6.17-.45-4.11.36-8.22.8-11.98-1.25-3.13-.09-6.26-.27-9.47-.45-5.09.45-10.28.98-15.29-1.16-3.13-.18-6.35-.27-9.56-.45-5.99.8-12.07,0-18.15,0h-63.02c-5.99.18-12.07.36-18.06.54-4.92,2.32-10.01,1.25-15.02,1.07-4.38.09-8.67.09-13.05.09-2.06.09-4.2.27-6.26.36-4.38,2.23-9.03,1.61-13.59,1.25-2.59.18-5.18.36-7.78.45-3.31,1.97-6.79,1.61-10.37,1.25-1.52.09-3.04.27-4.65.36-2.68,2.06-5.63,1.7-8.67,1.25-2.59.09-5.1.27-7.69.36-2.68,1.79-5.63,1.61-8.67,1.25-5.9.72-11.8,1.43-17.7,2.15-2.15,1.61-4.56,1.61-7.06,1.16-1.52.18-2.95.36-4.47.54-2.15,1.7-4.56,1.61-7.06,1.16-4.83.36-9.48,2.41-14.39,2.06-2.15,1.7-4.56,1.7-6.97,1.34-28.16,5.18-56.31,10.28-84.29,16.45-3.13.72-6.08,2.41-9.48,1.97-5.63,2.32-11.35,2.32-17.07.09-.45.09-.89-.09-1.25-.45-15.2,1.79-32.36-16.09-38.35-28.16-7.69-15.37-6.44-34.59,1.61-49.52,18.68-34.24,72.94-31.38,105.83-39.42,2.06-1.79,4.47-1.79,6.88-1.34,7.06-1.25,14.12-2.41,21.18-3.58,2.06-1.88,4.47-1.79,6.97-1.34,5.01.36,9.65-1.61,14.48-2.15,2.06-1.97,4.56-1.52,6.97-1.16,1.52-.18,3.04-.27,4.56-.36,2.15-1.88,4.56-1.7,7.06-1.25,1.52-.18,3.04-.27,4.56-.45,2.06-1.97,4.56-1.61,7.06-1.16,2.06-.18,4.02-.36,6.08-.54,2.15-1.88,4.56-1.61,7.06-1.16,2.06-.09,4.11-.27,6.17-.45,2.68-2.06,5.72-1.61,8.76-1.16,1.97-.18,4.02-.27,6.08-.45,3.22-2.15,6.79-1.61,10.37-1.25,2.59-.18,5.09-.27,7.69-.45,3.31-2.06,6.88-1.52,10.46-1.16,2.06-.18,4.11-.27,6.17-.45,3.75-2.41,7.87-1.43,11.89-1.25h11.44c1.52-.09,3.04-.18,4.56-.36,6.17-2.15,12.42-1.61,18.68-1.16,4.83-.18,9.65-.27,14.48-.45,5.81-5.27,70.44-5.1,76.07,0,4.29.18,8.58.27,12.87.45h11.62c3.84,0,7.87-1.16,11.62,1.07,3.75.27,7.6.45,11.44.72,2.95-.36,5.9-.89,8.58,1.16,2.59.09,5.18.27,7.78.45,3.58-.36,7.15-.89,10.37,1.25,2.06.09,4.11.27,6.17.36,3.04-.36,5.99-.72,8.67,1.25,2.06.09,4.11.27,6.17.45,2.95-.45,5.99-.89,8.67,1.25,1.52.09,3.04.27,4.56.45,2.5-.54,4.92-.72,7.06,1.16,4.74,1.25,9.56,1.88,14.48,1.97,2.41-.45,4.92-.63,6.97,1.34,84.92,15.55,174.57,37.01,250.73,79.29,19.67,2.41,45.86,23.24,62.75,33.25,17.34,10.19,30.48,21.99,34.68,42.64,2.32,5.54,2.32,11.08,0,16.63Zm103.42-234.55c1.7,6.44-1.88,11.8-4.11,16.98-5.99,13.94-15.73,24.85-30.21,30.93-6.44,4.29-13.77,5.99-21.27,6.88-5.63,2.15-11.26,2.15-16.89,0-8.67-1.07-16.72-3.58-24.22-8.31-19.84-12.69-40.94-23.24-61.41-34.68-9.92-3.22-18.86-8.58-27.98-13.32h-.09c-23.6-9.39-47.82-17.79-70.88-28.25-3.22.18-5.81-1.25-8.31-2.86-8.04-1.25-15.29-5.01-23.06-7.15-2.06-1.34-5.01-.45-6.7-2.68-25.03-7.42-50.06-14.57-75.44-20.47-.72-.18-1.43-.8-2.15-1.16h-.8l-.72-.27c-4.56-.45-9.03-.98-13.23-3.13-.54,0-1.07,0-1.61-.18-11.53-1.97-23.15-3.49-34.5-6.53-2.5.36-4.92.36-6.97-1.43-.98-.09-1.88-.18-2.86-.27-2.5.45-4.92.36-6.97-1.34-5.1.54-9.74-1.79-14.66-2.15-2.95.8-5.27-1.79-8.13-1.52-2.5.36-4.92.54-7.06-1.16-1.97-.18-4.02-.36-5.99-.54-2.5.45-4.92.71-7.06-1.16-2.06-.18-4.02-.27-6.08-.45-3.04.36-6.08.89-8.67-1.25-.98-.18-2.06-.27-3.04-.45-3.04.45-5.99.63-8.67-1.16-2.59-.18-5.1-.36-7.69-.54-3.04.45-6.08.89-8.76-1.07-1.52-.18-3.13-.36-4.65-.54h-8.13c-2.41.36-4.83.72-6.97-1.16-2.06-.18-4.2-.27-6.26-.45h-11.44c-4.56-.09-9.21,1.52-13.5-1.25-.54-.27-.98-.36-1.43-.45-6.08,0-12.07.09-18.06.09h-104.4c-3.67.09-7.42.27-11.08.36-4.47,2.06-9.12,1.52-13.68,1.16-2.59.18-5.27.36-7.87.54-3.22,2.06-6.79,1.61-10.37,1.16-2.59.18-5.18.36-7.78.54-2.68,1.97-5.72,1.52-8.76,1.16-.98.09-1.97.18-2.95.36-3.13,2.41-6.79,1.52-10.28,1.34-2.5.09-5.1.27-7.6.36-2.68,1.88-5.72,1.61-8.67,1.25-1.52.18-2.95.36-4.47.45-2.15,1.7-4.56,1.61-7.06,1.25-.98.09-1.97.18-2.95.27-2.15,1.7-4.56,1.79-7.06,1.34-2.06.18-4.11.36-6.26.63-1.79,2.23-4.38.8-6.53,1.34-2.15,1.7-4.47,1.79-6.97,1.34-2.86-.45-5.18,2.32-8.13,1.61-2.86-.36-5.18,2.32-8.22,1.52-2.77.54-5.45,1.16-8.22,1.7-1.7.09-3.31.18-5.01.18-8.49,3.13-17.25,4.83-26.28,5.27-4.92,3.58-10.82,4.02-16.54,5.01-13.5,4.29-27.08,8.49-41.03,11.44-7.15,3.04-14.48,1.25-21.81,1.16-2.23-.98-4.47-1.88-6.7-2.86h-.8l-.63-.27c-4.83.89-7.87-2.68-11.53-4.74h-.09c-11.35-4.83-19.13-13.5-25.74-23.42-5.27-7.96-7.78-16.8-9.12-26.1-2.23-5.54-2.23-11.08,0-16.63,1.52-13.59,6.97-25.21,16.54-34.95.54-1.52,1.52-2.5,2.95-3.13,17.61-20.29,54.08-24.4,78.57-30.84,31.29-8.22,63.29-13.14,95.02-18.68,2.15-1.7,4.56-1.61,7.06-1.25,4.92.27,9.65-1.61,14.48-1.97,2.59-2.15,5.63-1.7,8.67-1.34,1.43-.09,2.95-.27,4.47-.36,2.68-2.06,5.72-1.61,8.67-1.25,1.52-.09,3.04-.27,4.56-.36,2.68-2.06,5.72-1.61,8.76-1.16,2.06-.18,4.11-.36,6.17-.54,3.22-2.23,6.79-1.52,10.37-1.16,3.13-.18,6.17-.36,9.3-.54,3.31-2.06,6.88-1.52,10.46-1.07,3.13-.18,6.26-.36,9.39-.45,5.54-2.5,11.26-1.52,16.89-1.34,4.83-.09,9.65-.27,14.39-.36,7.15-2.32,14.48-1.34,21.81-1.25,23.51-.54,47.11-.45,70.62,0,7.87-.27,15.73-1.25,23.42,1.16,1.61.09,3.13.27,4.74.36,4.38,0,8.76.09,13.05.09,4.56-.18,9.21-1.34,13.5,1.25,2.68.09,5.27.27,7.87.36,4.02-.36,8.13-1.25,11.98,1.16,2.06.18,4.2.27,6.26.45,4.02-.27,8.13-.98,11.89,1.34.98.09,2.06.18,3.04.36,3.49-.36,7.06-.63,10.28,1.25,2.06,0,4.11.27,6.17.36,3.04-.36,5.99-.71,8.67,1.25,2.06.18,4.11.36,6.17.54,2.5-.54,4.92-.63,7.06,1.07,1.97.18,4.02.36,6.08.54,2.5-.45,4.92-.63,7.06,1.16,8.58,1.61,17.16,3.22,25.92,3.75,2.5-.45,4.92-.63,6.97,1.34,50.41,16.63,110.21,13.68,158.39,37.9,22.61,7.33,44.96,14.48,67.22,22.88,15.55,5.81,47.38,12.07,58.19,24.94,7.24.98,13.5,4.2,19.4,8.49,1.97,1.7,4.38,2.68,6.88,3.49,9.56,2.59,18.15,7.15,26.19,12.96.8,1.34,2.23,1.52,3.49,1.79,9.21,0,60.96,28.16,62.75,37.72,1.16,1.07,2.23,2.23,3.31,3.31,5.01,3.04,8.04,7.6,9.74,13.23.54,1.25.36,2.77,1.7,3.58,3.58,3.58,3.93,8.4,5.18,12.78,1.7,2.06,1.79,4.38,1.34,6.88-.18,5.54,1.88,11.17-1.43,16.45,0,.54-.09,1.07-.36,1.52h0Zm119.33-271.91h0c-5.45,37.18-33.16,63.55-69.36,67.67-5.63,2.15-11.26,2.15-16.89,0-32.09-4.11-60.87-27.98-89.83-41.56-31.2-14.66-63.2-27.44-95.73-38.97-33.43-11.89-67.31-22.17-101.81-30.39-17.34-4.11-34.5-8.49-51.93-11.98-16.09-3.31-45.59-2.86-59.62-11.17-2.5.36-4.92.36-6.97-1.34-.98,0-1.97-.18-2.95-.27-2.5.36-4.92.45-7.06-1.25-2.06-.18-4.02-.36-5.99-.54-2.5.45-4.92.54-7.06-1.16-.98-.18-1.97-.27-2.95-.45-3.04.45-5.99.54-8.58-1.34-1.52,0-3.04-.18-4.56-.36-3.04.45-5.99.54-8.67-1.25-.98-.09-1.97-.18-2.95-.36-3.04.36-5.99.54-8.76-1.25-1.97-.09-4.02-.27-6.08-.36-3.49.36-7.06.63-10.28-1.34-2.59-.09-5.18-.27-7.78-.36-2.95.36-5.99.8-8.67-1.16-3.13-.18-6.26-.36-9.39-.54-3.58.45-7.06.98-10.37-1.16-1.52-.09-3.13-.27-4.65-.45-3.31,0-6.53,0-9.83.09-3.93,0-7.96,1.07-11.62-1.07-4.38-.27-8.76-.45-13.14-.63-5.63-.09-11.35,1.43-16.8-1.16-3.75-.18-7.51-.36-11.26-.54-6.17.18-12.42,1.16-18.5-1.16-4.29-.18-8.58-.27-12.87-.45-15.82,0-31.55,0-47.38.18-4.02.09-8.13.18-12.16.27-1.34,1.34-2.95,1.34-4.65,1.34-9.56,0-19.13,0-28.69-.18-6.53-.18-13.14.8-19.67,0-3.75.18-7.42.27-11.17.45-5.45,2.41-11.26,1.43-16.89,1.25-2.59.09-5.27.27-7.87.36-4.38,2.32-9.03,1.61-13.59,1.25-.98.18-2.06.27-3.04.36-3.13,2.5-6.7,1.34-10.1,1.34h-8.22c-2.06.09-4.11.27-6.17.45-3.22,1.97-6.79,1.52-10.28,1.25-1.52.18-3.04.27-4.56.36-2.77,1.88-5.72,1.61-8.76,1.25-1.52.09-3.04.18-4.56.36-2.68,1.79-5.63,1.61-8.67,1.25-1.43.09-2.95.27-4.47.36-2.68,1.79-5.63,1.7-8.67,1.34-1.52,0-3.13.09-4.74.18v.27c-1.97,1.79-4.38,1.52-6.79,1.25-.98.09-1.97.18-2.95.27-2.59,1.88-5.54,1.7-8.58,1.43-2.86-.45-5.18,2.32-8.22,1.34-2.06.27-4.2.54-6.35.72-1.79,2.32-4.38.89-6.53,1.52-2.06,1.7-4.47,1.7-6.97,1.34-2.15.45-4.29.98-6.44,1.43-7.69.63-14.93,4.2-22.79,3.75-4.29,1.97-8.85,2.59-13.5,3.04l-.63.36h-.8c-12.51,3.67-25.3,6.61-38.17,9.56l-.63.36h-.72c-3.13,1.79-6.61,2.5-10.19,2.86l-.63.45h-.72c-3.22,1.79-6.61,2.68-10.19,2.86l-.63.45-.71-.18c-3.31,1.43-6.53,2.68-10.1,2.95-6.79.18-13.68,1.52-20.29-1.16-.54.09-.98-.09-1.34-.36-10.99-.8-20.92-4.56-29.5-11.44h-.18c-3.4-1.52-6.26-3.58-8.49-6.44-4.02-2.5-7.33-5.81-9.74-9.83-1.79-1.25-2.95-2.95-3.75-5.01-.89-.18-1.25-.8-1.16-1.79-6.7-8.76-10.73-18.5-11.62-29.59-2.59-8.4-2.59-16.8-.18-25.21-.09-.54.09-.98.45-1.34.72-5.81.63-11.8,4.74-16.63.63-3.67,2.23-6.97,4.74-9.92,3.04-5.63,6.61-10.91,11.71-15.02,0-.89.54-1.34,1.43-1.43,11.35-11.98,25.65-18.32,41.56-21.36,3.66-1.88,7.42-3.13,11.62-3.31.36-.45.8-.63,1.34-.45,5.36-2.32,10.91-3.93,16.72-4.38,4.65-1.79,9.39-3.22,14.39-3.58,6.35-3.13,13.23-4.29,20.29-4.47.45-.27.98-.36,1.52-.36,4.11-2.5,8.67-2.95,13.32-3.22.36-.36.8-.45,1.34-.18,2.06-1.52,4.38-1.79,6.88-1.25,3.49.36,6.53-1.7,9.92-1.88,7.33-3.13,15.37-3.13,22.97-5.1,2.06-1.79,4.47-1.79,6.97-1.34,2.15-.09,4.29-.09,6.35-.18,1.79-2.23,4.38-.98,6.53-1.79,2.06-1.97,4.47-1.79,6.97-1.34.98-.09,1.97-.18,2.95-.27,2.06-1.97,4.56-1.7,7.15-1.25,1.43-.18,2.86-.27,4.38-.45,2.59-2.15,5.63-1.61,8.58-1.34,1.52-.18,3.04-.27,4.56-.45,2.15-1.88,4.56-1.61,7.06-1.16,2.59-.18,5.1-.27,7.6-.45,2.23-1.61,4.65-1.61,7.15-1.16.98-.09,1.97-.27,3.04-.45,2.59-2.15,5.72-1.61,8.76-1.16,2.5-.18,5.1-.36,7.69-.54,2.68-2.06,5.72-1.52,8.76-1.16,2.5-.09,5.1-.27,7.69-.45,3.31-2.06,6.79-1.52,10.37-1.16,3.13-.18,6.26-.36,9.39-.54,3.84-2.06,7.96-1.52,11.98-1.16,1.52-.18,3.13-.27,4.65-.36,3.22-2.5,6.79-1.43,10.28-1.25h11.44c1.52-.18,3.13-.36,4.65-.45,4.29-2.59,8.94-1.25,13.5-1.25s8.85-.72,13.23,0c2.68,0,5.27-.27,7.96-.45,7.69-2.77,15.55-1.07,23.42-1.25h75.53c8.31.18,16.72-1.61,24.94,1.25,3.22.18,6.44.36,9.56.45,5.01-.72,9.92,0,14.93,0,3.93,0,8.04-1.25,11.8,1.25,2.68.09,5.27.27,7.96.45,5.1-.36,10.28-.89,15.29,1.16,3.13.18,6.26.36,9.39.45,4.11-.27,8.22-.8,12.07,1.16,3.13.18,6.35.36,9.47.54,3.49-.45,7.06-.8,10.28,1.16,2.59.18,5.27.27,7.87.36,3.49-.27,7.06-.98,10.28,1.25,2.06.18,4.11.27,6.17.45,3.49-.27,7.06-1.07,10.28,1.25,1.52.18,3.04.27,4.56.36,3.04-.36,5.99-.8,8.67,1.25,2.06.18,4.11.36,6.08.54,2.5-.54,5.01-.8,7.15,1.07,1.52.18,3.04.27,4.56.45,2.95-.36,5.99-.8,8.58,1.34.54,0,.98.18,1.43.27,3.04-.27,5.99-.45,8.58,1.43,1.52.09,3.04.18,4.56.36,2.5-.45,4.92-.45,7.06,1.16,1.43.18,2.95.27,4.47.45,2.5-.45,4.92-.54,6.97,1.25,91.35,16.18,180.92,36.02,268.16,68.29,43.44,16.09,86.26,34.15,127.29,55.78,33.88,17.88,72.4,37.27,74.73,80.54,2.77,6.17,2.06,12.42.09,18.59Z"/>
</svg>