<?xml version="1.0" encoding="UTF-8"?>
<svg id="Layer_1" data-name="Layer 1" xmlns="http://www.w3.org/2000/svg" viewBox="0 0 2122 2122">
  <path d="m1047.74,186.32c-549.37,0-994.72,417.91-994.72,933.42s445.35,933.42,994.72,933.42,994.73-417.91,994.73-933.42S1597.12,186.32,1047.74,186.32Zm394.76,555.05c-2.69,37.64-24.2,169.38-45.7,311.87-32.26,201.64-67.22,422.09-67.22,422.09,0,0-5.38,61.84-51.08,72.59-45.7,10.75-120.98-37.64-134.42-48.39-10.75-8.06-201.64-129.05-271.54-188.2-18.82-16.13-40.33-48.39,2.69-86.03,96.79-88.72,212.39-198.95,282.29-268.85,32.26-32.26,64.52-107.54-69.9-16.14-190.88,131.74-379.08,255.41-379.08,255.41,0,0-43.01,26.89-123.67,2.69-80.66-24.19-174.75-56.46-174.75-56.46,0,0-64.52-40.33,45.71-83.34,0,0,465.11-190.88,626.42-258.09,61.83-26.89,271.54-112.92,271.54-112.92,0,0,96.79-37.64,88.72,53.77Z"/>
</svg>