<?xml version="1.0" encoding="UTF-8"?>
<svg id="Layer_1" data-name="Layer 1" xmlns="http://www.w3.org/2000/svg" viewBox="0 0 2122 2122">
  <path d="m1086.51,1065.38c-102.81,5.75-137.08,55.6-134.69,100.18l-.24.24h0c3.12,60.15,68.06,88.19,130.85,84.6,61.35-3.36,130.85-27.32,142.59-175.43-31.63-6.95-66.62-10.54-104.01-10.54-11.5,0-23.01.24-34.51.96Z"/>
  <path d="m1065.54,116.26c-549.37,0-994.72,417.91-994.72,933.42s445.35,933.42,994.72,933.42,994.72-417.91,994.72-933.42S1614.91,116.26,1065.54,116.26Zm-298.97,1276.72c67.1,85.32,170.63,129.17,307.24,130.37,123.18-.96,204.67-30.2,272.49-98.02,77.41-77.17,75.97-172.07,51.29-229.83-14.62-34.03-40.98-62.31-76.45-83.64-8.87,64.47-28.28,115.75-59.19,155.3-40.98,52.24-99.22,80.52-174.23,84.6-56.56,3.12-110.96-10.54-153.14-38.34-49.85-33.07-79.09-83.4-82.2-142.12-5.99-115.75,85.56-198.91,228.15-207.06,50.57-2.88,98.02-.72,141.88,6.71-5.75-35.47-17.49-63.75-34.99-84.36-23.97-28.04-61.35-42.42-110.72-42.66h-1.68c-39.78,0-93.47,11.02-127.74,63.03l-82.44-56.56c46.01-69.74,120.55-108.08,210.42-108.08h1.92c150.02.96,239.42,94.66,248.52,258.11l-.48.48h.24c5.27,2.16,10.07,4.55,15.1,6.71,69.98,33.79,121.27,84.36,148.11,147.15,37.63,87.47,41.22,229.59-72.62,343.19-86.75,86.75-192.44,125.82-341.75,127.02h-.72c-168.24-1.2-297.41-57.76-384.41-168.24-77.41-98.26-117.19-235.1-118.63-406.45v-1.2c1.2-171.35,40.98-308.2,118.39-406.45,86.99-110.48,216.41-167.04,384.65-168.24h.72c168.48,1.2,299.33,57.52,388.96,167.52,44.1,54.4,76.69,119.83,97.3,195.8l-96.82,25.88c-17.02-61.83-42.66-114.55-77.17-156.73-69.98-85.8-174.95-129.89-312.75-130.85-136.6,1.2-239.89,45.06-307.24,130.37-62.79,79.8-95.38,195.32-96.58,343.19,1.2,147.87,33.79,263.38,96.58,343.43Z"/>
</svg>