<?xml version="1.0" encoding="UTF-8"?>
<svg id="Layer_1" data-name="Layer 1" xmlns="http://www.w3.org/2000/svg" viewBox="0 0 2122 2122">
  <defs>
    <style>
      .cls-1 {
        fill: #fff;
      }
    </style>
  </defs>
  <path class="cls-1" d="m1061,156.93c-562.31,0-1018.14,427.75-1018.14,955.4s455.83,955.4,1018.14,955.4,1018.14-427.74,1018.14-955.4S1623.31,156.93,1061,156.93Zm443.86,856.41h-.15c-8.48.82-16.99,1.26-25.51,1.29-93.42.01-180.54-47.08-231.72-125.23v426.44c0,174.07-141.11,315.18-315.18,315.18s-315.17-141.11-315.17-315.18,141.1-315.18,315.17-315.18c6.58,0,13.01.59,19.49,1v155.31c-6.48-.77-12.83-1.96-19.49-1.96-88.83,0-160.86,72.02-160.86,160.86s72.02,160.86,160.86,160.86,167.33-70.01,167.33-158.86l1.55-724.24h148.59c14.01,133.24,121.45,237.32,255.08,247.09v172.62Z"/>
</svg>