<?xml version="1.0" encoding="UTF-8"?>
<svg id="Layer_1" data-name="Layer 1" xmlns="http://www.w3.org/2000/svg" viewBox="0 0 2122 2122">
  <path d="m1066.81,109.09c-556.17,0-1007.04,423.08-1007.04,944.98s450.86,944.98,1007.04,944.98,1007.04-423.08,1007.04-944.98S1622.99,109.09,1066.81,109.09Zm666.57,705.34c-22.22,57.82-42.58,117-66.88,173.96-9.92,23.25-24.49,31.07-49,33.34-29.83,2.76-59.87,3.77-89.77,5.58-63.73,3.87-127.8,6.26-191.26,13.46-52.06,5.91-103.77,11.57-148.63,40.84-79.14,51.63-120.04,150.58-106.89,243.2,13.78,97.06,94.38,183.82,199.21,163.28,43.26-8.48,82.76-36.74,100.39-77.78,16.74-38.95,12.44-94.13-25.89-119.2-31.18-20.4-101.91-4.54-79.78,43.92,9.01,19.73,40.28,31.08,20.93,56.46-13.3,17.45-41.8,14.06-59.67,6.42-39.84-17.05-56.85-66.98-52.84-107.34,4.62-46.38,34.25-87,75.81-107.42,96.94-47.63,216.14.08,257.21,98.22,39.88,95.3,14.27,206.66-51.99,283.05-68.01,78.4-164.59,120.31-267.14,127.31-188.06,12.84-379.71-101.19-464.47-267.96-48.72-95.86-67.57-205.55-64-312.44.34-10.17,7.45-32.71-3.73-38.33-8.4-4.22-28.54.94-37.91,1.38-30.1,1.42-60.23,2.33-90.32,3.96-22,1.19-55.79,8.24-73.79-8.4-17.72-16.38-17.5-52.58-21.26-74.36-21.8-126.38-41.35-253.25-60.51-380.05-1.6-10.56-19.04-76.15,3.2-77.22,3.8-.18,430.05,47.02,460.79,51.75,18.04,2.78,31.24,5.82,47.15-4.2,46.05-29.01,86.72-66.45,133.47-95.11,51.91-31.83,106.75-62.3,166.76-75.34h9.08c51.65,2.68,64.22,67.13,80.52,106,12.48,29.76,24.91,59.56,38.83,88.69,8.77,18.35,17.78,45.38,37.97,54.42,22.17,9.92,56.32,8.35,80.42,11.74,28.73,4.04,57.41,8.36,86.14,12.36,61,8.5,121.85,17.02,182.82,25.18,17.07,2.28,48.63,2.1,51.77,23.86,3.07,21.25-19.32,57.44-26.76,76.78Z"/>
</svg>