<?xml version="1.0" encoding="UTF-8"?>
<svg id="Layer_1" data-name="Layer 1" xmlns="http://www.w3.org/2000/svg" viewBox="0 0 2122 2122">
  <polygon points="1075.96 961.87 779.4 530.99 621.66 530.99 988.37 1063.78 1033.37 1129.14 1349.39 1588.29 1507.13 1588.29 1120.96 1027.23 1075.96 961.87"/>
  <path d="m1063.71,126.22c-549.37,0-994.72,417.91-994.72,933.42s445.35,933.42,994.72,933.42,994.72-417.91,994.72-933.42S1613.08,126.22,1063.71,126.22Zm244.09,1541.21l-23.6-34.25-304.18-441.96-409.33,476.2h-100.94l465.27-541.53-378.58-550.06-85.33-124h349.87l23.6,34.28,284.72,413.65,298.9-347.89,86.41-100.04h100.94l-441.24,513.33,398.04,578.26,85.33,124h-349.87Z"/>
</svg>