<?xml version="1.0" encoding="UTF-8"?>
<svg id="Layer_1" data-name="Layer 1" xmlns="http://www.w3.org/2000/svg" viewBox="0 0 2122 2122">
  <defs>
    <style>
      .cls-1 {
        fill: #fff;
      }
    </style>
  </defs>
  <polygon class="cls-1" points="1073.25 963.23 776.69 532.35 618.95 532.35 985.66 1065.14 1030.66 1130.5 1346.68 1589.65 1504.42 1589.65 1118.25 1028.59 1073.25 963.23"/>
  <path class="cls-1" d="m1061,127.58c-549.37,0-994.72,417.91-994.72,933.42s445.35,933.42,994.72,933.42,994.72-417.91,994.72-933.42S1610.37,127.58,1061,127.58Zm244.09,1541.21l-23.6-34.25-304.18-441.96-409.33,476.2h-100.94l465.27-541.53-378.58-550.06-85.33-124h349.87l23.6,34.28,284.72,413.65,298.9-347.89,86.41-100.04h100.94l-441.24,513.33,398.04,578.26,85.33,124h-349.87Z"/>
</svg>