<?xml version="1.0" encoding="UTF-8"?>
<svg id="Layer_1" data-name="Layer 1" xmlns="http://www.w3.org/2000/svg" viewBox="0 0 2122 2122">
  <defs>
    <style>
      .cls-1 {
        fill-rule: evenodd;
      }
    </style>
  </defs>
  <path class="cls-1" d="m1068.8,657.44c-236.52,0-428.96,192.42-428.96,428.96,0,78.1,21.7,155,62.74,222.41l11.12,18.26-42.86,159.94,160.85-43.1,18.13,10.81c66.57,39.67,142.3,60.65,218.98,60.65,236.53,0,428.97-192.43,428.97-428.97s-192.44-428.96-428.97-428.96Zm251.98,590.97c-15.97,38.75-55.61,63.64-95.83,71.28-38.41,7.29-70.11-4.94-105.67-16.69-31.72-10.48-62.35-25.75-90.78-43.17-56.91-34.86-106.06-81.5-145.57-135.17-12.07-16.41-23.27-33.46-33.56-51.04-13.66-23.32-25.8-47.83-32.15-74.09-2.64-10.91-4.03-22.2-4.16-33.51-.46-39.81,14.73-79.97,46.21-105.61,18.23-14.85,45.19-21.33,65.67-9.76,22.26,12.58,33.8,44.28,44.13,66.51,8.07,17.4,17.24,40.24,13.91,59.77-3.33,19.54-18.79,36.01-31.11,50.5-8.32,9.79-9.55,18.11-2.65,28.68,40.76,67.94,97.36,117.25,171.22,146.67,10.05,4.04,17.86,2.78,24.4-5.29,12.75-15.73,25.31-46.53,44.99-54.58,25.65-10.49,53.98,4.04,75.75,17.07,20.27,12.12,54.18,27.01,59.65,52.07,2.65,12.12.28,24.9-4.44,36.37Z"/>
  <path class="cls-1" d="m1063.59,159.52c-549.37,0-994.72,417.91-994.72,933.42s445.35,933.42,994.72,933.42,994.72-417.91,994.72-933.42S1612.96,159.52,1063.59,159.52Zm5.21,1455.85c-87.56,0-174.03-22.11-251.43-64.09l-287.95,77.14,76.78-286.47c-43.47-78.43-66.35-166.32-66.35-255.53,0-291.66,237.29-528.95,528.95-528.95s528.95,237.29,528.95,528.95-237.29,528.95-528.95,528.95Z"/>
</svg>