<?xml version="1.0" encoding="UTF-8"?>
<svg id="Layer_1" data-name="Layer 1" xmlns="http://www.w3.org/2000/svg" viewBox="0 0 2122 2122">
  <defs>
    <style>
      .cls-1 {
        fill: #fff;
      }
    </style>
  </defs>
  <g>
    <path class="cls-1" d="m989.14,919.29c-104.46.33-195.6,65.9-201.51,175.65-3.64,67.65,40.1,97.35,84.53,139.24,18.58,17.52,35.57,44.24,22.73,70.17-11.81,23.86-39.49,24.53-62.03,18.06-16.35-4.7-31.35-12.85-45.66-21.9-5.75-3.63-17.57-16.1-24.46-12.73-7,3.43-24.04,65.97-23.48,74.17,1.61,23.58,45.01,42.55,63.81,50.36,25.05,10.4,52.07,15.27,79.14,15.49,48.07.33,87.12-17.88,115.44-57.13,38.82-53.81,40.23-135.49-2.4-187.33-22.19-26.98-52.15-43.99-78.39-66.32-21.92-18.66-36.88-44.4-15.3-70.26,18.74-22.44,53.92-20.93,80-16.64,11.22,1.85,30.22,12.73,41.28,11.23,10.63-1.43,10.88-9.22,14.24-18.88,6.53-18.78,12.65-37.72,19-56.57,2.31-6.87,11.97-23.37,8.12-31.34-8.27-17.11-59.27-15.31-75.07-15.26Z"/>
    <path class="cls-1" d="m856.47,798.76c18.16-5.36,36.18-11.18,54.35-16.49,5.56-1.63,7.93-5.01,9.1-10.4,3.1-14.25,6.71-28.39,11.5-42.19,15.63-45.04,38.69-84.71,80.12-111.15,2.07-1.32,4.29-2.67,4.24-6.21-4.62-5.43-11.04-3.76-16.97-3.15-32,3.31-57.18,19.5-78.45,42.55-36.45,39.49-57.28,87.47-73.9,137.62-3.35,10.12-.55,12.54,10,9.42Z"/>
    <path class="cls-1" d="m1090.22,642.1c-4.55,1.71,2.18,81.97,12.98,80.52,10.14-3.26,21.7-6.83,33.14-10.74,9.53-3.26-25.4-77.55-46.12-69.77Z"/>
    <path class="cls-1" d="m1042.38,131.87c-556.17,0-1007.04,423.08-1007.04,944.98s450.86,944.98,1007.04,944.98,1007.04-423.08,1007.04-944.98S1598.56,131.87,1042.38,131.87Zm438.34,1384.03c-9.49,7.08-33.3,7.3-45.03,9.84-14.98,3.24-29.97,6.48-44.95,9.73-64.93,14.04-129.86,28.07-194.8,42.04-6.96,1.5-13.69,4.36-21.11,4.5-113.78-20.68-227.38-42.3-341.04-63.59-55.93-10.48-111.84-21.03-167.79-31.38-14.9-2.76-55.89-2.66-65.7-14.63-5.4-6.58.36-22,1.33-29.42,2.21-16.93,4.41-33.85,6.61-50.78,14.87-114.64,29.89-229.26,45.07-343.85,7.49-56.56,10.72-115.45,21.95-171.35,9.13-45.43,78.56-38.96,112.73-56.77,18.07-9.42,19.12-35.18,25.21-53.16,8.97-26.44,19.92-52.25,33.49-76.67,23.44-42.2,54.87-82.13,99.01-103.86,19.65-9.67,41.73-15.33,63.71-14.8,10.16.24,19.65,1.62,28.79,6.29,10.38,5.31,16.79,16.85,26.67,21.84,16.21,8.2,35.49,4.67,52.24,15.4,18.03,11.54,31.66,29.6,41.97,48.07,11.27,20.16,8.92,38.63,34.51,31.31,27.11-7.75,34.37.58,53.69,19.68,15.76,15.59,29.43,35.64,51.8,40.36,19.75,4.17,56.04-5.05,72.8,6.94,13.34,9.55,11.49,48.24,13.74,63.5,4.09,27.72,8.22,55.44,12.31,83.16,8.34,56.59,16.66,113.17,25.08,169.75,18.79,126.21,36.82,252.54,55.89,378.7,2.33,15.41,15.29,49.12,1.83,59.15Z"/>
    <path class="cls-1" d="m964.41,756.57c-2.28,7.78,2.03,8.32,8.24,6.35,22.47-7.1,45.12-13.62,67.46-21.09,20.44-6.84,17.98-1.39,18.01-28.76-.28-13.63-2.34-31.48-6.38-49.04-4.23-18.37-6.98-19.56-22.18-8.73-35.15,25.04-53.38,61.16-65.15,101.27Z"/>
  </g>
  <g>
    <path d="m1197.29,982.42c-61.29-24.75-108.5,46.82-77.87,98.78,29.95,50.8,118.31,30.92,116.08-30.74,0-33.71-9.78-56.56-38.22-68.04Z"/>
    <path d="m1620.24,1037.99c.52-36.53-33.66-65.12-69.88-60.41-36,4.68-58.99,39.52-55.48,74.29,3.41,33.79,29.75,59.28,63.86,58.91,35.46-.39,64.78-28.79,61.49-64.89,0-3.3-.03-5.6,0-7.9Z"/>
    <path d="m1046.91,100.08c-556.17,0-1007.04,423.08-1007.04,944.98s450.86,944.98,1007.04,944.98,1007.04-423.08,1007.04-944.98S1603.09,100.08,1046.91,100.08Zm-176.96,1051.68c-31.05,51.02-80.64,88.9-143.6,63.48-23.77-9.6-38.85-32.69-41.97-57.41-1.99-15.79-.42-32.28-.46-48.16-.02-6.65,4.35-38.33-2.71-41.94-9,1.99-19,30.63-23.23,38.36-7.32,13.38-14.2,26.97-21.37,40.43-13.13,24.63-28.95,49.56-53.83,63.79-44.16,25.24-112.08,13.12-131.25-37.6-10.54-27.88-5.42-61.99-5.4-91.27.03-32.41.32-64.84,0-97.24-.1-9.98,2.13-17-6.97-21.55-10.31-5.16-31.82-.09-43.79-2.48-9.06-1.81-18.55-4.3-25.71-10.43-9.6-8.22-7.05-21.82-14.74-29.39v-17.29c4.48-8.19,5.28-17.36,12.35-24.21,5.83-5.65,17.87-6.28,22.33-12.09h137c9.56,11.75,24.47,8.07,33.16,23.68,8.88,15.94,9.18,32.66,9.09,50.44-.1,20.27-.09,40.55-.05,60.82.02,9.39-5.25,51.05,2.31,56.26,11.61-3.04,25.17-43.7,30.37-54.01,9.25-18.33,18.63-36.57,28.24-54.72,8.9-16.8,16.52-35.22,27.52-50.79,11.38-16.09,25.96-22.72,42.76-31.68h41.62c13.06,8.01,24.33,12.31,31.65,26.8,8.02,15.88,7.93,33.81,8.21,51.12.35,21.99.31,43.98.32,65.97,0,9.26-5.56,42.55,3.62,46.31,21.36-35.22,38.99-72.5,59.19-108.38,19.84-35.24,31.13-63.11,68.69-81.82h52.02c7.69,8.11,20.68,8.51,28.55,17.55,6.52,7.49,9.71,17.06,9.67,26.91-.11,26.97-21.56,53.18-34.6,75.25-32.66,55.29-65.63,110.43-99.01,165.29Zm419.04,32.34c-57.71,45.79-144.92,51.45-208.95,15.43-61.71-34.71-96.06-105.23-88.15-175.23,4.43-39.19,21.1-77.06,48.86-105.36,13.18-13.44,28.57-25.11,45.38-33.69,8.49-4.33,17.4-7.81,26.52-10.56,6.38-1.92,22.91-2.28,27.84-7.95h64.16c13.91,6.92,30.27,8.08,44.69,14.02,16.56,6.81,30.53,17.06,44.22,28.41,25.49,21.13,44.69,50.81,53.63,82.78,19.13,68.45-1.77,147.38-58.19,192.14Zm376.37,6.25c-57.37,39.9-139.77,43.19-200.57,8.8-63.9-36.14-91.32-103.31-86.55-174.21,2.61-38.84,19.88-77.83,47.31-105.67,13.28-13.48,28.89-24.95,45.75-33.6,9.48-4.86,19.47-8.85,29.69-11.84,6.36-1.86,19.74-1.94,24.46-7.1h64.16c14.44,9.18,33.86,8.63,49.44,16.14,15.78,7.61,31.39,18.19,44.34,29.91,25.23,22.82,42.7,54.95,50.48,87.87,16.61,70.2-8.44,147.9-68.52,189.69Z"/>
  </g>
</svg>