<?xml version="1.0" encoding="UTF-8"?>
<svg id="Layer_1" data-name="Layer 1" xmlns="http://www.w3.org/2000/svg" viewBox="0 0 2122 2122">
  <path d="m815.41,1387.86c-.77-5.87-1.01-10.53-2.02-15.02-16.34-72.85-25.08-146.64-27.7-221.21-.57-16.29-1.61-17.3-17.78-17.31-74.98-.05-149.96-.05-224.95-.02-17.41,0-18.12.26-16.47,18.29,8.89,96.95,41.16,185.6,94.9,266.67,4.96,7.48,10.35,7.07,17.4,5.08,29.51-8.32,59.39-15.1,89.55-20.64,28.4-5.21,56.81-10.34,87.08-15.84Z"/>
  <path d="m847.47,1492.08c-7.99-22.25-6.96-32.69-31.65-30.93-43.56,3.11-97.78,12.76-138.73,28.41,70.36,74.87,152.05,127.63,248.69,157.08-18.05-28.19-35.31-56.04-49.44-85.66-10.73-22.48-20.46-45.47-28.87-68.91Z"/>
  <path d="m1065.17,1466c-1.3-34.04-22.42-24.07-50.93-22.89-33.91,1.41-70.67.09-103.82,7.84,1.06,4.57,1.5,7.91,2.61,11.01,15.95,44.35,35.75,87.58,62.44,126.56,16.17,23.62,54.85,78.76,88.27,77.34,8.32-29.77,1.23-71.06,1.26-102.07.04-32.51,1.41-65.33.17-97.79Z"/>
  <path d="m542.26,1061.89c74.11,0,148.23-.01,222.34,0,19.99,0,20.61-.78,21.23-20.64,1.75-55.75,7.28-111.13,17.34-166.02,4.04-22.04,8.15-44.06,12.15-65.67-1.66-1.07-2.31-1.8-3.07-1.93-59.19-9.81-118.27-20.17-176.15-36.25-7.74-2.15-11.68,1.2-15.59,7.13-53.46,81.17-85.66,169.82-94.11,266.84-1.44,16.5-1.14,16.54,15.85,16.54Z"/>
  <path d="m825.15,736.35c8.9,1.28,11.82-2.77,14.36-10.21,14.35-41.98,30.45-83.26,52.94-121.7,9.83-16.8,20.17-33.29,30.28-49.93-1-1.44-2.01-2.89-3.01-4.33-93.75,30.55-173.49,83.19-242.61,156.22,4.27,1.72,6.46,2.92,8.81,3.49,45.95,11.23,92.42,19.72,139.24,26.45Z"/>
  <path d="m1363.57,727.19c3.29,10,9.84,10.24,18,8.8,29.35-5.17,58.79-9.91,88.04-15.62,18.18-3.55,36.67-6.34,56.19-14.06-69.85-74.25-151.2-126.71-249.38-158.67,1.6,4.7,1.74,6.05,2.43,7.01,38.22,52.61,64.5,111.11,84.72,172.53Z"/>
  <path d="m1054.3,826.9c-50.64-1.71-101.29-3.61-151.68-9.36-10.46-1.19-15.21,2.42-17.65,12.84-16.68,71.17-24.09,143.48-28.42,216.26-.7,11.82,3.26,15.49,15.02,15.39,59.67-.5,119.36-.52,179.03-.1,11.14.08,14.91-3.29,14.72-14.57-.6-34.09-.22-68.2-.18-102.3,0-34.96-.1-69.91.08-104.86.04-7.85-1.38-12.98-10.92-13.3Z"/>
  <path d="m1048.48,1134.12c-57.9.55-115.81.19-173.72.21-18.11,0-18.97.74-17.94,18.63,4.12,70.97,11.55,141.48,27.55,210.94,2.76,11.97,7.32,16.25,19.67,14.73,48.61-5.98,97.55-7.62,146.46-8.98,12.2-.34,15.04-4.96,14.87-16.05-.51-33.63-.19-67.27-.19-100.91h-.05c0-34.06-.57-68.14.29-102.18.34-13.29-4.37-16.51-16.93-16.4Z"/>
  <path d="m923.77,747.45c42.36,4.7,84.91,5.12,127.4,7.17,11.83.57,14.26-4.31,14.2-14.93-.35-65.58-.15-131.16-.22-196.73,0-4.12,1.03-8.52-3.02-13.79-25.48,10.42-45.28,27.58-62.74,47.56-39.87,45.63-64.83,99.54-85.79,155.68-4.15,11.12-.51,13.85,10.16,15.04Z"/>
  <path d="m1101.48,195.6c-531.25,0-961.92,404.13-961.92,902.64s430.66,902.64,961.92,902.64,961.93-404.13,961.93-902.64S1632.74,195.6,1101.48,195.6Zm649.59,907.91c-2.59,358.4-293.44,643.18-648.97,644.48-359.9-1.06-649.82-289.44-650.22-649.74-.39-360.11,289.22-650.01,649.57-649.77,362.95.25,652.24,292.76,649.62,655.03Z"/>
  <path d="m1148.59,1061.8c62.21-.15,124.42-.11,186.64.03,8.45.02,11.39-3.9,10.84-11.82-.88-12.74-1.56-25.49-2.27-38.24-3.39-60.9-12.42-120.98-25.49-180.54-2.39-10.88-6.58-15.06-17.93-13.66-49.5,6.1-99.34,7.34-149.12,9.2-10.56.39-13.92,4.36-13.8,14.6.43,34.08.16,68.18.16,102.26h.15c0,34.94.06,69.88-.05,104.82-.02,7.64,1.09,13.37,10.86,13.34Z"/>
  <path d="m1462.12,794.87c-24.64,4.27-49.23,8.87-73.47,13.26-1.33,5.95.19,10.45,1.16,14.98,8.42,39.11,15.02,78.49,19.72,118.25,3.95,33.44,6.98,66.88,7.64,100.56.38,19.6,1.3,19.97,20.58,19.98,35.37.03,70.74,0,106.11-.02,40.91-.01,81.82-.03,122.73-.03,6.24,0,11.86.43,11.09-9.18-7.94-99.35-40.03-190.24-94.38-273.59-5.55-8.51-11.49-9.45-20.3-7.01-33.25,9.22-66.85,16.9-100.87,22.8Z"/>
  <path d="m1386.71,1461.52c-20.17-2.98-19.97-2.89-26.11,15.65-18.86,56.93-44.29,110.65-78.55,160.04-1.8,2.59-5.29,4.6-3.12,10.83,95.24-31.65,176.78-83.73,247.01-158.81-6.96-1.99-10.97-3.28-15.05-4.29-40.94-10.2-82.48-17.26-124.18-23.41Z"/>
  <path d="m1658.48,1134.29c-73.26,0-146.51-.03-219.77-.01-20.81,0-21.37.37-21.68,21.38-.67,46.49-5.68,92.59-12.72,138.46-4.76,31.01-10.93,61.81-16.55,93.14,1.73.66,3.21,1.54,4.79,1.79,59.3,9.28,118.13,20.92,176.17,36.29,7.38,1.96,10.31-2.37,13.17-7,9.62-15.57,19.56-30.98,28.25-47.06,36.66-67.83,59.11-140.08,66.25-216.98,1.86-20.04,2.14-20-17.91-20Z"/>
  <path d="m1137.8,742.39c7.97,22.22,44.22,11.07,64.27,10.15,17.13-.78,73.17,5.01,85.68-6.89,10.61-10.09-9.28-41.97-14.48-54.03-21.52-49.87-50.04-101.85-92.28-137.32-15.6-13.1-35.17-34.17-43.28-9.97-8.75,26.11-.06,69.47-.03,97.11,0,27.89-9.19,74.98.12,100.94Z"/>
  <path d="m1278.93,1448.94c-41.91-4.11-83.96-5.69-126.01-7.51-11.81-.51-15.54,3.74-15.47,15.35.38,65.52.12,131.04.25,196.56,0,4.35-1.65,9.46,4.78,14.44,83.52-47.33,117.52-129.49,150.3-212.65-5.28-5.69-9.66-5.79-13.85-6.2Z"/>
  <path d="m1153.72,1369.7c48.94,1.37,97.89,3.38,146.59,8.85,10.5,1.18,15.55-2.14,17.76-12.71,5.38-25.82,10.4-51.67,14.6-77.72,7.33-45.47,10.25-91.31,13.57-137.15.91-12.55-2.46-17.12-15.96-16.95-58.38.74-116.77.32-175.16.38-16.78.02-17.46.71-17.49,17.11-.05,33.67-.01,67.34.01,101.01,0,33.24.41,66.49-.21,99.73-.23,12.24,2.9,17.08,16.3,17.46Z"/>
</svg>