<svg width="61" height="57" viewBox="0 0 61 57" fill="none" xmlns="http://www.w3.org/2000/svg">
<g clip-path="url(#clip0_4124_1383)">
<path d="M35.2236 28.3321L28.0818 24.7083C27.7874 24.5528 26.7891 24.7442 26.7891 25.0671V32.1473C26.7891 32.4582 27.7874 32.6615 28.069 32.506L35.518 29.0616C35.8252 28.9062 35.518 28.4995 35.2108 28.3441L35.2236 28.3321Z" fill="black" fill-opacity="0.5"/>
<path d="M30.5 0C13.6565 0 0 12.761 0 28.5C0 44.239 13.6565 57 30.5 57C47.3435 57 61 44.239 61 28.5C61 12.761 47.3435 0 30.5 0ZM45.3084 32.1118C45.3084 35.4725 42.4031 38.1874 38.8065 38.1874H22.1807C18.5841 38.1874 15.6788 35.4725 15.6788 32.1118V24.8882C15.6788 21.5275 18.5841 18.8126 22.1807 18.8126H38.8065C42.4031 18.8126 45.3084 21.5275 45.3084 24.8882V32.1118Z" fill="black" fill-opacity="0.5"/>
</g>
<defs>
<clipPath id="clip0_4124_1383">
<rect width="61" height="57" fill="white"/>
</clipPath>
</defs>
</svg>
