<svg width="83" height="82" viewBox="0 0 83 82" fill="none" xmlns="http://www.w3.org/2000/svg">
<g clip-path="url(#clip0_2260_120)">
<path d="M54.2036 1.15159C57.8828 1.15159 62.8345 0.256338 66.2781 1.80496C69.2871 3.15721 70.3597 6.07504 70.465 9.17316C70.6132 13.5048 70.8845 18.1489 70.4151 22.4609C70.0733 25.5957 68.1235 28.1136 64.9949 28.8794C61.4924 29.7372 56.5853 27.6771 53.7075 30.0202C52.1066 31.3233 50.5672 33.1906 48.7915 34.242C46.4758 35.613 45.8922 33.436 45.91 31.525C45.9288 29.4676 45.91 29.2534 43.9263 28.9758C42.1925 28.7331 40.6362 27.7709 39.5377 26.4106C37.015 23.2884 38.0858 18.015 38.0894 14.2778C38.093 10.3603 37.1792 5.58233 40.6014 2.77162C44.053 -0.0632039 50.08 1.15248 54.2027 1.1507L54.2036 1.15159ZM54.209 7.3898C52.6687 7.32107 51.5158 7.97176 50.5503 8.93574C49.2921 10.1925 49.2448 13.304 51.3811 11.6054C52.6036 10.6334 53.1015 8.93931 55.1781 9.82207C56.7209 10.479 57.2287 12.5087 56.1632 13.8038C55.1183 15.0731 52.9382 15.2882 52.9472 17.409C52.9498 18.1284 53.1194 18.7532 53.9502 18.8915C54.8988 19.0495 54.8077 18.3096 55.2316 17.8017C55.8563 17.0546 55.9812 16.7877 56.8682 16.1495C57.4589 15.7247 57.9756 15.2007 58.362 14.5804C60.2092 11.617 57.8176 7.2336 54.209 7.38801V7.3898ZM54.1554 22.7358C54.7221 22.726 55.3048 22.1325 55.2468 21.538C54.9291 18.2792 51.1053 22.7867 54.1554 22.7358Z" fill="url(#paint0_linear_2260_120)"/>
<path d="M67.8594 33.6323C71.2976 33.6323 76.053 32.7585 79.2253 34.2562C82.6895 35.8914 82.9224 39.0761 82.9224 42.4572C82.9224 44.7645 82.9233 47.0718 82.9224 49.3791C82.9224 51.3285 83.2311 53.5421 82.6091 55.4183C82.1451 56.8187 81.1796 58.038 79.9347 58.8252C78.4151 59.7857 76.2796 59.2778 75.8281 61.0165C75.5015 62.2733 76.3314 63.929 74.9679 64.8073C73.342 65.8543 71.5448 63.5309 70.4169 62.575C68.7758 61.1834 67.7906 60.0275 65.616 59.9213C63.4645 59.816 61.2782 60.1061 59.1303 59.899C51.0848 59.1243 52.6 50.1057 52.6018 44.3084C52.6018 40.8372 52.244 37.0286 55.4806 34.8194C58.7698 32.5746 64.0838 33.6323 67.8594 33.6323ZM67.6015 42.4233C68.426 42.3992 69.0507 42.6241 69.4942 43.2632C70.8104 45.1626 68.9935 45.824 67.829 46.8513C67.0723 47.5199 65.5749 49.9013 67.415 50.3958C68.5197 50.6921 69.2969 48.749 70.0421 48.117C71.3039 47.0477 72.2364 45.9008 72.0856 44.146C71.8125 40.9836 68.2698 39.1091 65.5249 40.6756C64.6835 41.1558 62.2794 43.4256 63.9482 44.3887C65.3616 45.2045 66.022 42.2626 67.6024 42.4233H67.6015ZM67.5943 53.8813C68.2288 53.7893 68.6741 53.4662 68.8124 52.8521C69.4228 50.136 64.1605 53.0655 67.5943 53.8813Z" fill="url(#paint1_linear_2260_120)"/>
<path d="M17.4394 77.3179C19.382 75.4498 21.3006 73.5664 23.1879 71.6412C24.9325 69.8614 26.1764 68.1583 28.7982 68.0003C34.0916 67.6817 39.4699 68.4466 44.7598 68.0012C46.6177 67.845 48.3712 67.222 49.7588 65.9474C50.9706 64.8335 51.5239 62.4682 52.9418 61.7175C54.4829 60.9017 56.032 62.1388 55.9955 63.7088C55.9491 65.6752 54.126 67.7567 52.7482 68.984C48.9637 72.3552 44.6259 72.1678 39.8625 72.1526C37.115 72.1437 34.3665 72.1624 31.6189 72.1624C28.4742 72.1624 27.8264 73.0032 25.6276 75.2088C23.1076 77.7357 18.8814 84.1568 14.7132 81.2694C12.9463 80.0456 13.0472 78.1186 13.0418 76.179C13.04 75.5203 13.4121 73.1791 12.9972 72.6132C12.468 71.892 11.0233 72.1321 10.2113 71.9884C6.17422 71.2734 2.66279 68.3083 1.14668 64.5184C-0.712996 59.8681 0.250751 53.8825 0.251643 48.9662C0.251643 43.4376 0.0562166 37.8697 0.258782 32.3455C0.401559 28.4646 1.90251 25.0014 5.01773 22.595C9.21181 19.3559 14.317 19.9173 19.3258 19.9084C21.9663 19.903 24.6068 19.903 27.2473 19.903C29.1524 19.903 33.0155 19.1077 34.5173 20.576C35.7032 21.7346 35.1116 23.4314 33.6999 24.0089C31.4752 24.9193 27.7746 24.1883 25.3965 24.1865C22.6079 24.1838 19.8202 24.182 17.0315 24.174C14.7194 24.1677 12.2414 23.8982 10.0123 24.6497C3.91656 26.7053 4.4136 32.8927 4.38951 38.1589C4.36095 44.5524 4.34846 50.9459 4.40111 57.3394C4.43948 62.0129 5.51477 66.5945 10.7458 67.8191C12.6733 68.2708 15.1621 67.3755 16.5773 69.1678C17.9971 70.9664 17.1948 75.0651 17.1948 77.2001C17.2769 77.2394 17.3599 77.2787 17.442 77.3179H17.4394Z" fill="url(#paint2_linear_2260_120)"/>
<path d="M26.2353 51.7358C26.0702 49.8998 26.7698 48.1218 28.1039 46.8588C29.4924 45.544 31.4485 45.2798 32.621 43.6919C34.7216 40.8491 33.2796 36.8852 29.8984 35.8721C28.2744 35.3847 26.3442 35.6266 24.9762 36.654C23.734 37.5867 23.5306 39.4067 22.3402 40.2484C20.7241 41.3909 18.9332 39.8226 19.084 38.1169C19.2294 36.4746 20.7902 34.6377 21.9904 33.6371C28.3886 28.3039 38.7962 33.3291 37.7798 41.8479C37.554 43.7419 36.7339 45.5556 35.4302 46.9516C34.1943 48.2753 32.3194 48.6832 31.0987 49.8766C29.678 51.2663 31.237 54.0065 28.9749 54.8304C26.7538 55.6391 26.2362 53.3228 26.2344 51.7367L26.2353 51.7358Z" fill="url(#paint3_linear_2260_120)"/>
<path d="M26.2362 59.1984C26.2389 57.4499 28.0932 56.2538 29.5906 57.4508C31.0835 58.6442 30.2857 61.4236 28.2788 61.4218C27.0964 61.421 26.2344 60.4829 26.2362 59.1984Z" fill="url(#paint4_linear_2260_120)"/>
<path d="M24.7406 6.96776C24.7272 8.25932 22.9568 9.86952 21.6432 9.39914C19.4632 8.61903 21.3256 6.17962 22.5347 5.47984C23.5574 4.88806 24.7531 5.7369 24.7406 6.96687V6.96776Z" fill="url(#paint5_linear_2260_120)"/>
<path d="M24.7076 2.62876C24.6621 7.63343 17.1092 -0.422063 22.3295 0.0179769C23.378 0.106342 24.7174 1.57641 24.7076 2.62876Z" fill="url(#paint6_linear_2260_120)"/>
<path d="M27.6203 5.35462C29.2015 5.33052 30.988 7.95559 29.5478 9.13736C28.136 10.2959 25.7856 8.22961 26.0747 6.64886C26.2202 5.85268 26.6556 5.32606 27.6212 5.35462H27.6203Z" fill="url(#paint7_linear_2260_120)"/>
<path d="M30.1644 1.62557C30.1662 2.94033 28.3029 4.4104 27.0724 3.99446C24.7576 3.21168 26.744 0.500032 28.2297 0.0707033C29.1899 -0.206888 30.1626 0.614282 30.1644 1.62557Z" fill="url(#paint8_linear_2260_120)"/>
<path d="M10.8216 10.7228C10.8421 12.2982 8.91644 12.7257 7.92503 11.7314C6.96931 10.7728 7.33964 8.81355 8.91912 8.80373C9.76061 8.79838 10.8109 9.85786 10.8216 10.7228Z" fill="url(#paint9_linear_2260_120)"/>
<path d="M12.8446 12.3436C11.1911 12.3552 10.9028 10.4192 11.8684 9.46241C12.866 8.47343 14.7248 8.79119 14.7078 10.4951C14.6998 11.3493 13.703 12.3374 12.8446 12.3436Z" fill="url(#paint10_linear_2260_120)"/>
<path d="M10.7476 14.3636C10.7618 15.7659 8.88074 16.8093 7.80188 15.773C6.71767 14.7323 7.75012 12.7766 9.1538 12.7195C10.0256 12.6838 10.7368 13.4184 10.7467 14.3636H10.7476Z" fill="url(#paint11_linear_2260_120)"/>
<path d="M13.0837 16.1833C11.4998 16.1637 10.5557 14.0215 11.9737 13.0807C13.0614 12.3586 14.7632 13.3021 14.7043 14.6775C14.6659 15.5826 14.0064 16.1949 13.0837 16.1833Z" fill="url(#paint12_linear_2260_120)"/>
</g>
<defs>
<linearGradient id="paint0_linear_2260_120" x1="37.8606" y1="17.7827" x2="70.6785" y2="17.7827" gradientUnits="userSpaceOnUse">
<stop offset="0.5" stop-color="#D43AB6"/>
<stop offset="1" stop-color="#9321BD"/>
</linearGradient>
<linearGradient id="paint1_linear_2260_120" x1="52.4873" y1="49.2258" x2="82.999" y2="49.2258" gradientUnits="userSpaceOnUse">
<stop offset="0.5" stop-color="#D43AB6"/>
<stop offset="1" stop-color="#9321BD"/>
</linearGradient>
<linearGradient id="paint2_linear_2260_120" x1="0.00121307" y1="50.8445" x2="55.9961" y2="50.8445" gradientUnits="userSpaceOnUse">
<stop offset="0.5" stop-color="#D43AB6"/>
<stop offset="1" stop-color="#9321BD"/>
</linearGradient>
<linearGradient id="paint3_linear_2260_120" x1="19.0751" y1="43.2196" x2="37.849" y2="43.2196" gradientUnits="userSpaceOnUse">
<stop offset="0.5" stop-color="#D43AB6"/>
<stop offset="1" stop-color="#9321BD"/>
</linearGradient>
<linearGradient id="paint4_linear_2260_120" x1="26.2362" y1="59.1948" x2="30.3629" y2="59.1948" gradientUnits="userSpaceOnUse">
<stop offset="0.5" stop-color="#D43AB6"/>
<stop offset="1" stop-color="#9321BD"/>
</linearGradient>
<linearGradient id="paint5_linear_2260_120" x1="20.6367" y1="7.38493" x2="24.7407" y2="7.38493" gradientUnits="userSpaceOnUse">
<stop offset="0.5" stop-color="#D43AB6"/>
<stop offset="1" stop-color="#9321BD"/>
</linearGradient>
<linearGradient id="paint6_linear_2260_120" x1="20.4913" y1="2.13692" x2="24.7077" y2="2.13692" gradientUnits="userSpaceOnUse">
<stop offset="0.5" stop-color="#D43AB6"/>
<stop offset="1" stop-color="#9321BD"/>
</linearGradient>
<linearGradient id="paint7_linear_2260_120" x1="26.0503" y1="7.4144" x2="30.0771" y2="7.4144" gradientUnits="userSpaceOnUse">
<stop offset="0.5" stop-color="#D43AB6"/>
<stop offset="1" stop-color="#9321BD"/>
</linearGradient>
<linearGradient id="paint8_linear_2260_120" x1="26.0134" y1="2.0412" x2="30.1644" y2="2.0412" gradientUnits="userSpaceOnUse">
<stop offset="0.5" stop-color="#D43AB6"/>
<stop offset="1" stop-color="#9321BD"/>
</linearGradient>
<linearGradient id="paint9_linear_2260_120" x1="7.40282" y1="10.5345" x2="10.8218" y2="10.5345" gradientUnits="userSpaceOnUse">
<stop offset="0.5" stop-color="#D43AB6"/>
<stop offset="1" stop-color="#9321BD"/>
</linearGradient>
<linearGradient id="paint10_linear_2260_120" x1="11.3169" y1="10.6245" x2="14.708" y2="10.6245" gradientUnits="userSpaceOnUse">
<stop offset="0.5" stop-color="#D43AB6"/>
<stop offset="1" stop-color="#9321BD"/>
</linearGradient>
<linearGradient id="paint11_linear_2260_120" x1="7.35007" y1="14.4552" x2="10.7476" y2="14.4552" gradientUnits="userSpaceOnUse">
<stop offset="0.5" stop-color="#D43AB6"/>
<stop offset="1" stop-color="#9321BD"/>
</linearGradient>
<linearGradient id="paint12_linear_2260_120" x1="11.2788" y1="14.5075" x2="14.7058" y2="14.5075" gradientUnits="userSpaceOnUse">
<stop offset="0.5" stop-color="#D43AB6"/>
<stop offset="1" stop-color="#9321BD"/>
</linearGradient>
<clipPath id="clip0_2260_120">
<rect width="83" height="82" fill="white"/>
</clipPath>
</defs>
</svg>
