<svg width="627" height="626" viewBox="0 0 627 626" fill="none" xmlns="http://www.w3.org/2000/svg">
<path fill-rule="evenodd" clip-rule="evenodd" d="M626.015 195.821C626.015 188.343 626.015 180.866 625.98 173.389C625.945 167.094 625.876 160.799 625.702 154.504C625.336 140.784 624.519 126.959 622.085 113.396C619.615 99.6233 615.564 86.8074 609.199 74.2871C602.939 61.9928 594.766 50.7593 585.011 41.004C575.255 31.2486 564.004 23.0756 551.71 16.8154C539.207 10.451 526.391 6.41665 512.636 3.92998C499.073 1.49548 485.231 0.678182 471.511 0.313007C465.216 0.139114 458.921 0.0695572 452.626 0.0347786C445.149 0 437.671 0 430.194 0H195.821C188.343 0 180.866 0 173.389 0.0347786C167.094 0.0695572 160.799 0.139114 154.504 0.313007C140.784 0.695572 126.942 1.49548 113.378 3.94737C99.6059 6.41665 86.8074 10.4684 74.3045 16.8328C62.0102 23.093 50.7594 31.266 41.004 41.0213C31.2486 50.7767 23.0756 62.0102 16.8154 74.3045C10.451 86.8247 6.39926 99.6407 3.92998 113.413C1.49548 126.977 0.678183 140.819 0.313007 154.521C0.139114 160.816 0.0695572 167.111 0.0347786 173.406C0 180.866 0 188.343 0 195.821V430.176C0 437.654 0 445.131 0.0347786 452.609C0.0695572 458.903 0.139114 465.198 0.313007 471.493C0.678183 485.213 1.49548 499.038 3.92998 512.602C6.39926 526.374 10.451 539.19 16.8154 551.71C23.0756 564.004 31.2486 575.238 41.004 584.993C50.7594 594.749 62.0102 602.922 74.3045 609.182C86.8074 615.546 99.6233 619.581 113.378 622.067C126.942 624.502 140.784 625.319 154.504 625.684C160.799 625.858 167.094 625.928 173.389 625.962C180.866 626.015 188.343 625.997 195.821 625.997H430.176C437.654 625.997 445.131 625.997 452.609 625.962C458.904 625.928 465.198 625.858 471.493 625.684C485.214 625.319 499.055 624.502 512.619 622.067C526.391 619.598 539.19 615.546 551.693 609.182C563.987 602.922 575.238 594.749 584.993 584.993C594.749 575.238 602.922 564.004 609.182 551.71C615.546 539.19 619.598 526.374 622.067 512.602C624.502 499.038 625.319 485.196 625.684 471.493C625.858 465.198 625.928 458.903 625.963 452.609C626.015 445.131 625.997 437.654 625.997 430.176V195.821H626.015Z" fill="url(#paint0_linear_4335_1503)"/>
<path fill-rule="evenodd" clip-rule="evenodd" d="M442.655 95.6351C441.142 95.7742 427.7 98.1565 426.083 98.4869L240.017 136.03L239.948 136.048C235.096 137.074 231.288 138.795 228.349 141.265C224.802 144.238 222.837 148.446 222.089 153.35C221.932 154.394 221.672 156.515 221.672 159.645C221.672 159.645 221.672 349.745 221.672 392.523C221.672 397.965 221.237 403.252 217.55 407.756C213.864 412.259 209.308 413.616 203.969 414.694C199.918 415.511 195.866 416.328 191.814 417.146C176.442 420.241 166.443 422.345 157.383 425.858C148.724 429.214 142.237 433.492 137.073 438.917C126.83 449.646 122.674 464.201 124.1 477.834C125.318 489.468 130.552 500.597 139.542 508.822C145.611 514.387 153.193 518.612 162.131 520.403C171.399 522.264 181.276 521.621 195.709 518.699C203.395 517.152 210.595 514.734 217.446 510.683C224.228 506.683 230.036 501.345 234.574 494.841C239.13 488.32 242.069 481.069 243.686 473.365C245.356 465.418 245.756 458.237 245.756 450.307V248.33C245.756 237.514 248.816 234.662 257.546 232.541C257.546 232.541 412.206 201.345 419.423 199.936C429.491 198.006 434.238 200.875 434.238 211.43V349.31C434.238 354.77 434.186 360.3 430.465 364.821C426.778 369.325 422.222 370.682 416.884 371.76C412.832 372.577 408.78 373.394 404.729 374.212C389.357 377.307 379.358 379.411 370.298 382.924C361.638 386.28 355.152 390.558 349.987 395.983C339.745 406.712 335.224 421.267 336.65 434.9C337.867 446.534 343.466 457.663 352.457 465.888C358.525 471.453 366.107 475.556 375.045 477.365C384.314 479.226 394.191 478.565 408.624 475.661C416.31 474.113 423.509 471.8 430.361 467.749C437.142 463.749 442.95 458.411 447.489 451.907C452.045 445.386 454.984 438.135 456.601 430.431C458.27 422.484 458.34 415.303 458.34 407.373V112.085C458.375 101.374 452.723 94.7656 442.655 95.6351Z" fill="white"/>
<defs>
<linearGradient id="paint0_linear_4335_1503" x1="313.007" y1="623.588" x2="313.007" y2="13.4916" gradientUnits="userSpaceOnUse">
<stop stop-color="#FA233B"/>
<stop offset="1" stop-color="#FB5C74"/>
</linearGradient>
</defs>
</svg>
