<svg width="44" height="41" viewBox="0 0 44 41" fill="none" xmlns="http://www.w3.org/2000/svg">
<path fill-rule="evenodd" clip-rule="evenodd" d="M43.9767 12.7795C43.9767 12.2915 43.9767 11.8035 43.9743 11.3155C43.9718 10.9047 43.9669 10.4939 43.9547 10.0831C43.9291 9.18771 43.8716 8.28551 43.7006 7.40033C43.5272 6.50153 43.2425 5.66515 42.7954 4.84806C42.3557 4.04573 41.7815 3.31262 41.0962 2.67597C40.4109 2.03932 39.6206 1.50594 38.7569 1.0974C37.8786 0.682042 36.9783 0.418758 36.012 0.256475C35.0592 0.0975968 34.0868 0.044259 33.123 0.0204272C32.6808 0.00907877 32.2386 0.00453938 31.7964 0.00226969C31.2711 0 30.7458 0 30.2205 0H13.7562C13.2309 0 12.7056 0 12.1803 0.00226969C11.7381 0.00453938 11.2959 0.00907877 10.8537 0.0204272C9.88987 0.0453938 8.9175 0.0975968 7.96467 0.25761C6.99718 0.418758 6.0981 0.683177 5.21979 1.09853C4.35614 1.50708 3.56578 2.04045 2.88047 2.6771C2.19517 3.31375 1.62103 4.04686 1.18126 4.8492C0.734167 5.66629 0.44954 6.50267 0.276076 7.40147C0.105055 8.28665 0.0476414 9.18998 0.0219883 10.0842C0.0097726 10.4951 0.0048863 10.9059 0.00244315 11.3167C0 11.8035 0 12.2915 0 12.7795V28.0738C0 28.5618 0 29.0498 0.00244315 29.5378C0.0048863 29.9486 0.0097726 30.3594 0.0219883 30.7702C0.0476414 31.6656 0.105055 32.5678 0.276076 33.453C0.44954 34.3518 0.734167 35.1882 1.18126 36.0053C1.62103 36.8076 2.19517 37.5407 2.88047 38.1774C3.56578 38.814 4.35614 39.3474 5.21979 39.7559C6.0981 40.1713 6.9984 40.4346 7.96467 40.5968C8.9175 40.7557 9.88987 40.8091 10.8537 40.8329C11.2959 40.8442 11.7381 40.8488 12.1803 40.8511C12.7056 40.8545 13.2309 40.8533 13.7562 40.8533H30.2193C30.7446 40.8533 31.2699 40.8533 31.7952 40.8511C32.2374 40.8488 32.6796 40.8442 33.1218 40.8329C34.0856 40.8091 35.058 40.7557 36.0108 40.5968C36.9783 40.4357 37.8774 40.1713 38.7557 39.7559C39.6193 39.3474 40.4097 38.814 41.095 38.1774C41.7803 37.5407 42.3544 36.8076 42.7942 36.0053C43.2413 35.1882 43.5259 34.3518 43.6994 33.453C43.8704 32.5678 43.9278 31.6645 43.9535 30.7702C43.9657 30.3594 43.9706 29.9486 43.973 29.5378C43.9767 29.0498 43.9755 28.5618 43.9755 28.0738V12.7795H43.9767Z" fill="url(#paint0_linear_4250_945)"/>
<path fill-rule="evenodd" clip-rule="evenodd" d="M31.0925 6.24132C30.9862 6.2504 30.0419 6.40587 29.9283 6.42744L16.8574 8.87757L16.8526 8.8787C16.5117 8.94566 16.2442 9.05801 16.0378 9.21916C15.7886 9.41322 15.6505 9.68785 15.598 10.0079C15.587 10.076 15.5687 10.2144 15.5687 10.4187C15.5687 10.4187 15.5687 22.8248 15.5687 25.6165C15.5687 25.9718 15.5381 26.3167 15.2792 26.6107C15.0202 26.9046 14.7001 26.9931 14.3251 27.0635C14.0405 27.1168 13.7559 27.1702 13.4712 27.2235C12.3914 27.4255 11.689 27.5628 11.0525 27.792C10.4442 28.0111 9.98853 28.2902 9.62573 28.6443C8.90622 29.3445 8.61426 30.2944 8.71443 31.1841C8.79994 31.9433 9.16764 32.6696 9.79919 33.2064C10.2255 33.5695 10.7581 33.8453 11.386 33.9622C12.0371 34.0836 12.731 34.0416 13.7449 33.851C14.2848 33.75 14.7905 33.5922 15.2718 33.3278C15.7483 33.0668 16.1563 32.7184 16.4751 32.294C16.7951 31.8684 17.0016 31.3952 17.1152 30.8924C17.2325 30.3738 17.2606 29.9051 17.2606 29.3876V16.2064C17.2606 15.5005 17.4756 15.3144 18.0888 15.176C18.0888 15.176 28.9535 13.1401 29.4604 13.0481C30.1677 12.9222 30.5012 13.1094 30.5012 13.7983V22.7965C30.5012 23.1528 30.4976 23.5137 30.2361 23.8087C29.9772 24.1027 29.6571 24.1912 29.2821 24.2615C28.9975 24.3149 28.7128 24.3682 28.4282 24.4216C27.3483 24.6236 26.6459 24.7609 26.0095 24.9901C25.4011 25.2091 24.9455 25.4883 24.5827 25.8424C23.8632 26.5426 23.5456 27.4924 23.6457 28.3822C23.7312 29.1414 24.1246 29.8677 24.7562 30.4045C25.1825 30.7676 25.7151 31.0354 26.343 31.1535C26.9941 31.2749 27.6879 31.2318 28.7018 31.0422C29.2418 30.9412 29.7475 30.7903 30.2288 30.5259C30.7052 30.2649 31.1132 29.9165 31.4321 29.492C31.7521 29.0665 31.9586 28.5932 32.0722 28.0905C32.1894 27.5719 32.1943 27.1032 32.1943 26.5857V7.31489C32.1968 6.61582 31.7998 6.18458 31.0925 6.24132Z" fill="white"/>
<defs>
<linearGradient id="paint0_linear_4250_945" x1="21.9883" y1="40.6961" x2="21.9883" y2="0.88048" gradientUnits="userSpaceOnUse">
<stop stop-color="#FA233B"/>
<stop offset="1" stop-color="#FB5C74"/>
</linearGradient>
</defs>
</svg>
