<svg width="39" height="23" viewBox="0 0 39 23" fill="none" xmlns="http://www.w3.org/2000/svg">
<path d="M10 15H0V12.676H10V15ZM10 12.324H0V10H10V12.324Z" fill="#F1796E"/>
<path d="M10 23H0V20.578H10V23ZM10 20.211H0V17.789H10V20.211ZM10 17.422H0V15H10V17.422Z" fill="#EC2529"/>
<path d="M15 23H10V20.578H15V23ZM15 20.211H10V17.789H15V20.211ZM15 17.422H10V15H15V17.422Z" fill="#F6DD05"/>
<path d="M21 15H15V12.3061H21V15ZM21 11.898H15V9.20406H21V11.898ZM21 8.79594H15V6.10203H21V8.79594ZM21 5.69391H15V3H21V5.69391Z" fill="#E78DCC"/>
<path d="M21 23H15V20.578H21V23ZM21 20.211H15V17.789H21V20.211ZM21 17.422H15V15H21V17.422Z" fill="#D81996"/>
<path d="M30 15H21V12.676H30V15ZM30 12.324H21V10H30V12.324Z" fill="#D6E465"/>
<path d="M30 23H21V20.578H30V23ZM30 20.211H21V17.789H30V20.211ZM30 17.422H21V15H30V17.422Z" fill="#ADDA1A"/>
<path d="M39 15H30V12.3243H39V15ZM39 11.9189H30V9.24322H39V11.9189ZM39 8.83785H30V6.16215H39V8.83785ZM39 5.75678H30V3.08107H39V5.75678ZM39 2.6757H30V0H39V2.6757Z" fill="#B0D8E6"/>
<path d="M39 23H30V20.578H39V23ZM39 20.211H30V17.789H39V20.211ZM39 17.422H30V15H39V17.422Z" fill="#56BBE9"/>
</svg>
