<svg width="705" height="556" viewBox="0 0 705 556" fill="none" xmlns="http://www.w3.org/2000/svg">
<path d="M131.062 344.068H0V282.697H131.062V344.068ZM131.062 273.399H0V212.027H131.062V273.399Z" fill="#F1796E"/>
<path d="M131.062 555.982H0V494.61H131.062V555.982ZM131.062 485.312H0V423.941H131.062V485.312ZM131.062 414.643H0V353.271H131.062V414.643Z" fill="#EC2529"/>
<path d="M274.457 555.982H143.395V494.61H274.457V555.982ZM274.457 485.312H143.395V423.941H274.457V485.312ZM274.457 414.643H143.395V353.271H274.457V414.643Z" fill="#F6DD05"/>
<path d="M417.641 344.009H286.578V282.637H417.641V344.009ZM417.641 273.339H286.578V211.968H417.641V273.339ZM417.641 202.67H286.578V141.298H417.641V202.67ZM417.641 132H286.578V70.6289H417.641V132Z" fill="#E78DCC"/>
<path d="M417.641 555.982H286.578V494.61H417.641V555.982ZM417.641 485.312H286.578V423.941H417.641V485.312ZM417.641 414.643H286.578V353.271H417.641V414.643Z" fill="#D81996"/>
<path d="M561.039 344.068H429.977V282.697H561.039V344.068ZM561.039 273.399H429.977V212.027H561.039V273.399Z" fill="#D6E465"/>
<path d="M561.039 555.982H429.977V494.61H561.039V555.982ZM561.039 485.312H429.977V423.941H561.039V485.312ZM561.039 414.643H429.977V353.271H561.039V414.643Z" fill="#ADDA1A"/>
<path d="M704.433 344.049H573.371V282.678H704.433V344.049ZM704.433 273.38H573.371V212.008H704.433V273.38ZM704.433 202.71H573.371V141.339H704.433V202.71ZM704.433 132.041H573.371V70.6694H704.433V132.041ZM704.433 61.3716H573.371V0H704.433V61.3716Z" fill="#B0D8E6"/>
<path d="M704.433 555.982H573.371V494.61H704.433V555.982ZM704.433 485.312H573.371V423.941H704.433V485.312ZM704.433 414.643H573.371V353.271H704.433V414.643Z" fill="#56BBE9"/>
</svg>
