<svg width="479" height="479" viewBox="0 0 479 479" fill="none" xmlns="http://www.w3.org/2000/svg">
<g clip-path="url(#clip0_4065_1231)">
<path d="M239.5 479C371.772 479 479 371.772 479 239.5C479 107.228 371.772 0 239.5 0C107.228 0 0 107.228 0 239.5C0 371.772 107.228 479 239.5 479Z" fill="url(#paint0_linear_4065_1231)"/>
<path d="M344.526 143.519C324.626 134.374 303.721 127.941 282.113 124.223C279.4 129.047 276.284 135.479 274.173 140.605C251.259 137.188 227.942 137.188 205.027 140.605C202.615 134.977 199.801 129.549 196.786 124.223C175.177 127.841 154.172 134.374 134.373 143.62C94.9756 202.314 84.3222 259.601 89.6489 316.084C112.765 333.27 138.695 346.336 166.233 354.677C172.464 346.235 177.891 337.391 182.615 328.044C173.67 324.727 165.027 320.607 156.785 315.682C158.896 314.074 161.006 312.466 163.016 310.757C211.459 333.672 267.641 333.672 316.184 310.757C318.194 312.466 320.405 314.074 322.516 315.682C314.274 320.607 305.631 324.727 296.686 328.044C301.41 337.29 306.938 346.235 313.068 354.577C340.606 346.235 366.536 333.17 389.652 315.983C395.883 250.556 378.898 193.771 344.626 143.419L344.526 143.519ZM189.248 281.41C174.273 281.41 162.112 267.742 162.112 250.958C162.112 234.174 174.072 220.405 189.248 220.405C204.424 220.405 216.585 234.073 216.484 250.857C216.384 267.641 204.524 281.41 189.248 281.41ZM289.752 281.41C274.776 281.41 262.616 267.742 262.616 250.958C262.616 234.174 274.575 220.405 289.752 220.405C304.928 220.405 317.088 234.073 316.887 250.857C316.686 267.641 304.928 281.41 289.752 281.41Z" fill="white"/>
</g>
<defs>
<linearGradient id="paint0_linear_4065_1231" x1="104.781" y1="1.62514e-05" x2="361.709" y2="163.05" gradientUnits="userSpaceOnUse">
<stop stop-color="#2F1C66"/>
<stop offset="1" stop-color="#5E39CC"/>
</linearGradient>
<clipPath id="clip0_4065_1231">
<rect width="479" height="479" fill="white"/>
</clipPath>
</defs>
</svg>
