<svg width="45" height="42" viewBox="0 0 45 42" fill="none" xmlns="http://www.w3.org/2000/svg">
<g clip-path="url(#clip0_4124_1669)">
<path d="M22.5 42C34.9264 42 45 32.598 45 21C45 9.40202 34.9264 0 22.5 0C10.0736 0 0 9.40202 0 21C0 32.598 10.0736 42 22.5 42Z" fill="url(#paint0_linear_4124_1669)" fill-opacity="0.5"/>
<path d="M32.3654 12.5846C30.4959 11.7826 28.532 11.2186 26.502 10.8926C26.2471 11.3156 25.9544 11.8796 25.7561 12.329C23.6034 12.0294 21.4129 12.0294 19.2601 12.329C19.0335 11.8355 18.7691 11.3596 18.4859 10.8926C16.4559 11.2098 14.4825 11.7826 12.6225 12.5934C8.92124 17.7398 7.92041 22.7629 8.42082 27.7155C10.5925 29.2224 13.0285 30.368 15.6155 31.0995C16.2009 30.3592 16.7108 29.5837 17.1546 28.7642C16.3142 28.4734 15.5022 28.112 14.728 27.6802C14.9263 27.5392 15.1246 27.3982 15.3134 27.2484C19.8644 29.2577 25.1424 29.2577 29.7028 27.2484C29.8917 27.3982 30.0994 27.5392 30.2977 27.6802C29.5234 28.112 28.7114 28.4734 27.8711 28.7642C28.3149 29.5749 28.8342 30.3592 29.4101 31.0906C31.9972 30.3592 34.4332 29.2136 36.6048 27.7067C37.1902 21.9698 35.5946 16.9908 32.3749 12.5758L32.3654 12.5846ZM17.7777 24.6752C16.3709 24.6752 15.2284 23.4767 15.2284 22.005C15.2284 20.5334 16.352 19.3261 17.7777 19.3261C19.2035 19.3261 20.3459 20.5246 20.3365 21.9962C20.327 23.4679 19.2129 24.6752 17.7777 24.6752ZM27.2196 24.6752C25.8128 24.6752 24.6703 23.4767 24.6703 22.005C24.6703 20.5334 25.7939 19.3261 27.2196 19.3261C28.6453 19.3261 29.7878 20.5246 29.7689 21.9962C29.75 23.4679 28.6453 24.6752 27.2196 24.6752Z" fill="url(#paint1_linear_4124_1669)" fill-opacity="0.5"/>
</g>
<defs>
<linearGradient id="paint0_linear_4124_1669" x1="22.5" y1="0" x2="22.5" y2="42" gradientUnits="userSpaceOnUse">
<stop stop-color="#9A9799"/>
<stop offset="1" stop-color="#222122"/>
</linearGradient>
<linearGradient id="paint1_linear_4124_1669" x1="22.5124" y1="10.8926" x2="22.5124" y2="31.0995" gradientUnits="userSpaceOnUse">
<stop stop-color="#9A9799"/>
<stop offset="1" stop-color="#222122"/>
</linearGradient>
<clipPath id="clip0_4124_1669">
<rect width="45" height="42" fill="white"/>
</clipPath>
</defs>
</svg>
