<svg width="519" height="519" viewBox="0 0 519 519" fill="none" xmlns="http://www.w3.org/2000/svg">
<g clip-path="url(#clip0_4065_1238)">
<path d="M259.5 519C402.818 519 519 402.818 519 259.5C519 116.182 402.818 0 259.5 0C116.182 0 0 116.182 0 259.5C0 402.818 116.182 519 259.5 519Z" fill="#FF6213"/>
<path d="M138.071 247.25V205.806C138.071 204.286 138.223 203.348 140.834 203.348H175.983C182.125 203.348 185.501 208.569 187.959 218.391L189.956 226.222H195.942C197.016 203.967 197.934 194.291 197.934 194.291C197.934 194.291 182.891 195.979 173.991 195.979H129.014L104.914 195.219V201.665L113.049 203.186C118.73 204.26 120.109 205.487 120.57 210.707C120.57 210.707 121.031 226.054 121.031 251.386C121.031 276.718 120.57 291.933 120.57 291.933C120.57 296.535 118.725 298.223 113.049 299.302L104.914 300.823V307.265L129.014 306.499H169.232C178.289 306.499 199.317 307.265 199.317 307.265C199.779 301.74 202.865 276.718 203.311 273.961H197.63L191.644 287.645C186.885 298.385 179.987 299.155 172.303 299.155H149.429C141.756 299.155 138.071 296.084 138.071 289.485V254.468C138.071 254.468 154.797 254.468 160.636 254.929C164.934 255.238 167.544 256.449 168.927 262.45L170.772 270.433H177.361L176.885 250.322L177.807 230.048H171.218L169.069 238.948C167.686 244.782 166.768 245.857 160.778 246.47C154.026 247.24 138.061 247.083 138.061 247.083V247.235L138.071 247.25ZM229.089 210.109C226.94 219.628 224.791 226.992 217.269 231.903C212.667 234.97 208.06 236.044 206.22 236.201V242.035H219.905V289.171C219.905 302.348 228.658 308.821 240.32 308.821C249.378 308.821 258.739 304.984 261.962 297.001L258.739 292.855C257.218 295.466 252.297 299.302 246.154 299.302C239.403 299.302 235.718 294.695 235.718 283.033V241.422L258.44 243.109L259.666 232.669L235.678 233.591V210.277L229.089 210.125V210.109ZM277.593 282.587L271.759 282.739C272.063 286.114 272.221 290.412 272.221 294.396C272.221 298.542 272.069 302.379 271.759 304.219C271.759 304.219 283.417 308.512 295.246 308.512C311.212 308.512 323.948 300.838 323.948 285.795C323.948 260.012 285.267 263.849 285.267 246.5C285.267 239.288 291.714 236.526 298.774 236.526C304.298 236.526 308.91 238.523 309.823 241.442L313.66 252.952L319.341 252.648C319.802 246.505 320.106 239.47 321.029 233.768C316.118 231.619 305.824 230.388 299.387 230.388C284.339 230.388 272.216 236.977 272.216 251.726C272.216 277.356 309.975 272.141 309.975 291.021C309.975 297.772 305.829 302.531 296.468 302.531C287.851 302.531 283.574 298.081 281.891 293.626L277.588 282.577L277.593 282.587ZM370.106 300.326C361.221 325.161 350.339 331.578 340.537 331.578C336.396 331.578 334.409 329.738 333.791 326.834L331.495 314.877L325.058 315.182C323.832 322.232 322.605 330.047 320.922 336.469C324.754 339.378 331.186 340.914 336.244 340.914C346.817 340.914 362.904 339.53 377.612 304.599L402.28 246.379C404.272 241.629 405.037 241.168 410.861 238.867L414.084 237.656V232.294L399.528 233.059L383.902 232.294V237.656L387.886 238.877C391.869 240.104 393.709 241.635 393.709 244.397C393.709 245.775 393.248 247.154 392.478 249.298C390.182 255.127 375.929 289.748 372.103 297.103L375.929 295.719C369.188 279.019 358.925 251.117 357.394 246.389C357.107 245.6 356.951 244.77 356.933 243.931C356.933 241.483 358.616 239.486 362.295 238.72L367.364 237.651V232.294L346.371 233.059L329.67 232.294V237.656L332.428 238.573C336.259 239.8 337.177 240.874 339.478 246.237C352.189 275.349 358.17 291.279 366.284 312.125L370.121 300.326H370.106Z" fill="white"/>
</g>
<defs>
<clipPath id="clip0_4065_1238">
<rect width="519" height="519" fill="white"/>
</clipPath>
</defs>
</svg>
