<svg width="611" height="634" viewBox="0 0 611 634" fill="none" xmlns="http://www.w3.org/2000/svg">
<g clip-path="url(#clip0_4335_1444)">
<path d="M427.445 0H183.385C82.2598 0 0 85.4038 0 190.394V443.429C0 548.42 82.2598 633.823 183.385 633.823H427.445C528.4 633.823 610.83 548.42 610.83 443.429V190.394C610.83 85.4038 528.4 0 427.445 0ZM553.214 443.606C553.214 515.776 496.788 574.535 427.445 574.535H183.385C113.872 574.535 57.6159 515.776 57.6159 443.606V190.571C57.6159 118.401 114.042 59.6415 183.385 59.6415H427.445C496.958 59.6415 553.214 118.401 553.214 190.571V443.606Z" fill="url(#paint0_linear_4335_1444)"/>
<path d="M502.738 150.339C502.738 170.807 486.762 187.394 467.047 187.394C447.332 187.394 431.355 170.807 431.355 150.339C431.355 129.87 447.332 113.283 467.047 113.283C486.762 113.283 502.738 129.87 502.738 150.339Z" fill="url(#paint1_linear_4335_1444)"/>
<path d="M307.964 160.75C225.024 160.75 157.551 230.802 157.551 316.912C157.551 403.022 225.024 473.074 307.964 473.074C390.903 473.074 458.207 403.022 458.207 316.912C458.207 230.802 390.734 160.75 307.964 160.75ZM307.964 416.961C254.767 416.961 211.428 372.142 211.428 317.088C211.428 262.035 254.767 217.215 307.964 217.215C361.161 217.215 404.16 262.035 404.16 317.088C404.16 372.142 360.821 416.961 307.964 416.961Z" fill="url(#paint2_linear_4335_1444)"/>
</g>
<defs>
<linearGradient id="paint0_linear_4335_1444" x1="141.745" y1="506.953" x2="566.001" y2="50.0504" gradientUnits="userSpaceOnUse">
<stop stop-color="#FDB04B"/>
<stop offset="0.09" stop-color="#F9873F"/>
<stop offset="0.52" stop-color="#D82F7A"/>
<stop offset="0.74" stop-color="#CE2E8E"/>
<stop offset="1" stop-color="#A935AA"/>
</linearGradient>
<linearGradient id="paint1_linear_4335_1444" x1="431.355" y1="150.339" x2="502.738" y2="150.339" gradientUnits="userSpaceOnUse">
<stop stop-color="#FDB04B"/>
<stop offset="0.09" stop-color="#F9873F"/>
<stop offset="0.52" stop-color="#D82F7A"/>
<stop offset="0.74" stop-color="#CE2E8E"/>
<stop offset="1" stop-color="#A935AA"/>
</linearGradient>
<linearGradient id="paint2_linear_4335_1444" x1="157.551" y1="317.088" x2="458.207" y2="317.088" gradientUnits="userSpaceOnUse">
<stop stop-color="#FDB04B"/>
<stop offset="0.09" stop-color="#F9873F"/>
<stop offset="0.52" stop-color="#D82F7A"/>
<stop offset="0.74" stop-color="#CE2E8E"/>
<stop offset="1" stop-color="#A935AA"/>
</linearGradient>
<clipPath id="clip0_4335_1444">
<rect width="611" height="634" fill="white"/>
</clipPath>
</defs>
</svg>
