<?xml version="1.0" encoding="utf-8"?>
<!-- Generator: Adobe Illustrator 27.1.0, SVG Export Plug-In . SVG Version: 6.00 Build 0)  -->
<svg version="1.1" id="Capa_1" xmlns="http://www.w3.org/2000/svg" xmlns:xlink="http://www.w3.org/1999/xlink" x="0px" y="0px"
	 viewBox="0 0 250 250" style="enable-background:new 0 0 250 250;" xml:space="preserve">
<style type="text/css">
	.st0{clip-path:url(#SVGID_00000009570561271243575940000013699732206448068227_);}
	.st1{fill-rule:evenodd;clip-rule:evenodd;fill:#53FC18;}
</style>
<path d="M30,0h190c16.6,0,30,13.4,30,30v190c0,16.6-13.4,30-30,30H30c-16.6,0-30-13.4-30-30V30C0,13.4,13.4,0,30,0z"/>
<g>
	<defs>
		<rect id="SVGID_1_" x="15" y="90" width="220" height="70.6"/>
	</defs>
	<clipPath id="SVGID_00000112609315263070749910000013807561546658752682_">
		<use xlink:href="#SVGID_1_"  style="overflow:visible;"/>
	</clipPath>
	<g style="clip-path:url(#SVGID_00000112609315263070749910000013807561546658752682_);">
		<path class="st1" d="M15,90h23.6v15.7h7.9v-7.8h7.9V90h23.6v23.5H70v7.9h-7.9v7.8H70v7.8h7.9v23.5H54.3v-7.8h-7.9v-7.8h-7.9v15.7
			H15V90z M172.1,90h23.6v15.7h7.9v-7.8h7.9V90H235v23.5h-7.9v7.9h-7.9v7.8h7.9v7.8h7.9v23.5h-23.6v-7.8h-7.9v-7.8h-7.9v15.7h-23.6
			V90z M85.7,90h23.6v70.6H85.7V90z M125,90v7.8h-7.9v54.9h7.9v7.8h39.3v-23.5h-23.6v-23.5h23.6V90H125z"/>
	</g>
</g>
</svg>
