<?xml version="1.0" encoding="UTF-8"?>
<!-- Generator: visioncortex VTracer -->
<svg id="svg" version="1.1" xmlns="http://www.w3.org/2000/svg" style="display: block;" viewBox="0 0 400 400"><path d="M0 0 C132 0 264 0 400 0 C400 132 400 264 400 400 C268 400 136 400 0 400 C0 268 0 136 0 0 Z " transform="translate(0,0)" style="fill: #000000;"/><path d="M0 0 C24.42 0 48.84 0 74 0 C74 16.5 74 33 74 50 C82.25 50 90.5 50 99 50 C99 41.75 99 33.5 99 25 C107.25 25 115.5 25 124 25 C124 16.75 124 8.5 124 0 C148.42 0 172.84 0 198 0 C198 24.42 198 48.84 198 74 C189.75 74 181.5 74 173 74 C173 82.58 173 91.16 173 100 C165.08 100 157.16 100 149 100 C149 107.92 149 115.84 149 124 C156.92 124 164.84 124 173 124 C173 132.25 173 140.5 173 149 C181.25 149 189.5 149 198 149 C198 173.75 198 198.5 198 224 C173.58 224 149.16 224 124 224 C124 215.75 124 207.5 124 199 C115.75 199 107.5 199 99 199 C99 190.75 99 182.5 99 174 C90.75 174 82.5 174 74 174 C74 190.5 74 207 74 224 C49.58 224 25.16 224 0 224 C0 150.08 0 76.16 0 0 Z " transform="translate(101,88)" style="fill: #53FB19;"/><path d="M0 0 C7.92 0 15.84 0 24 0 C24 7.92 24 15.84 24 24 C32.25 24 40.5 24 49 24 C49 48.75 49 73.5 49 99 C24.58 99 0.16 99 -25 99 C-25 90.75 -25 82.5 -25 74 C-33.25 74 -41.5 74 -50 74 C-50 65.75 -50 57.5 -50 49 C-49.67 49 -49.34 49 -49 49 C-49 56.59 -49 64.18 -49 72 C-40.75 72 -32.5 72 -24 72 C-22.7736243 74.45275141 -22.88584686 76.0505781 -22.90234375 78.7890625 C-22.90556641 79.73007812 -22.90878906 80.67109375 -22.91210938 81.640625 C-22.92048828 82.62546875 -22.92886719 83.6103125 -22.9375 84.625 C-22.94201172 85.61757813 -22.94652344 86.61015625 -22.95117188 87.6328125 C-22.96297855 90.0886016 -22.979446 92.54427104 -23 95 C-22.22405487 94.98525131 -21.44810974 94.97050262 -20.64865112 94.95530701 C-13.32196885 94.81702916 -5.99521816 94.68407379 1.33166695 94.5570364 C5.09812511 94.4915454 8.86452374 94.42402568 12.63085938 94.35180664 C16.26825556 94.2821357 19.90571142 94.21787614 23.54327011 94.15730476 C24.9283073 94.13330257 26.31331262 94.10737878 27.69827652 94.07946587 C29.6439698 94.04058616 31.58980998 94.00928541 33.53564453 93.97827148 C34.64150909 93.95828598 35.74737366 93.93830048 36.88674927 93.91770935 C40 94 40 94 46 95 C46.33 72.23 46.66 49.46 47 26 C39.41 26 31.82 26 24 26 C23 25 23 25 22.88647461 22.68334961 C22.89432983 21.18300171 22.89432983 21.18300171 22.90234375 19.65234375 C22.90717773 18.03295898 22.90717773 18.03295898 22.91210938 16.38085938 C22.92467773 14.67639648 22.92467773 14.67639648 22.9375 12.9375 C22.94201172 11.79732422 22.94652344 10.65714844 22.95117188 9.48242188 C22.9630024 6.65492582 22.9809385 3.82745655 23 1 C15.41 1 7.82 1 0 1 C0 0.67 0 0.34 0 0 Z " transform="translate(250,213)" style="fill: #53DA21;"/><path d="M0 0 C24.42 0 48.84 0 74 0 C74 24.42 74 48.84 74 74 C65.75 74 57.5 74 49 74 C49 73.67 49 73.34 49 73 C60.385 72.505 60.385 72.505 72 72 C71.67 49.56 71.34 27.12 71 4 C70.34 4.33 69.68 4.66 69 5 C67.26048374 5.09579247 65.51729773 5.1279556 63.77514648 5.12939453 C62.68318466 5.13254669 61.59122284 5.13569885 60.46617126 5.13894653 C59.27979568 5.1369223 58.0934201 5.13489807 56.87109375 5.1328125 C55.65229019 5.13376923 54.43348663 5.13472595 53.17774963 5.13571167 C50.5910741 5.13639355 48.00439687 5.13453875 45.41772461 5.13037109 C41.47831306 5.12505507 37.53901721 5.13029916 33.59960938 5.13671875 C31.08593725 5.13605734 28.5722652 5.13477488 26.05859375 5.1328125 C24.88638779 5.13483673 23.71418182 5.13686096 22.50645447 5.13894653 C16.25292162 5.12125204 10.19993421 4.82753446 4 4 C3.1091495 6.67255151 2.84481692 8.40314483 2.75390625 11.16015625 C2.72103516 11.95357422 2.68816406 12.74699219 2.65429688 13.56445312 C2.59296069 15.23358024 2.53568691 16.90286145 2.48242188 18.57226562 C2.44826172 19.36439453 2.41410156 20.15652344 2.37890625 20.97265625 C2.3538501 21.69718994 2.32879395 22.42172363 2.30297852 23.16821289 C2 25 2 25 0 27 C-2.24658203 27.31884766 -2.24658203 27.31884766 -5.0078125 27.4140625 C-6.34030029 27.46747803 -6.34030029 27.46747803 -7.69970703 27.52197266 C-8.83005371 27.55597168 -9.96040039 27.5899707 -11.125 27.625 C-14.71375 27.74875 -18.3025 27.8725 -22 28 C-22.66 35.26 -23.32 42.52 -24 50 C-24.33 50 -24.66 50 -25 50 C-25 41.75 -25 33.5 -25 25 C-16.75 25 -8.5 25 0 25 C0 16.75 0 8.5 0 0 Z " transform="translate(225,88)" style="fill: #53DB21;"/><path d="M0 0 C0.66 0 1.32 0 2 0 C2.33 6.93 2.66 13.86 3 21 C10.59 21.33 18.18 21.66 26 22 C27.93095159 26.82737898 28.22766367 29.11575836 28.15112305 34.16113281 C28.14326782 34.86251373 28.1354126 35.56389465 28.12731934 36.28652954 C28.09886459 38.59232577 28.05558544 40.89757458 28.01171875 43.203125 C27.98807373 44.80782994 27.96520171 46.41254643 27.94306946 48.01727295 C27.89462783 51.37298033 27.83927632 54.72847697 27.77856445 58.08398438 C27.70079649 62.39388089 27.63653087 66.70384492 27.57690716 71.01402664 C27.53029585 74.32365608 27.47851174 77.63318745 27.42493629 80.94271088 C27.39946116 82.53278536 27.37516759 84.12287921 27.3520565 85.71298981 C27.3187157 87.92759564 27.27887735 90.14198546 27.23706055 92.35644531 C27.21548386 93.61821594 27.19390717 94.87998657 27.17167664 96.17999268 C27 99 27 99 26 100 C23.63238425 100.10025695 21.29392927 100.13618935 18.92578125 100.12939453 C17.81606461 100.13202301 17.81606461 100.13202301 16.68392944 100.13470459 C14.22676277 100.1391231 11.76966747 100.13618513 9.3125 100.1328125 C7.61238593 100.13348554 5.91227195 100.13445557 4.2121582 100.13571167 C0.64435919 100.13718864 -2.92341483 100.13503411 -6.49121094 100.13037109 C-11.07488494 100.1246738 -15.65850039 100.12795281 -20.24217224 100.13394356 C-23.75419561 100.13754919 -27.26620498 100.13641057 -30.77822876 100.13381577 C-32.46880093 100.1331465 -34.15937436 100.13397489 -35.84994507 100.13629532 C-38.20859157 100.13882189 -40.56714195 100.13498121 -42.92578125 100.12939453 C-43.63127106 100.13141876 -44.33676086 100.13344299 -45.06362915 100.13552856 C-49.88573729 100.11426271 -49.88573729 100.11426271 -51 99 C-51.08713831 97.29227642 -51.10700007 95.58101351 -51.09765625 93.87109375 C-51.09515869 92.93966553 -51.09266113 92.0082373 -51.09008789 91.04858398 C-51.08098389 89.85692627 -51.07187988 88.66526855 -51.0625 87.4375 C-51.041875 83.663125 -51.02125 79.88875 -51 76 C-58.59 76 -66.18 76 -74 76 C-74 75.34 -74 74.68 -74 74 C-65.75 74 -57.5 74 -49 74 C-49 82.25 -49 90.5 -49 99 C-24.58 99 -0.16 99 25 99 C25 74.25 25 49.5 25 24 C16.75 24 8.5 24 0 24 C0 16.08 0 8.16 0 0 Z " transform="translate(274,213)" style="fill: #012300;"/><path d="M0 0 C21.45 0 42.9 0 65 0 C65 16.17 65 32.34 65 49 C62.89516254 45.84274381 62.7527941 45.12625389 62.77294922 41.52856445 C62.77310028 40.62785721 62.77325134 39.72714996 62.77340698 38.79914856 C62.78372955 37.83031235 62.79405212 36.86147614 62.8046875 35.86328125 C62.8075174 34.86870407 62.81034729 33.87412689 62.81326294 32.84941101 C62.82446511 29.6703187 62.84956986 26.49150728 62.875 23.3125 C62.88502975 21.15820719 62.89415561 19.00390997 62.90234375 16.84960938 C62.92440454 11.56631028 62.95788244 6.28317521 63 1 C62.01 1 61.02 1 60 1 C59.67 1.66 59.34 2.32 59 3 C53.32496726 5.71197308 47.39944834 5.25376517 41.2578125 5.1953125 C39.57254959 5.19106766 39.57254959 5.19106766 37.85324097 5.18673706 C34.27705073 5.17557303 30.7011141 5.15047501 27.125 5.125 C24.69531613 5.11496533 22.26562831 5.10584033 19.8359375 5.09765625 C13.89053898 5.07564604 7.94528761 5.04220589 2 5 C2 4.34 2 3.68 2 3 C1.34 3 0.68 3 0 3 C0 2.01 0 1.02 0 0 Z " transform="translate(110,89)" style="fill: #57F721;"/><path d="M0 0 C1.67255859 0.07734375 1.67255859 0.07734375 3.37890625 0.15625 C4.53777344 0.22070312 5.69664062 0.28515625 6.890625 0.3515625 C8.65212891 0.43664062 8.65212891 0.43664062 10.44921875 0.5234375 C13.34698147 0.66479178 16.24386249 0.81619469 19.140625 0.9765625 C19.140625 1.6365625 19.140625 2.2965625 19.140625 2.9765625 C10.890625 2.9765625 2.640625 2.9765625 -5.859375 2.9765625 C-5.859375 19.1465625 -5.859375 35.3165625 -5.859375 51.9765625 C-26.979375 51.9765625 -48.099375 51.9765625 -69.859375 51.9765625 C-69.859375 51.6465625 -69.859375 51.3165625 -69.859375 50.9765625 C-69.17699265 50.96847565 -68.49461029 50.96038879 -67.79154968 50.95205688 C-60.7027186 50.8661397 -53.61417131 50.76664181 -46.52563477 50.65917969 C-43.87854775 50.62084671 -41.23140787 50.58600156 -38.58422852 50.5546875 C-34.78382444 50.50913105 -30.98378568 50.45112053 -27.18359375 50.390625 C-25.40223274 50.37329819 -25.40223274 50.37329819 -23.58488464 50.35562134 C-22.48396988 50.33575165 -21.38305511 50.31588196 -20.2487793 50.29541016 C-19.27837204 50.28208649 -18.30796478 50.26876282 -17.30815125 50.2550354 C-14.60407098 50.13651197 -14.60407098 50.13651197 -11.859375 47.9765625 C-10.869375 48.3065625 -9.879375 48.6365625 -8.859375 48.9765625 C-9.189375 33.4665625 -9.519375 17.9565625 -9.859375 1.9765625 C-5.74816546 -0.07904227 -4.40757123 -0.22487608 0 0 Z " transform="translate(180.859375,259.0234375)" style="fill: #61F22F;"/><path d="M0 0 C7.92 0 15.84 0 24 0 C24 7.92 24 15.84 24 24 C32.25 24 40.5 24 49 24 C49 48.42 49 72.84 49 98 C46.69 98 44.38 98 42 98 C42 97.67 42 97.34 42 97 C43.65 97 45.3 97 47 97 C47 73.57 47 50.14 47 26 C39.41 26 31.82 26 24 26 C23 25 23 25 22.88647461 22.68334961 C22.89171143 21.68311768 22.89694824 20.68288574 22.90234375 19.65234375 C22.90556641 18.57275391 22.90878906 17.49316406 22.91210938 16.38085938 C22.92048828 15.24455078 22.92886719 14.10824219 22.9375 12.9375 C22.94201172 11.79732422 22.94652344 10.65714844 22.95117188 9.48242188 C22.9630024 6.65492582 22.9809385 3.82745655 23 1 C15.41 1 7.82 1 0 1 C0 0.67 0 0.34 0 0 Z " transform="translate(250,213)" style="fill: #69E041;"/><path d="M0 0 C21.12 0 42.24 0 64 0 C64 0.33 64 0.66 64 1 C43.87 1 23.74 1 3 1 C2.67 8.59 2.34 16.18 2 24 C-0.52128356 26.52128356 -1.51239013 26.29353069 -5.0078125 26.4140625 C-6.34030029 26.46747803 -6.34030029 26.46747803 -7.69970703 26.52197266 C-8.83005371 26.55597168 -9.96040039 26.5899707 -11.125 26.625 C-14.71375 26.74875 -18.3025 26.8725 -22 27 C-22.66 34.26 -23.32 41.52 -24 49 C-24.33 49 -24.66 49 -25 49 C-25 40.75 -25 32.5 -25 24 C-16.75 24 -8.5 24 0 24 C0 16.08 0 8.16 0 0 Z " transform="translate(225,89)" style="fill: #69EC3A;"/><path d="M0 0 C1.06064667 0.02009628 2.12129333 0.04019257 3.21408081 0.06089783 C4.9065947 0.10145042 4.9065947 0.10145042 6.63330078 0.14282227 C7.80120148 0.16643326 8.96910217 0.19004425 10.1723938 0.21437073 C13.89126511 0.29075393 17.60991477 0.3748874 21.32861328 0.45922852 C23.85464421 0.51247455 26.38068586 0.56521477 28.90673828 0.61743164 C35.08916616 0.74633474 41.27143028 0.88159623 47.45361328 1.02172852 C47.45361328 1.68172852 47.45361328 2.34172852 47.45361328 3.02172852 C51.41361328 3.35172852 55.37361328 3.68172852 59.45361328 4.02172852 C59.45361328 4.35172852 59.45361328 4.68172852 59.45361328 5.02172852 C35.03361328 5.02172852 10.61361328 5.02172852 -14.54638672 5.02172852 C-11.54638672 1.02172852 -11.54638672 1.02172852 -8.70553589 0.27308655 C-5.77468266 0.03989291 -2.93846807 -0.06326845 0 0 Z " transform="translate(115.54638671875,306.978271484375)" style="fill: #53D922;"/><path d="M0 0 C0.33 0 0.66 0 1 0 C1 7.59 1 15.18 1 23 C9.25 23 17.5 23 26 23 C29.73868664 30.47737328 27.63686665 39.64793301 28 48 C48.13 48 68.26 48 89 48 C89 48.33 89 48.66 89 49 C67.88 49 46.76 49 25 49 C25 41.08 25 33.16 25 25 C16.75 25 8.5 25 0 25 C0 16.75 0 8.5 0 0 Z " transform="translate(200,262)" style="fill: #66E23C;"/><path d="M0 0 C1.98 0 3.96 0 6 0 C6 24.09 6 48.18 6 73 C-2.25 73 -10.5 73 -19 73 C-19 72.67 -19 72.34 -19 72 C-11.41 71.67 -3.82 71.34 4 71 C4 47.9 4 24.8 4 1 C2.68 0.67 1.36 0.34 0 0 Z " transform="translate(293,89)" style="fill: #6DE646;"/><path d="M0 0 C21.45 0 42.9 0 65 0 C65 16.17 65 32.34 65 49 C62.89516254 45.84274381 62.7527941 45.12625389 62.77294922 41.52856445 C62.77310028 40.62785721 62.77325134 39.72714996 62.77340698 38.79914856 C62.78372955 37.83031235 62.79405212 36.86147614 62.8046875 35.86328125 C62.8075174 34.86870407 62.81034729 33.87412689 62.81326294 32.84941101 C62.82446511 29.6703187 62.84956986 26.49150728 62.875 23.3125 C62.88502975 21.15820719 62.89415561 19.00390997 62.90234375 16.84960938 C62.92440454 11.56631028 62.95788244 6.28317521 63 1 C62.01 1 61.02 1 60 1 C59.67 1.66 59.34 2.32 59 3 C58.01 2.67 57.02 2.34 56 2 C54.23659857 1.88427033 52.46935231 1.82350925 50.70239258 1.79467773 C49.62149857 1.77473251 48.54060455 1.75478729 47.42695618 1.73423767 C45.67840584 1.70916893 45.67840584 1.70916893 43.89453125 1.68359375 C42.70018967 1.66281265 41.50584808 1.64203156 40.27531433 1.62062073 C36.45443557 1.55515724 32.63348724 1.4962549 28.8125 1.4375 C26.22460214 1.39431176 23.63671135 1.35069737 21.04882812 1.30664062 C14.69929261 1.19947908 8.34968766 1.0977066 2 1 C2 1.66 2 2.32 2 3 C1.34 3 0.68 3 0 3 C0 2.01 0 1.02 0 0 Z " transform="translate(110,89)" style="fill: #6CE93F;"/><path d="M0 0 C0.66 0 1.32 0 2 0 C2 15.84 2 31.68 2 48 C9.26 48 16.52 48 24 48 C24 41.07 24 34.14 24 27 C24.33 27 24.66 27 25 27 C25 34.59 25 42.18 25 50 C16.75 50 8.5 50 0 50 C0 33.5 0 17 0 0 Z " transform="translate(175,88)" style="fill: #042701;"/><path d="M0 0 C0.99 0 1.98 0 3 0 C3.33 15.84 3.66 31.68 4 48 C12.58 48 21.16 48 30 48 C30 48.33 30 48.66 30 49 C29.34402832 49.01458252 28.68805664 49.02916504 28.01220703 49.04418945 C25.04919969 49.11851414 22.08733883 49.21522369 19.125 49.3125 C18.09246094 49.33505859 17.05992187 49.35761719 15.99609375 49.38085938 C14.51689453 49.4340332 14.51689453 49.4340332 13.0078125 49.48828125 C12.09660645 49.51446533 11.18540039 49.54064941 10.24658203 49.56762695 C9.13452393 49.78165161 9.13452393 49.78165161 8 50 C7.34 50.99 6.68 51.98 6 53 C3 52 3 52 2 50 C1.88213309 48.51987176 1.82307062 47.03483534 1.79467773 45.55029297 C1.77473251 44.62948944 1.75478729 43.70868591 1.73423767 42.75997925 C1.71752518 41.76410797 1.70081268 40.76823669 1.68359375 39.7421875 C1.66281265 38.72399933 1.64203156 37.70581116 1.62062073 36.6567688 C1.55510534 33.39624945 1.49623098 30.13564794 1.4375 26.875 C1.39431668 24.66796017 1.35070245 22.46092872 1.30664062 20.25390625 C1.19942195 14.83602499 1.09765926 9.41806154 1 4 C0.01 4 -0.98 4 -2 4 C-2 3.34 -2 2.68 -2 2 C-1.34 2 -0.68 2 0 2 C0 1.34 0 0.68 0 0 Z " transform="translate(170,90)" style="fill: #58F226;"/><path d="M0 0 C1.5631897 0.07069702 1.5631897 0.07069702 3.15795898 0.14282227 C4.28266602 0.19116211 5.40737305 0.23950195 6.56616211 0.28930664 C8.34216797 0.37341797 8.34216797 0.37341797 10.15405273 0.45922852 C11.34192383 0.51143555 12.52979492 0.56364258 13.75366211 0.61743164 C16.69986339 0.74758511 19.64576549 0.88256492 22.59155273 1.02172852 C22.59155273 1.68172852 22.59155273 2.34172852 22.59155273 3.02172852 C14.34155273 3.02172852 6.09155273 3.02172852 -2.40844727 3.02172852 C-2.40844727 19.19172852 -2.40844727 35.36172852 -2.40844727 52.02172852 C-2.73844727 52.02172852 -3.06844727 52.02172852 -3.40844727 52.02172852 C-3.43371466 44.77686301 -3.45127907 37.53200878 -3.46337891 30.28710938 C-3.46842083 27.82030818 -3.47525417 25.35350999 -3.48388672 22.88671875 C-3.49595851 19.34968323 -3.50167682 15.81268706 -3.50610352 12.27563477 C-3.5112648 11.16523331 -3.51642609 10.05483185 -3.52174377 8.91078186 C-3.52181931 7.88979904 -3.52189484 6.86881622 -3.52197266 5.81689453 C-3.52419327 4.91310562 -3.52641388 4.00931671 -3.52870178 3.07814026 C-3.35272493 0.06884894 -3.02768627 0.02731516 0 0 Z " transform="translate(177.408447265625,258.978271484375)" style="fill: #68D943;"/><path d="M0 0 C8.25 0 16.5 0 25 0 C25 0.66 25 1.32 25 2 C14.11 2.495 14.11 2.495 3 3 C2.34 10.26 1.68 17.52 1 25 C0.67 25 0.34 25 0 25 C0 16.75 0 8.5 0 0 Z " transform="translate(200,113)" style="fill: #61DE39;"/><path d="M0 0 C8.25 0 16.5 0 25 0 C25 0.66 25 1.32 25 2 C17.08 2.33 9.16 2.66 1 3 C1 10.26 1 17.52 1 25 C0.67 25 0.34 25 0 25 C0 16.75 0 8.5 0 0 Z " transform="translate(274,162)" style="fill: #18500A;"/><path d="M0 0 C-1.32 0.33 -2.64 0.66 -4 1 C-4 1.99 -4 2.98 -4 4 C-4.66 4 -5.32 4 -6 4 C-6 10.27 -6 16.54 -6 23 C-6.33 23 -6.66 23 -7 23 C-7 15.74 -7 8.48 -7 1 C-4.53721199 -0.231394 -2.7204945 -0.07159196 0 0 Z " transform="translate(282,164)" style="fill: #001101;"/><path d="M0 0 C2.31 0 4.62 0 7 0 C7 0.66 7 1.32 7 2 C5.68 2 4.36 2 3 2 C3 3.32 3 4.64 3 6 C2.01 6 1.02 6 0 6 C0 4.02 0 2.04 0 0 Z " transform="translate(201,132)" style="fill: #56F923;"/><path d="M0 0 C0.99 0 1.98 0 3 0 C3 1.98 3 3.96 3 6 C1.35 6.33 -0.3 6.66 -2 7 C-2 4 -2 4 0 2 C0 1.34 0 0.68 0 0 Z " transform="translate(242,208)" style="fill: #56F823;"/><path d="M0 0 C1.98 0 3.96 0 6 0 C6 0.66 6 1.32 6 2 C5.34 2 4.68 2 4 2 C4 2.66 4 3.32 4 4 C2.35 4.33 0.7 4.66 -1 5 C-0.67 3.35 -0.34 1.7 0 0 Z " transform="translate(250,182)" style="fill: #5BF622;"/><path d="M0 0 C1.65 0 3.3 0 5 0 C5 1.98 5 3.96 5 6 C4.01 6 3.02 6 2 6 C2 4.35 2 2.7 2 1 C1.34 0.67 0.68 0.34 0 0 Z " transform="translate(240,186)" style="fill: #57F822;"/><path d="M0 0 C1.32 0 2.64 0 4 0 C3.67 1.32 3.34 2.64 3 4 C1.35 4 -0.3 4 -2 4 C-1.34 2.68 -0.68 1.36 0 0 Z " transform="translate(250,214)" style="fill: #5BF722;"/><path d="M0 0 C0 0.99 0 1.98 0 3 C-1.8125 3.6875 -1.8125 3.6875 -4 4 C-5.75 2.5625 -5.75 2.5625 -7 1 C-4.50935112 0.31292445 -2.62113708 0 0 0 Z " transform="translate(110,89)" style="fill: #58F826;"/></svg>