<?xml version="1.0" encoding="UTF-8"?>
<svg id="Layer_1" data-name="Layer 1" xmlns="http://www.w3.org/2000/svg" viewBox="0 0 2122 2122">
  <defs>
    <style>
      .cls-1 {
        fill: #fff;
      }

      .cls-2 {
        fill: #0a66c2;
      }
    </style>
  </defs>
  <rect class="cls-2" x="206.38" y="228.98" width="1648.34" height="1676.1" rx="196.09" ry="196.09"/>
  <rect class="cls-1" x="617.16" y="919.61" width="177.54" height="570.32"/>
  <path class="cls-1" d="m705.96,841.77c-56.92,0-102.92-46.13-102.92-102.86s46-102.71,102.92-102.71,102.78,46.06,102.78,102.71-46,102.86-102.78,102.86Z"/>
  <path class="cls-1" d="m1458.75,1489.93h-177.15v-277.28c0-66.19-1.29-151.24-92.13-151.24s-106.35,72.04-106.35,146.41v282.11h-177.18v-570.32h170.04v78.01h2.33c23.71-44.88,81.53-92.13,167.87-92.13,179.48,0,212.58,118.04,212.58,271.64v312.8Z"/>
</svg>