<svg width="71" height="71" viewBox="0 0 71 71" fill="none" xmlns="http://www.w3.org/2000/svg">
<path d="M35.5239 60.7523C21.6499 60.8128 10.263 49.4784 10.2373 35.5519C10.2117 21.5906 21.5678 10.1911 35.5324 10.2345C49.4859 10.2779 60.7512 21.5156 60.7696 35.4704C60.7887 49.5632 49.4136 60.724 35.5232 60.7523H35.5239ZM13.0346 35.4356C12.7986 47.7797 23.2737 58.0918 35.5916 57.9965C47.9607 57.9005 57.9244 47.8237 58.0013 35.6742C58.0802 23.1473 48.0258 13.0528 35.5166 12.9956C23.2599 12.9397 12.8742 23.1499 13.0346 35.4356Z" fill="white"/>
<path d="M28.9395 52.3721C21.0368 49.1784 16.1694 40.9825 17.2397 32.5099C18.2705 24.3521 24.7505 17.7826 32.8209 16.4277C41.1049 15.0373 49.5624 19.7062 52.931 27.3814C56.3311 35.129 54.0262 44.4057 47.3903 49.657C43.7943 52.5029 39.063 54.0064 34.4802 53.6278C33.3034 53.5305 32.1194 53.3753 30.9814 53.0532C30.2287 52.8402 30.3037 52.7488 30.6784 52.0953C30.9617 51.601 31.2437 51.1046 31.5021 50.5965C32.6197 48.3961 33.1338 45.9183 33.7195 43.5359C33.9911 43.5471 34.4992 44.3393 34.7333 44.5246C35.1323 44.8402 35.5866 45.0788 36.0678 45.2445C37.2505 45.6521 38.5613 45.6652 39.7802 45.4299C42.0607 44.9894 44.0487 43.5767 45.3879 41.7017C48.2693 37.6666 48.7058 31.5474 45.5805 27.5241C42.2836 23.2805 36.3064 22.2418 31.3904 23.9189C26.4355 25.6091 23.2852 30.5508 23.9551 35.7811C24.1168 37.0466 24.602 38.2931 25.2567 39.3844C25.5585 39.8866 25.9089 40.3593 26.3237 40.7741C26.6596 41.1094 27.2809 41.7261 27.7832 41.7819C28.3255 41.8424 28.3538 41.141 28.457 40.7123C28.5918 40.1542 28.9284 39.4245 28.6759 38.8736C28.434 38.3457 28.0422 37.9059 27.8219 37.3517C27.5662 36.7074 27.3848 36.0303 27.3039 35.3407C26.6458 29.7218 32.1608 25.4145 37.4917 26.5669C39.9281 27.0935 42.0561 28.622 42.9811 30.988C43.9567 33.4835 43.6563 36.5411 42.5702 38.9577C41.6446 41.0174 39.556 43.0396 37.1006 42.586C36.1026 42.4019 35.2999 41.7504 34.9403 40.7991C34.471 39.5586 35.1836 38.0426 35.5491 36.8455C36.0934 35.0632 37.4247 31.6612 35.0488 30.5968C33.239 29.7862 31.5337 31.3587 30.9893 32.9957C30.6363 34.0567 30.6034 35.3887 30.8671 36.4675C31.0025 37.0217 31.2668 37.5384 31.1721 38.1189C31.0643 38.7802 30.8506 39.4475 30.683 40.0963C30.3339 41.4513 30.0492 42.82 29.7172 44.1788C29.3872 45.5298 28.9823 46.8867 28.862 48.2765C28.8081 48.899 28.7982 49.5255 28.8304 50.1494C28.8659 50.8377 28.7811 51.6687 29.0178 52.3208C28.9915 52.3373 28.9652 52.3544 28.9389 52.3708L28.9395 52.3721Z" fill="white"/>
</svg>
