<svg width="71" height="71" viewBox="0 0 71 71" fill="none" xmlns="http://www.w3.org/2000/svg">
<path d="M35.7954 61.3656C21.9214 61.4261 10.5345 50.0917 10.5088 36.1652C10.4832 22.2038 21.8392 10.8044 35.8039 10.8478C49.7574 10.8912 61.0227 22.1289 61.0411 36.0837C61.0602 50.1765 49.6851 61.3373 35.7947 61.3656H35.7954ZM13.3061 36.0488C13.0701 48.393 23.5452 58.7051 35.8631 58.6098C48.2322 58.5138 58.1959 48.437 58.2728 36.2875C58.3517 23.7606 48.2973 13.6661 35.7881 13.6089C23.5314 13.553 13.1457 23.7632 13.3061 36.0488Z" fill="white"/>
<path d="M35.407 16.9609C25.0594 16.9609 16.6709 25.3495 16.6709 35.6971C16.6709 46.0446 25.0594 54.4332 35.407 54.4332C45.7546 54.4332 54.1431 46.0446 54.1431 35.6971C54.1431 25.3495 45.7546 16.9609 35.407 16.9609ZM47.1279 32.7032C46.4889 33.0904 44.9677 32.387 44.3767 32.1714C43.1907 31.7381 42.0738 31.1314 41.1462 30.2662C41.1061 30.2287 41.0318 30.2274 40.8687 30.1775C40.8687 32.4698 40.8674 34.7622 40.8622 37.0546C40.8569 39.3207 41.1133 41.6867 40.3218 43.8594C38.8683 47.8519 34.7141 50.116 30.5764 49.6229C21.9624 48.5974 19.8034 36.5569 27.5661 32.5533C28.7922 31.9209 31.5408 30.9118 32.9273 31.4548C33.9022 31.8368 33.5242 32.9754 33.5242 33.9339C33.5242 35.0166 33.9108 36.0106 32.8701 36.4163C31.8873 36.8002 30.7493 36.3893 29.727 36.9665C28.9887 37.3833 28.3925 38.0959 28.021 38.846C27.1053 40.698 27.7482 42.8838 29.4128 44.077C30.9255 45.1617 33.0147 45.0671 34.4419 43.8811C36.3852 42.2659 36.0007 39.6908 36.0112 37.4293C36.0237 34.8477 36.025 32.2654 36.023 29.6837C36.023 28.5103 36.021 27.3368 36.0204 26.1627C36.0204 25.5368 35.624 23.0906 36.0966 22.6469C36.6443 22.1328 38.18 22.449 38.8873 22.4477C40.2975 22.445 40.6788 22.3182 41.4341 23.4765C42.6812 25.3889 44.1749 27.0936 46.4363 27.7976C47.4527 28.1139 47.9714 27.82 48.0345 28.9409C48.066 29.5062 47.6138 32.41 47.1286 32.7039L47.1279 32.7032Z" fill="white"/>
</svg>
