<svg width="71" height="71" viewBox="0 0 71 71" fill="none" xmlns="http://www.w3.org/2000/svg">
<path d="M35.9516 58.7523C22.0777 58.8128 10.6907 47.4784 10.6651 33.5519C10.6394 19.5906 21.9955 8.19111 35.9601 8.2345C49.9136 8.27789 61.179 19.5156 61.1974 33.4704C61.2164 47.5632 49.8413 58.724 35.9509 58.7523H35.9516ZM13.4624 33.4362C13.2263 45.7803 23.7015 56.0924 36.0193 55.9971C48.3884 55.9011 58.3521 45.8244 58.429 33.6749C58.5079 21.148 48.4535 11.0535 35.9444 10.9963C23.6877 10.9404 13.3019 21.1506 13.4624 33.4362Z" fill="white"/>
<path d="M35.9319 15.2852C25.8748 15.2852 17.7217 23.4383 17.7217 33.4953C17.7217 43.5524 25.8748 51.7055 35.9319 51.7055C45.9889 51.7055 54.1421 43.5524 54.1421 33.4953C54.1421 23.4383 45.9889 15.2852 35.9319 15.2852ZM30.1631 43.1158C30.1112 43.3519 30.1204 43.3591 29.9028 43.4189C29.5892 43.5044 29.1001 43.4182 28.7701 43.4176C28.204 43.4163 27.6374 43.4156 27.0713 43.4169C26.5822 43.4182 25.748 43.5925 25.341 43.267C24.8993 42.914 25.107 42.3513 25.1846 41.8812C25.2845 41.2738 25.3824 40.6657 25.4804 40.0582C25.8485 37.7672 26.2174 35.4741 26.5566 33.1772C26.9116 30.7724 27.331 28.3774 27.6978 25.9746C27.8701 24.8445 28.0311 23.7111 28.2303 22.5857C28.3204 22.0768 28.3013 21.453 28.6747 21.0493C29.0482 20.6457 29.5616 20.6996 30.0632 20.6996C32.5745 20.6976 35.0858 20.6956 37.5971 20.7035C39.6383 20.7101 42.0839 21.2492 43.3461 23.0084C44.8082 25.0463 44.1942 28.0014 43.1962 30.1077C42.0661 32.4935 39.8855 33.7925 37.342 34.1935C36.4683 34.3316 35.5854 34.3657 34.834 34.375C33.911 34.3559 32.6093 34.0653 31.8533 34.7214C31.5023 35.0258 31.4056 35.4676 31.3234 35.9054C31.2031 36.5431 31.1065 37.188 31.0079 37.8296C30.8291 38.99 30.6489 40.1516 30.455 41.3093C30.3544 41.9088 30.2926 42.5215 30.1625 43.1152L30.1631 43.1158ZM45.5905 35.6793C44.6537 37.3123 43.1298 38.3325 41.3351 38.8171C40.4134 39.0656 39.4759 39.155 38.5266 39.1569C37.7161 39.1569 37.0955 39.1977 36.8943 40.0997C36.6721 41.0963 36.5696 42.1205 36.4098 43.1283C36.3329 43.6135 36.2527 44.098 36.1744 44.5832C36.1113 44.9756 36.1002 45.4871 35.8694 45.825C35.4204 46.4831 34.2075 46.2563 33.5264 46.2576C33.0228 46.2582 32.5186 46.2602 32.015 46.2517C31.6916 46.2458 31.2071 46.3102 30.9862 46.0117C30.7607 45.7067 30.9303 45.1808 30.9836 44.8475C31.0651 44.3373 31.1321 43.8258 31.2123 43.315C31.5128 41.3947 31.8323 39.4771 32.1498 37.5594C32.2254 37.1052 32.3128 36.6509 32.3779 36.1953C32.4239 35.8725 32.4581 35.5655 32.8112 35.4439C33.1892 35.3137 33.7177 35.4084 34.1135 35.4091C34.6618 35.4091 35.21 35.4104 35.7583 35.4077C37.6595 35.3979 39.5726 34.9522 41.2089 33.9667C42.7249 33.0536 43.8023 31.5691 44.4552 29.9473C44.6162 29.5476 44.753 29.1387 44.8654 28.7226C44.9272 28.4944 44.9844 27.5701 45.25 27.5754C45.4833 27.58 45.9014 28.1973 46.0283 28.3748C46.2801 28.7265 46.4655 29.119 46.5792 29.5358C47.1196 31.5113 46.5937 33.9305 45.5898 35.6806L45.5905 35.6793Z" fill="white"/>
</svg>
