<svg width="71" height="71" viewBox="0 0 71 71" fill="none" xmlns="http://www.w3.org/2000/svg">
<path d="M34.2075 59.9945C20.3335 60.055 8.94658 48.7206 8.92094 34.7941C8.8953 20.8327 20.2514 9.4333 34.216 9.47669C48.1695 9.52007 59.4348 20.7578 59.4532 34.7126C59.4723 48.8054 48.0972 59.9662 34.2068 59.9945H34.2075ZM11.7182 34.6777C11.4822 47.0219 21.9573 57.334 34.2752 57.2387C46.6443 57.1427 56.608 47.0659 56.6849 34.9164C56.7638 22.3895 46.7094 12.295 34.2002 12.2378C21.9435 12.1819 11.5578 22.3921 11.7182 34.6777Z" fill="white"/>
<path d="M34.2825 16.5156C24.2254 16.5156 16.0723 24.6688 16.0723 34.7258C16.0723 44.7828 24.2254 52.936 34.2825 52.936C44.3395 52.936 52.4926 44.7828 52.4926 34.7258C52.4926 24.6688 44.3395 16.5156 34.2825 16.5156ZM32.4009 24.8739C34.8728 24.4604 37.2211 24.793 39.3945 26.098C39.307 26.1407 39.2189 26.1361 39.1361 26.1269C38.6674 26.073 38.2078 26.144 37.7529 26.238C37.3032 26.3307 36.8641 26.4642 36.4315 26.6213C35.7682 26.8619 35.1371 27.1735 34.5047 27.4825C34.3449 27.5607 34.2075 27.5601 34.0497 27.4739C33.3522 27.0933 32.6271 26.7718 31.8757 26.5115C31.3807 26.3406 30.8777 26.1913 30.3551 26.1348C30.0474 26.1013 29.7365 26.1006 29.4268 26.1263C29.3762 26.1302 29.3125 26.1486 29.2605 26.0546C30.2499 25.5011 31.2814 25.0613 32.4009 24.8739ZM26.4521 38.878C26.312 39.4296 26.1681 40.1231 26.362 40.6786C26.3706 40.703 26.3745 40.7293 26.3495 40.7562C26.1858 40.6852 26.0629 40.3959 25.9722 40.2553C25.8354 40.0442 25.7053 39.8286 25.5836 39.6084C25.3345 39.1574 25.1202 38.6847 24.9427 38.2009C24.5824 37.218 24.3707 36.1452 24.2918 35.1018C24.2136 34.0631 24.4259 32.9022 24.7139 31.9075C24.9953 30.9365 25.4482 29.9912 25.9985 29.1444C26.2693 28.7283 26.5743 28.3332 26.9162 27.9729C27.2666 27.6035 27.5013 27.4378 28.0088 27.6087C28.9561 27.9269 29.7667 28.5889 30.507 29.2391C30.7048 29.4133 30.9001 29.5908 31.096 29.7676C31.2045 29.8649 31.4996 30.0365 31.5358 30.172C31.5766 30.3232 31.2387 30.615 31.1479 30.7275C30.9474 30.9779 30.7469 31.2284 30.5523 31.4835C29.9252 32.3059 29.3539 33.1678 28.7997 34.0401C28.1462 35.069 27.5434 36.1392 27.0437 37.2522C26.8064 37.7808 26.5934 38.3153 26.4508 38.8773L26.4521 38.878ZM41.1642 41.716C41.0603 42.2972 40.4575 42.6686 40.0026 42.9717C38.8278 43.754 37.5097 44.3259 36.1179 44.5685C35.471 44.6816 34.8202 44.7191 34.1674 44.7447C32.9584 44.7611 31.7389 44.4817 30.622 44.0301C30.0711 43.8072 29.534 43.5397 29.0265 43.23C28.5742 42.9539 28.0101 42.6318 27.6959 42.1926C27.0589 41.3032 27.8668 39.966 28.3415 39.1843C28.9818 38.1292 29.7779 37.1562 30.6036 36.2418C31.4471 35.3083 32.3405 34.4109 33.2963 33.5918C33.5251 33.3959 33.7572 33.2026 33.9971 33.0205C34.3127 32.7799 34.4126 32.8167 34.717 33.0586C35.1956 33.4393 35.6374 33.8653 36.0811 34.2853C37.8285 35.9368 39.6535 37.7782 40.7191 39.9634C40.9683 40.4742 41.2687 41.1329 41.1642 41.716ZM42.408 40.628C42.3837 40.6615 42.3587 40.6977 42.3087 40.7174C42.216 40.6129 42.3377 40.2263 42.3383 40.0883C42.3403 39.8299 42.3114 39.5696 42.2693 39.3145C42.1832 38.7912 42.0175 38.285 41.8183 37.7946C41.4239 36.8229 40.9249 35.8934 40.3996 34.9875C39.8698 34.073 39.2945 33.1829 38.6884 32.3164C38.4005 31.9049 38.0994 31.5032 37.793 31.1061C37.628 30.8925 37.461 30.6808 37.2921 30.4711C37.2434 30.4106 37.0837 30.2771 37.0929 30.1877C37.1034 30.0839 37.3736 29.9175 37.4472 29.8511C38.1907 29.1799 38.9251 28.4791 39.8027 27.9821C40.1354 27.7941 40.6278 27.5029 41.0235 27.5016C41.4521 27.5002 41.8663 28.1307 42.1056 28.4272C43.3829 30.0102 44.1469 31.9798 44.2691 34.0073C44.4111 36.3634 43.8063 38.7051 42.4087 40.6274L42.408 40.628Z" fill="white"/>
</svg>
