<svg width="71" height="71" viewBox="0 0 71 71" fill="none" xmlns="http://www.w3.org/2000/svg">
<path d="M35.52 59.5531C21.646 59.6136 10.2591 48.2792 10.2334 34.3527C10.2078 20.3913 21.5639 8.99189 35.5285 9.03528C49.482 9.07867 60.7473 20.3164 60.7657 34.2712C60.7848 48.364 49.4097 59.5248 35.5193 59.5531H35.52ZM13.0307 34.2363C12.7947 46.5805 23.2698 56.8926 35.5877 56.7972C47.9568 56.7013 57.9205 46.6245 57.9974 34.475C58.0763 21.9481 48.0219 11.8536 35.5127 11.7964C23.256 11.7405 12.8703 21.9507 13.0307 34.2363Z" fill="white"/>
<path d="M35.9711 16.5078C40.0477 16.5722 44.332 18.2887 47.834 21.8059C51.2894 25.2763 53.0414 29.5238 53.0414 34.4011C53.0407 44.2583 45.1683 52.4982 34.7773 52.328C29.9729 52.2491 25.8142 50.4715 22.4456 47.0286C18.7734 43.2755 17.0411 38.7282 17.2771 33.4794C17.6801 24.5315 25.0831 16.563 35.9711 16.5078ZM36.9789 32.26C36.906 32.1186 36.9204 32.0207 36.9237 31.9273C36.9362 31.5684 36.9493 31.2101 36.971 30.8518C36.9822 30.6605 36.9178 30.5809 36.7133 30.5822C35.5155 30.5895 34.3177 30.5888 33.12 30.5836C32.8964 30.5822 32.8123 30.6782 32.8392 30.8893C32.8964 31.3343 32.8761 31.782 32.8767 32.2291C32.8859 35.6857 32.8826 39.1417 32.8327 42.5983C32.8281 42.9139 32.8327 42.9159 33.1522 42.9159C34.2382 42.9165 35.3242 42.9159 36.4103 42.9165C36.9638 42.9165 36.9671 42.9165 36.9678 42.3551C36.9697 40.0956 36.9691 37.8367 36.9704 35.5772C36.9704 35.4582 36.9632 35.3392 37.0059 35.2222C37.3214 34.3591 38.0124 33.4269 39.3384 33.5149C40.0234 33.5603 40.5368 33.8233 40.8912 34.411C41.2291 34.9724 41.3014 35.5937 41.3034 36.2254C41.3099 38.3646 41.3066 40.5045 41.2988 42.6437C41.2981 42.8541 41.3586 42.9205 41.5696 42.9192C42.7437 42.9113 43.9172 42.9159 45.0913 42.9159C45.4049 42.9159 45.4056 42.9152 45.4056 42.5937C45.4056 40.7096 45.4056 38.8255 45.4056 36.9413C45.4056 36.0341 45.3924 35.1335 45.2333 34.2302C45.0572 33.2283 44.7068 32.3526 43.9908 31.6104C43.2631 30.8564 42.371 30.4389 41.3671 30.3206C40.6736 30.2384 39.9557 30.2266 39.2628 30.479C38.6224 30.7124 38.0643 31.0497 37.5916 31.5394C37.3793 31.7597 37.2136 32.0207 36.9796 32.26H36.9789ZM30.5469 36.7763C30.5469 34.8449 30.5469 32.9134 30.5469 30.9813C30.5469 30.6033 30.5298 30.5855 30.1596 30.5855C29.0499 30.5855 27.9402 30.5855 26.8305 30.5855C26.4506 30.5855 26.4473 30.5855 26.4473 30.9695C26.4473 34.8488 26.4492 38.7275 26.444 42.6069C26.444 42.8455 26.5156 42.9238 26.7589 42.9211C27.9166 42.91 29.0743 42.9165 30.232 42.9165C30.5462 42.9165 30.5475 42.9146 30.5475 42.5951C30.5475 40.6557 30.5475 38.7157 30.5475 36.7763H30.5469ZM26.2119 26.7298C26.2382 27.57 26.5926 28.2261 27.367 28.5864C29.2787 29.4745 31.8308 27.5529 30.4259 25.5445C29.2767 23.9017 26.1238 24.5341 26.2119 26.7305V26.7298Z" fill="white"/>
</svg>
