<svg width="71" height="71" viewBox="0 0 71 71" fill="none" xmlns="http://www.w3.org/2000/svg">
<path d="M37.0532 59.3265C23.1792 59.387 11.7923 48.0527 11.7666 34.1261C11.741 20.1648 23.0971 8.76533 37.0617 8.80872C51.0152 8.85211 62.2805 20.0898 62.2989 34.0446C62.318 48.1375 50.9429 59.2983 37.0525 59.3265H37.0532ZM14.5639 34.0098C14.3279 46.3539 24.803 56.666 37.1209 56.5707C49.49 56.4747 59.4537 46.398 59.5306 34.2484C59.6095 21.7215 49.5551 11.627 37.0459 11.5698C24.7892 11.5139 14.4035 21.7241 14.5639 34.0098Z" fill="white"/>
<path d="M37.6042 51.9466C32.4369 51.8855 28.2269 50.1782 24.8044 46.7873C21.1762 43.1919 19.3782 38.7209 19.582 33.6155C19.9541 24.2967 27.2165 16.5459 37.2735 16.5196C47.2352 16.4933 54.9143 24.465 54.9643 34.3064C54.9886 39.1522 53.1578 43.3622 49.755 46.7755C46.3496 50.1914 42.1238 51.8487 37.6042 51.9466ZM33.9805 42.3222C34.3349 42.3274 34.5939 42.1591 34.7997 41.9738C35.3986 41.4347 35.979 40.8765 36.553 40.3112C36.8836 39.9858 36.9415 39.8832 37.3294 40.1422C37.6134 40.3316 37.8829 40.5485 38.157 40.7523C38.796 41.2269 39.4304 41.7069 40.0721 42.1782C40.5954 42.5628 41.1351 43.1321 41.7767 43.303C43.0626 43.6449 43.0988 41.8738 43.271 41.035C43.5833 39.5111 43.8942 37.9839 44.2367 36.4673C44.547 35.0946 44.8488 33.718 45.121 32.3368C45.3754 31.0424 45.8625 29.6783 45.9401 28.3641C45.9716 27.8342 45.7836 27.2432 45.1709 27.1979C44.6272 27.1578 43.8778 27.6035 43.3801 27.7928C42.0673 28.2918 40.763 28.8131 39.4534 29.3206C36.7732 30.3587 34.0877 31.3842 31.4048 32.4183C30.0768 32.9298 28.6082 33.3374 27.3453 33.9928C26.9213 34.2131 26.5144 34.6496 26.9851 35.0276C27.369 35.3359 28.077 35.4063 28.5392 35.5509C29.2564 35.7757 29.9756 35.992 30.6968 36.2024C31.3003 36.3779 31.6803 36.6231 32.2423 36.2878C33.4862 35.5469 34.7004 34.7488 35.9238 33.9751C37.1597 33.1934 38.3937 32.4098 39.629 31.6275C39.9163 31.4454 42.4151 29.6579 42.6018 30.0924C42.724 30.3771 41.6472 31.12 41.4474 31.3047C40.9582 31.757 40.4698 32.2099 39.9787 32.6596C38.8874 33.6608 37.7909 34.6562 36.6956 35.6534C36.1579 36.1439 35.6188 36.633 35.0758 37.1175C34.6695 37.4797 34.2987 37.7466 34.2573 38.314C34.16 39.6439 34.1146 40.9923 33.9799 42.3222H33.9805Z" fill="white"/>
</svg>
