<svg width="71" height="71" viewBox="0 0 71 71" fill="none" xmlns="http://www.w3.org/2000/svg">
<path d="M38.0952 59.0804C24.2212 59.1409 12.8343 47.8066 12.8086 33.88C12.783 19.9187 24.1391 8.51923 38.1037 8.56262C52.0572 8.60601 63.3225 19.8437 63.3409 33.7985C63.36 47.8914 51.9849 59.0522 38.0945 59.0804H38.0952ZM15.6059 33.7637C15.3699 46.1078 25.845 56.4199 38.1629 56.3246C50.532 56.2286 60.4957 46.1519 60.5726 34.0023C60.6515 21.4754 50.5971 11.3809 38.0879 11.3237C25.8312 11.2679 15.4455 21.4781 15.6059 33.7637Z" fill="white"/>
<path d="M41.8129 32.9727C41.2672 32.6972 40.7202 32.4356 40.1838 32.1404C39.1155 31.552 38.0236 30.9978 36.9382 30.441C36.6811 30.3095 36.4228 30.1793 36.167 30.0452C35.9987 29.9571 35.5616 29.612 35.3768 29.6172C34.9646 29.6291 35.15 30.4554 35.15 30.8012C35.15 32.0884 35.15 33.3756 35.15 34.6628C35.15 35.3064 35.15 35.9501 35.15 36.5937C35.15 36.8349 34.9857 38.251 35.1717 38.3752C35.3551 38.4982 36.1407 37.9742 36.3524 37.871C36.8659 37.6205 37.3635 37.3392 37.8776 37.0893C38.9196 36.5825 39.9392 36.0132 40.9602 35.4649C41.4033 35.2269 41.8615 35.0211 42.298 34.77C42.7483 34.511 43.2999 34.3414 43.6983 34.0054C43.5773 33.8799 43.4577 33.7898 43.3183 33.7431C42.7812 33.5617 42.3164 33.2271 41.8142 32.9733L41.8129 32.9727Z" fill="white"/>
<path d="M38.0745 14.4609C27.3818 14.4609 18.7139 23.1289 18.7139 33.8216C18.7139 44.5143 27.3818 53.1822 38.0745 53.1822C48.7672 53.1822 57.4352 44.5143 57.4352 33.8216C57.4352 23.1289 48.7672 14.4609 38.0745 14.4609ZM49.7336 43.1765C48.5812 43.6229 47.1619 43.6064 45.9437 43.6695C44.527 43.7425 43.107 43.7471 41.6889 43.759C38.9022 43.7826 36.1102 43.7977 33.3234 43.7471C31.9541 43.7221 30.5649 43.6663 29.2048 43.5045C28.1391 43.3777 27.0978 43.1811 26.3391 42.358C25.5785 41.533 25.3642 40.4272 25.2294 39.3497C25.0638 38.0185 24.9842 36.6846 24.973 35.3435C24.9599 33.8019 24.9494 32.2405 25.0644 30.7028C25.1657 29.346 25.2695 27.7333 26.0578 26.5802C26.9012 25.3463 28.1779 25.1136 29.5729 25.0228C31.1796 24.9183 32.7863 24.8026 34.397 24.773C35.8203 24.7474 37.2442 24.7711 38.6668 24.752C41.4582 24.752 44.2469 24.7408 47.0317 24.9643C48.2518 25.0623 49.5035 25.0419 50.533 25.8032C51.5987 26.5908 51.9004 27.8477 52.053 29.0975C52.3856 31.8316 52.3521 34.6473 52.2502 37.3959C52.1733 39.4753 51.9997 42.2989 49.7336 43.1758V43.1765Z" fill="white"/>
</svg>
