<svg width="71" height="71" viewBox="0 0 71 71" fill="none" xmlns="http://www.w3.org/2000/svg">
<g clip-path="url(#clip0_2962_654)">
<path d="M32.8061 60.1547C18.9322 60.2151 7.54521 48.8808 7.51957 34.9543C7.49394 20.9929 18.85 9.59345 32.8146 9.63684C46.7681 9.68023 58.0334 20.918 58.0519 34.8727C58.0709 48.9656 46.6958 60.1264 32.8054 60.1547H32.8061ZM10.3168 34.8379C10.0808 47.182 20.556 57.4941 32.8738 57.3988C45.2429 57.3028 55.2066 47.2261 55.2835 35.0765C55.3624 22.5496 45.308 12.4551 32.7989 12.398C20.5422 12.3421 10.1564 22.5523 10.3168 34.8379Z" fill="white"/>
<path d="M33.0899 53.2611C23.4708 53.6233 14.9863 46.3984 14.1237 36.4696C13.206 25.9024 20.9562 17.5067 30.4564 16.4831C41.3036 15.3142 49.6362 23.476 50.7519 32.4305C52.1935 43.9982 43.0451 53.0922 33.0899 53.2611ZM29.6708 26.4021C27.7525 26.3705 25.2905 26.619 22.8515 27.0858C21.8884 27.2699 20.7596 27.2922 20.2468 28.2744C19.8879 28.9614 20.0325 29.6306 20.6196 30.1342C21.4065 30.8093 22.4104 30.434 23.3202 30.2663C24.6048 30.0296 25.8815 29.8081 27.1845 29.6944C31.8172 29.2887 36.3441 29.8988 40.71 31.5082C42.0662 32.0078 44.9805 34.0464 45.8377 31.8605C46.5984 29.9205 43.615 29.1809 42.3094 28.6734C38.2789 27.1075 33.9906 26.3731 29.6714 26.4027L29.6708 26.4021ZM29.4749 32.6921C28.0128 32.5935 26.3048 32.8506 24.6002 33.0872C23.6575 33.2181 19.7538 33.7525 21.2823 35.661C22.1928 36.7983 25.0584 35.5571 26.2365 35.3987C30.2927 34.853 34.339 35.2968 38.1526 36.7898C39.2683 37.2263 41.6389 39.021 42.8123 38.2926C44.8095 37.0527 41.7743 35.5795 40.8815 35.1679C37.3013 33.5146 33.4206 32.6494 29.4742 32.6921H29.4749ZM28.989 38.7015C27.4757 38.6193 25.798 38.8547 24.1229 39.0821C23.4629 39.1716 22.3729 39.19 21.8871 39.7238C21.4933 40.1557 21.5347 40.9847 22.0376 41.3246C22.5681 41.6828 23.5536 41.3778 24.1032 41.2799C24.9526 41.1287 25.8032 40.9867 26.6618 40.8913C30.0402 40.5166 33.5054 40.8493 36.6399 42.2246C37.5491 42.6236 39.6607 44.3901 40.6021 43.5841C42.0037 42.3836 39.6739 41.3167 38.8508 40.8854C35.784 39.2781 32.4332 38.6456 28.989 38.7008V38.7015Z" fill="white"/>
</g>
<defs>
<clipPath id="clip0_2962_654">
<rect width="71" height="71" fill="white"/>
</clipPath>
</defs>
</svg>
