<svg width="71" height="71" viewBox="0 0 71 71" fill="none" xmlns="http://www.w3.org/2000/svg">
<path d="M34.8237 61.0023C20.9497 61.0628 9.56279 49.7284 9.53715 35.8019C9.51151 21.8406 20.8676 10.4411 34.8322 10.4845C48.7857 10.5279 60.051 21.7656 60.0694 35.7204C60.0885 49.8132 48.7134 60.974 34.823 61.0023H34.8237ZM12.3344 35.6856C12.0984 48.0297 22.5735 58.3418 34.8914 58.2465C47.2605 58.1505 57.2242 48.0737 57.3011 35.9242C57.38 23.3973 47.3256 13.3028 34.8164 13.2456C22.5597 13.1897 12.174 23.3999 12.3344 35.6856Z" fill="white"/>
<path d="M40.0892 37.8364C39.6257 37.6128 38.8224 37.0179 38.2965 37.0284C37.7094 37.0396 37.405 38.0375 36.9876 38.359C36.5169 38.7212 36.0126 38.3649 35.5386 38.1158C34.4743 37.5576 33.5533 36.7602 32.8406 35.7925C32.4357 35.2429 32.0307 34.8346 32.4961 34.239C32.9695 33.6342 33.3212 33.3134 32.9977 32.5285C32.5645 31.4753 32.3147 29.7739 30.8329 30.1835C29.7403 30.4859 29.2117 31.9171 29.2361 32.9446C29.2163 33.3515 29.3077 33.7795 29.4543 34.1976C30.3589 36.7727 32.8012 39.1998 35.2481 40.3332C37.0185 41.153 40.5691 41.9793 41.0898 39.1939C41.2522 38.3242 40.8038 38.1802 40.0885 37.8357L40.0892 37.8364Z" fill="white"/>
<path d="M34.8041 15.332C23.5309 15.332 14.3916 24.4713 14.3916 35.7445C14.3916 47.0178 23.5309 56.157 34.8041 56.157C46.0773 56.157 55.2166 47.0178 55.2166 35.7445C55.2166 24.4713 46.0773 15.332 34.8041 15.332ZM43.7133 43.4204C41.7634 45.6655 39.2791 46.9901 36.3286 47.3721C33.9245 47.6837 31.6242 47.2728 29.4574 46.173C29.2562 46.0711 29.0807 46.0579 28.869 46.1145C27.0132 46.6075 25.1547 47.0927 23.2975 47.5798C23.2035 47.6042 23.1082 47.6219 23.0089 47.6436C22.9379 47.5003 22.9944 47.4076 23.0194 47.3162C23.5125 45.5077 24.0042 43.6992 24.5065 41.8933C24.5742 41.6507 24.5492 41.4528 24.4289 41.2306C23.4743 39.4563 22.9931 37.555 23.0194 35.5434C23.0911 30.077 26.8015 25.6021 31.7005 24.2695C36.8513 22.8692 42.2105 25.0137 44.965 29.5846C45.9307 31.1874 46.4777 32.9289 46.6033 34.7972C46.8228 38.0672 45.8545 40.9545 43.7126 43.4204H43.7133Z" fill="white"/>
</svg>
