<svg width="71" height="71" viewBox="0 0 71 71" fill="none" xmlns="http://www.w3.org/2000/svg">
<path d="M34.5131 61.35C20.6392 61.4105 9.25224 50.0761 9.22661 36.1496C9.20097 22.1882 20.557 10.7888 34.5217 10.8322C48.4751 10.8755 59.7405 22.1133 59.7589 36.0681C59.7779 50.1609 48.4028 61.3217 34.5125 61.35H34.5131ZM12.0239 36.0332C11.7879 48.3773 22.263 58.6894 34.5808 58.5941C46.95 58.4981 56.9136 48.4214 56.9905 36.2718C57.0694 23.745 47.015 13.6505 34.5059 13.5933C22.2492 13.5374 11.8635 23.7476 12.0239 36.0332Z" fill="white"/>
<path d="M45.3074 30.5325C45.245 29.2821 45.1148 27.9863 44.3805 26.9272C43.685 25.9234 42.6719 25.2903 41.4938 24.9964C40.1212 24.6539 38.6117 24.7387 37.2075 24.7348C35.6948 24.7302 34.1828 24.7105 32.6701 24.7157C31.3513 24.7203 30.0332 24.7506 28.7158 24.813C27.6008 24.8663 26.4306 25.0287 25.4754 25.6604C23.4158 27.0232 23.2028 29.5003 23.1903 31.7645C23.1758 34.3895 23.1331 37.0178 23.1936 39.6428C23.2455 41.9063 23.2823 44.4255 25.3328 45.8606C27.2465 47.1997 29.9872 46.896 32.1941 46.9026C34.7534 46.9105 37.341 47.0104 39.895 46.8204C42.213 46.6482 44.318 45.7081 45.0129 43.3118C45.3429 42.1745 45.3298 40.9524 45.3515 39.7782C45.3758 38.4661 45.3581 37.1539 45.3581 35.8417C45.3561 34.0719 45.3949 32.3009 45.3061 30.5331L45.3074 30.5325ZM34.2959 42.7701C30.3863 42.7721 27.4779 39.6376 27.3228 36.1658C27.1341 31.9459 30.4928 28.8173 34.2939 28.8423C38.1667 28.8679 41.2355 31.9032 41.2447 35.8187C41.2539 39.6494 38.1535 42.753 34.2959 42.7701ZM40.3092 29.689C39.3415 28.6411 40.1297 26.9588 41.5234 26.9549C42.4306 26.9529 43.1202 27.6517 43.1367 28.578C43.1393 30.0322 41.2973 30.7586 40.3092 29.689Z" fill="white"/>
<path d="M34.2915 31.2897C31.7776 31.2799 29.7711 33.2475 29.7725 35.8258C29.7738 38.3075 31.7598 40.3205 34.2921 40.3153C36.8212 40.31 38.7599 38.2885 38.8164 35.7857C38.7217 33.2534 36.8238 31.2989 34.2915 31.2891V31.2897Z" fill="white"/>
<path d="M34.2862 16.9961C23.9025 16.9961 15.4844 25.4142 15.4844 35.7979C15.4844 46.1817 23.9025 54.5998 34.2862 54.5998C44.67 54.5998 53.0881 46.1817 53.0881 35.7979C53.0881 25.4142 44.67 16.9961 34.2862 16.9961ZM44.3932 48.0362C41.7938 49.6771 38.305 49.3774 35.3644 49.3484C32.2719 49.3175 28.8718 49.7277 25.8747 48.8133C23.0741 47.9587 21.2518 45.429 20.9119 42.5732C20.5352 39.4091 20.7213 36.1372 20.7331 32.956C20.7397 31.1829 20.7745 29.4224 21.188 27.6908C21.5647 26.113 22.6002 24.7068 23.9084 23.7694C26.7885 21.7058 30.9657 22.2462 34.304 22.2462C37.3695 22.2468 40.7453 21.8964 43.6194 23.1757C46.541 24.4761 47.6145 27.4844 47.7868 30.4677C47.9767 33.7547 47.867 37.0898 47.8275 40.3807C47.7933 43.3009 47.009 46.3842 44.3926 48.0362H44.3932Z" fill="white"/>
</svg>
