<svg width="71" height="71" viewBox="0 0 71 71" fill="none" xmlns="http://www.w3.org/2000/svg">
<path d="M34.5102 61.0218C20.6363 61.0823 9.24932 49.748 9.22368 35.8214C9.19804 21.8601 20.5541 10.4606 34.5187 10.504C48.4722 10.5474 59.7375 21.7851 59.756 35.7399C59.775 49.8328 48.3999 60.9936 34.5095 61.0218H34.5102ZM12.0209 35.7051C11.7849 48.0492 22.2601 58.3613 34.5779 58.266C46.947 58.17 56.9107 48.0933 56.9876 35.9437C57.0665 23.4168 47.0121 13.3223 34.503 13.2651C22.2463 13.2093 11.8605 23.4195 12.0209 35.7051Z" fill="white"/>
<path d="M34.4905 17.5547C24.4334 17.5547 16.2803 25.7079 16.2803 35.7649C16.2803 45.8219 24.4334 53.9751 34.4905 53.9751C44.5475 53.9751 52.7006 45.8219 52.7006 35.7649C52.7006 25.7079 44.5475 17.5547 34.4905 17.5547ZM41.8883 44.6898C40.3953 45.9869 38.5677 46.881 36.6264 47.2636C36.1701 47.3536 36.011 47.424 36.0058 46.9224C35.9999 46.3268 36.0071 45.7305 36.0078 45.1349C36.0084 44.018 36.0084 42.9004 36.0078 41.7834C36.0078 41.2246 36.0064 40.6665 36.0051 40.1077C36.0038 39.4911 35.9151 39.307 36.5679 39.3103C37.0635 39.3129 37.5599 39.3116 38.0556 39.3109C38.6242 39.3103 38.6209 39.3017 38.6893 38.7508C38.7511 38.2518 38.8169 37.7522 38.8826 37.2539C38.9148 37.0113 39.0088 36.724 38.9957 36.4834C38.9786 36.1797 38.9319 36.2093 38.6111 36.2066C38.1384 36.202 37.6657 36.2066 37.1937 36.2066C36.8525 36.2066 36.1603 36.3572 36.0071 36.0305C35.9302 35.8661 36.0051 35.5131 36.0031 35.3218C35.9999 35.0858 35.9959 34.8498 36.0045 34.6138C36.0196 34.1937 36.0557 33.7525 36.2234 33.3614C36.5067 32.7014 37.0912 32.4377 37.7808 32.4101C38.0444 32.3996 38.9148 32.5547 39.093 32.3694C39.3171 32.136 39.1449 31.1039 39.1462 30.7751C39.1469 30.4412 39.2816 29.9475 38.9753 29.7568C38.6163 29.5333 37.7841 29.5688 37.3686 29.5504C35.4404 29.4656 33.6799 30.0717 32.9574 31.9933C32.605 32.9314 32.6267 33.9136 32.6261 34.8991C32.6261 35.1791 32.7779 35.9871 32.5518 36.1804C32.3414 36.3605 31.4144 36.2066 31.1344 36.2066C30.8583 36.2066 30.0115 36.0594 29.8485 36.2928C29.7571 36.4229 29.8183 36.7365 29.8196 36.8904C29.8216 37.2184 29.8222 37.5471 29.8222 37.8751C29.8222 38.1361 29.6703 39.0677 29.8597 39.2603C30.049 39.4529 30.9339 39.3063 31.1922 39.307C31.4743 39.307 32.3151 39.1584 32.5419 39.3208C32.7661 39.4818 32.6267 40.2063 32.6267 40.4634C32.6267 41.5599 32.6267 42.6565 32.6267 43.753C32.6267 44.8496 32.6267 45.9461 32.6267 47.0427C32.6267 47.1216 32.6201 47.2005 32.6149 47.3103C28.5449 46.526 25.1369 43.7234 23.8043 39.7566C22.479 35.8096 23.5374 31.3195 26.4635 28.3598C29.3298 25.4607 33.7456 24.205 37.6763 25.4363C41.501 26.6341 44.4364 29.6635 45.4146 33.5586C46.4277 37.5905 45.0261 41.9655 41.8883 44.6918V44.6898Z" fill="white"/>
</svg>
