<svg xmlns="http://www.w3.org/2000/svg" width="98" height="98" viewBox="0 0 98 98" version="1.1"><path d="M 46.709 29.624 C 46.319 30.014, 46 33.840, 46 38.126 L 46 45.919 37.750 46.210 C 29.694 46.493, 29.500 46.559, 29.500 49 C 29.500 51.440, 29.697 51.507, 37.710 51.790 L 45.920 52.080 46.210 60.290 C 46.493 68.303, 46.560 68.500, 49 68.500 C 51.440 68.500, 51.507 68.303, 51.790 60.290 L 52.080 52.080 60.290 51.790 C 68.303 51.507, 68.500 51.440, 68.500 49 C 68.500 46.560, 68.303 46.493, 60.290 46.210 L 52.080 45.920 51.790 37.710 C 51.529 30.320, 51.296 29.471, 49.459 29.208 C 48.336 29.047, 47.099 29.235, 46.709 29.624" stroke="none" fill="#fcf3f9" fill-rule="evenodd"/><path d="M 33.762 1.942 C 19.436 6.521, 7.057 18.987, 2.037 33.890 C -0.503 41.431, -0.716 55.183, 1.585 63.068 C 5.911 77.886, 18.584 90.807, 33.832 95.943 C 41.432 98.504, 55.154 98.725, 63.068 96.415 C 77.385 92.236, 90.461 79.745, 95.432 65.500 C 96.392 62.750, 97.587 59.719, 98.089 58.764 C 99.224 56.601, 99.305 37.693, 98.176 38.391 C 97.723 38.671, 96.784 36.682, 96.089 33.970 C 93.734 24.781, 84.106 12.695, 74.329 6.652 C 63.492 -0.045, 46.242 -2.048, 33.762 1.942 M 46.709 29.624 C 46.319 30.014, 46 33.840, 46 38.126 L 46 45.919 37.750 46.210 C 29.694 46.493, 29.500 46.559, 29.500 49 C 29.500 51.440, 29.697 51.507, 37.710 51.790 L 45.920 52.080 46.210 60.290 C 46.493 68.303, 46.560 68.500, 49 68.500 C 51.440 68.500, 51.507 68.303, 51.790 60.290 L 52.080 52.080 60.290 51.790 C 68.303 51.507, 68.500 51.440, 68.500 49 C 68.500 46.560, 68.303 46.493, 60.290 46.210 L 52.080 45.920 51.790 37.710 C 51.529 30.320, 51.296 29.471, 49.459 29.208 C 48.336 29.047, 47.099 29.235, 46.709 29.624 M 0.370 49 C 0.370 54.775, 0.535 57.138, 0.737 54.250 C 0.939 51.362, 0.939 46.638, 0.737 43.750 C 0.535 40.862, 0.370 43.225, 0.370 49" stroke="none" fill="#d43bb4" fill-rule="evenodd"/></svg>