<svg width="790" height="790" viewBox="0 0 790 790" fill="none" xmlns="http://www.w3.org/2000/svg">
<circle cx="395" cy="395" r="395" fill="white"/>
<g clip-path="url(#clip0_4335_1612)">
<path d="M393.892 789.986C171.914 789.475 -1.27216 607.76 0.00704069 393.223C1.34107 171.083 182.842 -1.01889 395.921 0.00454074C619.105 1.06453 791.085 183.199 790.007 396.275C788.874 618.616 607.392 791.284 393.892 789.986ZM28.9171 394.283C28.3506 596.448 192.71 760.617 393.856 761.147C596.427 761.677 760.439 596.923 761.079 396.494C761.718 193.434 597.176 29.6476 396.688 28.8983C193.076 28.1673 29.246 192.94 28.9171 394.283Z" fill="url(#paint0_linear_4335_1612)"/>
<path d="M174.647 135.111C199.847 156.384 225.779 175.701 255.054 191.035C264.392 195.914 271.282 196.243 271.848 206.002C272.397 215.652 260.262 235.499 257.119 244.747C246.593 275.706 238.644 307.651 233.545 339.963C232.102 349.119 234.715 375.344 227.442 380.845C218.725 387.461 187.86 381.869 176.877 381.85C159.315 381.832 141.753 381.832 124.192 381.85C105.387 381.85 82.3617 385.542 63.9777 381.85C53.1958 379.694 54.7309 377.629 55.2608 365.512C56.0649 346.615 60.1949 327.883 64.7635 309.589C80.9363 244.582 117.448 185.589 167.228 140.868C169.384 138.931 171.815 137.304 174.647 135.111Z" fill="url(#paint1_linear_4335_1612)"/>
<path d="M615.259 135.514C621.783 138.767 626.279 144.25 631.286 149.002C658.039 174.368 679.841 203.591 697.11 236.049C707.106 254.818 715.439 274.5 721.214 295.024C728.45 320.756 734.883 346.671 734.938 373.719C734.938 379.75 733.384 381.979 727.025 381.961C673.847 381.76 620.668 381.76 567.49 381.961C561.204 381.979 559.504 379.695 559.34 373.664C558.682 349.102 554.003 325.124 548.868 301.11C543.971 278.21 536.679 256.133 529.242 234.075C526.482 225.869 523.577 217.554 519.374 209.805C515.207 202.129 515.719 200.612 523.321 196.92C543.148 187.344 562.172 176.397 579.88 163.348C591.795 154.576 603.161 145.054 615.259 135.496V135.514Z" fill="url(#paint2_linear_4335_1612)"/>
<path d="M615.774 654.888C605.266 646.664 595.252 639.116 585.585 631.148C575.698 622.997 564.971 616.107 553.988 609.619C543.572 603.46 532.936 597.612 521.99 592.495C516.142 589.753 516.49 586.372 518.555 581.895C520.985 576.595 523.16 571.204 525.334 565.776C533.594 545.106 540.447 523.943 545.729 502.396C552.728 473.868 558.977 445.084 559.453 415.477C559.544 409.94 561.444 408.094 567.018 408.094C620.397 408.258 673.777 408.277 727.156 408.094C732.949 408.094 734.941 409.702 735.014 415.733C735.142 428.672 732.894 441.209 730.902 453.892C726.9 479.314 719.408 503.712 709.558 527.306C700.841 548.158 690.041 567.969 677.103 586.683C661.953 608.596 644.812 628.626 625.368 646.737C622.426 649.478 619.228 651.964 615.811 654.851L615.774 654.888Z" fill="url(#paint3_linear_4335_1612)"/>
<path d="M142.832 408.259C169.184 408.259 195.536 408.424 221.869 408.132C228.21 408.058 230.988 409.831 230.513 416.483C229.562 429.861 233.071 442.837 234.771 455.959C238.535 484.962 246.338 513.052 255.421 540.721C259.788 554.062 264.046 567.605 270.625 580.196C274.499 587.635 273.896 589.261 266.458 592.989C246.832 602.858 227.607 613.476 210.009 626.69C200.323 633.963 190.309 640.853 181.592 649.351C175.196 655.602 174.356 655.583 167.448 649.297C138.538 622.943 114.397 592.88 95.6479 558.394C84.5737 538.016 75.2903 516.926 68.8029 494.794C61.2921 469.172 55.0789 443.166 54.9692 416.118C54.9327 409.813 57.016 408.04 63.1196 408.095C89.6905 408.351 116.261 408.205 142.832 408.205V408.241V408.259Z" fill="url(#paint4_linear_4335_1612)"/>
<path d="M383.286 301.639C383.286 325.507 383.121 349.375 383.395 373.225C383.468 379.439 381.878 381.979 375.153 381.943C337.782 381.687 300.411 381.869 263.04 381.833C255.676 381.833 254.799 380.663 255.603 373.572C259.13 342.796 263.388 312.13 272.178 282.34C278.336 261.524 284.823 240.763 293.979 220.989C299.479 209.11 299.443 209.494 312.016 213.094C332.794 219.052 353.937 223.347 375.702 222.725C381.805 222.543 383.669 224.224 383.541 230.694C383.066 254.324 383.359 277.973 383.359 301.603H383.304L383.286 301.639Z" fill="url(#paint5_linear_4335_1612)"/>
<path d="M406.641 488.069C406.641 464.42 406.641 440.772 406.641 417.141C406.641 408.314 406.678 408.278 415.76 408.278C452.693 408.26 489.607 408.241 526.539 408.26C534.416 408.26 535.274 409.082 534.251 416.794C530.541 445.03 526.941 473.211 519.321 500.88C512.267 526.448 503.112 551.157 493.737 575.847C492.732 578.515 491.087 579.904 488.127 579.484C486.573 579.246 484.91 579.447 483.448 578.954C460.277 571.04 436.429 567.093 411.959 567.294C407.299 567.331 406.459 565.229 406.477 561.062C406.641 536.737 406.55 512.431 406.55 488.106H406.623L406.641 488.069Z" fill="url(#paint6_linear_4335_1612)"/>
<path d="M406.642 301.75C406.642 278.083 406.843 254.434 406.514 230.767C406.423 224.444 408.616 222.707 414.665 222.726C437.764 222.799 460.278 218.943 482.207 211.578C490.101 208.928 491.472 210.189 494.871 218.175C499.531 229.104 503.496 240.27 507.59 251.418C516.599 275.926 522.666 301.146 527.893 326.641C531.054 342.102 531.438 357.892 534.325 373.372C535.385 379.074 533.96 382.016 527.107 381.979C489.48 381.705 451.853 381.724 414.226 381.943C408.214 381.979 406.478 379.841 406.551 374.066C406.789 349.961 406.642 325.837 406.661 301.731L406.642 301.75Z" fill="url(#paint7_linear_4335_1612)"/>
<path d="M382.082 567.386C364.429 565.832 347.269 569.524 329.963 572.393C322.544 573.618 315.563 575.811 308.546 578.168C299.756 581.129 298.915 580.069 295.151 572.119C288.7 558.467 283.93 544.176 279.215 529.975C273.221 511.956 268.342 493.552 264.413 474.856C260.503 456.325 258.858 437.556 255.952 418.915C254.362 408.698 254.819 408.223 265.199 408.223C301.693 408.223 338.187 408.424 374.681 408.132C381.497 408.077 383.507 410.069 383.471 416.923C383.196 464.001 383.343 511.097 383.306 558.175C383.306 560.825 383.836 563.566 382.118 567.367L382.082 567.386Z" fill="url(#paint8_linear_4335_1612)"/>
<path d="M360.132 733.674C356.843 735.629 354.01 733.875 351.269 733.473C329.705 730.256 308.489 725.742 287.711 718.852C259.459 709.477 233.089 696.41 207.98 680.601C194.42 672.067 194.493 672.396 206.408 662.07C228.264 643.136 252.916 628.626 278.519 615.522C282.941 613.256 285.847 613.713 288.204 618.592C297.524 637.964 308.233 656.569 319.654 674.753C330.016 691.238 340.871 707.412 352.95 722.709C355.655 726.126 358.597 729.416 360.132 733.674Z" fill="url(#paint9_linear_4335_1612)"/>
<path d="M429.448 732.944C435.771 724.336 442.13 715.765 448.398 707.138C467.258 681.169 483.321 653.5 498.744 625.428C505.195 613.677 504.994 613.586 518.097 619.543C544.814 631.715 568.223 648.839 590.372 667.828C591.56 668.833 592.875 669.801 593.351 672.488C544.613 707.376 490.137 727.753 430.453 734.57C430.106 734.04 429.777 733.492 429.43 732.962L429.448 732.944Z" fill="url(#paint10_linear_4335_1612)"/>
<path d="M360.425 57.0377C339.355 86.2055 318.924 115.154 301.326 146.606C293.541 160.532 290.964 180.288 273.33 171.717C256.517 163.548 240.125 153.496 225.031 142.513C218.47 137.743 212.22 132.607 206.062 127.344C199.044 121.35 195.243 120.874 201.731 113.674C212.33 101.959 233.528 93.7534 247.563 87.0462C283.417 69.922 320.404 62.0269 359.237 55.0273C359.639 55.6853 360.023 56.3615 360.425 57.0194V57.0377Z" fill="url(#paint11_linear_4335_1612)"/>
<path d="M594.482 118.426C578.602 132.298 562.539 145.127 544.539 156.22C536.48 161.191 528.183 165.669 519.759 169.982C507.478 176.269 505.852 177.895 498.889 165.705C488.418 147.375 478.861 128.569 467.549 110.714C455.872 92.2923 440.686 75.6432 430.434 56.4355C490.282 62.6493 544.758 82.4966 594.501 118.426H594.482Z" fill="url(#paint12_linear_4335_1612)"/>
<path d="M380.765 72.5C383.945 75.6434 383.269 78.001 383.269 80.1392C383.324 116.599 383.324 153.077 383.305 189.537C383.305 197.615 382.337 198.401 374.241 197.597C354.797 195.678 335.426 193.302 316.439 188.459C311.853 187.289 309.934 185.845 312.51 180.582C322.744 159.62 334.732 139.718 347.433 120.163C355.492 107.735 364.318 95.8928 372.724 83.7212C375.301 79.993 379.504 77.873 380.765 72.5Z" fill="url(#paint13_linear_4335_1612)"/>
<path d="M408.265 717.483C405.744 715.491 406.694 713.298 406.694 711.434C406.621 674.48 406.749 637.527 406.493 600.574C406.456 594.177 408.137 591.655 414.862 592.24C435.037 594.031 454.975 597.138 474.674 601.853C478.311 602.73 479.773 604.375 477.744 608.652C467.694 629.998 455.212 649.881 442.585 669.747C434.489 682.449 425.498 694.492 416.818 706.755C414.186 710.465 411.153 713.883 408.265 717.483Z" fill="url(#paint14_linear_4335_1612)"/>
<path d="M381.715 717.41C362.983 694.145 346.208 669.162 331.113 643.394C325.923 634.548 312.729 619.508 312.491 609.218C312.217 597.211 330.345 598.344 341.219 596.535C346.92 595.585 375.465 588.22 380.49 592.24C385.936 596.59 383.323 609.091 383.323 615.359C383.323 646.227 383.323 677.076 383.286 707.943C383.286 710.739 383.853 713.7 381.715 717.392V717.41Z" fill="url(#paint15_linear_4335_1612)"/>
<path d="M408.412 72.5723C436.043 107.99 460.074 144.962 479.481 184.73C476.521 189.39 471.898 187.891 468.261 189.116C451.046 194.946 432.973 195.384 415.174 197.577C407.444 198.528 406.622 197.596 406.622 189.792C406.603 153.113 406.622 116.434 406.676 79.7546C406.676 77.6346 405.945 75.2771 408.394 72.5723H408.412Z" fill="url(#paint16_linear_4335_1612)"/>
</g>
<defs>
<linearGradient id="paint0_linear_4335_1612" x1="0" y1="394.997" x2="790.012" y2="394.997" gradientUnits="userSpaceOnUse">
<stop stop-color="#9022BA"/>
<stop offset="1" stop-color="#DC44AA"/>
</linearGradient>
<linearGradient id="paint1_linear_4335_1612" x1="54.8711" y1="259.593" x2="271.866" y2="259.593" gradientUnits="userSpaceOnUse">
<stop stop-color="#9022BA"/>
<stop offset="1" stop-color="#DC44AA"/>
</linearGradient>
<linearGradient id="paint2_linear_4335_1612" x1="516.773" y1="258.729" x2="734.938" y2="258.729" gradientUnits="userSpaceOnUse">
<stop stop-color="#9022BA"/>
<stop offset="1" stop-color="#DC44AA"/>
</linearGradient>
<linearGradient id="paint3_linear_4335_1612" x1="517.188" y1="531.491" x2="735.019" y2="531.491" gradientUnits="userSpaceOnUse">
<stop stop-color="#9022BA"/>
<stop offset="1" stop-color="#DC44AA"/>
</linearGradient>
<linearGradient id="paint4_linear_4335_1612" x1="54.9688" y1="531.06" x2="272.975" y2="531.06" gradientUnits="userSpaceOnUse">
<stop stop-color="#9022BA"/>
<stop offset="1" stop-color="#DC44AA"/>
</linearGradient>
<linearGradient id="paint5_linear_4335_1612" x1="255.359" y1="296.41" x2="383.548" y2="296.41" gradientUnits="userSpaceOnUse">
<stop stop-color="#9022BA"/>
<stop offset="1" stop-color="#DC44AA"/>
</linearGradient>
<linearGradient id="paint6_linear_4335_1612" x1="406.477" y1="493.905" x2="534.599" y2="493.905" gradientUnits="userSpaceOnUse">
<stop stop-color="#9022BA"/>
<stop offset="1" stop-color="#DC44AA"/>
</linearGradient>
<linearGradient id="paint7_linear_4335_1612" x1="406.512" y1="296.152" x2="534.64" y2="296.152" gradientUnits="userSpaceOnUse">
<stop stop-color="#9022BA"/>
<stop offset="1" stop-color="#DC44AA"/>
</linearGradient>
<linearGradient id="paint8_linear_4335_1612" x1="255.266" y1="493.907" x2="383.471" y2="493.907" gradientUnits="userSpaceOnUse">
<stop stop-color="#9022BA"/>
<stop offset="1" stop-color="#DC44AA"/>
</linearGradient>
<linearGradient id="paint9_linear_4335_1612" x1="197.633" y1="674.396" x2="360.132" y2="674.396" gradientUnits="userSpaceOnUse">
<stop stop-color="#9022BA"/>
<stop offset="1" stop-color="#DC44AA"/>
</linearGradient>
<linearGradient id="paint10_linear_4335_1612" x1="429.43" y1="675.111" x2="593.351" y2="675.111" gradientUnits="userSpaceOnUse">
<stop stop-color="#9022BA"/>
<stop offset="1" stop-color="#DC44AA"/>
</linearGradient>
<linearGradient id="paint11_linear_4335_1612" x1="198.395" y1="114.414" x2="360.425" y2="114.414" gradientUnits="userSpaceOnUse">
<stop stop-color="#9022BA"/>
<stop offset="1" stop-color="#DC44AA"/>
</linearGradient>
<linearGradient id="paint12_linear_4335_1612" x1="430.434" y1="115.622" x2="594.501" y2="115.622" gradientUnits="userSpaceOnUse">
<stop stop-color="#9022BA"/>
<stop offset="1" stop-color="#DC44AA"/>
</linearGradient>
<linearGradient id="paint13_linear_4335_1612" x1="311.355" y1="135.172" x2="383.329" y2="135.172" gradientUnits="userSpaceOnUse">
<stop stop-color="#9022BA"/>
<stop offset="1" stop-color="#DC44AA"/>
</linearGradient>
<linearGradient id="paint14_linear_4335_1612" x1="406.492" y1="654.821" x2="478.664" y2="654.821" gradientUnits="userSpaceOnUse">
<stop stop-color="#9022BA"/>
<stop offset="1" stop-color="#DC44AA"/>
</linearGradient>
<linearGradient id="paint15_linear_4335_1612" x1="312.488" y1="654.229" x2="383.949" y2="654.229" gradientUnits="userSpaceOnUse">
<stop stop-color="#9022BA"/>
<stop offset="1" stop-color="#DC44AA"/>
</linearGradient>
<linearGradient id="paint16_linear_4335_1612" x1="406.574" y1="135.227" x2="479.481" y2="135.227" gradientUnits="userSpaceOnUse">
<stop stop-color="#9022BA"/>
<stop offset="1" stop-color="#DC44AA"/>
</linearGradient>
<clipPath id="clip0_4335_1612">
<rect width="790" height="790" fill="white"/>
</clipPath>
</defs>
</svg>
