<svg width="123" height="123" viewBox="0 0 123 123" fill="none" xmlns="http://www.w3.org/2000/svg">
<g clip-path="url(#clip0_4335_1476)">
<path fill-rule="evenodd" clip-rule="evenodd" d="M123 38.4763C123 37.0072 123 35.538 122.992 34.0688C122.984 32.8322 122.971 31.5956 122.937 30.359C122.865 27.6637 122.704 24.9474 122.226 22.2812C121.74 19.5754 120.944 17.0572 119.694 14.5972C118.463 12.182 116.859 9.97302 114.941 8.0573C113.025 6.14157 110.814 4.53501 108.399 3.30366C105.941 2.05382 103.423 1.2611 100.723 0.772263C98.0565 0.293993 95.3375 0.132808 92.6424 0.0614639C91.4058 0.027113 90.1692 0.0139011 88.9326 0.005974C87.4634 -0.00195312 85.9943 -0.00195312 84.5252 -0.00195312H38.4748C37.0057 -0.00195312 35.5366 -0.00195312 34.0674 0.005974C32.8308 0.0139011 31.5942 0.027113 30.3576 0.0614639C27.6624 0.13545 24.9435 0.293993 22.2774 0.774906C19.5717 1.2611 17.0562 2.05646 14.6015 3.3063C12.1864 4.53765 9.97476 6.14157 8.05908 8.05994C6.14339 9.97566 4.53686 12.1847 3.30554 14.5998C2.05573 17.0599 1.25774 19.5781 0.7742 22.2839C0.29594 24.95 0.134758 27.669 0.0634157 30.3616C0.0290655 31.5982 0.0158539 32.8349 0.00792696 34.0715C0 35.538 0 37.0072 0 38.4763V84.525C0 85.9942 0 87.4634 0.00792696 88.9325C0.0158539 90.1692 0.0290655 91.4058 0.0634157 92.6424C0.134758 95.3376 0.29594 98.054 0.7742 100.72C1.26039 103.426 2.05573 105.944 3.30554 108.404C4.53686 110.819 6.14075 113.028 8.05908 114.944C9.97476 116.86 12.1864 118.466 14.6015 119.698C17.0588 120.948 19.5769 121.74 22.2774 122.229C24.9435 122.707 27.6624 122.869 30.3576 122.94C31.5942 122.974 32.8308 122.987 34.0674 122.995C35.5366 123.006 37.0057 123.003 38.4748 123.003H84.5225C85.9917 123.003 87.4608 123.003 88.9299 122.995C90.1665 122.987 91.4031 122.974 92.6397 122.94C95.3349 122.869 98.0539 122.707 100.72 122.229C103.426 121.743 105.941 120.948 108.396 119.698C110.811 118.466 113.023 116.862 114.938 114.944C116.854 113.028 118.46 110.819 119.692 108.404C120.942 105.944 121.74 103.426 122.223 100.72C122.701 98.054 122.863 95.335 122.934 92.6424C122.968 91.4058 122.982 90.1692 122.989 88.9325C123 87.4634 122.997 85.9942 122.997 84.525V38.4763H123Z" fill="url(#paint0_linear_4335_1476)"/>
<path fill-rule="evenodd" clip-rule="evenodd" d="M56.4212 74.8136C56.3525 75.0435 56.2917 75.239 56.2389 75.4319C53.2953 86.9659 52.9677 89.529 49.9422 94.8851C48.4995 97.4297 46.8745 99.8448 45.0777 102.152C44.8743 102.413 44.684 102.749 44.2797 102.667C43.8358 102.572 43.8015 102.173 43.7539 101.819C43.2704 98.3149 43.0035 94.7979 43.1198 91.2624C43.273 86.6514 43.8438 85.0713 49.7837 60.0823C49.8709 59.7018 49.7731 59.3847 49.6463 59.0412C48.2247 55.2045 47.9446 51.3096 49.1839 47.3646C51.8738 38.8429 61.5341 38.1876 63.2252 45.2216C64.2662 49.571 61.513 55.2626 59.3991 63.676C57.6499 70.6175 65.8199 75.5534 72.8036 70.4854C79.2429 65.8136 81.7452 54.6152 81.2696 46.6775C80.3342 30.8524 62.9794 27.4305 51.9689 32.5276C39.3465 38.3646 36.4796 54.0101 42.1765 61.1578C42.9004 62.0668 43.4553 62.6243 43.2175 63.5465C42.8502 64.9787 42.5252 66.4214 42.1315 67.8456C41.8382 68.9052 40.9504 69.291 39.8803 68.855C37.7796 68.0068 36.0304 66.6671 34.6088 64.9047C29.7681 58.9118 28.3835 47.0581 34.7832 37.0223C41.8726 25.9032 55.0578 21.4085 67.0988 22.772C81.4783 24.4076 90.5679 34.232 92.2696 45.3775C93.0438 50.4561 92.4862 62.9757 85.3599 71.8251C77.1608 81.9956 63.8673 82.6694 57.7371 76.4281C57.2641 75.9498 56.8862 75.3896 56.4238 74.8162L56.4212 74.8136Z" fill="white"/>
</g>
<defs>
<linearGradient id="paint0_linear_4335_1476" x1="0" y1="61.4994" x2="123" y2="61.4994" gradientUnits="userSpaceOnUse">
<stop stop-color="#FF4C3C"/>
<stop offset="0.96" stop-color="#EE053D"/>
<stop offset="1" stop-color="#EE023E"/>
</linearGradient>
<clipPath id="clip0_4335_1476">
<rect width="123" height="123" fill="white"/>
</clipPath>
</defs>
</svg>
