<svg width="59" height="54" viewBox="0 0 59 54" fill="none" xmlns="http://www.w3.org/2000/svg">
<g clip-path="url(#clip0_4124_1780)">
<path d="M35.2048 35.4454C33.5115 36.4662 31.5283 37.0103 29.5007 37.0103C27.4731 37.0103 25.4899 36.4662 23.7966 35.4454C23.7235 35.3981 23.6408 35.3646 23.5534 35.3471C23.4659 35.3296 23.3755 35.3284 23.2875 35.3435C23.1995 35.3585 23.1158 35.3896 23.0412 35.4349C22.9666 35.4802 22.9026 35.5387 22.8532 35.6071C22.8038 35.6754 22.7699 35.7521 22.7535 35.8326C22.7371 35.9132 22.7385 35.9959 22.7577 36.0759C22.7769 36.156 22.8135 36.2316 22.8653 36.2985C22.9171 36.3653 22.983 36.422 23.0591 36.465C24.9712 37.6182 27.2108 38.2329 29.5007 38.2329C31.7906 38.2329 34.0302 37.6182 35.9423 36.465C36.0841 36.3732 36.1812 36.2345 36.2132 36.0783C36.2452 35.9221 36.2094 35.7606 36.1136 35.628C36.0177 35.4955 35.8692 35.4023 35.6996 35.3682C35.53 35.3341 35.3525 35.3618 35.2048 35.4454Z" fill="url(#paint0_linear_4124_1780)" fill-opacity="0.5"/>
<path d="M23.3275 32.0436C24.7531 32.0436 25.9088 30.9858 25.9088 29.681C25.9088 28.3761 24.7531 27.3184 23.3275 27.3184C21.9018 27.3184 20.7461 28.3761 20.7461 29.681C20.7461 30.9858 21.9018 32.0436 23.3275 32.0436Z" fill="url(#paint1_linear_4124_1780)" fill-opacity="0.5"/>
<path d="M35.6712 32.0436C37.0969 32.0436 38.2526 30.9858 38.2526 29.681C38.2526 28.3761 37.0969 27.3184 35.6712 27.3184C34.2456 27.3184 33.0898 28.3761 33.0898 29.681C33.0898 30.9858 34.2456 32.0436 35.6712 32.0436Z" fill="url(#paint2_linear_4124_1780)" fill-opacity="0.5"/>
<path d="M29.5 0C13.2076 0 0 12.0883 0 27C0 41.9117 13.2076 54 29.5 54C45.7924 54 59 41.9117 59 27C59 12.0883 45.7924 0 29.5 0ZM44.8618 30.4154C44.9349 30.8018 44.9718 31.1932 44.9721 31.5854C44.9721 36.9947 38.0451 41.3799 29.5 41.3799C20.9549 41.3799 14.0279 36.9947 14.0279 31.5854C14.0283 31.1932 14.0651 30.8018 14.1382 30.4154C13.6182 30.2089 13.1546 29.8995 12.7809 29.5094C12.4072 29.1193 12.1326 28.6583 11.9769 28.1594C11.8212 27.6605 11.7883 27.1363 11.8805 26.6244C11.9727 26.1125 12.1878 25.6256 12.5102 25.1989C12.8326 24.7722 13.2544 24.4162 13.7451 24.1566C14.2359 23.8969 14.7834 23.74 15.3483 23.6973C15.9132 23.6545 16.4815 23.7269 17.0122 23.9092C17.5429 24.0915 18.0228 24.3793 18.4174 24.7517C21.0748 23.025 24.7299 21.9169 28.7936 21.8013L30.7344 13.2344C30.7796 13.0349 30.9093 12.8598 31.0951 12.7476C31.281 12.6353 31.5079 12.595 31.7261 12.6355L38.2453 13.8429C38.558 13.3497 39.0521 12.9742 39.6393 12.7834C40.2265 12.5927 40.8687 12.5991 41.4512 12.8015C42.0337 13.0039 42.5187 13.3891 42.8197 13.8885C43.1207 14.3878 43.218 14.9688 43.0944 15.5277C42.9707 16.0867 42.6342 16.5872 42.1447 16.9401C41.6552 17.293 41.0447 17.4753 40.422 17.4544C39.7994 17.4334 39.205 17.2108 38.7451 16.826C38.2852 16.4412 37.9896 15.9195 37.9111 15.3537L32.2133 14.2984L30.5112 21.8121C34.4528 21.9731 37.992 23.0682 40.5827 24.7517C40.9773 24.3795 41.4572 24.0919 41.9879 23.9098C42.5185 23.7276 43.0866 23.6553 43.6514 23.6981C44.2162 23.741 44.7636 23.8979 45.2542 24.1575C45.7448 24.4171 46.1664 24.773 46.4888 25.1997C46.8111 25.6263 47.0261 26.113 47.1183 26.6248C47.2106 27.1365 47.1777 27.6607 47.0221 28.1594C46.8666 28.6582 46.5921 29.1192 46.2186 29.5093C45.8451 29.8994 45.3817 30.2088 44.8619 30.4154H44.8618Z" fill="url(#paint3_linear_4124_1780)" fill-opacity="0.5"/>
</g>
<defs>
<linearGradient id="paint0_linear_4124_1780" x1="29.4834" y1="35.333" x2="29.4834" y2="38.2329" gradientUnits="userSpaceOnUse">
<stop stop-color="#9A9799"/>
<stop offset="1" stop-color="#222122"/>
</linearGradient>
<linearGradient id="paint1_linear_4124_1780" x1="23.3275" y1="27.3184" x2="23.3275" y2="32.0436" gradientUnits="userSpaceOnUse">
<stop stop-color="#9A9799"/>
<stop offset="1" stop-color="#222122"/>
</linearGradient>
<linearGradient id="paint2_linear_4124_1780" x1="35.6712" y1="27.3184" x2="35.6712" y2="32.0436" gradientUnits="userSpaceOnUse">
<stop stop-color="#9A9799"/>
<stop offset="1" stop-color="#222122"/>
</linearGradient>
<linearGradient id="paint3_linear_4124_1780" x1="29.5" y1="0" x2="29.5" y2="54" gradientUnits="userSpaceOnUse">
<stop stop-color="#9A9799"/>
<stop offset="1" stop-color="#222122"/>
</linearGradient>
<clipPath id="clip0_4124_1780">
<rect width="59" height="54" fill="white"/>
</clipPath>
</defs>
</svg>
