<svg width="480" height="484" viewBox="0 0 480 484" fill="none" xmlns="http://www.w3.org/2000/svg">
<g clip-path="url(#clip0_4065_1279)">
<path d="M286.406 317.693C272.63 326.842 256.496 331.719 240 331.719C223.504 331.719 207.37 326.842 193.594 317.693C192.999 317.269 192.326 316.969 191.615 316.812C190.904 316.655 190.168 316.644 189.452 316.779C188.736 316.914 188.055 317.193 187.448 317.599C186.841 318.005 186.321 318.53 185.919 319.142C185.517 319.754 185.241 320.442 185.108 321.164C184.974 321.886 184.986 322.627 185.142 323.344C185.298 324.062 185.596 324.74 186.017 325.339C186.438 325.938 186.974 326.446 187.594 326.832C203.15 337.168 221.371 342.677 240 342.677C258.63 342.677 276.85 337.168 292.406 326.832C293.56 326.009 294.35 324.766 294.61 323.366C294.87 321.965 294.58 320.518 293.8 319.33C293.02 318.142 291.812 317.307 290.432 317.001C289.052 316.696 287.608 316.944 286.406 317.693Z" fill="url(#paint0_linear_4065_1279)"/>
<path d="M189.798 287.209C201.396 287.209 210.799 277.729 210.799 266.033C210.799 254.338 201.396 244.857 189.798 244.857C178.199 244.857 168.797 254.338 168.797 266.033C168.797 277.729 178.199 287.209 189.798 287.209Z" fill="url(#paint1_linear_4065_1279)"/>
<path d="M290.204 287.209C301.803 287.209 311.205 277.729 311.205 266.033C311.205 254.338 301.803 244.857 290.204 244.857C278.606 244.857 269.203 254.338 269.203 266.033C269.203 277.729 278.606 287.209 290.204 287.209Z" fill="url(#paint2_linear_4065_1279)"/>
<path d="M240 0C107.452 0 0 108.347 0 242C0 375.653 107.452 484 240 484C372.548 484 480 375.653 480 242C480 108.347 372.548 0 240 0ZM364.977 272.612C365.572 276.075 365.872 279.584 365.874 283.098C365.874 331.583 309.519 370.887 240 370.887C170.481 370.887 114.126 331.583 114.126 283.098C114.128 279.584 114.428 276.075 115.023 272.612C110.792 270.761 107.021 267.988 103.98 264.492C100.94 260.995 98.7061 256.863 97.4395 252.392C96.1728 247.92 95.9049 243.222 96.6551 238.633C97.4052 234.045 99.1548 229.682 101.778 225.857C104.401 222.032 107.832 218.842 111.825 216.514C115.817 214.187 120.272 212.781 124.868 212.398C129.464 212.014 134.087 212.663 138.404 214.297C142.722 215.932 146.626 218.511 149.837 221.849C171.456 206.372 201.192 196.441 234.253 195.405L250.043 118.62C250.41 116.831 251.465 115.262 252.977 114.256C254.489 113.25 256.335 112.889 258.111 113.251L311.148 124.073C313.692 119.652 317.712 116.287 322.489 114.578C327.267 112.868 332.491 112.925 337.23 114.739C341.969 116.554 345.915 120.006 348.364 124.482C350.812 128.958 351.604 134.165 350.598 139.175C349.592 144.184 346.854 148.671 342.872 151.834C338.89 154.997 333.923 156.63 328.857 156.443C323.791 156.255 318.956 154.259 315.215 150.811C311.473 147.362 309.068 142.685 308.429 137.615L262.074 128.156L248.227 195.501C280.294 196.945 309.087 206.76 330.164 221.849C333.375 218.512 337.279 215.935 341.596 214.302C345.913 212.669 350.535 212.022 355.13 212.406C359.725 212.79 364.178 214.196 368.17 216.523C372.161 218.85 375.591 222.04 378.214 225.864C380.836 229.687 382.585 234.05 383.336 238.637C384.086 243.224 383.819 247.922 382.553 252.392C381.287 256.862 379.055 260.994 376.016 264.491C372.977 267.987 369.207 270.761 364.978 272.612H364.977Z" fill="url(#paint3_linear_4065_1279)"/>
</g>
<defs>
<linearGradient id="paint0_linear_4065_1279" x1="41.6627" y1="522.253" x2="514.794" y2="53.0321" gradientUnits="userSpaceOnUse">
<stop stop-color="#B01D06"/>
<stop offset="1" stop-color="#FF2100"/>
</linearGradient>
<linearGradient id="paint1_linear_4065_1279" x1="-11.3213" y1="468.828" x2="461.81" y2="-0.393931" gradientUnits="userSpaceOnUse">
<stop stop-color="#B01D06"/>
<stop offset="1" stop-color="#FF2100"/>
</linearGradient>
<linearGradient id="paint2_linear_4065_1279" x1="38.8819" y1="519.45" x2="512.014" y2="50.2276" gradientUnits="userSpaceOnUse">
<stop stop-color="#B01D06"/>
<stop offset="1" stop-color="#FF2100"/>
</linearGradient>
<linearGradient id="paint3_linear_4065_1279" x1="1.86189" y1="482.123" x2="474.994" y2="12.9003" gradientUnits="userSpaceOnUse">
<stop stop-color="#B01D06"/>
<stop offset="1" stop-color="#FF2100"/>
</linearGradient>
<clipPath id="clip0_4065_1279">
<rect width="480" height="484" fill="white"/>
</clipPath>
</defs>
</svg>
