<svg width="45" height="43" viewBox="0 0 45 43" fill="none" xmlns="http://www.w3.org/2000/svg">
<g clip-path="url(#clip0_4124_1746)">
<path d="M44.7315 17.9805C44.6097 17.3566 44.482 16.7312 44.3186 16.1166C43.9807 14.8481 43.5062 13.6118 42.9231 12.4284C41.8255 10.2008 40.3337 8.11952 38.5176 6.36961C36.6099 4.53229 34.3643 3.01187 31.8957 1.94154C30.6455 1.39984 29.3542 0.923565 28.0184 0.609946C27.4304 0.471598 26.8347 0.351011 26.2389 0.24912C25.8965 0.190228 24.6678 0.254261 24.4688 0H21.0938C20.4545 0.157043 19.7824 0.10563 19.1333 0.207054C18.4803 0.309413 17.8195 0.429533 17.1748 0.572554C15.862 0.864674 14.5629 1.2928 13.3405 1.83311C10.8978 2.91325 8.65712 4.31823 6.73777 6.12984C4.87614 7.88629 3.30065 9.94235 2.17957 12.2031C1.59065 13.3917 1.08685 14.6223 0.73712 15.8955C0.5625 16.5321 0.395707 17.1785 0.270978 17.8258C0.139891 18.5064 0.25288 19.293 0 19.9412V23.0588C0.189293 23.643 0.130598 24.2758 0.24212 24.8755C0.366848 25.5481 0.497935 26.2253 0.676467 26.8872C1.01788 28.1505 1.485 29.3905 2.07196 30.5688C3.19304 32.8212 4.6756 34.9202 6.52549 36.6846C8.3925 38.4654 10.5657 39.9358 12.9497 41.0136C14.1642 41.5623 15.437 41.9825 16.7317 42.3228C17.3803 42.4933 18.0382 42.634 18.7014 42.7415C19.4062 42.8556 20.1845 42.8229 20.8687 43H24.1875C24.8204 42.7523 25.6143 42.8803 26.2854 42.7509C26.9168 42.6289 27.5493 42.4896 28.1759 42.3447C29.5009 42.0372 30.7844 41.5721 32.0204 41.0239C34.3531 39.9891 36.5121 38.5294 38.341 36.8038C40.2486 35.0029 41.9009 32.8483 42.9618 30.4875C43.471 29.3536 43.9474 28.2435 44.2776 27.0461C44.4507 26.4188 44.6131 25.785 44.7329 25.1461C44.8489 24.5306 44.7266 23.6706 45 23.1125V19.6725C44.6972 19.3075 44.821 18.4395 44.7315 17.9805ZM34.7058 31.9027C34.6838 32.315 34.6476 32.2883 34.2328 32.3753C33.4101 32.5482 32.5785 32.7071 31.7607 32.8955C29.9803 33.3058 28.1612 33.5788 26.3891 34.0195C26.3079 34.0396 26.2247 34.0518 26.1465 34.0672C23.0371 33.4615 19.9101 32.9048 16.785 32.3776C15.2164 32.1135 13.6502 31.8312 12.0889 31.5307C11.6785 31.4517 10.4747 31.4423 10.2766 31.0923C10.1641 30.8936 10.3221 30.3019 10.348 30.0949C10.3945 29.7214 10.4561 29.3498 10.5139 28.9783C10.9692 26.0458 11.3468 23.091 11.7337 20.1478C11.9216 18.7172 12.1172 17.2869 12.2918 15.8544C12.3501 15.3753 12.3682 14.9163 12.8421 14.6541C13.3464 14.3746 14.1432 14.269 14.6989 14.104C14.9503 14.0297 15.3988 13.982 15.6223 13.8371C15.8909 13.6637 15.8796 13.3753 15.9633 13.0846C16.1633 12.3854 16.4426 11.7044 16.7605 11.0468C17.3314 9.8671 18.1663 8.68413 19.3084 7.94472C20.3111 7.29504 21.7917 6.92954 22.7837 7.75496C23.0317 7.96201 23.1099 8.02044 23.422 8.08587C23.7297 8.1499 23.9742 8.14196 24.2687 8.2789C24.8146 8.53223 25.2435 9.01691 25.561 9.49973C25.8789 9.98301 25.8461 10.7397 26.5368 10.5986C27.4035 10.4219 27.5561 10.4971 28.1969 11.1248C28.5324 11.453 28.9145 11.9638 29.3811 12.1054C29.9852 12.2887 30.78 12.04 31.3645 12.2667C31.9182 12.4822 31.8654 13.4123 31.95 13.9362C32.0703 14.6836 32.1867 15.4295 32.3124 16.1759C32.5624 17.6529 32.6866 19.1523 32.963 20.6255C33.5832 23.936 33.9931 27.2877 34.5517 30.609C34.6211 31.0212 34.7278 31.4839 34.7058 31.9027Z" fill="#96BF48"/>
<path d="M34.5533 30.6086C33.9947 27.2873 33.5848 23.9356 32.9646 20.6251C32.6883 19.1519 32.564 17.6525 32.3141 16.1755C32.1884 15.4291 32.072 14.6831 31.9516 13.9358C31.867 13.4118 31.9198 12.4817 31.3661 12.2662C30.7816 12.0396 29.9868 12.2882 29.3827 12.105C28.9161 11.9634 28.5341 11.4525 28.1985 11.1244C27.5578 10.4967 27.4052 10.4215 26.5384 10.5981C25.8478 10.7393 25.8805 9.98257 25.5626 9.49929C25.2452 9.01648 24.8162 8.53179 24.2703 8.27847C23.9759 8.14152 23.7313 8.14947 23.4236 8.08543C23.1116 8.02 23.0333 7.96157 22.7853 7.75452C21.7934 6.92911 20.3128 7.29461 19.31 7.94428C18.1679 8.68369 17.333 9.86666 16.7622 11.0464C16.4442 11.704 16.1649 12.385 15.9649 13.0842C15.8812 13.3749 15.8925 13.6633 15.624 13.8367C15.4004 13.9816 14.9519 14.0292 14.7005 14.1036C14.1448 14.2686 13.348 14.3742 12.8437 14.6537C12.3698 14.9159 12.3517 15.3749 12.2935 15.8539C12.1189 17.2865 11.9232 18.7167 11.7354 20.1474C11.3485 23.0906 10.9709 26.0454 10.5155 28.9778C10.4578 29.3494 10.3961 29.721 10.3497 30.0944C10.3237 30.3015 10.1658 30.8932 10.2783 31.0918C10.4764 31.4419 11.6801 31.4513 12.0905 31.5303C13.6518 31.8308 15.218 32.1131 16.7866 32.3772C19.9117 32.9044 23.0387 33.461 26.1481 34.0668C26.2264 34.0514 26.3095 34.0392 26.3907 34.0191C28.1628 33.5784 29.9819 33.3054 31.7623 32.895C32.5802 32.7067 33.4117 32.5478 34.2344 32.3748C34.6492 32.2879 34.6854 32.3145 34.7074 31.9023C34.7294 31.4835 34.6228 31.0208 34.5533 30.6086ZM23.0245 11.4661C22.8391 11.9414 21.3688 12.1223 20.8728 12.284C20.6586 12.3537 20.4429 12.3831 20.1968 12.4345C20.3803 11.0665 21.7332 9.2483 22.644 9.13613C22.8186 9.70775 23.2612 10.8585 23.0245 11.4661ZM21.3473 8.12236C22.282 8.12142 21.7425 8.43551 21.3238 8.7496C20.775 9.1609 20.3485 9.68391 20.0124 10.2653C19.6784 10.843 19.4235 11.474 19.2592 12.1153C19.1785 12.4284 19.1956 12.6532 18.9139 12.8453C18.6722 13.0103 18.2115 13.0697 17.9263 13.1389C17.5868 13.2216 17.2718 13.3866 16.862 13.4502C17.4103 11.5292 18.7559 8.12516 21.3473 8.12236ZM22.9996 17.5534C22.8259 18.0348 22.6586 18.5227 22.4943 19.0074C22.4395 19.1687 22.3735 19.7581 22.2067 19.8389C21.9694 19.9539 21.4891 19.63 21.2465 19.5664C20.5373 19.3809 19.4539 19.2804 18.8371 19.7398C17.2043 20.9574 20.075 22.3114 20.844 23.0186C22.1152 24.1885 22.3803 25.8697 21.8594 27.4462C21.3835 28.8872 20.1455 29.8953 18.5671 30.0463C17.6372 30.1356 16.6428 29.9991 15.7824 29.6495C15.2444 29.4307 13.7853 28.8166 14.0416 28.0753C14.2661 27.4247 14.4706 26.768 14.6951 26.0767C15.5335 26.5909 17.8862 28.201 18.4247 26.4894C18.6566 25.7538 17.9644 25.1032 17.4416 24.6736C16.8008 24.1469 16.1297 23.6884 15.7379 22.9475C14.9759 21.5066 15.3916 19.63 16.3694 18.3793C17.3971 17.065 19.0454 16.469 20.7217 16.3826C21.1683 16.3597 21.6148 16.3802 22.055 16.4564C22.2717 16.4938 23.0416 16.5742 23.1898 16.7873C23.3224 16.9785 23.0685 17.3627 22.9996 17.5534ZM24.779 11.1048C24.488 11.2071 23.9157 11.5381 23.8859 11.0492C23.8443 10.3584 23.8189 9.66475 23.5753 8.95992C24.4205 9.02723 24.8348 9.82132 25.117 10.4846C25.3029 10.9216 25.2339 10.9445 24.779 11.1048Z" fill="white"/>
<path d="M22.9996 17.5537C22.8259 18.0351 22.6587 18.523 22.4943 19.0077C22.4395 19.169 22.3735 19.7584 22.2067 19.8392C21.9695 19.9542 21.4891 19.6303 21.2465 19.5667C20.5373 19.3812 19.4539 19.2807 18.8371 19.7401C17.2044 20.9577 20.0751 22.3117 20.844 23.0189C22.1152 24.1888 22.3803 25.87 21.8594 27.4465C21.3835 28.8874 20.1455 29.8956 18.5671 30.0466C17.6372 30.1359 16.6428 29.9994 15.7825 29.6498C15.2444 29.431 13.7853 28.8169 14.0416 28.0756C14.2662 27.425 14.4706 26.7683 14.6951 26.077C15.5335 26.5912 17.8862 28.2013 18.4247 26.4897C18.6566 25.7541 17.9645 25.1034 17.4416 24.6739C16.8008 24.1472 16.1297 23.6887 15.738 22.9478C14.9759 21.5069 15.3916 19.6303 16.3694 18.3796C17.3971 17.0653 19.0454 16.4693 20.7217 16.3829C21.1683 16.36 21.6149 16.3805 22.0551 16.4567C22.2718 16.4941 23.0416 16.5745 23.1899 16.7876C23.3224 16.9788 23.0685 17.363 22.9996 17.5537Z" fill="#96BF48"/>
<path d="M21.3212 8.75029C20.7724 9.16159 20.3459 9.6846 20.0099 10.266C19.6758 10.8437 19.4209 11.4747 19.2566 12.116C19.1759 12.4291 19.193 12.6539 18.9113 12.846C18.6696 13.011 18.2089 13.0704 17.9237 13.1396C17.5843 13.2223 17.2693 13.3873 16.8594 13.4508C17.4077 11.5299 18.7533 8.12585 21.3447 8.12305C22.2794 8.12211 21.7399 8.4362 21.3212 8.75029Z" fill="#96BF48"/>
<path d="M23.023 11.4667C22.8376 11.942 21.3673 12.1229 20.8713 12.2846C20.6571 12.3542 20.4413 12.3837 20.1953 12.4351C20.3787 11.067 21.7317 9.24889 22.6424 9.13672C22.8171 9.70834 23.2597 10.8591 23.023 11.4667Z" fill="#96BF48"/>
<path d="M24.778 11.1048C24.4869 11.2072 23.9147 11.5381 23.8848 11.0492C23.8432 10.3584 23.8178 9.66479 23.5742 8.95996C24.4194 9.02727 24.8337 9.82136 25.116 10.4846C25.3018 10.9216 25.2329 10.9445 24.778 11.1048Z" fill="#96BF48"/>
</g>
<defs>
<clipPath id="clip0_4124_1746">
<rect width="45" height="43" fill="white"/>
</clipPath>
</defs>
</svg>
