<svg width="807" height="807" viewBox="0 0 807 807" fill="none" xmlns="http://www.w3.org/2000/svg">
<g clip-path="url(#clip0_4335_1552)">
<path d="M802.184 337.449C800 325.739 797.711 314.002 794.781 302.467C788.72 278.661 780.211 255.459 769.755 233.249C750.071 191.443 723.318 152.383 690.748 119.541C656.538 85.0596 616.267 56.5251 571.996 36.4378C549.576 26.2714 526.418 17.333 502.463 11.4471C491.919 8.85068 481.235 6.58758 470.551 4.67534C464.411 3.5701 442.376 4.77183 438.806 0H378.281C366.817 2.9473 354.764 1.98241 343.124 3.88588C331.414 5.80689 319.563 8.06123 308.002 10.7454C284.459 16.2277 261.161 24.2626 239.24 34.4028C195.434 54.6743 155.251 81.0421 120.831 115.041C87.4455 148.006 59.1917 186.592 39.0869 229.021C28.5257 251.328 19.4908 274.424 13.219 298.318C10.0875 310.265 7.09634 322.397 4.85954 334.545C2.50872 347.317 4.53499 362.08 0 374.246V432.754C3.39466 443.718 2.34205 455.595 4.34201 466.849C6.5788 479.472 8.92963 492.182 12.1313 504.603C18.254 528.313 26.631 551.585 37.1571 573.698C57.2619 615.969 83.8491 655.363 117.024 688.476C150.505 721.897 189.478 749.492 232.232 769.72C254.012 780.018 276.836 787.904 300.055 794.29C311.686 797.491 323.484 800.132 335.379 802.149C348.019 804.289 361.975 803.675 374.246 807H433.762C445.113 802.351 459.35 804.754 471.384 802.325C482.709 800.035 494.051 797.421 505.287 794.702C529.05 788.93 552.067 780.202 574.233 769.913C616.066 750.492 654.784 723.098 687.582 690.713C721.791 656.916 751.422 616.478 770.448 572.172C779.58 550.892 788.123 530.059 794.044 507.585C797.149 495.814 800.062 483.919 802.211 471.928C804.29 460.376 802.097 444.236 807 433.762V369.202C801.57 362.352 803.79 346.063 802.184 337.449ZM622.39 598.733C621.995 606.469 621.346 605.969 613.908 607.601C599.154 610.846 584.242 613.829 569.575 617.364C537.646 625.065 505.024 630.188 473.244 638.46C471.788 638.837 470.297 639.065 468.893 639.355C413.131 627.986 357.054 617.539 301.011 607.645C272.88 602.689 244.793 597.391 216.794 591.75C209.434 590.268 187.847 590.092 184.294 583.522C182.277 579.794 185.11 568.689 185.575 564.804C186.408 557.795 187.513 550.821 188.549 543.848C196.715 488.814 203.487 433.359 210.425 378.123C213.794 351.273 217.302 324.432 220.434 297.546C221.478 288.555 221.802 279.941 230.302 275.02C239.346 269.775 253.635 267.792 263.6 264.696C268.108 263.301 276.152 262.407 280.161 259.687C284.976 256.433 284.774 251.021 286.274 245.565C289.862 232.442 294.871 219.662 300.572 207.32C310.809 185.18 325.782 162.979 346.264 149.102C364.246 136.909 390.799 130.05 408.588 145.541C413.035 149.427 414.438 150.523 420.035 151.751C425.552 152.953 429.938 152.804 435.219 155.374C445.008 160.128 452.701 169.224 458.394 178.286C464.095 187.356 463.507 201.557 475.893 198.908C491.437 195.592 494.173 197.004 505.664 208.785C511.682 214.943 518.533 224.53 526.901 227.188C537.734 230.627 551.988 225.96 562.47 230.214C572.4 234.258 571.452 251.714 572.97 261.547C575.128 275.573 577.216 289.573 579.47 303.581C583.952 331.3 586.18 359.44 591.136 387.088C602.259 449.218 609.61 512.12 619.627 574.452C620.872 582.189 622.785 590.873 622.39 598.733Z" fill="#96BF48"/>
<path d="M619.628 574.452C609.61 512.12 602.26 449.218 591.137 387.088C586.181 359.439 583.953 331.299 579.471 303.581C577.216 289.572 575.129 275.573 572.971 261.547C571.453 251.713 572.401 234.258 562.471 230.214C551.989 225.96 537.735 230.626 526.902 227.188C518.533 224.53 511.683 214.942 505.665 208.785C494.174 197.004 491.437 195.592 475.894 198.908C463.508 201.557 464.096 187.355 458.394 178.285C452.701 169.224 445.009 160.128 435.219 155.373C429.939 152.803 425.553 152.952 420.035 151.751C414.439 150.523 413.036 149.426 408.588 145.54C390.799 130.049 364.247 136.909 346.265 149.102C325.783 162.979 310.81 185.18 300.573 207.32C294.872 219.662 289.863 232.442 286.275 245.564C284.775 251.021 284.977 256.433 280.161 259.687C276.153 262.406 268.109 263.301 263.6 264.696C253.636 267.792 239.346 269.774 230.303 275.02C221.803 279.941 221.478 288.555 220.435 297.546C217.303 324.431 213.794 351.273 210.426 378.123C203.488 433.359 196.716 488.814 188.549 543.847C187.514 550.821 186.409 557.795 185.576 564.803C185.111 568.689 182.277 579.794 184.295 583.522C187.848 590.092 209.435 590.268 216.794 591.75C244.794 597.39 272.881 602.688 301.012 607.644C357.054 617.539 413.132 627.986 468.894 639.354C470.298 639.065 471.789 638.837 473.245 638.459C505.025 630.188 537.647 625.065 569.576 617.363C584.242 613.828 599.154 610.846 613.908 607.601C621.347 605.969 621.996 606.469 622.391 598.732C622.785 590.873 620.873 582.189 619.628 574.452ZM412.878 215.197C409.553 224.118 383.185 227.512 374.291 230.547C370.449 231.854 366.58 232.407 362.168 233.372C365.458 207.697 389.72 173.575 406.053 171.47C409.185 182.197 417.123 203.793 412.878 215.197ZM382.799 152.444C399.562 152.426 389.887 158.321 382.378 164.215C372.537 171.934 364.888 181.75 358.861 192.662C352.87 203.504 348.3 215.346 345.353 227.381C343.906 233.258 344.213 237.477 339.16 241.082C334.827 244.179 326.564 245.293 321.45 246.591C315.362 248.143 309.713 251.24 302.363 252.433C312.196 216.381 336.327 152.496 382.799 152.444ZM412.43 329.44C409.316 338.475 406.316 347.632 403.369 356.729C402.387 359.755 401.203 370.816 398.211 372.334C393.957 374.492 385.343 368.413 380.992 367.22C368.273 363.737 348.844 361.851 337.783 370.474C308.503 393.324 359.984 418.736 373.773 432.008C396.571 453.963 401.325 485.515 391.983 515.102C383.449 542.146 361.247 561.066 332.941 563.9C316.266 565.575 298.433 563.014 283.003 556.452C273.354 552.347 247.188 540.821 251.785 526.909C255.811 514.699 259.478 502.375 263.504 489.401C278.539 499.05 320.731 529.269 330.388 497.147C334.546 483.34 322.134 471.13 312.757 463.069C301.266 453.183 289.231 444.578 282.205 430.675C268.539 403.631 275.995 368.413 293.529 344.94C311.959 320.273 341.52 309.089 371.58 307.467C379.589 307.037 387.598 307.423 395.492 308.853C399.378 309.554 413.185 311.063 415.843 315.063C418.22 318.651 413.667 325.861 412.43 329.44ZM444.342 208.416C439.123 210.337 428.86 216.548 428.325 207.372C427.579 194.408 427.123 181.39 422.755 168.163C437.912 169.426 445.342 184.329 450.403 196.776C453.736 204.978 452.5 205.407 444.342 208.416Z" fill="white"/>
<path d="M412.428 329.44C409.314 338.475 406.315 347.632 403.367 356.729C402.385 359.755 401.201 370.816 398.209 372.334C393.955 374.492 385.341 368.413 380.991 367.22C368.271 363.737 348.842 361.851 337.781 370.474C308.501 393.324 359.982 418.736 373.771 432.008C396.569 453.964 401.323 485.515 391.981 515.103C383.447 542.146 361.245 561.066 332.939 563.9C316.264 565.575 298.431 563.014 283.001 556.453C273.353 552.347 247.186 540.821 251.783 526.909C255.809 514.699 259.476 502.375 263.502 489.401C278.537 499.05 320.729 529.269 330.386 497.147C334.544 483.34 322.132 471.13 312.755 463.069C301.264 453.183 289.229 444.578 282.203 430.675C268.537 403.631 275.993 368.413 293.528 344.94C311.957 320.273 341.518 309.089 371.578 307.467C379.587 307.037 387.596 307.423 395.49 308.853C399.376 309.554 413.183 311.063 415.841 315.063C418.218 318.651 413.665 325.861 412.428 329.44Z" fill="#96BF48"/>
<path d="M382.379 164.216C372.537 171.935 364.888 181.751 358.862 192.663C352.871 203.505 348.301 215.347 345.354 227.381C343.906 233.258 344.213 237.478 339.161 241.083C334.827 244.179 326.564 245.293 321.451 246.591C315.363 248.144 309.714 251.24 302.363 252.433C312.196 216.382 336.327 152.497 382.8 152.444C399.563 152.427 389.888 158.321 382.379 164.216Z" fill="#96BF48"/>
<path d="M412.877 215.197C409.553 224.118 383.185 227.512 374.291 230.547C370.448 231.854 366.58 232.407 362.168 233.372C365.457 207.697 389.72 173.575 406.053 171.47C409.184 182.198 417.123 203.794 412.877 215.197Z" fill="#96BF48"/>
<path d="M444.341 208.417C439.122 210.338 428.859 216.548 428.324 207.373C427.578 194.408 427.122 181.391 422.754 168.163C437.911 169.426 445.341 184.329 450.402 196.776C453.736 204.978 452.499 205.408 444.341 208.417Z" fill="#96BF48"/>
</g>
<defs>
<clipPath id="clip0_4335_1552">
<rect width="807" height="807" fill="white"/>
</clipPath>
</defs>
</svg>
