<svg width="47" height="43" viewBox="0 0 47 43" fill="none" xmlns="http://www.w3.org/2000/svg">
<path d="M38.5471 42.6003H8.37971C3.75203 42.6003 0 39.1942 0 34.9932V7.60709C0 3.40608 3.75203 0 8.37971 0H38.5471C43.1748 0 46.9268 3.40608 46.9268 7.60709V34.9932C46.9268 39.1951 43.1748 42.6003 38.5471 42.6003Z" fill="#FAF807"/>
<path d="M22.9596 34.3133C21.9035 34.3133 20.8374 34.0329 19.8115 33.4723C19.3991 33.2481 19.0068 33.0051 18.6045 32.7528L18.1519 32.4725C17.8099 32.267 17.4277 32.1361 16.965 32.0707C16.7941 32.0427 16.6231 32.0334 16.4622 32.0334C16.0598 32.0334 15.6575 32.0894 15.2552 32.1361L14.6215 32.2109H14.4204C13.6359 32.2109 13.0827 31.7811 13.0525 31.1363C13.0223 30.6972 12.9318 30.5103 12.0668 30.4169C11.5438 30.3608 11.061 30.1739 10.6688 30.0244C9.99487 29.7628 9.54227 29.389 9.29082 28.8845L9.23047 28.763V28.0155L9.3914 27.838C9.61267 27.595 9.91441 27.3334 10.3871 27.2493C12.1171 26.9316 13.4548 25.9692 14.5914 24.2125C15.0239 23.5491 15.054 23.3529 15.044 23.2968C15.0239 23.2688 14.8529 23.138 14.0281 22.8577C13.8672 22.8109 13.7867 22.7829 13.7063 22.7549C13.3039 22.6054 12.8815 22.4278 12.4993 22.1195C11.9864 21.7084 11.7852 21.1571 11.926 20.5964C12.0869 19.9891 12.6301 19.5126 13.3643 19.3537C13.5152 19.3163 13.666 19.307 13.8169 19.307C14.2192 19.307 14.5813 19.4191 14.8931 19.5219C14.9937 19.5499 15.0943 19.5873 15.1848 19.606C15.0943 18.6716 15.0842 17.7092 15.1345 16.5412C15.2451 14.336 16.4018 12.5607 18.4838 11.4114C19.9321 10.6078 21.4308 10.2061 22.9395 10.2061C24.4482 10.2061 25.9166 10.5985 27.3449 11.3834C29.276 12.4392 30.4327 14.037 30.6841 16.0273C30.835 17.242 30.7847 18.4474 30.6841 19.5686C30.7545 19.5499 30.835 19.5219 30.9054 19.5032C31.2373 19.4098 31.6095 19.2976 32.0218 19.2976C32.3236 19.2976 32.6152 19.3537 32.8969 19.4658C33.5909 19.7462 34.0334 20.3348 34.0133 20.9515C34.0032 21.372 33.7719 21.7925 33.3797 22.1102C32.9874 22.4278 32.5247 22.596 32.1224 22.7549L31.6296 22.9324C31.4485 22.9885 31.2775 23.0539 31.1066 23.1286C30.8953 23.2221 30.845 23.2875 30.835 23.2875C30.835 23.2875 30.835 23.3529 30.9054 23.5024C31.9816 25.6048 33.4098 26.7914 35.4114 27.2306C35.8941 27.3334 36.2562 27.5389 36.5177 27.866L36.6485 28.0342V28.7723L36.5781 28.9032C36.3065 29.4358 35.8137 29.8095 35.0895 30.0618C34.4961 30.2767 33.9932 30.4542 33.4299 30.4916C33.0276 30.5196 32.927 30.5944 32.8768 30.9588C32.7862 31.5381 32.5448 32.2015 31.4686 32.2015C31.3681 32.2015 31.2474 32.2015 31.1166 32.1829C30.9456 32.1735 30.7646 32.1455 30.5835 32.1081C30.2013 32.0427 29.8594 32.0147 29.5275 32.0147C28.6424 32.0147 27.8981 32.2483 27.2443 32.7341C27.0331 32.893 26.8017 33.0238 26.5805 33.164C25.293 33.9395 24.0961 34.2946 22.9093 34.2946L22.9596 34.3133Z" fill="white"/>
<path d="M22.97 10.8444C24.3278 10.8444 25.6957 11.2088 27.0334 11.9377C28.7131 12.8534 29.7994 14.2456 30.0408 16.105C30.1916 17.3197 30.1313 18.5344 30.0307 19.7398C30.0005 20.1322 30.0508 20.2911 30.3224 20.2911C30.4129 20.2911 30.5235 20.2724 30.6644 20.2444C31.1572 20.1322 31.5997 19.936 32.0725 19.936C32.2636 19.936 32.4647 19.9734 32.6659 20.0575C33.0481 20.2163 33.3901 20.5527 33.38 20.9452C33.38 21.2161 33.209 21.4591 32.9877 21.6366C32.6558 21.9076 32.2133 22.0571 31.811 22.2066C31.4992 22.3281 31.1673 22.4122 30.8655 22.5523C30.2319 22.8233 30.0508 23.1877 30.3425 23.7764C31.3684 25.7853 32.8771 27.3177 35.3111 27.8503C35.6129 27.9157 35.8442 28.0278 36.0253 28.2521V28.6352C35.7939 29.0743 35.3815 29.3173 34.9088 29.4855C34.4361 29.6537 33.9533 29.8405 33.4404 29.8686C32.7363 29.9059 32.3642 30.1956 32.2535 30.8777C32.163 31.429 32.0021 31.5785 31.5193 31.5785C31.4288 31.5785 31.3382 31.5785 31.2276 31.5692C31.0566 31.5598 30.8957 31.5318 30.7247 31.5037C30.3324 31.4383 29.9502 31.401 29.5781 31.401C28.6125 31.401 27.6973 31.6439 26.8725 32.2606C26.6512 32.4288 26.3998 32.569 26.1584 32.7185C25.1124 33.3538 24.0462 33.6809 22.97 33.6809C22.0447 33.6809 21.1093 33.4379 20.1638 32.924C19.6106 32.625 19.0776 32.2699 18.5344 31.9429C18.0919 31.6719 17.6091 31.5224 17.066 31.4477C16.8648 31.4197 16.6637 31.4103 16.4625 31.4103C15.8288 31.4103 15.2053 31.5318 14.5817 31.5878C14.5213 31.5878 14.471 31.5878 14.4207 31.5878C14.0586 31.5878 13.7468 31.457 13.7267 31.102C13.6664 30.1209 13.0227 29.8779 12.1376 29.7938C11.7252 29.7471 11.3128 29.5976 10.9306 29.4481C10.5082 29.2799 10.1159 29.0463 9.91476 28.6352V28.2521C10.0857 28.0745 10.2567 27.9157 10.5283 27.869C12.6706 27.4765 14.0989 26.2058 15.1851 24.5426C16.0904 23.141 15.9495 22.8233 14.2699 22.272C14.1693 22.244 14.0788 22.2159 13.9782 22.1786C13.6161 22.0384 13.254 21.8889 12.9623 21.6553C12.208 21.0479 12.6606 20.179 13.5356 19.9827C13.6362 19.9641 13.7368 19.9547 13.8273 19.9547C14.3503 19.9547 14.8331 20.2444 15.3662 20.3004C15.4165 20.3004 15.4668 20.3098 15.517 20.3098C15.8288 20.3098 15.9495 20.1603 15.8993 19.8052C15.7685 18.74 15.7685 17.6655 15.8288 16.5909C15.9294 14.5446 17.0157 12.9842 18.8462 11.975C20.194 11.2369 21.5719 10.8631 22.9599 10.8631M22.9599 9.6017C21.3306 9.6017 19.7112 10.0409 18.1522 10.8912C15.859 12.1526 14.5917 14.1054 14.471 16.5349C14.4308 17.3571 14.4207 18.0859 14.4509 18.7587C14.2598 18.7213 14.0486 18.6933 13.8273 18.6933C13.6161 18.6933 13.4149 18.712 13.2138 18.7587C12.2382 18.9736 11.4939 19.6277 11.2726 20.4686C11.0714 21.2535 11.3631 22.0571 12.0571 22.6177C12.5097 22.9821 13.0126 23.197 13.4552 23.3559C13.5457 23.3933 13.6362 23.4213 13.7267 23.4493C13.9178 23.5147 14.0687 23.5615 14.1894 23.6082C14.1391 23.6923 14.0788 23.7857 14.0084 23.8978C12.9824 25.4863 11.7855 26.3553 10.2567 26.6356C9.48227 26.7757 9.03972 27.2523 8.87879 27.4298L8.54688 27.7849V28.9062L8.66757 29.1584C8.98943 29.8125 9.55267 30.2984 10.3975 30.6254C10.83 30.7936 11.3732 30.9992 11.9867 31.0646C12.1778 31.0833 12.2985 31.1113 12.3588 31.1207C12.3588 31.1393 12.3588 31.158 12.3588 31.1861C12.4192 32.1765 13.2641 32.868 14.4107 32.868C14.5113 32.868 14.6219 32.868 14.7225 32.8493C14.9337 32.8306 15.1449 32.8025 15.3461 32.7745C15.7383 32.7278 16.1105 32.6717 16.4524 32.6717C16.5832 32.6717 16.7139 32.6717 16.8548 32.6998C17.2269 32.7558 17.5186 32.8493 17.7801 33.0081L18.2528 33.2978C18.6551 33.5501 19.0474 33.793 19.4598 34.0173C20.5963 34.6339 21.7731 34.9516 22.9499 34.9516C24.2775 34.9516 25.5951 34.5592 26.8826 33.7837L27.0133 33.7089C27.2547 33.5687 27.4961 33.4192 27.7174 33.2511C28.2504 32.8493 28.8338 32.6717 29.568 32.6717C29.8497 32.6717 30.1514 32.6998 30.4733 32.7558C30.7046 32.7932 30.9057 32.8212 31.1069 32.8399C31.2578 32.8493 31.3885 32.8586 31.5092 32.8586C32.3239 32.8586 33.3297 32.5596 33.5812 31.1393C34.2249 31.0926 34.7579 30.8964 35.2407 30.7282L35.3815 30.6815C36.2767 30.3638 36.8802 29.8873 37.2322 29.2052L37.373 28.9435V27.8503L37.1015 27.5139C36.7494 27.0748 36.2465 26.7757 35.6028 26.6356C33.9332 26.2712 32.6961 25.2994 31.7406 23.5988C31.7908 23.5801 31.8411 23.5615 31.8914 23.5521C32.0322 23.5054 32.173 23.4587 32.3038 23.4026L32.3943 23.3652C32.8369 23.197 33.38 23.0008 33.8628 22.6084C34.3959 22.1786 34.7077 21.5899 34.7278 20.9919C34.7479 20.1136 34.1545 19.3006 33.199 18.9082C32.8369 18.7587 32.4446 18.6839 32.0524 18.6839C31.8411 18.6839 31.64 18.7026 31.4489 18.74C31.4992 17.8243 31.4992 16.9086 31.3785 15.9649C31.0968 13.7784 29.8295 12.0124 27.7073 10.8538C26.1684 10.0128 24.5692 9.58301 22.9499 9.58301L22.9599 9.6017Z" fill="black"/>
</svg>
