<svg width="763" height="746" viewBox="0 0 763 746" fill="none" xmlns="http://www.w3.org/2000/svg">
<path d="M626.752 745.588H136.249C61.0056 745.588 0 685.975 0 612.449V133.139C0 59.613 61.0056 0 136.249 0H626.752C701.995 0 763 59.613 763 133.139V612.449C763 685.991 701.995 745.588 626.752 745.588Z" fill="#FAF807"/>
<path d="M373.332 600.587C356.161 600.587 338.826 595.681 322.146 585.869C315.441 581.944 309.063 577.692 302.521 573.277L295.162 568.371C289.602 564.773 283.387 562.483 275.865 561.339C273.085 560.848 270.305 560.685 267.688 560.685C261.147 560.685 254.605 561.666 248.064 562.483L237.761 563.792H234.49C221.734 563.792 212.74 556.269 212.249 544.985C211.759 537.299 210.287 534.028 196.223 532.393C187.719 531.412 179.869 528.141 173.491 525.524C162.534 520.945 155.175 514.404 151.087 505.573L150.105 503.447V490.364L152.722 487.257C156.32 483.005 161.226 478.426 168.912 476.954C197.04 471.394 218.791 454.55 237.27 423.805C244.302 412.194 244.793 408.759 244.629 407.778C244.302 407.288 241.522 404.998 228.112 400.092C225.496 399.274 224.187 398.784 222.879 398.293C216.338 395.677 209.469 392.569 203.255 387.173C194.914 379.977 191.644 370.328 193.933 360.516C196.55 349.886 205.381 341.546 217.319 338.766C219.772 338.112 222.225 337.948 224.678 337.948C231.219 337.948 237.107 339.911 242.176 341.71C243.812 342.2 245.447 342.854 246.919 343.181C245.447 326.828 245.283 309.984 246.101 289.542C247.9 250.947 266.707 219.875 300.559 199.76C324.108 185.696 348.475 178.664 373.005 178.664C397.536 178.664 421.412 185.533 444.634 199.27C476.033 217.749 494.84 245.714 498.928 280.547C501.381 301.807 500.563 322.903 498.928 342.527C500.073 342.2 501.381 341.71 502.526 341.383C507.923 339.747 513.973 337.785 520.678 337.785C525.584 337.785 530.327 338.766 534.906 340.728C546.19 345.634 553.386 355.937 553.059 366.731C552.895 374.09 549.134 381.449 542.756 387.009C536.378 392.569 528.855 395.513 522.314 398.293L514.3 401.4C511.357 402.382 508.577 403.526 505.797 404.835C502.362 406.47 501.545 407.615 501.381 407.615C501.381 407.615 501.381 408.759 502.526 411.376C520.024 448.172 543.246 468.941 575.79 476.627C583.64 478.426 589.527 482.024 593.779 487.747L595.905 490.691V503.61L594.76 505.9C590.345 515.221 582.331 521.763 570.557 526.178C560.908 529.94 552.731 533.047 543.573 533.701C537.032 534.192 535.397 535.5 534.579 541.878C533.107 552.017 529.182 563.628 511.684 563.628C510.049 563.628 508.086 563.628 505.96 563.301C503.18 563.138 500.236 562.647 497.293 561.993C491.078 560.848 485.518 560.357 480.121 560.357C465.73 560.357 453.629 564.446 442.999 572.95C439.564 575.73 435.803 578.019 432.205 580.472C411.273 594.046 391.812 600.26 372.515 600.26L373.332 600.587Z" fill="white"/>
<path d="M373.511 189.845C395.588 189.845 417.829 196.223 439.579 208.979C466.89 225.005 484.552 249.372 488.477 281.916C490.93 303.176 489.949 324.435 488.313 345.531C487.823 352.4 488.64 355.18 493.056 355.18C494.528 355.18 496.326 354.853 498.616 354.362C506.629 352.4 513.825 348.966 521.511 348.966C524.618 348.966 527.889 349.62 531.16 351.092C537.374 353.872 542.934 359.759 542.771 366.628C542.771 371.37 539.991 375.622 536.393 378.729C530.996 383.472 523.801 386.088 517.259 388.705C512.189 390.831 506.793 392.303 501.887 394.756C491.584 399.498 488.64 405.876 493.383 416.179C510.064 451.339 534.594 478.159 574.17 487.481C579.076 488.626 582.837 490.588 585.781 494.513V501.218C582.019 508.904 575.314 513.156 567.628 516.1C559.942 519.043 552.092 522.314 543.752 522.805C532.304 523.459 526.254 528.528 524.455 540.466C522.983 550.115 520.366 552.732 512.517 552.732C511.045 552.732 509.573 552.732 507.774 552.568C504.994 552.405 502.377 551.914 499.597 551.423C493.219 550.279 487.005 549.625 480.954 549.625C465.255 549.625 450.373 553.876 436.963 564.67C433.365 567.613 429.277 570.067 425.352 572.683C408.344 583.804 391.009 589.527 373.511 589.527C358.466 589.527 343.257 585.275 327.884 576.281C318.89 571.048 310.222 564.833 301.391 559.11C294.196 554.367 286.346 551.75 277.515 550.442C274.244 549.952 270.974 549.788 267.703 549.788C257.4 549.788 247.261 551.914 237.122 552.895C236.14 552.895 235.323 552.895 234.505 552.895C228.618 552.895 223.548 550.606 223.221 544.391C222.24 527.22 211.774 522.968 197.382 521.496C190.677 520.679 183.972 518.062 177.758 515.445C170.89 512.502 164.512 508.413 161.241 501.218V494.513C164.021 491.406 166.801 488.626 171.217 487.808C206.05 480.939 229.272 458.698 246.934 429.589C261.652 405.059 259.363 399.498 232.052 389.85C230.417 389.359 228.945 388.868 227.31 388.214C221.422 385.761 215.535 383.145 210.792 379.056C198.527 368.426 205.886 353.218 220.114 349.783C221.749 349.456 223.385 349.293 224.856 349.293C233.36 349.293 241.21 354.362 249.878 355.344C250.695 355.344 251.513 355.507 252.331 355.507C257.4 355.507 259.363 352.891 258.545 346.676C256.419 328.033 256.419 309.226 257.4 290.42C259.036 254.605 276.697 227.295 306.461 209.633C328.375 196.713 350.779 190.172 373.347 190.172M373.347 168.095C346.854 168.095 320.525 175.781 295.177 190.663C257.891 212.74 237.285 246.919 235.323 289.438C234.669 303.83 234.505 316.585 234.996 328.36C231.889 327.706 228.454 327.215 224.856 327.215C221.422 327.215 218.152 327.542 214.881 328.36C199.018 332.121 186.916 343.569 183.318 358.287C180.048 372.024 184.79 386.088 196.074 395.901C203.433 402.278 211.61 406.04 218.806 408.82C220.277 409.474 221.749 409.965 223.221 410.455C226.328 411.6 228.781 412.418 230.744 413.235C229.926 414.707 228.945 416.343 227.8 418.305C211.119 446.106 191.659 461.315 166.801 466.221C154.209 468.674 147.013 477.014 144.397 480.122L139 486.336V505.96L140.962 510.376C146.196 521.823 155.354 530.327 169.091 536.051C176.123 538.995 184.954 542.592 194.929 543.737C198.037 544.064 199.999 544.555 200.98 544.718C200.98 545.046 200.98 545.373 200.98 545.863C201.961 563.198 215.698 575.3 234.342 575.3C235.977 575.3 237.776 575.3 239.411 574.973C242.845 574.646 246.28 574.155 249.55 573.664C255.928 572.847 261.979 571.865 267.539 571.865C269.665 571.865 271.791 571.865 274.081 572.356C280.132 573.337 284.874 574.973 289.126 577.753L296.812 582.822C303.354 587.238 309.732 591.49 316.437 595.415C334.916 606.208 354.05 611.768 373.184 611.768C394.771 611.768 416.194 604.9 437.126 591.326L439.252 590.018C443.177 587.565 447.102 584.948 450.7 582.005C459.367 574.973 468.852 571.865 480.791 571.865C485.37 571.865 490.276 572.356 495.509 573.337C499.27 573.991 502.541 574.482 505.812 574.809C508.265 574.973 510.391 575.136 512.353 575.136C525.599 575.136 541.953 569.903 546.041 545.046C556.508 544.228 565.175 540.794 573.025 537.85L575.314 537.032C589.869 531.472 599.681 523.132 605.405 511.194L607.695 506.615V487.481L603.279 481.593C597.555 473.907 589.379 468.674 578.912 466.221C551.765 459.843 531.65 442.835 516.114 413.072C516.932 412.745 517.75 412.418 518.567 412.254C520.857 411.436 523.146 410.619 525.272 409.638L526.744 408.983C533.94 406.04 542.771 402.606 550.62 395.737C559.288 388.214 564.358 377.912 564.685 367.445C565.012 352.073 555.363 337.845 539.827 330.977C533.94 328.36 527.562 327.052 521.184 327.052C517.75 327.052 514.479 327.379 511.372 328.033C512.189 312.006 512.189 295.98 510.227 279.463C505.648 241.195 485.043 210.287 450.536 190.008C425.515 175.29 399.513 167.768 373.184 167.768L373.347 168.095Z" fill="black"/>
</svg>
