<svg width="580" height="580" viewBox="0 0 580 580" fill="none" xmlns="http://www.w3.org/2000/svg">
<g clip-path="url(#clip0_4335_1517)">
<path fill-rule="evenodd" clip-rule="evenodd" d="M290 0C450.168 0 580 129.832 580 290C580 450.168 450.168 580 290 580C129.832 580 0 450.168 0 290C0 129.832 129.832 0 290 0Z" fill="#FF5500"/>
<path d="M291.199 248.777C291.199 223.084 291.199 197.392 291.199 171.7C291.199 167.917 290.338 162.977 293.08 159.93C296.172 156.486 303.672 155.15 307.965 154.017C319.746 150.913 333.453 150.675 345.45 152.465C366.52 155.592 386.242 166.251 400.584 181.952C407.709 189.746 413.509 198.604 417.689 208.301C419.853 213.331 421.824 218.621 422.979 223.991C423.614 226.913 423.036 234.39 425.766 235.976C428.02 237.29 437.4 233.722 440.323 233.484C446.768 232.951 453.497 233.314 459.784 234.934C469.493 237.437 478.668 243.362 485.431 250.725C500.339 266.958 502.786 291.993 492.851 311.41C483.392 329.897 464.338 339.832 444.016 339.991C417.678 340.195 391.329 340.036 364.979 340.025C350.004 340.025 335.016 340.013 320.041 340.002C312.1 340.002 293.182 344.329 291.313 333.409C290.248 327.247 291.29 320.099 291.358 313.857C291.426 306.981 291.46 300.116 291.46 293.24C291.482 278.422 291.46 263.605 291.46 248.777C291.369 248.777 291.29 248.777 291.199 248.777Z" fill="white"/>
<path d="M289.058 276.622C289.443 291.983 288.786 307.321 287.698 322.637C287.37 327.225 288.604 335.947 284.017 338.757C279.836 341.328 275.52 338.383 274.456 334.305C272.688 327.508 274.025 318.706 273.606 311.66C273.198 304.704 272.734 297.749 272.586 290.782C272.258 275.104 273.108 259.403 273.289 243.725C273.459 228.534 274.093 213.366 274.116 198.175C274.127 191.491 269.573 163.012 281.151 163.998C288.333 164.609 286.951 173.728 287.098 178.702C287.313 185.94 287.54 193.19 287.721 200.429C288.117 215.778 287.959 231.139 288.627 246.478C289.069 256.537 288.91 266.574 289.046 276.622H289.058Z" fill="white"/>
<path d="M254.813 283.508C255.311 254.101 255.753 224.693 256.489 195.285C256.614 190.504 254.699 179.437 258.562 175.812C261.938 172.651 266.299 174.69 267.693 178.485C269.902 184.455 268.406 193.393 268.508 199.692C268.633 207.327 268.769 214.951 268.927 222.586C269.573 252.617 271.442 282.659 269.324 312.667C268.984 317.436 270.23 347.524 259.004 338.756C254.971 335.595 256.512 326.668 256.308 322.251C255.934 314.321 255.572 306.38 255.13 298.461C254.869 293.806 254.507 289.172 254.801 283.508H254.813Z" fill="white"/>
<path d="M236.758 283.26C236.509 259.505 237.755 235.75 238.197 211.995C238.253 208.721 238.389 183.323 248.188 194.062C251.19 197.359 250 204.495 250.125 208.585C250.329 215.201 250.476 221.816 250.601 228.432C251.099 253.66 252.912 278.978 251.496 304.206C251.145 310.391 250.556 316.553 250.272 322.738C250.068 326.941 251.213 333.455 248.754 337.148C246.919 339.901 242.558 340.694 240.088 338.122C236.984 334.894 238.117 326.998 237.947 323.044C237.336 309.009 236.214 294.996 236.758 283.26Z" fill="white"/>
<path d="M215.245 282.683C215.88 294.486 214.894 306.302 213.999 318.06C213.75 321.311 214.316 346.902 204.755 338.372C201.584 335.54 202.705 326.602 202.444 322.795C202.037 316.69 201.753 310.572 201.346 304.455C200.519 291.938 200.621 279.681 200.972 267.14C201.64 243.159 200.847 218.52 203.158 194.652C203.498 191.095 204.404 185.442 209.593 187.356C213.693 188.874 212.923 194.686 213.036 198.107C213.433 210.228 213.807 222.36 214.169 234.481C214.634 249.922 215.483 265.362 215.245 282.683Z" fill="white"/>
<path d="M233.823 285.762C233.585 298.586 232.282 311.341 231.489 324.13C231.263 327.71 232.497 335.742 229.382 338.495C226.777 340.805 222.993 339.333 221.555 336.637C219.255 332.332 220.456 322.941 220.161 317.979C219.81 311.941 219.334 305.915 218.994 299.877C218.269 286.884 218.983 273.958 219.414 260.976C219.855 247.62 220.105 234.264 220.456 220.909C220.626 214.225 220.807 207.553 220.988 200.869C221.09 196.938 219.935 190.81 224.692 189.484C234.276 186.8 231.342 207.972 231.501 212.764C231.965 226.822 232.237 240.891 232.667 254.961C232.985 265.281 233.449 275.601 233.834 285.762H233.823Z" fill="white"/>
<path d="M183.04 286.523C183.98 260.434 185.328 234.334 185.351 208.223C185.351 204.213 183.573 194.097 187.356 191.083C190.404 188.659 192.975 191.083 194.006 193.938C196.045 199.602 194.742 208.438 194.935 214.499C195.15 221.239 195.354 227.979 195.603 234.719C196.555 261.023 198.061 286.715 195.966 312.974C195.614 317.415 197.076 343.447 188.036 339.108C184.116 337.228 185.43 329.966 185.351 326.624C185.193 319.397 184.524 312.181 184.105 304.965C183.754 298.939 182.95 292.946 183.029 286.534L183.04 286.523Z" fill="white"/>
<path d="M177.828 245.366C178.689 266.765 179.562 287.7 178.112 309.053C177.749 314.389 177.919 319.724 177.421 325.048C177.137 328.016 177.783 336.762 175.155 338.676C166.262 345.145 167.486 320.653 167.225 317.039C165.526 293.488 166.093 270.696 166.942 247.134C167.361 235.5 167.803 223.877 168.211 212.243C168.324 209.071 166.976 200.881 170.307 198.638C174.045 196.123 176.48 200.575 176.537 203.736C176.775 216.015 177.896 228.261 177.828 245.366Z" fill="white"/>
<path d="M147.594 287.689C148.273 275.274 148.976 262.858 149.644 250.442C149.973 244.382 150.29 238.31 150.584 232.249C150.777 228.341 149.576 220.774 151.468 217.319C153.269 214.023 156.09 214.453 157.88 217.342C159.511 219.958 158.729 226.857 158.899 229.837C159.568 241.946 160.213 254.067 160.927 266.177C161.595 277.392 162.502 288.301 161.516 299.539C160.53 310.81 161.289 324.302 158.265 335.188C157.415 338.224 155.421 341.453 151.978 338.201C149.633 335.981 150.403 326.103 150.165 323.146C149.202 311.342 147.911 299.561 147.911 287.712C147.809 287.712 147.696 287.712 147.594 287.712V287.689Z" fill="white"/>
<path d="M144.433 290.464C143.788 297.68 143.198 304.896 142.473 312.101C141.748 319.373 142.156 327.484 140.808 334.61C140.129 338.235 136.979 341.554 134.113 337.057C131.179 332.446 133.196 320.971 132.743 315.545C131.451 299.878 130.862 285.502 132.312 269.824C132.969 262.778 132.811 255.641 133.672 248.641C133.966 246.284 133.785 242.909 137.07 242.75C139.132 242.648 140.74 244.562 140.763 246.545C140.91 261.068 143.482 275.398 144.422 290.464H144.433Z" fill="white"/>
<path d="M113.191 290.101C113.961 281.129 114.743 272.168 115.513 263.196C115.842 259.368 114.845 242.659 118.334 240.529C124.417 236.825 124.111 256.218 124.429 259.254C125.414 268.419 126.434 277.594 126.683 286.816C126.932 296.229 125.935 305.643 124.995 315C124.53 319.622 124.009 324.244 123.5 328.866C123.307 330.61 123.534 336.399 121.857 337.883C116 343.06 116.193 324.13 116.012 322.046C115.105 311.862 114.165 301.689 113.248 291.517C113.202 290.962 113.191 290.407 113.18 290.112L113.191 290.101Z" fill="white"/>
<path d="M235.691 380.614C239.463 375.766 230.593 356.214 241.253 358.06C248.095 359.238 244.788 373.942 244.788 379.346C244.788 384.058 248.163 404.505 237.402 398.184C234.615 396.553 231.783 391.251 230.072 388.555C227.263 384.149 224.578 379.572 221.27 375.46C218.552 377.193 220.16 387.275 220.172 390.017C220.194 394.118 221.429 397.607 217.102 398.773C208.379 401.13 211.619 386.46 211.619 381.917C211.619 376.219 207.643 356.689 216.977 358.049C220.489 358.559 221.452 360.801 223.162 363.464C226.64 368.878 230.423 374.123 234.071 379.425C234.434 379.946 234.706 380.592 235.68 380.614H235.691Z" fill="white"/>
<path d="M96.3199 291.676C96.3086 277.187 98.393 262.381 99.9563 247.995C100.477 243.225 102.573 239.136 105.111 244.902C106.504 248.051 106.051 253.647 106.413 257.091C106.844 261.158 107.286 265.225 107.727 269.28C108.611 277.3 110.084 285.389 109.563 293.477C109.109 300.512 108.113 307.558 107.308 314.559C106.844 318.659 106.334 322.76 105.836 326.861C105.62 328.628 106.028 333.93 104.635 335.391C99.5824 340.693 99.6731 327.756 99.4465 325.23C98.359 313.381 96.841 301.565 96.3086 291.665L96.3199 291.676Z" fill="white"/>
<path d="M444.751 378.223C444.751 374.133 442.656 362.578 444.955 359.248C447.096 356.167 459.025 357.979 462.514 358.625C471.656 360.313 476.176 365.58 477.376 374.711C478.928 386.537 472.754 396.416 460.724 398.409C457.518 398.942 447.209 400.312 445.034 397.82C442.61 395.034 444.74 382.006 444.74 378.223H444.751ZM453.327 378.528C453.327 384.951 451.559 393.3 460.951 390.004C465.946 388.248 469.333 382.98 469.209 377.713C469.084 371.935 464.915 367.653 459.376 366.6C451.106 365.025 453.315 372.547 453.315 378.517L453.327 378.528Z" fill="white"/>
<path d="M254.067 378.427C254.067 374.201 251.982 363.088 254.135 359.543C255.981 356.484 266.131 357.991 269.62 358.387C281.798 359.792 288.096 368.537 286.884 380.658C286.001 389.54 279.997 396.189 271.297 398.115C267.921 398.863 257.182 400.516 254.746 398.081C251.994 395.328 254.078 382.357 254.067 378.427ZM262.71 378.461C262.71 384.634 260.41 392.224 269.201 390.231C275.205 388.871 278.275 383.841 278.241 377.883C278.207 372.287 275.647 368.118 270.096 366.759C260.852 364.482 262.721 371.675 262.71 378.461Z" fill="white"/>
<path d="M144.841 398.692C122.558 402.181 120.259 360.482 142.213 357.752C162.819 355.181 167.973 383.796 155.183 395.634C152.227 398.375 148.534 399.236 144.841 398.692ZM135.733 378.2C135.665 381.213 136.005 384.136 137.647 386.764C140.536 391.363 146.347 392.19 150.21 388.35C154.017 384.566 154.288 377.497 152.669 372.717C151.128 368.152 147.378 364.98 142.292 366.452C136.922 368.016 135.88 373.34 135.733 378.2Z" fill="white"/>
<path d="M377.701 398.762C354.411 401.582 354.037 355.25 379.389 357.516C401.762 359.51 400.539 398.75 377.701 398.762ZM369.069 378.847C369.081 379.187 369.001 379.957 369.183 380.671C370.485 386.063 372.49 391.829 379.242 390.594C385.133 389.518 386.413 383.31 386.379 378.099C386.333 372.107 384.056 365.434 376.806 366.227C370.576 366.907 369.001 373.489 369.081 378.847H369.069Z" fill="white"/>
<path d="M89.9449 391.42C91.8367 389.754 93.7625 388.055 95.8469 386.231C98.543 389.256 115.388 394.863 112.431 385.778C110.539 379.933 96.334 381.53 92.6297 374.96C88.4043 367.472 94.0117 359.825 101.534 358.013C106.212 356.88 127.169 361.434 117.053 367.925C113.621 370.123 112.579 367.631 109.146 366.464C106.461 365.558 99.4492 365.376 100.537 369.874C101.817 375.186 115.546 374.212 119.047 379.106C130.545 395.158 103.403 405.172 92.641 394.807C91.6328 393.844 90.5 393.017 89.9336 391.431L89.9449 391.42Z" fill="white"/>
<path d="M435.623 372.639C435.057 381.033 436.62 389.733 429.381 395.85C423.457 400.869 412.299 399.997 407.144 394.276C401.254 387.739 402.443 377.397 402.602 369.309C402.67 365.922 401.39 359.838 404.561 358.196C405.717 357.607 409.84 357.811 410.86 358.887C411.913 359.997 411.052 365.083 411.064 366.409C411.064 371.438 410.395 377.034 411.211 382.019C412.536 390.13 422.233 395.205 426.153 385.564C427.716 381.724 426.957 376.683 426.957 372.628C426.957 369.626 425.428 361.685 427.32 359.306C428.407 357.935 432.791 357.188 434.354 358.241C436.19 359.464 435.6 361.266 435.623 363.509C435.657 366.307 435.623 369.093 435.623 372.616V372.639Z" fill="white"/>
<path d="M201.902 373.272C201.335 381.7 203.17 391.703 194.584 396.869C188.784 400.358 179.461 399.78 174.522 395.045C168.246 389.018 169.628 379.446 169.628 371.584C169.628 369.013 168.325 360.46 170.262 358.727C171.191 357.9 176.141 357.458 177.252 358.489C178.396 359.543 177.795 362.091 177.795 363.462C177.818 369.398 177.252 375.708 177.818 381.61C178.52 388.916 187.107 395.487 192.114 387.228C194.357 383.524 193.587 377.781 193.609 373.68C193.632 370.418 192.318 363.02 193.723 360.154C194.64 358.274 198.582 356.654 200.791 358.285C202.57 359.599 201.902 361.219 201.902 363.507C201.902 366.487 201.902 369.466 201.902 373.284V373.272Z" fill="white"/>
<path d="M79.4102 289.921C80.6109 283.588 80.9055 277.154 81.4039 270.742C81.7438 266.358 81.132 255.619 83.4883 251.734C86.1051 247.418 87.793 249.989 88.4727 254.215C89.4129 260.082 89.4809 266.2 90.2625 272.113C91.0328 277.936 92.4035 284.098 92.4602 289.977C92.5168 295.709 90.9762 301.6 90.2512 307.287C89.4922 313.291 89.5488 319.657 88.3367 325.559C87.6004 329.139 84.4398 332.662 83.4543 326.816C81.4039 314.616 81.4152 302.2 79.4102 289.932V289.921Z" fill="white"/>
<path d="M318.931 385.835C321.582 386.549 326.045 388.576 325.558 391.42C325.15 393.776 319.905 396.948 318.025 397.741C312.112 400.244 303.74 399.123 299.175 394.467C288.311 383.388 293.103 360.381 309.189 357.753C313.267 357.084 327.314 359.882 326.011 366.453C324.709 373.023 313.482 365.864 310.571 366.147C292.944 367.88 306.346 401.796 317.515 387.953C318.025 387.319 318.433 386.583 318.92 385.835H318.931Z" fill="white"/>
<path d="M332.909 378.302C332.909 374.337 330.768 360.766 334.076 358.33C336.534 356.518 340.102 358.466 341.133 360.143C343.014 363.235 341.156 374.439 341.156 378.279C341.156 380.635 339.921 387.081 341.36 389.041C342.764 390.955 345.823 390.151 347.885 390.151C351.963 390.151 359.689 389.347 356.811 396.313C355.576 399.293 354.942 398.704 351.238 398.704C347.579 398.704 336.681 400.731 333.634 398.114C330.813 395.69 332.92 381.949 332.92 378.302H332.909Z" fill="white"/>
<path d="M74.9909 290.114C74.787 294.022 74.3339 297.896 73.7674 301.77C73.337 304.761 73.4389 311.535 71.5358 314.039C66.7667 320.326 66.3588 303.821 66.0983 301.589C65.2374 294.282 64.7163 288.04 65.8491 280.779C66.4835 276.667 66.2342 272.226 67.1971 268.216C67.6503 266.302 70.8901 261.193 71.819 266.324C73.2464 274.266 74.5944 282.229 74.9909 290.125V290.114Z" fill="white"/>
</g>
<defs>
<clipPath id="clip0_4335_1517">
<rect width="580" height="580" fill="white"/>
</clipPath>
</defs>
</svg>
