<svg width="47" height="45" viewBox="0 0 47 45" fill="none" xmlns="http://www.w3.org/2000/svg">
<g clip-path="url(#clip0_4124_1619)">
<path fill-rule="evenodd" clip-rule="evenodd" d="M23.5 0C36.4792 0 47 10.0731 47 22.5C47 34.9269 36.4792 45 23.5 45C10.5208 45 0 34.9269 0 22.5C0 10.0731 10.5208 0 23.5 0Z" fill="#FF5500"/>
<path d="M23.5998 19.3016C23.5998 17.3083 23.5998 15.3149 23.5998 13.3216C23.5998 13.028 23.53 12.6448 23.7521 12.4084C24.0027 12.1412 24.6104 12.0375 24.9583 11.9496C25.913 11.7088 27.0238 11.6903 27.9959 11.8292C29.7033 12.0718 31.3015 12.8988 32.4637 14.117C33.0411 14.7217 33.5111 15.409 33.8498 16.1613C34.0251 16.5515 34.1849 16.962 34.2785 17.3786C34.3299 17.6053 34.2831 18.1854 34.5043 18.3085C34.687 18.4104 35.4471 18.1336 35.6839 18.1151C36.2062 18.0738 36.7515 18.1019 37.261 18.2276C38.0477 18.4219 38.7912 18.8815 39.3392 19.4528C40.5473 20.7123 40.7456 22.6547 39.9405 24.1611C39.174 25.5955 37.63 26.3663 35.9832 26.3786C33.8489 26.3944 31.7137 26.3821 29.5785 26.3812C28.3649 26.3812 27.1505 26.3803 25.9369 26.3795C25.2934 26.3795 23.7604 26.7152 23.6089 25.8679C23.5226 25.3898 23.6071 24.8352 23.6126 24.351C23.6181 23.8175 23.6209 23.2848 23.6209 22.7513C23.6227 21.6017 23.6209 20.4521 23.6209 19.3016C23.6135 19.3016 23.6071 19.3016 23.5998 19.3016Z" fill="white"/>
<path d="M23.4267 21.4617C23.4579 22.6535 23.4047 23.8435 23.3166 25.0318C23.2899 25.3878 23.39 26.0645 23.0182 26.2825C22.6795 26.482 22.3297 26.2535 22.2435 25.9371C22.1003 25.4097 22.2086 24.7268 22.1746 24.1802C22.1416 23.6405 22.1039 23.1009 22.092 22.5603C22.0654 21.3439 22.1342 20.1258 22.1489 18.9094C22.1627 17.7307 22.2141 16.5539 22.2159 15.3753C22.2168 14.8567 21.8478 12.6472 22.786 12.7236C23.368 12.7711 23.256 13.4786 23.2679 13.8644C23.2854 14.4261 23.3037 14.9886 23.3184 15.5502C23.3505 16.7411 23.3377 17.9329 23.3918 19.1229C23.4276 19.9034 23.4148 20.6821 23.4258 21.4617H23.4267Z" fill="white"/>
<path d="M20.6504 21.996C20.6908 19.7144 20.7266 17.4327 20.7863 15.1511C20.7964 14.7802 20.6413 13.9215 20.9543 13.6403C21.2278 13.395 21.5813 13.5532 21.6942 13.8477C21.8732 14.3109 21.752 15.0043 21.7603 15.493C21.7704 16.0854 21.7814 16.6769 21.7942 17.2693C21.8466 19.5992 21.998 21.9301 21.8264 24.2583C21.7988 24.6283 21.8998 26.9627 20.9901 26.2824C20.6633 26.0372 20.7881 25.3446 20.7716 25.0019C20.7413 24.3866 20.7119 23.7705 20.6761 23.1562C20.655 22.7949 20.6257 22.4355 20.6495 21.996H20.6504Z" fill="white"/>
<path d="M19.1875 21.9771C19.1673 20.1341 19.2683 18.291 19.3041 16.4479C19.3087 16.1939 19.3197 14.2234 20.1137 15.0566C20.357 15.3124 20.2606 15.8661 20.2707 16.1834C20.2872 16.6967 20.2992 17.21 20.3093 17.7232C20.3496 19.6806 20.4965 21.6449 20.3818 23.6022C20.3533 24.0821 20.3056 24.5603 20.2826 25.0401C20.2661 25.3662 20.3588 25.8716 20.1596 26.1581C20.0109 26.3717 19.6575 26.4332 19.4574 26.2337C19.2059 25.9832 19.2977 25.3706 19.2839 25.0639C19.2343 23.9749 19.1434 22.8877 19.1875 21.9771Z" fill="white"/>
<path d="M17.4434 21.9318C17.4948 22.8476 17.415 23.7643 17.3424 24.6766C17.3222 24.9288 17.3681 26.9143 16.5934 26.2525C16.3363 26.0328 16.4272 25.3393 16.4061 25.044C16.3731 24.5703 16.3501 24.0956 16.3171 23.621C16.25 22.6498 16.2583 21.6989 16.2868 20.7259C16.3409 18.8653 16.2767 16.9537 16.4639 15.1018C16.4915 14.8258 16.5649 14.3872 16.9853 14.5358C17.3176 14.6536 17.2552 15.1044 17.2644 15.3699C17.2965 16.3103 17.3268 17.2516 17.3562 18.192C17.3938 19.39 17.4627 20.5879 17.4434 21.9318Z" fill="white"/>
<path d="M18.9495 22.1716C18.9302 23.1665 18.8246 24.1562 18.7604 25.1485C18.742 25.4262 18.8421 26.0493 18.5896 26.2629C18.3785 26.4422 18.0719 26.3279 17.9553 26.1188C17.769 25.7848 17.8663 25.0562 17.8424 24.6712C17.8139 24.2028 17.7754 23.7352 17.7478 23.2667C17.6891 22.2586 17.7469 21.2558 17.7818 20.2486C17.8176 19.2123 17.8378 18.1761 17.8663 17.1399C17.88 16.6213 17.8947 16.1036 17.9094 15.5851C17.9177 15.2801 17.824 14.8046 18.2096 14.7018C18.9862 14.4935 18.7484 16.1361 18.7613 16.5079C18.7989 17.5986 18.8209 18.6903 18.8558 19.7819C18.8815 20.5825 18.9192 21.3832 18.9504 22.1716H18.9495Z" fill="white"/>
<path d="M14.8334 22.2299C14.9096 20.2058 15.0188 18.1808 15.0207 16.1549C15.0207 15.8438 14.8765 15.0589 15.1831 14.8251C15.4301 14.6371 15.6384 14.8251 15.722 15.0466C15.8872 15.4861 15.7817 16.1716 15.7973 16.6418C15.8147 17.1648 15.8312 17.6877 15.8514 18.2107C15.9285 20.2515 16.0506 22.2449 15.8808 24.2822C15.8523 24.6267 15.9708 26.6464 15.2382 26.3098C14.9206 26.1639 15.0271 25.6005 15.0207 25.3413C15.0078 24.7805 14.9536 24.2206 14.9197 23.6608C14.8912 23.1932 14.826 22.7283 14.8325 22.2308L14.8334 22.2299Z" fill="white"/>
<path d="M14.4132 19.0374C14.483 20.6976 14.5537 22.3218 14.4362 23.9786C14.4068 24.3925 14.4206 24.8065 14.3802 25.2196C14.3572 25.4499 14.4096 26.1284 14.1966 26.2769C13.476 26.7788 13.5751 24.8786 13.554 24.5982C13.4163 22.7709 13.4622 21.0026 13.5311 19.1745C13.565 18.2718 13.6008 17.3701 13.6339 16.4674C13.6431 16.2213 13.5338 15.5859 13.8037 15.4119C14.1066 15.2167 14.304 15.5622 14.3086 15.8074C14.3279 16.7601 14.4187 17.7102 14.4132 19.0374Z" fill="white"/>
<path d="M11.9609 22.3207C12.016 21.3574 12.0729 20.3942 12.1271 19.4309C12.1537 18.9607 12.1794 18.4896 12.2033 18.0194C12.2189 17.7161 12.1216 17.129 12.2749 16.861C12.4208 16.6052 12.6494 16.6386 12.7945 16.8627C12.9266 17.0657 12.8633 17.601 12.8771 17.8322C12.9312 18.7717 12.9836 19.7121 13.0414 20.6517C13.0955 21.5218 13.169 22.3682 13.0891 23.2401C13.0093 24.1146 13.0708 25.1614 12.8257 26.006C12.7568 26.2415 12.5953 26.492 12.3162 26.2398C12.1262 26.0675 12.1886 25.3011 12.1693 25.0717C12.0913 24.1559 11.9866 23.2418 11.9866 22.3225C11.9784 22.3225 11.9692 22.3225 11.9609 22.3225V22.3207Z" fill="white"/>
<path d="M11.7071 22.5362C11.6548 23.0961 11.6071 23.656 11.5483 24.215C11.4896 24.7792 11.5226 25.4085 11.4134 25.9613C11.3583 26.2426 11.1031 26.5001 10.8709 26.1512C10.6331 25.7935 10.7965 24.9031 10.7598 24.4821C10.6551 23.2666 10.6074 22.1513 10.7249 20.9349C10.7782 20.3882 10.7653 19.8345 10.8351 19.2913C10.8589 19.1085 10.8442 18.8466 11.1105 18.8343C11.2775 18.8264 11.4079 18.9749 11.4097 19.1287C11.4217 20.2555 11.63 21.3673 11.7062 22.5362H11.7071Z" fill="white"/>
<path d="M9.17279 22.5074C9.23521 21.8113 9.29855 21.1161 9.36098 20.42C9.3876 20.123 9.30682 18.8266 9.58955 18.6613C10.0825 18.3739 10.0577 19.8786 10.0834 20.1142C10.1633 20.8252 10.2459 21.5371 10.2661 22.2525C10.2863 22.9829 10.2055 23.7133 10.1293 24.4393C10.0917 24.7979 10.0495 25.1565 10.0081 25.515C9.99254 25.6504 10.0109 26.0995 9.87504 26.2147C9.40045 26.6163 9.41605 25.1477 9.40137 24.9859C9.32793 24.1958 9.25174 23.4065 9.17738 22.6173C9.17371 22.5742 9.17279 22.5312 9.17188 22.5083L9.17279 22.5074Z" fill="white"/>
<path d="M19.1009 29.5299C19.4066 29.1537 18.6878 27.6368 19.5516 27.78C20.1061 27.8714 19.838 29.0122 19.838 29.4315C19.838 29.7971 20.1116 31.3835 19.2395 30.8931C19.0137 30.7665 18.7842 30.3552 18.6456 30.146C18.4179 29.8041 18.2004 29.4491 17.9323 29.13C17.712 29.2645 17.8424 30.0467 17.8433 30.2594C17.8451 30.5776 17.9452 30.8483 17.5945 30.9388C16.8877 31.1216 17.1502 29.9834 17.1502 29.631C17.1502 29.1889 16.828 27.6737 17.5844 27.7791C17.869 27.8187 17.947 27.9927 18.0856 28.1993C18.3674 28.6194 18.674 29.0263 18.9696 29.4376C18.999 29.4781 19.021 29.5282 19.1 29.5299H19.1009Z" fill="white"/>
<path d="M7.80561 22.6305C7.80469 21.5064 7.97359 20.3576 8.10027 19.2414C8.1425 18.8714 8.31232 18.5541 8.51795 19.0015C8.63086 19.2458 8.59414 19.68 8.62352 19.9472C8.6584 20.2627 8.6942 20.5782 8.73 20.8929C8.8016 21.5151 8.92094 22.1427 8.87871 22.7702C8.84199 23.316 8.76121 23.8627 8.69604 24.4059C8.6584 24.724 8.61709 25.0422 8.5767 25.3604C8.55926 25.4975 8.59231 25.9088 8.4794 26.0222C8.06998 26.4335 8.07732 25.4298 8.05897 25.2338C7.97084 24.3145 7.84783 23.3978 7.80469 22.6296L7.80561 22.6305Z" fill="white"/>
<path d="M36.0437 29.3446C36.0437 29.0274 35.8738 28.1309 36.0602 27.8725C36.2337 27.6334 37.2003 27.774 37.483 27.8241C38.2238 27.9551 38.5901 28.3638 38.6874 29.0722C38.8132 29.9898 38.3129 30.7562 37.338 30.9108C37.0782 30.9522 36.2429 31.0585 36.0666 30.8651C35.8702 30.6489 36.0427 29.6382 36.0427 29.3446H36.0437ZM36.7386 29.3684C36.7386 29.8667 36.5954 30.5145 37.3564 30.2587C37.7612 30.1225 38.0357 29.7138 38.0256 29.3051C38.0155 28.8568 37.6776 28.5246 37.2288 28.4429C36.5586 28.3207 36.7377 28.9043 36.7377 29.3675L36.7386 29.3684Z" fill="white"/>
<path d="M20.5891 29.3607C20.5891 29.0329 20.4202 28.1707 20.5946 27.8956C20.7442 27.6583 21.5667 27.7752 21.8495 27.806C22.8363 27.9149 23.3467 28.5935 23.2484 29.5339C23.1768 30.2229 22.6903 30.7389 21.9853 30.8883C21.7118 30.9463 20.8415 31.0746 20.6442 30.8856C20.4211 30.6721 20.59 29.6657 20.5891 29.3607ZM21.2895 29.3634C21.2895 29.8424 21.1032 30.4312 21.8155 30.2766C22.302 30.1711 22.5508 29.7809 22.548 29.3185C22.5453 28.8844 22.3378 28.5609 21.888 28.4555C21.139 28.2788 21.2904 28.8369 21.2895 29.3634Z" fill="white"/>
<path d="M11.7401 30.9331C9.93441 31.2038 9.74806 27.9686 11.5271 27.7568C13.1969 27.5572 13.6145 29.7774 12.5782 30.6958C12.3386 30.9085 12.0393 30.9753 11.7401 30.9331ZM11.002 29.3432C10.9965 29.577 11.024 29.8037 11.1571 30.0076C11.3912 30.3645 11.8621 30.4286 12.1752 30.1307C12.4836 29.8371 12.5056 29.2887 12.3744 28.9178C12.2495 28.5636 11.9457 28.3175 11.5335 28.4318C11.0984 28.553 11.0139 28.9661 11.002 29.3432Z" fill="white"/>
<path d="M30.6093 30.9388C28.7219 31.1576 28.6916 27.5629 30.746 27.7387C32.559 27.8934 32.4599 30.9379 30.6093 30.9388ZM29.9098 29.3936C29.9107 29.42 29.9043 29.4798 29.9189 29.5352C30.0245 29.9535 30.187 30.4009 30.7341 30.3051C31.2114 30.2216 31.3152 29.7399 31.3124 29.3356C31.3087 28.8707 31.1242 28.353 30.5367 28.4145C30.0319 28.4673 29.9043 28.9779 29.9107 29.3936H29.9098Z" fill="white"/>
<path d="M7.28998 30.369C7.44328 30.2398 7.59934 30.108 7.76824 29.9665C7.98672 30.2011 9.35174 30.6362 9.11215 29.9313C8.95885 29.4778 7.80771 29.6017 7.50754 29.0919C7.16514 28.511 7.61953 27.9177 8.22906 27.7771C8.60818 27.6892 10.3064 28.0425 9.48668 28.5461C9.20854 28.7167 9.12408 28.5233 8.84594 28.4328C8.62838 28.3625 8.06016 28.3484 8.14828 28.6973C8.25201 29.1095 9.36459 29.0339 9.64824 29.4136C10.58 30.659 8.38053 31.436 7.50846 30.6318C7.42676 30.5571 7.33496 30.4929 7.28906 30.3699L7.28998 30.369Z" fill="white"/>
<path d="M35.3017 28.9115C35.2558 29.5628 35.3825 30.2378 34.7959 30.7124C34.3158 31.1017 33.4116 31.0341 32.9939 30.5902C32.5166 30.0831 32.613 29.2806 32.6258 28.6531C32.6314 28.3903 32.5276 27.9183 32.7847 27.7909C32.8783 27.7452 33.2124 27.761 33.295 27.8445C33.3804 27.9306 33.3106 28.3253 33.3116 28.4281C33.3116 28.8183 33.2574 29.2525 33.3235 29.6392C33.4309 30.2685 34.2167 30.6623 34.5343 29.9143C34.661 29.6164 34.5995 29.2253 34.5995 28.9106C34.5995 28.6777 34.4756 28.0616 34.6289 27.877C34.717 27.7707 35.0722 27.7127 35.1989 27.7944C35.3476 27.8893 35.2999 28.0291 35.3017 28.2031C35.3045 28.4202 35.3017 28.6364 35.3017 28.9097V28.9115Z" fill="white"/>
<path d="M16.361 28.961C16.3151 29.6149 16.4638 30.391 15.768 30.7918C15.298 31.0625 14.5425 31.0177 14.1422 30.6503C13.6337 30.1827 13.7457 29.44 13.7457 28.8301C13.7457 28.6305 13.6401 27.967 13.7971 27.8325C13.8723 27.7683 14.2735 27.7341 14.3635 27.814C14.4562 27.8958 14.4075 28.0935 14.4075 28.1999C14.4094 28.6604 14.3635 29.15 14.4094 29.6079C14.4663 30.1748 15.1621 30.6845 15.5678 30.0438C15.7496 29.7564 15.6872 29.3108 15.689 28.9927C15.6908 28.7395 15.5844 28.1656 15.6982 27.9432C15.7725 27.7973 16.092 27.6717 16.271 27.7982C16.4151 27.9002 16.361 28.0259 16.361 28.2034C16.361 28.4346 16.361 28.6657 16.361 28.9619V28.961Z" fill="white"/>
<path d="M6.4375 22.494C6.5348 22.0027 6.55867 21.5035 6.59906 21.006C6.6266 20.6659 6.57703 19.8327 6.76797 19.5312C6.98002 19.1964 7.1168 19.3959 7.17187 19.7237C7.24807 20.179 7.25357 20.6536 7.31691 21.1124C7.37934 21.5642 7.49041 22.0423 7.495 22.4984C7.49959 22.9432 7.37475 23.4002 7.316 23.8414C7.25449 24.3072 7.25908 24.8012 7.16086 25.2591C7.10119 25.5368 6.84508 25.8102 6.76521 25.3566C6.59906 24.4101 6.59998 23.4468 6.4375 22.4949V22.494Z" fill="white"/>
<path d="M25.8446 29.9353C26.0594 29.9907 26.4211 30.148 26.3816 30.3686C26.3485 30.5514 25.9235 30.7975 25.7711 30.859C25.292 31.0533 24.6136 30.9663 24.2436 30.605C23.3633 29.7455 23.7516 27.9604 25.0551 27.7565C25.3856 27.7046 26.5239 27.9217 26.4183 28.4315C26.3127 28.9413 25.403 28.3858 25.1671 28.4078C23.7388 28.5422 24.8247 31.1737 25.7298 30.0997C25.7711 30.0504 25.8042 29.9933 25.8437 29.9353H25.8446Z" fill="white"/>
<path d="M26.9783 29.351C26.9783 29.0434 26.8048 27.9905 27.0729 27.8015C27.2721 27.6609 27.5612 27.812 27.6448 27.9421C27.7971 28.1821 27.6466 29.0513 27.6466 29.3492C27.6466 29.5321 27.5465 30.0322 27.6631 30.1842C27.777 30.3327 28.0248 30.2703 28.1919 30.2703C28.5223 30.2703 29.1484 30.2079 28.9152 30.7485C28.8152 30.9796 28.7638 30.9339 28.4636 30.9339C28.1671 30.9339 27.284 31.0912 27.0371 30.8882C26.8085 30.7001 26.9792 29.634 26.9792 29.351H26.9783Z" fill="white"/>
<path d="M6.07862 22.5092C6.06209 22.8125 6.02538 23.113 5.97948 23.4136C5.9446 23.6457 5.95286 24.1712 5.79864 24.3655C5.41217 24.8533 5.37913 23.5727 5.35801 23.3996C5.28825 22.8327 5.24602 22.3484 5.33782 21.785C5.38922 21.466 5.36903 21.1214 5.44706 20.8103C5.48377 20.6618 5.74631 20.2654 5.82159 20.6635C5.93725 21.2796 6.04649 21.8975 6.07862 22.5101V22.5092Z" fill="white"/>
</g>
<defs>
<clipPath id="clip0_4124_1619">
<rect width="47" height="45" fill="white"/>
</clipPath>
</defs>
</svg>
