<svg width="685" height="685" viewBox="0 0 685 685" fill="none" xmlns="http://www.w3.org/2000/svg">
<g clip-path="url(#clip0_4335_1487)">
<path d="M684.818 328.478C683.945 326.223 684.272 323.932 684.382 321.64C684.309 320.113 684.236 318.585 684.163 317.058C683.327 315.494 683.509 313.857 683.691 312.22C683.618 311.383 683.545 310.511 683.509 309.638C682.636 308.328 682.854 306.91 682.999 305.491C682.963 305.091 682.89 304.655 682.854 304.255C681.835 302.981 682.236 301.527 682.308 300.108C682.272 299.053 682.199 297.998 682.163 296.944C681.508 296.071 681.508 295.125 681.69 294.143C681.617 293.488 681.544 292.87 681.508 292.215C680.89 291.379 680.817 290.433 680.999 289.451C676.416 271.956 674.124 254.17 668.413 236.857C663.394 221.58 657.465 206.449 650.372 192.046C627.42 145.489 594.355 104.389 553.434 72.4537C508.076 37.0634 457.297 17.095 401.645 4.76477C400.626 4.91026 399.644 4.94664 398.807 4.21919C398.407 4.18282 398.007 4.14645 397.607 4.0737C396.588 4.21919 395.606 4.29193 394.77 3.56449C393.933 3.49174 393.133 3.45537 392.296 3.38263C391.314 3.56449 390.296 3.6736 389.459 2.90979C388.841 2.83704 388.222 2.7643 387.604 2.69155C386.586 2.90979 385.603 2.98253 384.73 2.25508C384.112 2.18234 383.457 2.10959 382.839 2.03685C381.639 2.18234 380.438 2.25508 379.311 1.52764C378.256 1.49127 377.201 1.41852 376.146 1.38215C374.728 1.52764 373.273 1.7095 371.963 0.872936C371.09 0.836563 370.254 0.763819 369.417 0.691074C368.071 0.691074 366.762 0.691074 365.452 0.654702C364.034 0.763819 362.579 1.09117 361.269 0.218234C360.614 0.145489 359.96 0.109117 359.341 0.0363723C357.086 0.0363723 354.867 0 352.648 0H334.461C332.17 0.109117 329.914 0.327351 327.659 0C326.132 0.0727446 324.64 0.145489 323.113 0.218234C321.803 1.09117 320.348 0.763819 318.929 0.654702C317.62 0.691074 316.274 0.691074 314.965 0.691074C314.128 0.763819 313.255 0.800191 312.418 0.872936C311.109 1.67313 309.654 1.52764 308.235 1.34578C307.362 1.41852 306.526 1.45489 305.689 1.52764C304.38 2.25508 302.961 2.18234 301.506 2.03685C300.888 2.10959 300.269 2.14597 299.651 2.18234C298.596 2.90979 297.36 2.87341 296.159 2.72792C295.759 2.80067 295.359 2.83704 294.922 2.87341C294.086 3.60086 293.104 3.56449 292.085 3.38263C290.121 3.6736 288.157 3.92821 286.193 4.21919C285.356 4.91026 284.374 4.91026 283.392 4.76477C250.582 11.239 219.228 20.6959 189.219 35.754C92.9362 84.0928 19.3147 179.752 4.07392 287.414C4.25579 288.396 4.25579 289.342 3.56468 290.178C3.49193 290.615 3.41918 291.015 3.38281 291.451C3.56468 292.433 3.5283 293.416 2.87357 294.252C2.61895 296.434 2.32795 298.653 2.07333 300.872C2.18246 302.29 2.2552 303.673 1.52772 304.982C1.49134 305.637 1.4186 306.255 1.38222 306.91C1.38222 308.001 1.38222 309.092 1.34585 310.183C1.4186 311.565 1.85509 313.02 0.836608 314.293C0.800234 314.73 0.763859 315.166 0.691111 315.603C0.836608 317.458 1.09123 319.313 0.218246 321.095C0.145497 323.495 0.0727485 325.896 0 328.297C0.327368 330.115 0.145497 331.934 0.0363743 333.752C0.0363743 341.391 0.0363743 349.029 0 356.667C0.0727485 358.413 0.145497 360.195 0.218246 361.941C1.1276 363.941 0.836608 366.015 0.691111 368.088C0.763859 369.616 0.836608 371.107 0.872982 372.634C1.63684 373.944 1.52772 375.362 1.34585 376.781C1.4186 377.217 1.45497 377.617 1.52772 378.054C2.47345 379.327 2.18246 380.782 2.03696 382.2C2.10971 382.819 2.14608 383.473 2.21883 384.092C3.12819 385.147 2.83719 386.383 2.72807 387.583C6.36549 422.428 17.3141 457.236 32.4458 488.735C54.8524 535.401 86.9708 576.683 127.383 609.164C149.535 626.95 173.723 642.008 199.513 653.938C225.957 666.195 256.657 677.944 285.974 680.308C286.993 680.126 288.011 680.017 288.848 680.817C289.248 680.854 289.648 680.89 290.012 680.926C291.03 680.781 292.049 680.635 292.885 681.436C293.504 681.508 294.122 681.581 294.704 681.654C295.723 681.436 296.741 681.363 297.578 682.127C298.414 682.199 299.251 682.236 300.088 682.308C301.106 682.127 302.088 681.981 302.961 682.781C303.798 682.818 304.634 682.89 305.471 682.963C306.926 682.818 308.381 682.563 309.69 683.472C310.309 683.509 310.927 683.581 311.582 683.618C313.219 683.509 314.892 683.327 316.42 684.127C317.947 684.2 319.439 684.236 320.966 684.309C322.749 683.982 324.531 684.309 326.35 684.309C328.605 684.345 330.933 683.727 333.115 684.782C338.281 684.855 343.409 684.927 348.574 685C350.575 684.818 352.612 684.709 354.613 684.927C354.794 684.855 355.013 684.818 355.195 684.818C357.886 683.872 360.687 684.2 363.415 684.309C364.288 684.236 365.125 684.2 365.998 684.127C367.271 683.145 368.726 683.618 370.108 683.618H373.454C374.109 683.618 374.728 683.509 375.346 683.436C376.437 682.599 377.674 682.818 378.911 682.963C379.747 682.963 380.584 682.854 381.42 682.781C382.475 681.908 383.712 682.127 384.949 682.308C385.785 682.236 386.586 682.163 387.422 682.09C388.295 681.326 389.277 681.435 390.296 681.617C394.988 681.254 399.608 680.272 404.227 679.471C405.064 678.744 406.046 678.744 407.028 678.889C438.237 672.815 468.5 662.595 496.872 648.228C593.446 599.38 662.339 505.684 680.308 398.968C680.126 397.95 680.053 397.004 680.817 396.167C680.89 395.549 680.962 394.931 681.035 394.312C680.817 393.294 680.744 392.312 681.508 391.475C681.799 389.075 682.381 386.711 682.345 384.274C682.199 383.037 681.945 381.837 682.854 380.746C682.89 380.527 682.963 380.345 682.999 380.127C682.854 378.709 682.745 377.29 683.509 375.981C683.545 374.708 683.618 373.398 683.691 372.125C683.545 370.488 683.29 368.815 684.163 367.288C684.236 366.633 684.272 365.978 684.345 365.324V361.359C684.309 359.068 683.909 356.776 684.818 354.557C684.891 353.903 684.927 353.212 685 352.557V331.752C684.927 330.661 684.891 329.57 684.818 328.478ZM502.401 486.189C501.528 488.408 501.201 490.845 500.037 492.954C496.69 498.883 491.707 502.52 484.978 503.72C482.432 504.702 479.886 504.702 477.376 503.684C472.247 503.429 467.482 499.356 463.226 496.919C458.316 494.082 453.296 491.354 448.204 488.771C438.164 483.752 427.834 479.424 417.322 475.495C406.664 471.567 395.97 468.003 384.985 465.093C373.418 462.038 361.487 460.801 349.957 457.891C348.938 458.073 347.956 458.037 347.12 457.382C346.501 457.309 345.883 457.273 345.264 457.236C344.246 457.382 343.264 457.455 342.391 456.727C341.772 456.691 341.154 456.618 340.536 456.545C339.335 456.691 338.099 456.764 337.007 456.036C335.989 456 334.934 455.927 333.916 455.854C332.679 456.036 331.442 456.218 330.351 455.382C329.514 455.382 328.678 455.272 327.841 455.2C326.168 455.345 324.495 455.527 322.967 454.69C321.694 454.654 320.421 454.581 319.111 454.509C317.038 454.69 314.928 454.909 312.891 454.036C311.618 453.963 310.309 453.927 308.999 453.854C306.562 454.181 304.089 453.854 301.615 453.854H275.971C273.534 453.927 271.061 453.999 268.624 454.072C266.623 455.018 264.55 454.581 262.513 454.509C260.731 454.545 258.985 454.545 257.202 454.545C256.366 454.581 255.493 454.654 254.656 454.69C252.874 455.6 250.982 455.345 249.127 455.2C248.072 455.272 247.018 455.345 245.963 455.382C244.617 456.182 243.198 456.036 241.743 455.891C241.125 455.927 240.507 456 239.852 456.036C238.761 456.873 237.56 456.727 236.324 456.545C235.269 456.582 234.25 456.655 233.195 456.691C232.104 457.418 230.904 457.346 229.667 457.2C227.266 457.491 224.866 457.782 222.465 458.073C221.592 458.728 220.61 458.728 219.591 458.546C218.973 458.619 218.391 458.691 217.773 458.764C216.9 459.455 215.918 459.419 214.899 459.237C212.935 459.382 211.043 460.219 209.043 460.074C208.17 460.765 207.188 460.765 206.206 460.619C194.748 462.729 183.29 464.802 171.905 467.312C170.632 467.603 169.431 468.294 168.049 468.112C165.757 469.057 163.43 469.058 161.102 468.148C160.92 468.185 160.738 468.112 160.592 467.966C154.409 468.694 147.425 461.419 144.988 456.509C141.86 450.253 142.369 442.433 145.643 436.359C153.245 422.428 175.324 423.592 188.71 420.319C189.546 419.591 190.528 419.591 191.51 419.773C194.384 419.264 197.258 418.791 200.131 418.318C200.968 417.554 201.95 417.591 202.968 417.773C205.005 417.918 206.897 417.118 208.861 416.9C209.698 416.099 210.716 416.281 211.698 416.427C212.317 416.354 212.935 416.318 213.553 416.281C214.426 415.517 215.408 415.59 216.427 415.772C217.045 415.699 217.664 415.663 218.282 415.59C219.119 414.79 220.137 414.935 221.155 415.117C221.992 415.045 222.792 414.972 223.629 414.899C224.502 414.135 225.484 414.244 226.502 414.426C227.339 414.39 228.176 414.317 229.012 414.244C230.104 413.408 231.34 413.59 232.577 413.772C233.377 413.699 234.214 413.662 235.05 413.59C236.36 412.717 237.815 412.935 239.27 413.08C240.325 413.008 241.343 412.971 242.398 412.899C243.744 412.062 245.199 412.28 246.654 412.426C247.49 412.353 248.327 412.317 249.164 412.244C250.691 411.262 252.365 411.662 254.001 411.735C255.529 411.735 257.093 411.735 258.657 411.735C259.276 411.698 259.894 411.662 260.512 411.589C263.022 410.716 265.568 410.935 268.115 411.116C270.079 411.044 272.043 411.007 274.007 410.935C276.372 408.789 302.67 408.861 304.962 410.935C306.708 411.007 308.454 411.044 310.2 411.116C311.764 411.116 313.364 411.116 314.928 411.116C316.492 411.116 318.129 410.644 319.657 411.553C321.185 411.662 322.749 411.735 324.313 411.844C325.513 411.698 326.714 411.48 327.805 412.317C328.86 412.353 329.914 412.426 330.969 412.499C332.424 412.353 333.879 412.135 335.189 413.008C336.025 413.044 336.862 413.117 337.699 413.153C338.935 413.008 340.136 412.862 341.227 413.662C342.063 413.699 342.9 413.772 343.737 413.844C344.937 413.662 346.174 413.481 347.265 414.354C347.883 414.39 348.502 414.463 349.12 414.535C350.139 414.317 351.121 414.244 351.994 415.008C353.921 415.517 355.886 415.772 357.886 415.808C358.868 415.627 359.887 415.554 360.723 416.354C395.279 422.683 431.762 431.412 462.753 448.616C470.756 449.598 481.413 458.073 488.288 462.147C495.345 466.293 500.692 471.094 502.401 479.496C503.347 481.751 503.347 484.007 502.401 486.262V486.189ZM542.813 397.731C540.376 403.405 536.411 407.843 530.519 410.316C527.9 412.062 524.917 412.753 521.861 413.117C519.57 413.99 517.278 413.99 514.987 413.117C511.458 412.68 508.185 411.662 505.129 409.734C497.054 404.569 488.47 400.277 480.14 395.622C476.103 394.312 472.465 392.13 468.755 390.202H468.719C459.116 386.383 449.258 382.964 439.874 378.709C438.564 378.781 437.51 378.199 436.491 377.545C433.217 377.036 430.271 375.508 427.106 374.635C426.27 374.089 425.07 374.453 424.378 373.544C414.194 370.525 404.009 367.615 393.679 365.215C393.388 365.142 393.097 364.887 392.806 364.742H392.478L392.187 364.633C390.332 364.451 388.513 364.232 386.804 363.36C386.586 363.36 386.367 363.36 386.149 363.287C381.457 362.487 376.728 361.868 372.109 360.632C371.09 360.777 370.108 360.777 369.271 360.05C368.871 360.013 368.508 359.977 368.107 359.941C367.089 360.122 366.107 360.086 365.27 359.395C363.197 359.613 361.305 358.667 359.305 358.522C358.105 358.849 357.159 357.795 355.995 357.904C354.976 358.049 353.994 358.122 353.121 357.431C352.321 357.358 351.484 357.285 350.684 357.213C349.666 357.394 348.684 357.504 347.811 356.74C346.974 356.667 346.174 356.631 345.337 356.558C344.1 356.703 342.864 356.922 341.809 356.049C341.409 355.976 340.972 355.94 340.572 355.867C339.335 356.049 338.135 356.121 337.044 355.394C335.989 355.321 334.971 355.249 333.916 355.176C332.679 355.358 331.442 355.539 330.351 354.739C329.733 354.667 329.078 354.594 328.46 354.521H325.149C324.167 354.667 323.185 354.812 322.312 354.048C321.476 353.975 320.603 353.939 319.766 353.866H315.11C313.255 353.83 311.364 354.485 309.618 353.357C309.399 353.248 309.218 353.212 309.036 353.175C306.562 353.175 304.125 353.212 301.688 353.212H259.203C257.712 353.248 256.184 353.321 254.693 353.357C252.874 354.194 250.982 353.975 249.127 353.83C248.072 353.903 246.981 353.975 245.926 354.048C244.617 354.885 243.162 354.703 241.707 354.521C240.652 354.594 239.597 354.667 238.542 354.739C237.451 355.539 236.214 355.358 234.978 355.212C234.578 355.249 234.177 355.285 233.777 355.358C232.504 356.34 231.013 355.976 229.594 355.903C228.576 355.94 227.521 356.012 226.502 356.049C225.411 356.813 224.175 356.703 222.974 356.558C222.356 356.631 221.774 356.703 221.155 356.74C220.282 357.431 219.3 357.394 218.282 357.249C217.882 357.285 217.482 357.322 217.082 357.358C216.209 358.049 215.226 358.086 214.208 357.904C213.371 357.976 212.535 358.049 211.662 358.158C210.934 359.068 209.879 358.486 209.006 358.704C208.133 359.395 207.188 359.431 206.169 359.249C205.005 359.068 204.06 360.195 202.859 359.904C201.695 359.759 200.75 360.85 199.513 360.522C198.385 360.741 197.294 360.995 196.166 361.214C195.475 361.25 194.821 361.286 194.129 361.286C190.674 362.559 187.109 363.25 183.435 363.432C181.435 364.887 179.034 365.069 176.706 365.469C171.214 367.215 165.685 368.925 160.01 370.125C157.1 371.361 154.118 370.634 151.135 370.598C150.226 370.198 149.316 369.834 148.407 369.434H148.08L147.825 369.325C145.861 369.688 144.624 368.233 143.133 367.397H143.096C138.477 365.433 135.312 361.905 132.621 357.867C130.474 354.63 129.456 351.029 128.91 347.247C128.001 344.992 128.001 342.736 128.91 340.481C129.529 334.953 131.748 330.224 135.64 326.26C135.858 325.641 136.258 325.241 136.84 324.987C144.006 316.73 158.846 315.057 168.813 312.438C181.544 309.092 194.566 307.092 207.479 304.836C208.352 304.145 209.334 304.182 210.352 304.327C212.353 304.436 214.281 303.673 216.245 303.527C217.3 302.654 218.537 302.836 219.773 302.981C220.355 302.945 220.974 302.872 221.592 302.836C222.683 301.999 223.92 302.181 225.12 302.327C225.739 302.29 226.357 302.218 226.975 302.181C228.067 301.345 229.303 301.527 230.54 301.708C231.377 301.636 232.213 301.563 233.05 301.49C234.359 300.581 235.814 300.872 237.269 301.017C238.542 300.945 239.779 300.872 241.052 300.799C242.398 299.963 243.853 300.181 245.308 300.363C246.581 300.29 247.854 300.217 249.127 300.181C251.382 299.162 253.71 299.562 256.002 299.635C257.966 299.599 259.93 299.526 261.858 299.49C264.768 298.544 267.751 298.944 270.734 298.981C280.3 298.762 289.903 298.799 299.469 298.981C302.67 298.871 305.871 298.471 308.999 299.453C309.654 299.49 310.272 299.562 310.927 299.599C312.709 299.599 314.492 299.635 316.238 299.635C318.093 299.562 319.984 299.09 321.73 300.144C322.821 300.181 323.876 300.254 324.931 300.29C326.568 300.144 328.241 299.781 329.805 300.763C330.642 300.836 331.515 300.872 332.352 300.945C333.988 300.835 335.662 300.545 337.189 301.49C337.589 301.527 338.026 301.563 338.426 301.636C339.845 301.49 341.3 301.381 342.609 302.145C343.446 302.145 344.282 302.254 345.119 302.29C346.356 302.145 347.556 301.999 348.647 302.8C349.484 302.872 350.32 302.945 351.157 303.018C352.176 302.8 353.158 302.763 354.031 303.454C354.831 303.527 355.667 303.6 356.504 303.673C357.523 303.491 358.505 303.418 359.378 304.145C362.87 304.8 366.361 305.455 369.926 305.673C370.945 305.491 371.927 305.418 372.763 306.219C393.278 312.984 417.613 311.784 437.219 321.64C446.421 324.623 455.515 327.533 464.572 330.952C470.901 333.316 483.85 335.862 488.252 341.1C491.198 341.5 493.744 342.809 496.145 344.555C496.945 345.246 497.927 345.646 498.946 345.974C502.838 347.028 506.33 348.883 509.603 351.248C509.931 351.793 510.513 351.866 511.022 351.975C514.768 351.975 535.829 363.432 536.557 367.324C537.029 367.761 537.466 368.233 537.902 368.67C539.939 369.907 541.176 371.762 541.867 374.053C542.086 374.562 542.013 375.181 542.558 375.508C544.013 376.963 544.159 378.927 544.668 380.709C545.359 381.546 545.396 382.491 545.214 383.51C545.141 385.765 545.978 388.056 544.632 390.202C544.632 390.421 544.595 390.639 544.486 390.821C545.177 393.439 543.722 395.622 542.813 397.731ZM593.046 280.176C590.827 295.307 579.551 306.037 564.819 307.71C562.528 308.583 560.236 308.583 557.945 307.71C544.886 306.037 533.174 296.325 521.389 290.797C508.694 284.832 495.672 279.63 482.432 274.938C468.828 270.101 455.042 265.918 441.001 262.572C433.945 260.899 426.961 259.116 419.868 257.698C413.321 256.352 401.317 256.534 395.606 253.151C394.588 253.297 393.606 253.297 392.769 252.606C392.369 252.606 391.969 252.533 391.569 252.497C390.55 252.642 389.568 252.679 388.695 251.987C387.859 251.915 387.058 251.842 386.258 251.769C385.24 251.951 384.258 251.987 383.385 251.296C382.985 251.224 382.584 251.187 382.184 251.115C380.948 251.296 379.747 251.333 378.692 250.569C378.074 250.569 377.456 250.496 376.837 250.423C375.601 250.605 374.4 250.642 373.309 249.914C372.909 249.878 372.509 249.841 372.109 249.769C370.872 249.914 369.672 249.987 368.544 249.26C367.744 249.223 366.907 249.15 366.07 249.114C364.652 249.26 363.197 249.369 361.887 248.568C360.833 248.532 359.778 248.459 358.723 248.423C357.523 248.568 356.286 248.75 355.195 247.95C353.921 247.877 352.648 247.805 351.375 247.732C349.92 247.914 348.502 248.132 347.156 247.259C346.538 247.223 345.883 247.15 345.264 247.077C343.919 247.077 342.609 247.077 341.263 247.114C339.663 247.114 338.026 247.55 336.535 246.677C334.752 246.568 332.97 246.495 331.188 246.423C328.896 246.386 326.568 247.004 324.349 245.95C322.821 245.877 321.294 245.804 319.766 245.731C317.256 245.804 314.71 246.204 312.237 245.259C310.491 245.186 308.745 245.149 306.999 245.077C300.56 245.077 294.159 245.077 287.72 245.149C286.084 245.186 284.41 245.222 282.773 245.259C282.228 245.804 281.573 245.804 280.882 245.804C276.99 245.804 273.098 245.804 269.206 245.731C266.551 245.659 263.859 246.059 261.204 245.731C259.676 245.804 258.184 245.841 256.657 245.913C254.438 246.895 252.074 246.495 249.782 246.423C248.727 246.459 247.636 246.532 246.581 246.568C244.799 247.514 242.907 247.223 241.052 247.077C240.652 247.15 240.216 247.186 239.815 247.223C238.542 248.241 237.087 247.768 235.705 247.768H232.359C231.522 247.805 230.686 247.877 229.849 247.95C228.539 248.75 227.084 248.568 225.666 248.459C225.048 248.532 224.429 248.568 223.811 248.605C222.683 249.369 221.483 249.26 220.246 249.114C219.628 249.15 219.009 249.187 218.391 249.26C217.3 249.987 216.099 249.914 214.863 249.769C214.281 249.805 213.662 249.878 213.044 249.914C211.953 250.642 210.752 250.605 209.516 250.46C208.897 250.46 208.243 250.496 207.588 250.533V250.642C206.788 251.369 205.806 251.26 204.823 251.151C204.423 251.187 204.023 251.224 203.623 251.26C202.568 252.024 201.368 251.951 200.131 251.842C198.967 251.66 198.021 252.788 196.785 252.388C195.948 252.497 195.075 252.606 194.202 252.679C193.475 253.624 192.42 253.042 191.547 253.297C190.71 253.988 189.728 253.988 188.71 253.842C187.837 254.024 186.964 254.243 186.091 254.424C182.962 254.679 180.016 256.134 176.815 255.952C175.069 256.752 173.214 257.007 171.323 257.189L171.068 257.334H170.741C165.648 258.825 160.447 260.026 155.209 261.226L154.954 261.372H154.663C153.39 262.099 151.972 262.39 150.517 262.535L150.262 262.717H149.971C148.662 263.445 147.279 263.808 145.824 263.881L145.57 264.063L145.279 263.99C143.933 264.572 142.623 265.082 141.168 265.191C138.404 265.263 135.603 265.809 132.912 264.718C132.693 264.754 132.511 264.681 132.366 264.572C127.892 264.245 123.854 262.717 120.362 259.917H120.29C118.907 259.298 117.743 258.462 116.834 257.298C115.197 256.279 113.851 254.934 112.869 253.297C112.142 252.788 111.669 252.097 111.342 251.26C110.978 251.187 110.832 250.933 110.869 250.533C108.141 246.968 106.504 243.004 106.14 238.493C105.085 235.074 105.085 231.655 106.067 228.236C106.031 228.018 106.104 227.836 106.249 227.691C106.54 225.327 106.504 222.89 108.177 220.926C108.432 219.434 109.086 218.088 110.105 216.888C111.342 214.597 112.797 212.451 114.87 210.778C114.87 210.414 115.088 210.232 115.452 210.196C120.071 205.322 125.891 202.739 132.366 201.503C133.857 200.739 135.385 200.23 137.095 200.157C137.24 199.975 137.422 199.902 137.64 199.975C139.823 199.029 142.078 198.375 144.442 198.193C146.334 197.465 148.261 196.883 150.298 196.738C152.881 195.465 155.682 194.992 158.555 194.919C158.737 194.81 158.955 194.774 159.174 194.774C160.847 193.755 162.702 193.574 164.594 193.464C164.739 193.319 164.921 193.283 165.139 193.392C165.976 192.773 166.921 192.664 167.94 192.882C169.359 193.028 170.595 192.191 171.977 192.119C174.96 190.846 178.234 190.846 181.326 190.045C182.162 189.318 183.144 189.318 184.163 189.5C185.036 189.463 185.909 189.463 186.745 189.427C187.473 188.518 188.528 189.027 189.401 188.7C190.237 187.899 191.219 187.972 192.238 188.154C192.638 188.118 193.038 188.081 193.438 188.045C194.275 187.245 195.293 187.354 196.348 187.536C196.93 187.463 197.512 187.427 198.131 187.354C199.185 186.481 200.422 186.699 201.622 186.808C202.241 186.736 202.859 186.699 203.478 186.626C204.351 185.863 205.333 185.972 206.351 186.154C207.406 186.081 208.424 186.044 209.443 185.972C210.352 185.317 211.334 185.317 212.353 185.499C212.753 185.462 213.153 185.39 213.59 185.317C214.644 184.444 215.918 184.662 217.154 184.844C218.173 184.771 219.228 184.699 220.282 184.626C221.374 183.789 222.61 184.008 223.847 184.153C224.866 184.117 225.92 184.044 226.975 183.971C228.321 183.135 229.74 183.353 231.195 183.498C232.468 183.426 233.741 183.353 235.014 183.28C236.578 182.444 238.251 182.662 239.888 182.807C240.507 182.735 241.161 182.698 241.78 182.662C243.089 181.643 244.544 182.08 245.963 182.153H250.619C251.237 182.08 251.892 182.007 252.51 181.971C254.256 180.916 256.147 181.462 258.003 181.462C259.858 181.462 261.604 181.171 263.386 181.462C264.477 181.462 265.532 181.352 266.623 181.28C269.751 180.152 272.952 180.843 276.153 180.77H306.89C310.272 180.843 313.692 180.116 317.038 181.28C318.347 181.352 319.657 181.425 320.93 181.462C322.967 181.171 324.968 181.462 327.005 181.462C328.605 181.462 330.278 180.952 331.806 181.971C332.897 182.007 333.952 182.08 335.043 182.153C337.117 182.007 339.226 181.789 341.263 182.625C342.536 182.698 343.809 182.771 345.083 182.807C346.756 182.698 348.429 182.48 349.993 183.28C351.266 183.353 352.576 183.426 353.849 183.498C355.267 183.317 356.722 183.171 358.032 183.971C359.087 184.044 360.178 184.08 361.233 184.117C362.651 184.008 364.106 183.717 365.416 184.626C366.252 184.699 367.089 184.735 367.926 184.808C369.344 184.699 370.799 184.371 372.109 185.317C372.727 185.39 373.345 185.426 373.964 185.462C375.2 185.317 376.401 185.135 377.492 185.972C378.329 186.044 379.165 186.117 379.965 186.19C380.984 185.972 382.002 185.863 382.875 186.626C383.494 186.699 384.112 186.736 384.73 186.808C385.931 186.663 387.168 186.481 388.222 187.354C388.441 187.354 388.623 187.427 388.804 187.463C390.041 187.354 391.241 187.281 392.296 188.045C392.915 188.081 393.533 188.118 394.151 188.19C395.17 188.009 396.152 188.009 397.025 188.663C397.607 188.736 398.225 188.772 398.844 188.845C399.862 188.663 400.844 188.627 401.681 189.354C438.855 195.938 475.302 204.012 510.804 217.143C528.482 223.69 545.905 231.037 562.601 239.839C576.386 247.114 592.064 255.006 593.009 272.611C594.137 275.12 593.846 277.666 593.046 280.176Z" fill="url(#paint0_linear_4335_1487)"/>
<path d="M502.401 486.188C501.528 488.407 501.201 490.844 500.037 492.953C496.69 498.882 491.707 502.519 484.978 503.72C482.432 504.702 479.885 504.702 477.376 503.683C472.247 503.429 467.482 499.355 463.226 496.918C458.315 494.081 453.296 491.353 448.203 488.771C438.164 483.751 427.834 479.423 417.322 475.495C406.664 471.567 395.97 468.002 384.985 465.092C373.418 462.037 361.487 460.8 349.957 457.891C348.938 458.072 347.956 458.036 347.119 457.381C346.501 457.309 345.883 457.272 345.264 457.236C344.246 457.381 343.264 457.454 342.391 456.727C341.772 456.69 341.154 456.618 340.536 456.545C339.335 456.69 338.099 456.763 337.007 456.036C335.989 455.999 334.934 455.926 333.916 455.854C332.679 456.036 331.442 456.217 330.351 455.381C329.514 455.381 328.678 455.272 327.841 455.199C326.168 455.344 324.495 455.526 322.967 454.69C321.694 454.653 320.421 454.581 319.111 454.508C317.038 454.69 314.928 454.908 312.891 454.035C311.618 453.962 310.309 453.926 308.999 453.853C306.562 454.181 304.089 453.853 301.615 453.853H275.971C273.534 453.926 271.061 453.999 268.624 454.071C266.623 455.017 264.55 454.581 262.513 454.508C260.73 454.544 258.985 454.544 257.202 454.544C256.366 454.581 255.493 454.653 254.656 454.69C252.874 455.599 250.982 455.344 249.127 455.199C248.072 455.272 247.017 455.344 245.963 455.381C244.617 456.181 243.198 456.036 241.743 455.89C241.125 455.926 240.506 455.999 239.852 456.036C238.76 456.872 237.56 456.727 236.323 456.545C235.269 456.581 234.25 456.654 233.195 456.69C232.104 457.418 230.904 457.345 229.667 457.199C227.266 457.49 224.865 457.781 222.465 458.072C221.592 458.727 220.61 458.727 219.591 458.545C218.973 458.618 218.391 458.691 217.773 458.763C216.9 459.455 215.917 459.418 214.899 459.236C212.935 459.382 211.043 460.218 209.043 460.073C208.17 460.764 207.188 460.764 206.205 460.618C194.748 462.728 183.29 464.801 171.905 467.311C170.631 467.602 169.431 468.293 168.049 468.111C165.757 469.057 163.429 469.057 161.101 468.148C160.92 468.184 160.738 468.111 160.592 467.966C154.409 468.693 147.425 461.419 144.988 456.508C141.859 450.252 142.369 442.432 145.642 436.358C153.245 422.428 175.324 423.591 188.709 420.318C189.546 419.59 190.528 419.59 191.51 419.772C194.384 419.263 197.257 418.79 200.131 418.317C200.968 417.554 201.95 417.59 202.968 417.772C205.005 417.917 206.897 417.117 208.861 416.899C209.697 416.099 210.716 416.281 211.698 416.426C212.316 416.353 212.935 416.317 213.553 416.281C214.426 415.517 215.408 415.59 216.427 415.771C217.045 415.699 217.663 415.662 218.282 415.59C219.118 414.789 220.137 414.935 221.155 415.117C221.992 415.044 222.792 414.971 223.629 414.898C224.502 414.135 225.484 414.244 226.502 414.426C227.339 414.389 228.176 414.316 229.012 414.244C230.103 413.407 231.34 413.589 232.577 413.771C233.377 413.698 234.214 413.662 235.05 413.589C236.36 412.716 237.815 412.934 239.27 413.08C240.325 413.007 241.343 412.971 242.398 412.898C243.744 412.061 245.199 412.28 246.654 412.425C247.49 412.352 248.327 412.316 249.163 412.243C250.691 411.261 252.364 411.661 254.001 411.734C255.529 411.734 257.093 411.734 258.657 411.734C259.276 411.698 259.894 411.661 260.512 411.589C263.022 410.716 265.568 410.934 268.114 411.116C270.079 411.043 272.043 411.007 274.007 410.934C276.371 408.788 302.67 408.861 304.962 410.934C306.708 411.007 308.454 411.043 310.199 411.116C311.764 411.116 313.364 411.116 314.928 411.116C316.492 411.116 318.129 410.643 319.657 411.552C321.185 411.661 322.749 411.734 324.313 411.843C325.513 411.698 326.713 411.479 327.805 412.316C328.859 412.352 329.914 412.425 330.969 412.498C332.424 412.352 333.879 412.134 335.189 413.007C336.025 413.043 336.862 413.116 337.698 413.153C338.935 413.007 340.135 412.862 341.227 413.662C342.063 413.698 342.9 413.771 343.737 413.844C344.937 413.662 346.174 413.48 347.265 414.353C347.883 414.389 348.502 414.462 349.12 414.535C350.138 414.316 351.121 414.244 351.994 415.008C353.921 415.517 355.886 415.771 357.886 415.808C358.868 415.626 359.887 415.553 360.723 416.353C395.279 422.682 431.762 431.411 462.753 448.616C470.755 449.598 481.413 458.072 488.288 462.146C495.344 466.293 500.691 471.094 502.401 479.496C503.347 481.751 503.347 484.006 502.401 486.261V486.188Z" fill="white"/>
<path d="M544.484 390.82C545.176 393.439 543.721 395.621 542.811 397.731C540.374 403.405 536.409 407.842 530.517 410.316C527.898 412.061 524.915 412.753 521.86 413.116C519.568 413.989 517.277 413.989 514.985 413.116C511.457 412.68 508.183 411.661 505.127 409.734C497.052 404.569 488.468 400.277 480.138 395.621C476.101 394.312 472.463 392.129 468.753 390.202H468.717C459.114 386.383 449.257 382.964 439.872 378.708C438.563 378.781 437.508 378.199 436.489 377.544C433.216 377.035 430.269 375.507 427.105 374.634C426.268 374.089 425.068 374.452 424.377 373.543C414.192 370.524 404.007 367.614 393.677 365.214C393.386 365.141 393.095 364.887 392.804 364.741H392.476L392.185 364.632C390.33 364.45 388.512 364.232 386.802 363.359C386.584 363.359 386.366 363.359 386.147 363.286C381.455 362.486 376.726 361.868 372.107 360.631C371.088 360.776 370.106 360.776 369.27 360.049C368.87 360.013 368.506 359.976 368.106 359.94C367.087 360.122 366.105 360.085 365.268 359.394C363.195 359.613 361.304 358.667 359.303 358.521C358.103 358.849 357.157 357.794 355.993 357.903C354.975 358.049 353.992 358.121 353.12 357.43C352.319 357.357 351.483 357.285 350.682 357.212C349.664 357.394 348.682 357.503 347.809 356.739C346.972 356.666 346.172 356.63 345.335 356.557C344.099 356.703 342.862 356.921 341.807 356.048C341.407 355.975 340.97 355.939 340.57 355.866C339.334 356.048 338.133 356.121 337.042 355.393C335.987 355.321 334.969 355.248 333.914 355.175C332.677 355.357 331.44 355.539 330.349 354.739C329.731 354.666 329.076 354.593 328.458 354.52H325.148C324.166 354.666 323.183 354.811 322.311 354.048C321.474 353.975 320.601 353.938 319.764 353.866H315.108C313.253 353.829 311.362 354.484 309.616 353.357C309.398 353.247 309.216 353.211 309.034 353.175C306.56 353.175 304.123 353.211 301.686 353.211H259.201C257.71 353.247 256.182 353.32 254.691 353.357C252.872 354.193 250.981 353.975 249.125 353.829C248.071 353.902 246.979 353.975 245.925 354.048C244.615 354.884 243.16 354.702 241.705 354.52C240.65 354.593 239.595 354.666 238.541 354.739C237.449 355.539 236.213 355.357 234.976 355.211C234.576 355.248 234.176 355.284 233.776 355.357C232.502 356.339 231.011 355.975 229.593 355.903C228.574 355.939 227.519 356.012 226.501 356.048C225.409 356.812 224.173 356.703 222.972 356.557C222.354 356.63 221.772 356.703 221.154 356.739C220.281 357.43 219.299 357.394 218.28 357.248C217.88 357.285 217.48 357.321 217.08 357.357C216.207 358.049 215.225 358.085 214.206 357.903C213.37 357.976 212.533 358.049 211.66 358.158C210.933 359.067 209.878 358.485 209.005 358.703C208.132 359.394 207.186 359.431 206.168 359.249C205.004 359.067 204.058 360.194 202.857 359.904C201.693 359.758 200.748 360.849 199.511 360.522C198.383 360.74 197.292 360.995 196.165 361.213C195.473 361.249 194.819 361.286 194.128 361.286C190.672 362.559 187.107 363.25 183.434 363.432C181.433 364.887 179.032 365.068 176.704 365.468C171.212 367.214 165.683 368.924 160.009 370.124C157.099 371.361 154.116 370.633 151.133 370.597C150.224 370.197 149.315 369.833 148.405 369.433H148.078L147.823 369.324C145.859 369.688 144.622 368.233 143.131 367.396H143.095C138.475 365.432 135.31 361.904 132.619 357.867C130.473 354.63 129.454 351.029 128.909 347.246C127.999 344.991 127.999 342.736 128.909 340.481C129.527 334.952 131.746 330.224 135.638 326.259C135.856 325.641 136.256 325.241 136.838 324.986C144.004 316.73 158.845 315.056 168.811 312.438C181.542 309.091 194.564 307.091 207.477 304.836C208.35 304.145 209.332 304.181 210.351 304.327C212.351 304.436 214.279 303.672 216.243 303.526C217.298 302.653 218.535 302.835 219.771 302.981C220.353 302.944 220.972 302.872 221.59 302.835C222.681 301.999 223.918 302.181 225.118 302.326C225.737 302.29 226.355 302.217 226.974 302.181C228.065 301.344 229.302 301.526 230.538 301.708C231.375 301.635 232.211 301.562 233.048 301.49C234.358 300.58 235.813 300.871 237.268 301.017C238.541 300.944 239.777 300.871 241.05 300.798C242.396 299.962 243.851 300.18 245.306 300.362C246.579 300.289 247.852 300.217 249.125 300.18C251.381 299.162 253.709 299.562 256 299.635C257.964 299.598 259.929 299.525 261.856 299.489C264.766 298.543 267.749 298.943 270.732 298.98C280.298 298.762 289.901 298.798 299.467 298.98C302.668 298.871 305.869 298.471 308.998 299.453C309.652 299.489 310.271 299.562 310.925 299.598C312.708 299.598 314.49 299.635 316.236 299.635C318.091 299.562 319.983 299.089 321.729 300.144C322.82 300.18 323.875 300.253 324.929 300.289C326.566 300.144 328.24 299.78 329.804 300.762C330.64 300.835 331.513 300.871 332.35 300.944C333.987 300.835 335.66 300.544 337.188 301.49C337.588 301.526 338.024 301.562 338.424 301.635C339.843 301.49 341.298 301.38 342.607 302.144C343.444 302.144 344.281 302.253 345.117 302.29C346.354 302.144 347.554 301.999 348.645 302.799C349.482 302.872 350.319 302.944 351.155 303.017C352.174 302.799 353.156 302.763 354.029 303.454C354.829 303.526 355.666 303.599 356.502 303.672C357.521 303.49 358.503 303.417 359.376 304.145C362.868 304.799 366.36 305.454 369.924 305.672C370.943 305.491 371.925 305.418 372.762 306.218C393.277 312.983 417.611 311.783 437.217 321.64C446.419 324.622 455.513 327.532 464.57 330.951C470.899 333.315 483.849 335.861 488.25 341.099C491.196 341.499 493.742 342.809 496.143 344.554C496.943 345.245 497.925 345.646 498.944 345.973C502.836 347.028 506.328 348.883 509.602 351.247C509.929 351.792 510.511 351.865 511.02 351.974C514.767 351.974 535.827 363.432 536.555 367.323C537.028 367.76 537.464 368.233 537.901 368.669C539.938 369.906 541.174 371.761 541.866 374.052C542.084 374.562 542.011 375.18 542.557 375.507C544.012 376.962 544.157 378.926 544.666 380.708C545.357 381.545 545.394 382.491 545.212 383.509C545.139 385.764 545.976 388.056 544.63 390.202C544.63 390.42 544.594 390.638 544.484 390.82Z" fill="white"/>
<path d="M593.046 280.175C590.827 295.306 579.551 306.036 564.82 307.709C562.528 308.582 560.236 308.582 557.945 307.709C544.887 306.036 533.174 296.325 521.389 290.796C508.694 284.831 495.672 279.63 482.432 274.938C468.828 270.1 455.042 265.917 441.002 262.571C433.945 260.898 426.961 259.116 419.868 257.697C413.321 256.351 401.317 256.533 395.607 253.151C394.588 253.296 393.606 253.296 392.769 252.605C392.369 252.605 391.969 252.532 391.569 252.496C390.551 252.641 389.569 252.678 388.696 251.987C387.859 251.914 387.059 251.841 386.258 251.768C385.24 251.95 384.258 251.987 383.385 251.296C382.985 251.223 382.585 251.187 382.185 251.114C380.948 251.296 379.747 251.332 378.693 250.568C378.074 250.568 377.456 250.495 376.838 250.423C375.601 250.605 374.4 250.641 373.309 249.914C372.909 249.877 372.509 249.841 372.109 249.768C370.872 249.913 369.672 249.986 368.544 249.259C367.744 249.222 366.907 249.15 366.071 249.113C364.652 249.259 363.197 249.368 361.888 248.568C360.833 248.531 359.778 248.459 358.723 248.422C357.523 248.568 356.286 248.75 355.195 247.949C353.922 247.877 352.649 247.804 351.376 247.731C349.921 247.913 348.502 248.131 347.156 247.258C346.538 247.222 345.883 247.149 345.265 247.076C343.919 247.076 342.609 247.076 341.263 247.113C339.663 247.113 338.026 247.549 336.535 246.676C334.752 246.567 332.97 246.495 331.188 246.422C328.896 246.385 326.568 247.004 324.349 245.949C322.822 245.876 321.294 245.803 319.766 245.731C317.256 245.803 314.71 246.204 312.237 245.258C310.491 245.185 308.745 245.149 306.999 245.076C300.561 245.076 294.159 245.076 287.721 245.149C286.084 245.185 284.411 245.221 282.774 245.258C282.228 245.803 281.573 245.803 280.882 245.803C276.99 245.803 273.098 245.803 269.206 245.731C266.551 245.658 263.859 246.058 261.204 245.731C259.676 245.803 258.185 245.84 256.657 245.913C254.438 246.895 252.074 246.495 249.782 246.422C248.727 246.458 247.636 246.531 246.581 246.567C244.799 247.513 242.907 247.222 241.052 247.076C240.652 247.149 240.216 247.186 239.816 247.222C238.543 248.24 237.088 247.768 235.705 247.768H232.359C231.522 247.804 230.686 247.877 229.849 247.949C228.54 248.75 227.085 248.568 225.666 248.459C225.048 248.531 224.429 248.568 223.811 248.604C222.683 249.368 221.483 249.259 220.246 249.113C219.628 249.15 219.01 249.186 218.391 249.259C217.3 249.986 216.1 249.913 214.863 249.768C214.281 249.804 213.663 249.877 213.044 249.914C211.953 250.641 210.753 250.605 209.516 250.459C208.898 250.459 208.243 250.495 207.588 250.532V250.641C206.788 251.368 205.806 251.259 204.824 251.15C204.424 251.187 204.023 251.223 203.623 251.259C202.568 252.023 201.368 251.95 200.131 251.841C198.967 251.659 198.022 252.787 196.785 252.387C195.948 252.496 195.075 252.605 194.202 252.678C193.475 253.623 192.42 253.042 191.547 253.296C190.71 253.987 189.728 253.987 188.71 253.842C187.837 254.024 186.964 254.242 186.091 254.424C182.963 254.678 180.016 256.133 176.815 255.951C175.07 256.752 173.214 257.006 171.323 257.188L171.068 257.333H170.741C165.649 258.825 160.447 260.025 155.209 261.225L154.955 261.371H154.664C153.39 262.098 151.972 262.389 150.517 262.535L150.262 262.717H149.971C148.662 263.444 147.28 263.808 145.825 263.88L145.57 264.062L145.279 263.99C143.933 264.572 142.624 265.081 141.169 265.19C138.404 265.263 135.603 265.808 132.912 264.717C132.694 264.753 132.512 264.681 132.366 264.572C127.892 264.244 123.855 262.717 120.363 259.916H120.29C118.908 259.298 117.744 258.461 116.834 257.297C115.198 256.279 113.852 254.933 112.87 253.296C112.142 252.787 111.669 252.096 111.342 251.259C110.978 251.187 110.833 250.932 110.869 250.532C108.141 246.967 106.504 243.003 106.14 238.493C105.085 235.074 105.085 231.655 106.068 228.236C106.031 228.017 106.104 227.835 106.249 227.69C106.54 225.326 106.504 222.889 108.177 220.925C108.432 219.434 109.087 218.088 110.105 216.887C111.342 214.596 112.797 212.45 114.87 210.777C114.87 210.413 115.088 210.231 115.452 210.195C120.072 205.321 125.892 202.739 132.366 201.502C133.857 200.738 135.385 200.229 137.095 200.156C137.24 199.974 137.422 199.902 137.64 199.974C139.823 199.029 142.078 198.374 144.442 198.192C146.334 197.465 148.262 196.883 150.299 196.737C152.881 195.464 155.682 194.991 158.556 194.919C158.737 194.809 158.956 194.773 159.174 194.773C160.847 193.755 162.702 193.573 164.594 193.464C164.739 193.318 164.921 193.282 165.139 193.391C165.976 192.773 166.922 192.663 167.94 192.882C169.359 193.027 170.595 192.191 171.978 192.118C174.96 190.845 178.234 190.845 181.326 190.045C182.163 189.317 183.145 189.317 184.163 189.499C185.036 189.463 185.909 189.463 186.746 189.426C187.473 188.517 188.528 189.026 189.401 188.699C190.238 187.899 191.22 187.971 192.238 188.153C192.638 188.117 193.038 188.081 193.439 188.044C194.275 187.244 195.294 187.353 196.348 187.535C196.93 187.462 197.512 187.426 198.131 187.353C199.186 186.48 200.422 186.698 201.623 186.808C202.241 186.735 202.859 186.698 203.478 186.626C204.351 185.862 205.333 185.971 206.351 186.153C207.406 186.08 208.425 186.044 209.443 185.971C210.353 185.316 211.335 185.316 212.353 185.498C212.753 185.462 213.153 185.389 213.59 185.316C214.645 184.443 215.918 184.662 217.155 184.843C218.173 184.771 219.228 184.698 220.283 184.625C221.374 183.789 222.611 184.007 223.847 184.152C224.866 184.116 225.921 184.043 226.976 183.97C228.321 183.134 229.74 183.352 231.195 183.498C232.468 183.425 233.741 183.352 235.014 183.279C236.578 182.443 238.252 182.661 239.888 182.807C240.507 182.734 241.162 182.697 241.78 182.661C243.089 181.643 244.544 182.079 245.963 182.152H250.619C251.237 182.079 251.892 182.006 252.51 181.97C254.256 180.915 256.148 181.461 258.003 181.461C259.858 181.461 261.604 181.17 263.386 181.461C264.477 181.461 265.532 181.352 266.624 181.279C269.752 180.151 272.953 180.842 276.154 180.77H306.89C310.273 180.842 313.692 180.115 317.038 181.279C318.348 181.352 319.657 181.424 320.93 181.461C322.967 181.17 324.968 181.461 327.005 181.461C328.605 181.461 330.278 180.952 331.806 181.97C332.897 182.006 333.952 182.079 335.043 182.152C337.117 182.006 339.227 181.788 341.263 182.625C342.537 182.697 343.81 182.77 345.083 182.807C346.756 182.697 348.429 182.479 349.993 183.279C351.266 183.352 352.576 183.425 353.849 183.498C355.268 183.316 356.723 183.17 358.032 183.97C359.087 184.043 360.178 184.08 361.233 184.116C362.652 184.007 364.107 183.716 365.416 184.625C366.253 184.698 367.089 184.734 367.926 184.807C369.344 184.698 370.799 184.371 372.109 185.316C372.727 185.389 373.346 185.425 373.964 185.462C375.201 185.316 376.401 185.134 377.492 185.971C378.329 186.044 379.165 186.116 379.966 186.189C380.984 185.971 382.003 185.862 382.876 186.626C383.494 186.698 384.112 186.735 384.731 186.808C385.931 186.662 387.168 186.48 388.223 187.353C388.441 187.353 388.623 187.426 388.805 187.462C390.041 187.353 391.242 187.28 392.297 188.044C392.915 188.081 393.533 188.117 394.152 188.19C395.17 188.008 396.152 188.008 397.025 188.663C397.607 188.735 398.226 188.772 398.844 188.844C399.862 188.663 400.845 188.626 401.681 189.354C438.856 195.937 475.303 204.012 510.804 217.142C528.482 223.689 545.905 231.036 562.601 239.838C576.387 247.113 592.064 255.006 593.01 272.61C594.137 275.12 593.846 277.666 593.046 280.175Z" fill="white"/>
</g>
<defs>
<linearGradient id="paint0_linear_4335_1487" x1="0" y1="342.482" x2="685" y2="342.482" gradientUnits="userSpaceOnUse">
<stop stop-color="#00FB73"/>
<stop offset="1" stop-color="#00B25B"/>
</linearGradient>
<clipPath id="clip0_4335_1487">
<rect width="685" height="685" fill="white"/>
</clipPath>
</defs>
</svg>
