<svg width="776" height="776" viewBox="0 0 776 776" fill="none" xmlns="http://www.w3.org/2000/svg">
<g clip-path="url(#clip0_4335_1582)">
<path d="M388 776C602.286 776 776 602.286 776 388C776 173.714 602.286 0 388 0C173.714 0 0 173.714 0 388C0 602.286 173.714 776 388 776Z" fill="url(#paint0_linear_4335_1582)"/>
<path d="M165.588 378.882C165.588 378.882 359.669 299.263 427.077 271.095C452.802 259.861 540.399 224.04 540.399 224.04C540.399 224.04 580.779 208.41 577.359 246.51C576.22 262.14 567.265 317.173 558.309 376.603C544.795 460.781 530.304 552.774 530.304 552.774C530.304 552.774 528.025 578.662 508.975 583.058C489.925 587.617 458.501 567.428 452.802 562.869C448.243 559.45 368.624 508.975 339.479 484.39C331.664 477.714 322.709 464.2 340.619 448.406C380.999 411.446 429.193 365.368 458.501 336.223C472.015 322.709 485.366 291.285 429.356 329.548C349.737 384.581 271.095 436.195 271.095 436.195C271.095 436.195 253.185 447.429 219.481 437.335C185.777 427.24 146.538 413.726 146.538 413.726C146.538 413.726 119.672 396.955 165.588 378.882Z" fill="white"/>
</g>
<defs>
<linearGradient id="paint0_linear_4335_1582" x1="113.648" y1="113.648" x2="662.352" y2="662.352" gradientUnits="userSpaceOnUse">
<stop stop-color="#2CB5E5"/>
<stop offset="0.65" stop-color="#6C6EF5"/>
<stop offset="1" stop-color="#9146FF"/>
</linearGradient>
<clipPath id="clip0_4335_1582">
<rect width="776" height="776" fill="white"/>
</clipPath>
</defs>
</svg>
