<svg width="47" height="45" viewBox="0 0 47 45" fill="none" xmlns="http://www.w3.org/2000/svg">
<g clip-path="url(#clip0_4124_1716)">
<path fill-rule="evenodd" clip-rule="evenodd" d="M47 14.0764C47 13.5389 47 13.0015 46.997 12.464C46.9939 12.0115 46.9889 11.5591 46.9758 11.1067C46.9485 10.1206 46.8869 9.12682 46.7042 8.1514C46.5184 7.16148 46.2145 6.24019 45.7369 5.34017C45.2664 4.45658 44.6535 3.6484 43.9205 2.94753C43.1885 2.24665 42.3434 1.65889 41.4206 1.20839C40.4816 0.751134 39.5194 0.461117 38.4875 0.282273C37.4687 0.107296 36.4298 0.0483263 35.3999 0.0222248C34.9274 0.0096574 34.4549 0.00482378 33.9824 0.00192361C33.421 -0.000976562 32.8596 -0.000976562 32.2982 -0.000976562H14.7018C14.1404 -0.000976562 13.579 -0.000976562 13.0176 0.00192361C12.5451 0.00482378 12.0726 0.0096574 11.6001 0.0222248C10.5702 0.049293 9.53126 0.107296 8.5125 0.28324C7.4786 0.461117 6.5174 0.752101 5.57942 1.20936C4.65658 1.65985 3.81149 2.24665 3.07948 2.9485C2.34748 3.64937 1.7336 4.45755 1.26309 5.34114C0.785521 6.24116 0.480601 7.16244 0.295832 8.15237C0.113083 9.12779 0.051493 10.1226 0.024232 11.1076C0.0111063 11.5601 0.006058 12.0125 0.003029 12.4649C0 13.0015 0 13.5389 0 14.0764V30.9235C0 31.461 0 31.9985 0.003029 32.536C0.006058 32.9885 0.0111063 33.4409 0.024232 33.8933C0.051493 34.8794 0.113083 35.8732 0.295832 36.8486C0.481611 37.8385 0.785521 38.7598 1.26309 39.6598C1.7336 40.5434 2.34647 41.3516 3.07948 42.0525C3.81149 42.7533 4.65658 43.3411 5.57942 43.7916C6.51841 44.2488 7.48062 44.5389 8.5125 44.7177C9.53126 44.8927 10.5702 44.9517 11.6001 44.9778C12.0726 44.9903 12.5451 44.9952 13.0176 44.9981C13.579 45.0019 14.1404 45.001 14.7018 45.001H32.2972C32.8586 45.001 33.42 45.001 33.9814 44.9981C34.4539 44.9952 34.9264 44.9903 35.3989 44.9778C36.4288 44.9517 37.4677 44.8927 38.4865 44.7177C39.5204 44.5398 40.4816 44.2488 41.4196 43.7916C42.3424 43.3411 43.1875 42.7543 43.9195 42.0525C44.6515 41.3516 45.2654 40.5434 45.7359 39.6598C46.2135 38.7598 46.5184 37.8385 46.7032 36.8486C46.8859 35.8732 46.9475 34.8784 46.9748 33.8933C46.9879 33.4409 46.9929 32.9885 46.996 32.536C47 31.9985 46.999 31.461 46.999 30.9235V14.0764H47Z" fill="url(#paint0_linear_4124_1716)" fill-opacity="0.5"/>
<path d="M29.9079 20.7095C30.0382 20.7607 30.1563 20.8168 30.2805 20.868C32.005 21.6656 33.2691 22.8585 33.9305 24.3405C34.8573 26.4045 34.9462 29.759 32.1403 32.4397C30.0018 34.4872 27.3969 35.4085 23.7177 35.4375H23.6995C19.5528 35.4095 16.3693 34.0744 14.2248 31.4672C12.3165 29.148 11.3361 25.9192 11.3008 21.8754V21.8473C11.3301 17.8035 12.3104 14.5747 14.2187 12.2555C16.3633 9.64824 19.5528 8.31319 23.6995 8.28516H23.7177C27.8704 8.31319 31.0953 9.64244 33.3045 12.2381C34.3909 13.5219 35.1946 15.0658 35.7024 16.859L33.3166 17.47C32.8976 16.0112 32.2655 14.767 31.4144 13.7713C29.6898 11.747 27.1021 10.7058 23.7056 10.6836C20.3383 10.7116 17.7929 11.747 16.133 13.7607C14.5852 15.6439 13.7825 18.37 13.7523 21.8599C13.7815 25.3498 14.5852 28.075 16.133 29.9639C17.7869 31.9776 20.3383 33.012 23.7056 33.041C26.7416 33.0188 28.7498 32.3285 30.4219 30.7276C32.3301 28.9063 32.2948 26.6674 31.686 25.3043C31.3255 24.501 30.6763 23.8339 29.8019 23.3303C29.5838 24.8519 29.1053 26.0622 28.343 26.9951C27.3333 28.2277 25.8975 28.8957 24.0488 28.9914C22.6545 29.0649 21.3136 28.743 20.2747 28.0865C19.0459 27.3064 18.325 26.1183 18.2483 24.733C18.1009 22.001 20.3575 20.0386 23.8711 19.8462C25.1171 19.7785 26.2873 19.8288 27.3676 20.0047C27.2263 19.1676 26.9365 18.5005 26.5054 18.0143C25.9147 17.353 24.9929 17.0137 23.7762 17.0079H23.7348C22.7544 17.0079 21.4308 17.268 20.5867 18.4957L18.5552 17.1606C19.6891 15.5153 21.5267 14.6104 23.7409 14.6104H23.7883C27.4857 14.6327 29.6888 16.8445 29.914 20.7018L29.9019 20.7134H29.9079V20.7095ZM20.6937 24.6005C20.7704 26.0197 22.3708 26.6819 23.9186 26.5968C25.4311 26.5176 27.1435 25.952 27.4332 22.4573C26.6538 22.293 25.7915 22.2089 24.8697 22.2089C24.586 22.2089 24.3023 22.2147 24.0196 22.2311C21.4853 22.3664 20.6412 23.543 20.6998 24.5947L20.6937 24.6005Z" fill="url(#paint1_linear_4124_1716)" fill-opacity="0.5"/>
</g>
<defs>
<linearGradient id="paint0_linear_4124_1716" x1="23.5" y1="-0.000976563" x2="23.5" y2="45.0011" gradientUnits="userSpaceOnUse">
<stop stop-color="#9A9799"/>
<stop offset="1" stop-color="#222122"/>
</linearGradient>
<linearGradient id="paint1_linear_4124_1716" x1="23.5016" y1="8.28516" x2="23.5016" y2="35.4375" gradientUnits="userSpaceOnUse">
<stop stop-color="#9A9799"/>
<stop offset="1" stop-color="#222122"/>
</linearGradient>
<clipPath id="clip0_4124_1716">
<rect width="47" height="45" fill="white"/>
</clipPath>
</defs>
</svg>
