<svg width="779" height="776" viewBox="0 0 779 776" fill="none" xmlns="http://www.w3.org/2000/svg">
<g clip-path="url(#clip0_4065_1256)">
<path fill-rule="evenodd" clip-rule="evenodd" d="M779 242.738C779 233.469 779 224.2 778.95 214.931C778.9 207.129 778.816 199.328 778.598 191.526C778.147 174.522 777.126 157.384 774.097 140.564C771.018 123.493 765.98 107.606 758.065 92.0856C750.267 76.8486 740.109 62.912 727.959 50.8258C715.827 38.7396 701.82 28.6039 686.524 20.8354C670.961 12.9502 655.013 7.94902 637.91 4.86496C621.025 1.84758 603.804 0.83067 586.735 0.380563C578.903 0.163845 571.071 0.0804924 563.24 0.0304806C553.935 -0.0195312 544.631 -0.0195312 535.326 -0.0195312H243.674C234.369 -0.0195312 225.065 -0.0195312 215.76 0.0304806C207.929 0.0804924 200.097 0.163845 192.265 0.380563C175.196 0.84734 157.976 1.84758 141.09 4.88163C123.954 7.94902 108.022 12.9669 92.4759 20.8521C77.1804 28.6206 63.1735 38.7396 51.0408 50.8425C38.9082 62.9287 28.7335 76.8653 20.9351 92.1022C13.0196 107.623 7.96571 123.51 4.90327 140.58C1.87429 157.401 0.853469 174.555 0.401633 191.542C0.184082 199.344 0.100408 207.146 0.0502041 214.948C0 224.2 0 233.469 0 242.738V533.257C0 542.525 0 551.794 0.0502041 561.063C0.100408 568.865 0.184082 576.667 0.401633 584.469C0.853469 601.473 1.87429 618.61 4.90327 635.431C7.98245 652.501 13.0196 668.388 20.9351 683.909C28.7335 699.146 38.8914 713.082 51.0408 725.169C63.1735 737.255 77.1804 747.39 92.4759 755.159C108.039 763.044 123.987 768.045 141.09 771.129C157.976 774.147 175.196 775.164 192.265 775.614C200.097 775.831 207.929 775.914 215.76 775.964C225.065 776.031 234.369 776.014 243.674 776.014H535.309C544.614 776.014 553.918 776.014 563.223 775.964C571.055 775.914 578.887 775.831 586.718 775.614C603.788 775.164 621.008 774.147 637.893 771.129C655.029 768.062 670.961 763.044 686.507 755.159C701.803 747.39 715.81 737.271 727.942 725.169C740.075 713.082 750.25 699.146 758.048 683.909C765.964 668.388 771.018 652.501 774.08 635.431C777.109 618.61 778.13 601.456 778.582 584.469C778.799 576.667 778.883 568.865 778.933 561.063C779 551.794 778.983 542.525 778.983 533.257V242.738H779Z" fill="black"/>
<path d="M495.681 357.118C497.84 358.001 499.798 358.968 501.856 359.852C530.439 373.605 551.391 394.177 562.352 419.733C577.714 455.324 579.187 513.171 532.681 559.399C497.237 594.707 454.062 610.594 393.081 611.094H392.779C324.05 610.611 271.285 587.589 235.741 542.628C204.112 502.636 187.863 446.956 187.277 377.223V376.739C187.763 307.006 204.012 251.326 235.641 211.333C271.185 166.373 324.05 143.351 392.779 142.867H393.081C461.91 143.351 515.361 166.273 551.976 211.033C569.983 233.172 583.304 259.795 591.721 290.719L552.177 301.255C545.232 276.099 534.756 254.644 520.649 237.473C492.066 202.565 449.175 184.61 392.88 184.227C337.07 184.71 294.881 202.565 267.37 237.289C241.715 269.764 228.411 316.775 227.909 376.956C228.394 437.137 241.715 484.131 267.37 516.706C294.781 551.43 337.07 569.268 392.88 569.768C443.201 569.385 476.486 557.482 504.199 529.875C535.828 498.468 535.242 459.859 525.151 436.353C519.177 422.5 508.416 410.997 493.924 402.312C490.309 428.551 482.377 449.423 469.742 465.51C453.008 486.765 429.211 498.285 398.57 499.935C375.459 501.202 353.235 495.651 336.015 484.331C315.649 470.878 303.701 450.39 302.429 426.501C299.985 379.39 337.388 345.548 395.624 342.231C416.275 341.064 435.67 341.931 453.577 344.965C451.234 330.528 446.431 319.025 439.285 310.64C429.495 299.237 414.217 293.386 394.051 293.286H393.365C377.116 293.286 355.177 297.77 341.186 318.942L307.516 295.92C326.309 267.547 356.766 251.943 393.465 251.943H394.252C455.534 252.326 492.05 290.469 495.781 356.984L495.581 357.184H495.681V357.118ZM342.96 424.217C344.232 448.689 370.757 460.109 396.411 458.642C421.479 457.275 449.861 447.523 454.664 387.258C441.745 384.424 427.454 382.974 412.175 382.974C407.472 382.974 402.77 383.074 398.084 383.357C356.08 385.691 342.09 405.979 343.061 424.117L342.96 424.217Z" fill="white"/>
</g>
<defs>
<clipPath id="clip0_4065_1256">
<rect width="779" height="776" fill="white"/>
</clipPath>
</defs>
</svg>
