<?xml version="1.0" encoding="UTF-8"?>
<!-- Generator: visioncortex VTracer -->
<svg id="svg" version="1.1" xmlns="http://www.w3.org/2000/svg" style="display: block;" viewBox="0 0 2981 2991"><path d="M0 0 C3.77440893 0.00470841 7.54880174 -0.00245693 11.32320712 -0.00793364 C17.9313248 -0.01595517 24.53941095 -0.01673199 31.14753171 -0.01252175 C41.04051194 -0.0062535 50.93346373 -0.01163838 60.82644192 -0.01911917 C77.69616862 -0.03153584 94.56588504 -0.03453894 111.43561564 -0.03228422 C128.51617267 -0.03003013 145.596721 -0.03212149 162.67727671 -0.03942915 C164.29958445 -0.04011811 164.29958445 -0.04011811 165.95466609 -0.04082099 C170.36014479 -0.04270442 174.76562347 -0.04461581 179.17110213 -0.04656337 C225.05934319 -0.06681957 270.94757937 -0.07297418 316.83582439 -0.07414759 C321.77083918 -0.07427709 326.70585397 -0.07441297 331.64086876 -0.07455441 C332.86561878 -0.07458842 334.09036881 -0.07462242 335.35223246 -0.07465746 C362.53169704 -0.0754755 389.71116068 -0.07985903 416.89062477 -0.0848661 C428.09385449 -0.08692293 439.29708424 -0.08890303 450.50031398 -0.0908986 C452.35731128 -0.09123036 452.35731128 -0.09123036 454.25182367 -0.09156883 C525.17143505 -0.10421255 596.09104581 -0.11246757 667.01065836 -0.11155172 C669.66316484 -0.11152017 672.31567131 -0.1114887 674.96817778 -0.11145731 C687.61004221 -0.11130237 700.25190664 -0.11111384 712.89377106 -0.11091865 C716.89845469 -0.11085711 720.90313831 -0.11079698 724.90782194 -0.11073702 C728.24824311 -0.11068683 731.58866429 -0.11063525 734.92908546 -0.11058079 C797.98839425 -0.10955849 861.04769791 -0.1123813 924.10700426 -0.13127562 C924.77046125 -0.13147433 925.43391823 -0.13167305 926.11747998 -0.13187779 C946.84683731 -0.13810042 967.57619448 -0.14483343 988.30555163 -0.15166136 C1009.57764058 -0.15866501 1030.84972955 -0.16560325 1052.12181864 -0.17219015 C1053.43182495 -0.1725959 1054.74183126 -0.17300165 1056.09153473 -0.17341969 C1096.50720401 -0.1858617 1136.92287192 -0.19338316 1177.33854304 -0.19590613 C1178.60860932 -0.19598603 1179.87867561 -0.19606593 1181.18722876 -0.19614825 C1209.0768983 -0.19785532 1236.96656776 -0.19837702 1264.85623735 -0.1978075 C1274.83741673 -0.19761455 1284.81859611 -0.19751045 1294.7997755 -0.19745004 C1297.28261562 -0.19743421 1299.76545573 -0.1974138 1302.24829585 -0.19738879 C1341.70936239 -0.19703704 1381.1704145 -0.20839605 1420.63147691 -0.22569642 C1460.41245563 -0.24304829 1500.19341444 -0.24733456 1539.97439536 -0.23417378 C1545.49003193 -0.23234958 1551.00566854 -0.23066293 1556.52130518 -0.22905775 C1557.60236295 -0.22873758 1558.68342072 -0.2284174 1559.79723782 -0.22808753 C1576.80946354 -0.2234095 1593.82165447 -0.23203138 1610.83387365 -0.24640013 C1627.62468878 -0.26029655 1644.41545332 -0.25956251 1661.20626747 -0.24401585 C1670.16184074 -0.23610539 1679.11730267 -0.23411302 1688.07286676 -0.25093056 C1728.18698606 -0.32246402 1767.82429459 0.61572882 1807.80750475 4.25995973 C1808.77852969 4.34723101 1809.74955462 4.43450228 1810.75000456 4.52441814 C1845.38664939 7.63743998 1879.07693267 12.68812187 1912.80750475 21.25995973 C1913.98039049 21.55660524 1915.15327624 21.85325075 1916.36170397 22.15888552 C1972.30032557 36.44334321 2025.25815184 57.48109766 2074.80750475 87.25995973 C2075.64571764 87.75914919 2076.48393053 88.25833864 2077.34754381 88.77265505 C2088.13126863 95.19560442 2098.56597982 102.00554624 2108.80750475 109.25995973 C2109.52937975 109.76785036 2110.25125475 110.27574098 2110.99500475 110.79902223 C2121.34202295 118.09223298 2131.31437301 125.72670849 2141.05457506 133.81122927 C2143.55761799 135.87990012 2146.09170851 137.90978188 2148.62000475 139.94745973 C2153.31034485 143.78565096 2157.79478601 147.81960254 2162.25281725 151.92402223 C2164.42692574 153.91196853 2166.63173251 155.84529312 2168.87000475 157.75995973 C2172.92852642 161.27567501 2176.66643631 165.08455026 2180.4129735 168.92792848 C2182.76991413 171.30013057 2182.76991413 171.30013057 2185.4129735 173.33808473 C2187.55648308 175.0584872 2189.19186442 176.71273075 2190.93250475 178.82245973 C2193.90086787 182.30283309 2197.05102869 185.55151918 2200.30750475 188.75995973 C2204.69056965 193.09658449 2208.83124593 197.54859424 2212.80750475 202.25995973 C2213.6273485 203.21386598 2214.44719225 204.16777223 2215.29187975 205.15058473 C2221.53664872 212.43633548 2227.56799879 219.86840949 2233.42469225 227.46943239 C2234.32401554 228.63391632 2235.22745254 229.79523878 2236.13562975 230.95283083 C2257.13698334 257.73727773 2274.96317096 287.19595529 2290.80750475 317.25995973 C2291.30250475 318.19791384 2291.79750475 319.13586794 2292.30750475 320.10224489 C2307.81058794 349.71050956 2319.47851642 380.9802526 2329.49500475 412.82245973 C2329.99326769 414.39543825 2329.99326769 414.39543825 2330.50159655 416.00019411 C2331.40930238 418.94753722 2332.26104799 421.90673845 2333.10558043 424.87260667 C2333.5962695 426.541516 2334.10799374 428.20431978 2334.63544886 429.86197632 C2340.81591196 449.3467449 2341.82413848 467.21911112 2341.70193657 487.48168974 C2341.68325325 491.90455892 2341.7059403 496.32727244 2341.72292448 500.75012229 C2341.74717044 508.50608025 2341.74578662 516.26169524 2341.72711727 524.01766378 C2341.69929863 535.62861398 2341.71222438 547.23928429 2341.73271183 558.85023718 C2341.7664571 578.64495577 2341.76715598 598.43955089 2341.74960909 618.23428492 C2341.73195277 638.28321024 2341.72955262 658.33205147 2341.74560557 678.3809791 C2341.74661026 679.64914566 2341.74761494 680.91731223 2341.74865008 682.22390808 C2341.75279153 687.38929496 2341.75703949 692.55468173 2341.76142292 697.72006841 C2341.77376565 712.27734649 2341.78370669 726.83462583 2341.79195712 741.39190678 C2341.79233608 742.05881906 2341.79271503 742.72573135 2341.79310548 743.4128531 C2341.81152997 776.2519911 2341.80323462 809.09111626 2341.79213724 841.93025545 C2341.79189726 842.64163053 2341.79165728 843.35300561 2341.79141002 844.08593751 C2341.79043811 846.96598704 2341.78946524 849.84603657 2341.78849188 852.72608611 C2341.78580813 860.68239637 2341.78320922 868.63870666 2341.78071485 876.59501699 C2341.78048833 877.31340338 2341.78026181 878.03178976 2341.78002842 878.77194543 C2341.76960859 912.09134385 2341.77448022 945.41073432 2341.78262447 978.73013271 C2341.78350749 982.36715619 2341.7843595 986.00417969 2341.78521369 989.64120318 C2341.78779575 1000.60418744 2341.79041032 1011.56717169 2341.79310553 1022.53015593 C2341.80131304 1055.95955915 2341.80707823 1089.38896254 2341.81071005 1122.81836656 C2341.81079163 1123.56264723 2341.81087321 1124.30692789 2341.81095727 1125.07376252 C2341.81619323 1173.26242988 2341.81043934 1221.45108921 2341.79692183 1269.63975481 C2341.79648811 1271.19368664 2341.79605447 1272.74761847 2341.79562091 1274.3015503 C2341.79082394 1291.45577345 2341.78578804 1308.60999653 2341.7806584 1325.76421959 C2341.78042691 1326.53850567 2341.78019543 1327.31279175 2341.77995693 1328.11054105 C2341.77784995 1335.15602004 2341.77574181 1342.20149902 2341.77361807 1349.24697801 C2341.75015963 1427.13132895 2341.73990969 1505.01564495 2341.7945207 1644.10178185 C2341.80571322 1669.84931793 2341.81678999 1695.59685404 2341.82724104 1721.34439043 C2341.82755404 1722.11311555 2341.82786703 1722.88184067 2341.82818951 1723.6738605 C2341.84777786 1771.83403473 2341.85758413 1819.9942021 2341.8561965 1868.15438036 C2341.85617599 1868.89843827 2341.85615548 1869.64249618 2341.85613435 1870.4091013 C2341.85518886 1903.82257892 2341.85164395 1937.2360559 2341.84568417 1970.64953299 C2341.84360436 1982.3367181 2341.84168232 1994.02390324 2341.83980117 2005.71108838 C2341.83933205 2008.61849255 2341.83884859 2011.52589672 2341.83835337 2014.43330089 C2341.83270659 2047.75140628 2341.83243563 2081.06949803 2341.84917722 2114.38760046 C2341.84971648 2115.46425957 2341.84971648 2115.46425957 2341.85026662 2116.56266936 C2341.85607067 2128.1076427 2341.86226532 2139.65261583 2341.86845672 2151.19758897 C2341.88600864 2183.99130581 2341.89885454 2216.78500009 2341.8828995 2249.57872013 C2341.88257666 2250.24493684 2341.88225382 2250.91115355 2341.8819212 2251.59755865 C2341.87446656 2266.78502385 2341.86427716 2281.97248634 2341.85210815 2297.15994848 C2341.84809466 2302.31107761 2341.84420765 2307.46220682 2341.84041987 2312.61333612 C2341.83947854 2313.87748692 2341.83853721 2315.14163771 2341.83756736 2316.44409611 C2341.82339812 2336.43449461 2341.83595394 2356.42478235 2341.85970509 2376.41516798 C2341.88250827 2396.08719459 2341.87658688 2415.75904112 2341.84042843 2435.43104951 C2341.82009407 2446.9530106 2341.82132969 2458.47446814 2341.85518479 2469.99640028 C2341.87550862 2477.66552414 2341.86640466 2485.33426316 2341.83420089 2493.00334506 C2341.81678824 2497.33997227 2341.81103585 2501.67560616 2341.84185068 2506.01218176 C2341.98807609 2528.08565297 2339.33975015 2547.11018032 2332.80750475 2568.25995973 C2332.31549676 2569.95503838 2331.82790954 2571.65141332 2331.34685728 2573.34963363 C2330.31040822 2576.98758055 2329.20496448 2580.59315503 2328.05750475 2584.19745973 C2327.85606859 2584.83509249 2327.65463244 2585.47272524 2327.44709215 2586.12968019 C2313.98511251 2628.62022392 2295.77068094 2669.05129622 2272.80750475 2707.25995973 C2272.3083153 2708.09817263 2271.80912585 2708.93638552 2271.29480944 2709.7999988 C2264.87186007 2720.58372361 2258.06191825 2731.0184348 2250.80750475 2741.25995973 C2250.29961413 2741.98183473 2249.7917235 2742.70370973 2249.26844225 2743.44745973 C2241.97523151 2753.79447793 2234.34075599 2763.76682799 2226.25623522 2773.50703005 C2224.18756437 2776.01007298 2222.1576826 2778.54416349 2220.12000475 2781.07245973 C2216.35145777 2785.67769329 2212.39962171 2790.08869508 2208.36219225 2794.45917848 C2206.41165047 2796.59761649 2204.5123623 2798.75817127 2202.62415514 2800.95038942 C2198.966353 2805.13469969 2195.12120955 2809.0911244 2191.186411 2813.01386598 C2190.48281954 2813.71841417 2189.77922808 2814.42296236 2189.05431566 2815.14886049 C2187.57735827 2816.6264934 2186.09915733 2818.1028843 2184.61976061 2819.57807497 C2182.3758539 2821.81662455 2180.13733771 2824.06046446 2177.89930163 2826.30488161 C2176.45365857 2827.74986377 2175.0077053 2829.19453565 2173.561411 2830.63886598 C2172.57353342 2831.62977991 2172.57353342 2831.62977991 2171.56569872 2832.6407123 C2167.14023939 2837.0442892 2162.54868665 2841.19949136 2157.80750475 2845.25995973 C2157.27576144 2845.71929399 2156.74401812 2846.17862825 2156.19616137 2846.65188173 C2148.50180883 2853.28287939 2140.64352952 2859.67798 2132.5980321 2865.87714723 C2131.43354816 2866.77647052 2130.27222571 2867.67990753 2129.11463366 2868.58808473 C2108.93127668 2884.41360534 2087.03690151 2898.504099 2064.80750475 2911.25995973 C2064.10432116 2911.66794802 2063.40113756 2912.0759363 2062.67664538 2912.49628786 C2030.62787574 2931.03517689 1996.86983924 2945.44719806 1961.80750475 2957.25995973 C1960.70664538 2957.63185427 1959.605786 2958.0037488 1958.47156725 2958.38691286 C1935.61439802 2966.01045107 1912.2404959 2971.717413 1888.80750475 2977.25995973 C1886.95149645 2977.70130251 1886.95149645 2977.70130251 1885.05799303 2978.1515613 C1864.59705778 2982.9145884 1843.6645462 2985.03299108 1822.80750475 2987.25995973 C1821.92407991 2987.35485896 1821.04065506 2987.44975819 1820.13045976 2987.54753315 C1782.19476347 2991.57774202 1744.40455009 2991.84048874 1706.31063817 2991.77791386 C1697.12276817 2991.76369412 1687.93495502 2991.77361669 1678.74708513 2991.78373815 C1661.5865216 2991.8019768 1644.42600584 2991.80161788 1627.26543818 2991.79061464 C1609.9094688 2991.77955441 1592.55353075 2991.77733221 1575.19755945 2991.78556398 C1574.09552709 2991.78608067 1572.99349472 2991.78659736 1571.85806743 2991.78712971 C1567.36861094 2991.78926314 1562.87915448 2991.79145802 1558.38969805 2991.79373081 C1516.70985518 2991.81481619 1475.03003328 2991.81635488 1433.3501874 2991.80514101 C1393.19427785 2991.79434256 1353.03837821 2991.79012838 1312.88246737 2991.7952228 C1310.35472672 2991.79553272 1307.82698607 2991.79584134 1305.29924542 2991.79614868 C1295.13986018 2991.79739068 1284.98047495 2991.79866535 1274.82108973 2991.79998773 C1246.42576546 2991.80365478 1218.03044116 2991.8059379 1189.63511667 2991.80713228 C1188.34233191 2991.80718686 1187.04954715 2991.80724145 1185.7175871 2991.80729768 C1144.55759973 2991.80893347 1103.39761527 2991.80443793 1062.23762903 2991.79573397 C1061.57077362 2991.79559349 1060.90391821 2991.79545302 1060.21685506 2991.79530829 C1037.88485271 2991.79060376 1015.55285042 2991.78557907 993.22084815 2991.78052177 C925.70615157 2991.76524277 858.19146613 2991.75686516 737.6175564 2991.78098309 C715.29346016 2991.78603647 692.9693639 2991.7910309 670.64526758 2991.79573397 C669.97866589 2991.79587494 669.31206419 2991.79601592 668.62526245 2991.79616117 C626.83466781 2991.80499176 585.04407483 2991.8088967 543.2534791 2991.80713228 C541.96163118 2991.80707794 540.66978327 2991.80702361 539.33878844 2991.80696762 C510.97314367 2991.80571738 482.60749912 2991.80318219 454.24185456 2991.79949027 C444.09122588 2991.79817386 433.94059718 2991.79692151 423.78996848 2991.79568743 C421.2650408 2991.79537787 418.74011313 2991.79506295 416.21518545 2991.79474264 C376.08108223 2991.78966521 335.9469899 2991.79534377 295.81288811 2991.80614322 C254.24461087 2991.81720626 212.6763587 2991.81305674 171.10808503 2991.79201803 C166.63214077 2991.7898089 162.15619649 2991.78766205 157.68025217 2991.78556398 C156.5818726 2991.78504316 155.48349303 2991.78452233 154.35182924 2991.78398572 C137.0535978 2991.77613727 119.75539786 2991.78154494 102.45716929 2991.79264001 C85.39299514 2991.80329645 68.32887343 2991.79937139 51.26470584 2991.78058366 C42.16029618 2991.77093849 33.0559943 2991.76723975 23.9515888 2991.78220759 C-14.94451352 2991.84249486 -53.45020765 2991.23493163 -92.19249525 2987.25995973 C-93.66379678 2987.10933151 -93.66379678 2987.10933151 -95.16482157 2986.9556603 C-183.94674882 2977.80235234 -270.48792373 2951.35894432 -347.19249525 2905.25995973 C-348.03070814 2904.76077028 -348.86892103 2904.26158083 -349.73253431 2903.74726442 C-360.51625912 2897.32431505 -370.95097032 2890.51437323 -381.19249525 2883.25995973 C-382.27530775 2882.4981238 -382.27530775 2882.4981238 -383.37999525 2881.72089723 C-393.72524521 2874.42893285 -403.6964096 2866.79597607 -413.43517103 2858.71308473 C-415.96182892 2856.62380052 -418.51717432 2854.57024705 -421.06749525 2852.50995973 C-425.45010574 2848.92239553 -429.67571439 2845.18894181 -433.860464 2841.37324098 C-435.94284261 2839.48619437 -438.05752589 2837.64937741 -440.19249525 2835.82245973 C-444.26776134 2832.2823296 -448.0204615 2828.44898248 -451.80968275 2824.60761598 C-453.77336313 2822.67290794 -455.75405966 2820.88432826 -457.87999525 2819.13495973 C-461.02769613 2816.51431574 -463.59622544 2813.58006171 -466.2432765 2810.46308473 C-468.46317736 2807.95401843 -470.80753027 2805.61245166 -473.19249525 2803.25995973 C-477.40844471 2799.08204892 -481.35963196 2794.78827039 -485.19249525 2790.25995973 C-486.42419447 2788.82716677 -486.42419447 2788.82716677 -487.6807765 2787.36542848 C-493.92369633 2780.08052491 -499.95411074 2772.65005452 -505.80968275 2765.05048708 C-506.70900604 2763.88600315 -507.61244304 2762.72468069 -508.52062025 2761.56708864 C-529.52197383 2734.78264173 -547.34816146 2705.32396418 -563.19249525 2675.25995973 C-563.68749525 2674.32200563 -564.18249525 2673.38405153 -564.69249525 2672.41767458 C-577.8287617 2647.32962924 -588.15828008 2621.07508415 -597.19249525 2594.25995973 C-597.56438978 2593.15910036 -597.93628431 2592.05824098 -598.31944837 2590.92402223 C-605.94298658 2568.06685301 -611.64994851 2544.69295088 -617.19249525 2521.25995973 C-617.48672376 2520.02262087 -617.78095228 2518.785282 -618.08409681 2517.51044802 C-628.60436977 2472.31762853 -630.20390104 2424.54227106 -632.81749525 2378.38495973 C-632.87407301 2377.40032747 -632.93065077 2376.41569521 -632.988943 2375.4012256 C-633.40064317 2368.13554777 -633.74787632 2360.86743072 -634.08355294 2353.59792754 C-634.19797367 2351.14238942 -634.31563051 2348.68701714 -634.4332894 2346.23163218 C-636.11315764 2310.73849753 -636.48479459 2275.28716852 -636.45147183 2239.76298092 C-636.44433484 2231.68196475 -636.44933409 2223.60096452 -636.45438446 2215.51994837 C-636.46348464 2200.42876284 -636.46333396 2185.3375909 -636.4578227 2170.24640421 C-636.45228566 2154.99082815 -636.45118693 2139.735261 -636.45529737 2124.47968439 C-636.45555572 2123.50974378 -636.45581406 2122.53980317 -636.45608024 2121.54047042 C-636.45714699 2117.58889614 -636.45824444 2113.63732187 -636.45938079 2109.68574761 C-636.4699145 2073.02908426 -636.47069682 2036.37242686 -636.46508589 1999.71576265 C-636.45968314 1964.40125276 -636.45758135 1929.08674569 -636.46012678 1893.77223543 C-636.46028174 1891.54769567 -636.46043605 1889.32315591 -636.46058972 1887.09861615 C-636.46121074 1878.15743913 -636.46184808 1869.2162621 -636.46250925 1860.27508508 C-636.46434263 1835.2856289 -636.4654843 1810.29617272 -636.46608152 1785.30671648 C-636.46610881 1784.16906046 -636.4661361 1783.03140445 -636.46616422 1781.85927401 C-636.46698192 1745.64677511 -636.46473346 1709.43427706 -636.46038236 1673.22177843 C-636.46024187 1672.04848535 -636.46010137 1670.87519227 -636.45995661 1669.66634486 C-636.45766715 1650.61693254 -636.45522802 1631.56752024 -636.45277626 1612.51810793 C-636.44306608 1536.99211475 -636.44351435 1461.46612867 -636.45323744 1385.94013552 C-636.45568015 1366.90472878 -636.45810239 1347.86932203 -636.46038236 1328.83391527 C-636.46052326 1327.66157106 -636.46066416 1326.48922685 -636.46080932 1325.28135706 C-636.46512687 1289.10769644 -636.46694926 1252.93403641 -636.46608152 1216.76037554 C-636.46605435 1215.62351767 -636.46602718 1214.4866598 -636.46599919 1213.31535169 C-636.46537401 1188.35046592 -636.4641063 1163.38558021 -636.46226052 1138.4206945 C-636.46160234 1129.48659978 -636.46097616 1120.55250505 -636.46035909 1111.61841033 C-636.46020431 1109.39617173 -636.46004685 1107.17393313 -636.4598867 1104.95169454 C-636.45735021 1069.65998878 -636.46018333 1034.36828613 -636.46558699 999.07658078 C-636.47112404 962.51378249 -636.46903267 925.95099132 -636.4585244 889.38819403 C-636.45741988 885.44740914 -636.45634645 881.50662424 -636.45529737 877.56583933 C-636.45503696 876.59881386 -636.45477655 875.63178839 -636.45450824 874.63545912 C-636.45059119 859.43471069 -636.45328005 844.23397124 -636.45883538 829.03322363 C-636.46417691 814.02109772 -636.46217757 799.00898669 -636.45280721 783.99686263 C-636.44800045 775.99455676 -636.4460994 767.99228143 -636.45361917 759.98997677 C-636.49703984 711.01499535 -635.40039487 662.1325315 -632.4407443 613.23828081 C-632.31239055 611.11293351 -632.18610373 608.98747024 -632.06014051 606.86198 C-629.19763537 558.71486797 -626.17607808 510.35632897 -615.19249525 463.25995973 C-614.91067396 462.03277223 -614.62885267 460.80558473 -614.33849134 459.54120973 C-600.08531391 398.08963083 -577.73702297 339.41113198 -545.19249525 285.25995973 C-544.6933058 284.42174684 -544.19411634 283.58353395 -543.67979994 282.71992067 C-537.25685056 271.93619586 -530.44690874 261.50148467 -523.19249525 251.25995973 C-522.68460462 250.53808473 -522.176714 249.81620973 -521.65343275 249.07245973 C-514.36022201 238.72544154 -506.72574649 228.75309148 -498.64122572 219.01288942 C-496.57255486 216.50984649 -494.5426731 213.97575598 -492.50499525 211.44745973 C-488.66563292 206.75568853 -484.63047157 202.26988563 -480.5245265 197.81074098 C-478.55750497 195.65920822 -476.64696395 193.47704001 -474.75499525 191.25995973 C-470.18113163 185.99078194 -465.15592224 181.15750053 -460.19249525 176.25995973 C-457.2062489 173.28378504 -454.23440415 170.29367229 -451.266714 167.29902223 C-449.80453194 165.8276109 -448.34229095 164.35625813 -446.87999525 162.88495973 C-446.15876478 162.15535036 -445.43753431 161.42574098 -444.69444837 160.67402223 C-440.02883542 155.98748725 -435.22489868 151.54885717 -430.19249525 147.25995973 C-429.65809828 146.79863649 -429.1237013 146.33731325 -428.57311048 145.86201052 C-420.88366421 139.23065388 -413.02570497 132.83977044 -404.98302259 126.64277223 C-403.81853866 125.74344895 -402.65721621 124.84001194 -401.49962415 123.93183473 C-374.71517725 102.93048115 -345.25649969 85.10429352 -315.19249525 69.25995973 C-314.25454115 68.76495973 -313.31658705 68.26995973 -312.35021009 67.75995973 C-287.26216476 54.62369328 -261.00761967 44.2941749 -234.19249525 35.25995973 C-233.09163587 34.8880652 -231.9907765 34.51617067 -230.85655775 34.13300661 C-182.22767476 17.91384387 -132.51794799 8.70295004 -81.56749525 4.13495973 C-80.67373182 4.05446382 -79.77996839 3.97396791 -78.85912122 3.89103273 C-72.30666439 3.30641712 -65.75068413 2.77584786 -59.19249525 2.25995973 C-57.58492067 2.13212248 -57.58492067 2.13212248 -55.94486984 2.00170265 C-37.27384232 0.54722454 -18.72832072 -0.03481706 0 0 Z " transform="translate(640.1924952482805,-0.25995973497629166)" style="fill: #000000;"/><path d="M0 0 C2.4454217 -0.37489682 2.4454217 -0.37489682 5.59726715 -0.37473011 C7.39359722 -0.38553992 7.39359722 -0.38553992 9.22621679 -0.39656812 C10.56703175 -0.38938995 11.90784522 -0.381931 13.24865723 -0.3742218 C14.66376752 -0.37695993 16.07887579 -0.38100988 17.49397898 -0.38626546 C21.39641796 -0.39689751 25.29862941 -0.3886943 29.20105863 -0.37751496 C33.40424701 -0.36870303 37.60740464 -0.37710772 41.81059265 -0.38337708 C50.05008498 -0.39288475 58.28948998 -0.38624806 66.52897584 -0.37411413 C76.11534112 -0.36052048 85.7016854 -0.36212966 95.28805786 -0.36424746 C112.38753182 -0.36744023 129.48696417 -0.35575319 146.58642578 -0.33618164 C163.19548815 -0.31717626 179.80450175 -0.31009374 196.41357422 -0.31567383 C214.48067725 -0.32172578 232.54775881 -0.32156528 250.61486006 -0.310188 C252.53980478 -0.30898065 254.46474949 -0.30777466 256.38969421 -0.30657005 C257.81052185 -0.30566475 257.81052185 -0.30566475 259.26005307 -0.30474115 C265.94919413 -0.3008548 272.63832722 -0.30125839 279.32746887 -0.3031559 C287.47441822 -0.30527369 295.62132476 -0.30008549 303.76826203 -0.28554235 C307.92844016 -0.27827736 312.0885558 -0.27423915 316.24873924 -0.27878571 C320.05204965 -0.28284127 323.85523065 -0.2777566 327.65852135 -0.26515963 C329.03937329 -0.26221478 330.4202373 -0.26268908 331.80108625 -0.26680271 C333.66829945 -0.27186304 335.53553494 -0.26356902 337.40273285 -0.25447559 C338.44284185 -0.25360882 339.48295085 -0.25274204 340.5545783 -0.251849 C343 0 343 0 345 2 C345.22307586 4.94740878 345.32583487 7.80743432 345.34375 10.7578125 C345.3644606 12.08875191 345.3644606 12.08875191 345.3855896 13.44657898 C345.41521876 15.35077583 345.44099121 17.2550358 345.46331787 19.15933228 C345.52433501 24.092431 345.62322788 29.02466007 345.7265625 33.95703125 C345.75691086 35.40709816 345.75691086 35.40709816 345.78787231 36.88645935 C346.11617971 51.35747151 346.856364 65.74795041 350.28515625 79.85546875 C351.04751908 83.209032 351.50869131 86.52600431 351.9375 89.9375 C352.77826981 96.17726272 354.24803036 102.08048809 355.94921875 108.13671875 C356.82549395 111.28006909 357.55736383 114.44131238 358.24951172 117.63085938 C362.6029797 137.45200012 369.03148485 156.9614122 376.98632812 175.61962891 C378.03289693 178.07725075 379.05646154 180.54364999 380.078125 183.01171875 C399.58591383 229.75763494 425.61800707 272.83306711 459 311 C459.94552734 312.09441406 459.94552734 312.09441406 460.91015625 313.2109375 C462.59426842 315.15207818 464.29595124 317.07634672 466 319 C466.59748047 319.6815918 467.19496094 320.36318359 467.81054688 321.06542969 C473.98086737 328.02704489 480.46082017 334.64700004 487.03759766 341.22290039 C488.87042269 343.05791722 490.6950701 344.9008125 492.51953125 346.74414062 C499.37505469 353.63203012 506.37031145 359.96969771 514 366 C515.10218955 366.93435339 516.19851876 367.87572958 517.28515625 368.828125 C532.10883901 381.75454316 548.54727674 393.57648959 565.7734375 403.10546875 C568.47264244 404.69035301 570.28962887 406.04320972 572.4375 408.25 C577.75731157 413.02470754 584.09594307 415.75326698 590.48779297 418.79003906 C594.32664086 420.63895356 598.12568023 422.56552566 601.92993164 424.484375 C606.94318582 427.00995173 611.96975425 429.50846774 617 432 C617.71542969 432.35481445 618.43085938 432.70962891 619.16796875 433.07519531 C632.22512583 439.50281645 645.86385623 444.60314337 659.4921875 449.67578125 C661.75078686 450.52841509 663.98676728 451.4450127 666.1875 452.4375 C676.20342845 456.74590381 687.06859417 459.11883644 697.6015625 461.8059082 C703.04428221 463.19971854 708.42915319 464.71041496 713.80395508 466.34594727 C726.32462222 470.07500422 739.51839926 471.59603954 752.41113281 473.47070312 C755.97292714 473.99600721 759.52905033 474.55193049 763.0859375 475.109375 C778.95676256 477.50262863 794.52043197 478.53151614 810.54833984 478.76049805 C811.29757721 478.77181763 812.04681458 478.78313721 812.8187561 478.7947998 C814.86053687 478.82253647 816.90244176 478.84065594 818.94433594 478.8581543 C822 479 822 479 824 480 C825.04689794 483.14069383 825.12636007 485.32743806 825.12863445 488.62381744 C825.13347112 490.39085848 825.13347112 490.39085848 825.1384055 492.19359732 C825.1368569 493.49406201 825.1353083 494.7945267 825.13371277 496.13439941 C825.13558007 497.52490885 825.13788044 498.91541777 825.14057809 500.30592585 C825.14671242 504.13569231 825.14656059 507.965437 825.14538372 511.79520726 C825.14518012 515.92204328 825.15069444 520.04887222 825.15544128 524.17570496 C825.16375698 532.26363211 825.16649653 540.35155198 825.16705366 548.43948305 C825.16752832 555.01070724 825.16958055 561.58192903 825.17275429 568.15315247 C825.18156281 586.76897932 825.18617327 605.38480041 825.18542381 624.00062937 C825.18538386 625.0047625 825.1853439 626.00889562 825.18530273 627.04345703 C825.18524141 628.55148764 825.18524141 628.55148764 825.18517885 630.08998352 C825.18477217 646.39312248 825.19434688 662.69623836 825.2084411 678.99937063 C825.22278676 695.72479528 825.22971231 712.45020867 825.22884732 729.17563963 C825.22851476 738.5715962 825.2312878 747.96752857 825.24202538 757.36347961 C825.25110653 765.36141553 825.25332531 773.35931628 825.24651595 781.3572551 C825.24323883 785.44060953 825.24323678 789.52389639 825.2518692 793.60724449 C825.25968267 797.3414768 825.25835611 801.07558739 825.24958507 804.80981654 C825.24730314 806.80868216 825.25491891 808.8075514 825.26282471 810.80640268 C825.25822592 811.98443004 825.25362712 813.1624574 825.24888897 814.37618256 C825.24910634 815.39714319 825.24932371 816.41810382 825.24954766 817.47000265 C825 820 825 820 823 823 C820.29467773 823.31933594 820.29467773 823.31933594 816.74609375 823.234375 C816.08894882 823.22186707 815.43180389 823.20935913 814.75474548 823.19647217 C812.50242353 823.14766009 810.25161151 823.07449097 808 823 C806.33610912 822.95475112 804.67220901 822.90984082 803.00830078 822.86523438 C725.51363997 820.61756715 648.93089425 808.60590245 575 785 C574.29532593 784.77528015 573.59065186 784.5505603 572.86462402 784.31903076 C551.93572993 777.62893094 531.29845671 770.43826387 511 762 C509.81841309 761.50951172 508.63682617 761.01902344 507.41943359 760.51367188 C456.01654561 739.02203589 407.33226378 712.51404433 361.09765625 681.43359375 C360.20320801 680.83401855 359.30875977 680.23444336 358.38720703 679.61669922 C356.9662837 678.65440076 355.55271938 677.68085219 354.15576172 676.68408203 C351.09116366 674.51458452 348.67611654 673.62965357 345 673 C345.00015598 673.62208613 345.00031196 674.24417225 345.00047267 674.88510947 C345.0174236 742.63114396 345.03312839 810.37717869 345.04234314 878.12321472 C345.0424812 879.13560267 345.04261925 880.14799061 345.04276149 881.19105698 C345.04575459 903.19436908 345.04852474 925.1976812 345.05106533 947.20099335 C345.05231264 957.99182435 345.0536092 968.78265534 345.05493164 979.57348633 C345.05512778 981.1841898 345.05512778 981.1841898 345.05532788 982.82743274 C345.05958722 1017.61593059 345.06709703 1052.4044268 345.07629722 1087.19292366 C345.08573648 1122.95048482 345.09188699 1158.70804508 345.09391499 1194.46560747 C345.09420313 1199.51916747 345.09452877 1204.57272746 345.09487724 1209.62628746 C345.09494467 1210.62087477 345.09501209 1211.61546208 345.09508156 1212.6401884 C345.09626206 1228.63328651 345.10089685 1244.62638184 345.10683203 1260.61947882 C345.11272869 1276.70822762 345.11496562 1292.79697366 345.11350138 1308.88572351 C345.11274233 1318.4376295 345.11475483 1327.98952539 345.12079754 1337.54142955 C345.12456355 1343.93271235 345.12465238 1350.32398857 345.12183181 1356.71527184 C345.1203306 1360.35010346 345.12035142 1363.98491605 345.12488318 1367.61974559 C345.16796495 1404.43436016 345.16796495 1404.43436016 343 1419 C342.85290029 1421.45710998 342.72975631 1423.91572086 342.625 1426.375 C340.94727697 1458.94040996 334.322254 1491.06699619 326.57324219 1522.65576172 C326.04350519 1524.82208822 325.52414802 1526.99060445 325.0078125 1529.16015625 C317.17821303 1561.73096686 305.93629343 1594.30269457 292.01904297 1624.76757812 C290.82772432 1627.37740509 289.65081222 1629.99358044 288.47265625 1632.609375 C279.1704415 1653.1786178 269.14229131 1672.95133064 257.57763672 1692.34863281 C256.23907748 1694.59820777 254.91399101 1696.85457651 253.59765625 1699.1171875 C240.48805631 1721.52737527 225.28093853 1742.79424943 209 1763 C207.88044922 1764.39412109 207.88044922 1764.39412109 206.73828125 1765.81640625 C197.64616633 1777.03055877 188.20866619 1787.92581293 178.38427734 1798.50244141 C176.9829388 1800.01845739 175.59375039 1801.54482708 174.20703125 1803.07421875 C168.52919536 1809.31732591 162.70593701 1815.39619552 156.75 1821.375 C156.10071533 1822.02887695 155.45143066 1822.68275391 154.7824707 1823.35644531 C150.95872644 1827.16805379 147.01935173 1830.78410983 142.93310547 1834.31201172 C139.94433621 1836.92180594 137.07361371 1839.65295047 134.1875 1842.375 C129.27194203 1846.9700492 124.26859805 1851.37262156 119.01171875 1855.578125 C116.72102101 1857.42019063 114.45823738 1859.28257939 112.20703125 1861.171875 C101.78434615 1869.89913337 91.03701213 1878.06700243 80 1886 C79.26749023 1886.52867676 78.53498047 1887.05735352 77.78027344 1887.60205078 C34.82811148 1918.54118144 -11.83715693 1943.51858989 -61 1963 C-61.80179688 1963.31904297 -62.60359375 1963.63808594 -63.4296875 1963.96679688 C-67.9198054 1965.74030999 -72.44310427 1967.40566226 -77 1969 C-77.8470752 1969.29825684 -78.69415039 1969.59651367 -79.56689453 1969.90380859 C-94.10365611 1974.98498607 -108.7630159 1979.31021093 -123.67578125 1983.14111328 C-126.96603454 1983.99122426 -130.24861136 1984.86709568 -133.53125 1985.74609375 C-174.09712704 1996.44357604 -216.13602021 2002.60531439 -258 2005 C-259.38614502 2005.08459473 -259.38614502 2005.08459473 -260.80029297 2005.17089844 C-344.41152424 2010.17365931 -428.53035528 1995.86803877 -630 1908 C-631.10085938 1907.73574219 -632.20171875 1907.47148437 -633.3359375 1907.19921875 C-637.62089571 1905.79678573 -639.4897606 1904.01397685 -642.625 1900.8125 C-647.56523923 1895.98038972 -652.52462279 1892.90085755 -658.7265625 1889.78515625 C-664.65632598 1886.55138309 -669.77730605 1882.2442506 -675 1878 C-676.30566363 1876.95141692 -677.61166608 1875.90325562 -678.91796875 1874.85546875 C-685.82693501 1869.29341875 -692.65943559 1863.64639793 -699.40698242 1857.88964844 C-702.83047803 1854.97189041 -706.30626888 1852.13000715 -709.8125 1849.3125 C-713.74117422 1846.11831705 -717.37089272 1842.78945732 -720.85546875 1839.1171875 C-722.63075416 1837.36453778 -724.42957864 1835.77276316 -726.328125 1834.16015625 C-732.37189817 1828.91137761 -737.96116659 1823.18769211 -743.60913086 1817.52124023 C-745.5579687 1815.56704376 -747.51209272 1813.61824853 -749.46679688 1811.66992188 C-755.52453257 1805.6154238 -761.47343234 1799.55011939 -767 1793 C-768.45445517 1791.39231627 -769.91220895 1789.78760285 -771.375 1788.1875 C-775.21928245 1783.92254692 -778.89526905 1779.5513915 -782.50390625 1775.0859375 C-784.31198156 1772.85060183 -786.13112763 1770.62811795 -787.96484375 1768.4140625 C-822.47420466 1726.61189683 -853.51456532 1678.26879007 -873.484375 1627.75 C-874.89281421 1624.20174698 -876.48408146 1620.76008644 -878.125 1617.3125 C-880.66480607 1611.90951732 -882.72067222 1606.43214715 -884.62890625 1600.77734375 C-885.73224767 1597.60746164 -887.03132574 1594.54019686 -888.34765625 1591.453125 C-891.19315831 1584.67934714 -893.56937664 1577.78589386 -895.875 1570.8125 C-896.08932678 1570.16714294 -896.30365356 1569.52178589 -896.5244751 1568.85687256 C-900.77837143 1556.02196948 -904.55665249 1543.0765791 -908 1530 C-908.20850586 1529.20899902 -908.41701172 1528.41799805 -908.63183594 1527.60302734 C-920.24151476 1483.17104406 -927.36855214 1435.98682337 -928 1390 C-928.00988953 1389.35836914 -928.01977905 1388.71673828 -928.02996826 1388.05566406 C-928.71545141 1342.40901505 -925.15048482 1297.92980664 -917 1253 C-916.8136499 1251.95263672 -916.6272998 1250.90527344 -916.43530273 1249.82617188 C-915.46542364 1244.39747151 -914.40306323 1239.00396217 -913.1875 1233.625 C-912.93202393 1232.49179321 -912.93202393 1232.49179321 -912.67138672 1231.33569336 C-912.30612878 1229.72359406 -911.9392351 1228.11186461 -911.57080078 1226.50048828 C-911.18596414 1224.81464702 -910.8041934 1223.12810333 -910.42529297 1221.44091797 C-907.9185575 1210.30382054 -905.01807703 1199.41778399 -901.47265625 1188.56640625 C-900.02610087 1184.13438675 -898.72250766 1179.66851327 -897.4375 1175.1875 C-895.26037568 1167.67508252 -892.72994541 1160.33115904 -890 1153 C-889.50894362 1151.66542748 -889.01806433 1150.33078978 -888.52734375 1148.99609375 C-884.52156396 1138.1545035 -880.16545435 1127.51731881 -875.36743164 1117.00024414 C-874.01928399 1114.04231047 -872.68141443 1111.07987374 -871.34375 1108.1171875 C-849.50402154 1060.01522399 -822.04253672 1013.56681796 -788 973 C-786.58219009 971.2509261 -785.16556182 969.50089382 -783.75 967.75 C-769.43836113 950.28831236 -754.06000468 933.97612245 -738.125 918 C-737.53700623 917.40932739 -736.94901245 916.81865479 -736.34320068 916.21008301 C-730.07041981 909.91564243 -723.76970305 903.76426195 -717 898 C-715.22429779 896.38032183 -713.45291693 894.75588282 -711.6875 893.125 C-706.28508543 888.2042822 -700.69831141 883.57207447 -695 879 C-693.87979484 878.08774711 -692.76002295 877.17496197 -691.640625 876.26171875 C-681.67546973 868.16664517 -671.41461743 860.50579151 -661 853 C-660.17274414 852.40364746 -659.34548828 851.80729492 -658.49316406 851.19287109 C-647.65114484 843.41160817 -636.637244 836.07357203 -625.15283203 829.27490234 C-623.05361777 828.03175232 -620.9618799 826.77679132 -618.87109375 825.51953125 C-596.38111612 812.06456008 -573.19526942 799.23189415 -548.8125 789.546875 C-545.28869842 788.14087817 -541.86445237 786.56698225 -538.4375 784.9375 C-531.94779096 781.9073785 -525.31742182 779.36603192 -518.5859375 776.93505859 C-516.69648049 776.25184293 -514.80868459 775.56402845 -512.921875 774.87353516 C-480.74735493 763.10271146 -448.38374366 753.66004619 -414.65673828 747.50244141 C-411.45867123 746.89762409 -408.29387983 746.17915273 -405.125 745.4375 C-387.30318979 741.55552154 -369.0189411 739.70402088 -350.8515625 738.39453125 C-348.19901663 738.19971431 -345.681418 737.94415296 -343.05859375 737.484375 C-308.21913465 731.96701494 -268.6545888 734.48344089 -233.75 737.875 C-232.8512616 737.96204193 -231.95252319 738.04908386 -231.02655029 738.13876343 C-228.49029066 738.3909695 -225.95588149 738.65582432 -223.421875 738.9296875 C-222.69608246 739.00688522 -221.97028992 739.08408295 -221.22250366 739.16362 C-217.49588282 739.59443333 -213.78957734 740.14580534 -210.09863281 740.81689453 C-209.3625177 740.94645538 -208.62640259 741.07601624 -207.86798096 741.20950317 C-206 742 -206 742 -204.89880675 743.68419588 C-203.79116525 746.53806935 -203.75047053 748.78082006 -203.75111103 751.84336281 C-203.74421284 753.64566603 -203.74421284 753.64566603 -203.73717529 755.48437941 C-203.74219041 756.81930905 -203.74739266 758.154238 -203.75276184 759.48916626 C-203.75117397 760.90600083 -203.74871058 762.32283465 -203.74544543 763.73966634 C-203.73902178 767.63754432 -203.74510789 771.53531869 -203.75320971 775.43318987 C-203.75977906 779.63497281 -203.75483993 783.83674403 -203.75132751 788.03852844 C-203.74628173 796.2710461 -203.75193171 804.50352364 -203.76117782 812.73603632 C-203.77155132 822.31587293 -203.77149191 831.89570082 -203.77100524 841.47554199 C-203.77050441 858.56280471 -203.77967209 875.65004872 -203.79418945 892.73730469 C-203.8082817 909.33268576 -203.81536005 925.92805036 -203.81469727 942.5234375 C-203.81465731 943.54579528 -203.81461735 944.56815307 -203.81457619 945.62149139 C-203.81453583 946.64205113 -203.81449548 947.66261087 -203.8144539 948.71409667 C-203.81376474 967.58811498 -203.81964964 986.46212627 -203.82860712 1005.33614231 C-203.83162814 1012.0202949 -203.83268722 1018.7044462 -203.83313942 1025.3885994 C-203.83382031 1033.52816802 -203.83826766 1041.66772482 -203.84747223 1049.80728842 C-203.85210108 1053.963415 -203.85513173 1058.11952641 -203.85387802 1062.27565575 C-203.85278743 1066.07514935 -203.85627397 1069.87460933 -203.86352655 1073.67409591 C-203.86534805 1075.05354401 -203.86546229 1076.43299556 -203.86375926 1077.81244381 C-203.86171025 1079.67773629 -203.86633803 1081.54303264 -203.87136555 1083.40831947 C-203.87206997 1084.44734433 -203.8727744 1085.48636918 -203.87350017 1086.55687964 C-204 1089 -204 1089 -205 1091 C-210.40782395 1091.25349175 -214.83219777 1090.3691471 -220 1088.75 C-227.08376707 1086.6665391 -234.1635361 1085.07892712 -241.4375 1083.8125 C-242.30439453 1083.65813477 -243.17128906 1083.50376953 -244.06445312 1083.34472656 C-259.70942941 1080.71823928 -275.33663472 1079.58651287 -291.1875 1079.625 C-292.47252411 1079.62581573 -292.47252411 1079.62581573 -293.7835083 1079.62664795 C-339.58359056 1079.75877069 -385.4062698 1090.59333148 -426 1112 C-426.71849121 1112.37785645 -427.43698242 1112.75571289 -428.17724609 1113.14501953 C-456.45492705 1128.13687735 -485.66663093 1148.262284 -506.34765625 1173.0390625 C-508.22275626 1175.26435849 -510.20365874 1177.37117212 -512.1875 1179.5 C-530.97359104 1200.36278477 -544.83002896 1224.86489923 -557 1250 C-557.80050781 1251.62808594 -557.80050781 1251.62808594 -558.6171875 1253.2890625 C-587.13194211 1312.83023404 -589.93469763 1388.96633214 -570.73925781 1451.55273438 C-570.02158722 1453.9285369 -569.34350356 1456.31177549 -568.6796875 1458.703125 C-566.72286825 1465.71366256 -564.61953497 1472.46576248 -561.42578125 1479.03125 C-560.3218258 1481.32989696 -559.29064307 1483.62413271 -558.29296875 1485.96875 C-547.85412327 1510.41145659 -533.94378468 1532.54433746 -517 1553 C-516.5162793 1553.58668457 -516.03255859 1554.17336914 -515.53417969 1554.77783203 C-503.65781539 1569.08397609 -490.74313364 1582.62975593 -476 1594 C-474.93679431 1594.86211311 -473.87570949 1595.72684631 -472.81640625 1596.59375 C-460.05739715 1606.96113373 -446.42965162 1615.54180111 -431.8046875 1623.02734375 C-427.30530538 1625.33404675 -422.90003731 1627.78259199 -418.640625 1630.51171875 C-414.82643782 1632.66143076 -410.81944544 1634.21099381 -406.75 1635.8125 C-405.420896 1636.33807495 -405.420896 1636.33807495 -404.06494141 1636.87426758 C-395.77936683 1640.12608505 -387.46397211 1643.24252488 -379 1646 C-378.33452148 1646.2175293 -377.66904297 1646.43505859 -376.98339844 1646.65917969 C-366.98169276 1649.85141892 -356.83625636 1651.88620229 -346.5 1653.6875 C-344.75734863 1653.99119507 -344.75734863 1653.99119507 -342.97949219 1654.30102539 C-339.32481375 1654.91073148 -335.66692736 1655.46890508 -332 1656 C-331.35132965 1656.09536041 -330.7026593 1656.19072083 -330.03433228 1656.28897095 C-317.09240463 1658.13380222 -304.20934367 1658.34060903 -291.15161133 1658.31567383 C-287.70296558 1658.31251417 -284.25518117 1658.33606679 -280.80664062 1658.36132812 C-266.95010836 1658.40116996 -253.63365337 1657.50116267 -240 1655 C-238.88294678 1654.79592529 -237.76589355 1654.59185059 -236.61499023 1654.3815918 C-234.01984957 1653.86689228 -231.44866213 1653.29978252 -228.875 1652.6875 C-227.97523438 1652.47802734 -227.07546875 1652.26855469 -226.1484375 1652.05273438 C-216.94221172 1649.84815362 -207.95919776 1647.04290242 -199 1644 C-198.35063477 1643.7834375 -197.70126953 1643.566875 -197.03222656 1643.34375 C-188.39806126 1640.45516359 -180.18600028 1636.97470534 -172 1633 C-170.81277344 1632.43796875 -169.62554688 1631.8759375 -168.40234375 1631.296875 C-150.26664395 1622.58846086 -133.10068139 1612.04684757 -117 1600 C-116.38189453 1599.53883789 -115.76378906 1599.07767578 -115.12695312 1598.60253906 C-107.31887769 1592.73189963 -100.02815102 1586.44304887 -92.9375 1579.7265625 C-90.96034168 1577.85968655 -88.93359248 1576.09570209 -86.828125 1574.375 C-84.54375838 1572.45663687 -82.65297178 1570.6485505 -80.75 1568.375 C-78.02097697 1565.16227705 -75.1970564 1562.0737833 -72.3125 1559 C-48.101979 1532.3684269 -30.24521671 1499.33241306 -18.80957031 1465.39794922 C-18.07824853 1463.23177232 -17.33474273 1461.07033614 -16.5859375 1458.91015625 C-12.10668861 1445.81591026 -8.85507167 1432.77597019 -6.3125 1419.1875 C-5.99055664 1417.46998535 -5.99055664 1417.46998535 -5.66210938 1415.71777344 C-3.84483415 1405.72275972 -2.84795763 1395.9888356 -2.87169081 1385.82951027 C-2.86996676 1384.84976484 -2.86824271 1383.87001941 -2.86646641 1382.86058473 C-2.86190699 1379.58134366 -2.86442999 1376.30214713 -2.86692142 1373.0229044 C-2.86508008 1370.63649575 -2.86280113 1368.25008741 -2.86012438 1365.86367956 C-2.85529159 1360.66082864 -2.85355094 1355.45798608 -2.85451955 1350.2551334 C-2.85594687 1342.46636455 -2.85158373 1334.6776062 -2.84608656 1326.88883954 C-2.83687949 1313.61401699 -2.83234516 1300.33919653 -2.83033562 1287.06437111 C-2.8282749 1273.61177662 -2.82402131 1260.15918544 -2.81707764 1246.70659256 C-2.81642113 1245.43214295 -2.81642113 1245.43214295 -2.81575136 1244.13194689 C-2.81350748 1239.79966641 -2.81122372 1235.46738594 -2.8089225 1231.13510548 C-2.80421963 1222.25328795 -2.79982323 1213.37147026 -2.79553688 1204.48965251 C-2.79510515 1203.59515895 -2.79467343 1202.70066538 -2.79422862 1201.77906594 C-2.7843629 1181.16784328 -2.77770348 1160.55661971 -2.77112769 1139.94539578 C-2.76089504 1107.92309778 -2.74785165 1075.90080276 -2.73081779 1043.87850761 C-2.73030489 1042.91398996 -2.72979198 1041.94947232 -2.72926353 1040.95572686 C-2.72299654 1029.19359 -2.71659673 1017.43145322 -2.71015793 1005.66931645 C-2.70034587 987.72894366 -2.69081782 969.78857072 -2.68130992 951.84819777 C-2.68024254 949.83421143 -2.67917449 947.8202251 -2.67810577 945.80623876 C-2.65292297 898.33935007 -2.63026496 850.87246028 -2.60861443 803.40556986 C-2.60717738 800.25581481 -2.60573769 797.10605977 -2.60429762 793.95630473 C-2.5821244 745.42586718 -2.56125497 696.89542927 -2.54260254 648.36499023 C-2.54179073 646.25539872 -2.54097886 644.1458072 -2.54016693 642.03621569 C-2.5365198 632.55647407 -2.5328815 623.07673245 -2.52924435 613.59699083 C-2.52763089 609.39203208 -2.52601661 605.18707333 -2.52440243 600.98211457 C-2.52319367 597.83162391 -2.5219868 594.68113324 -2.52078002 591.53064257 C-2.50259183 544.0918019 -2.48290871 496.65296283 -2.4570837 449.21412563 C-2.45654196 448.21766186 -2.45600021 447.22119808 -2.45544205 446.19453843 C-2.44407193 425.30550437 -2.43230434 404.41647056 -2.42000187 383.52743704 C-2.41424427 373.74655208 -2.40858948 363.96566708 -2.40299797 354.18478203 C-2.40216994 352.74027808 -2.40216994 352.74027808 -2.40132519 351.26659223 C-2.38357769 320.21065653 -2.3726442 289.15472292 -2.36541818 258.09878312 C-2.35813059 226.8375681 -2.34489161 195.57636218 -2.32313089 164.31515367 C-2.32013088 160.00130249 -2.31720454 155.68745127 -2.31432343 151.37360001 C-2.31347266 150.10508678 -2.31347266 150.10508678 -2.3126047 148.81094703 C-2.30379055 135.38815598 -2.30173308 121.96537258 -2.30246193 108.542579 C-2.30304251 95.36325045 -2.29659114 82.18394129 -2.28251991 69.00462005 C-2.27447503 61.26573228 -2.27198695 53.52688942 -2.27749696 45.78799916 C-2.28097334 40.06137557 -2.27417248 34.33480267 -2.26317802 28.60819029 C-2.26036969 26.29205437 -2.26098563 23.97591142 -2.26525675 21.65977773 C-2.27053938 18.5374403 -2.26372252 15.41536548 -2.25365835 12.29304558 C-2.25813499 11.38341374 -2.26261163 10.47378191 -2.26722392 9.53658547 C-2.26203514 8.71067457 -2.25684636 7.88476367 -2.25150034 7.03382516 C-2.25120828 6.32164759 -2.25091621 5.60947002 -2.2506153 4.87571131 C-2 3 -2 3 0 0 Z " transform="translate(1505,452)" style="fill: #FEFEFE;"/><path d="M0 0 C3.37402976 0.30898131 6.74759142 0.62281647 10.12109375 0.9375 C11.07189819 1.02451172 12.02270264 1.11152344 13.00231934 1.20117188 C19.42154875 1.80310526 25.68349529 2.7032258 32 4 C47.69443432 6.95387728 63.62650536 7.64136701 79.55859375 8.26953125 C81.07054321 8.3300769 81.07054321 8.3300769 82.61303711 8.3918457 C84.47938257 8.46176461 86.34612006 8.52215612 88.21313477 8.57104492 C92.50690843 8.71705749 96.15243802 8.86246556 100 11 C101.30786508 13.61573017 101.12782559 15.53313485 101.13142776 18.46394825 C101.13526891 19.63178437 101.13911005 20.79962049 101.1430676 22.00284559 C101.14220112 23.29707698 101.14133463 24.59130838 101.14044189 25.92475891 C101.14302414 27.30473053 101.14603691 28.6847014 101.1494453 30.06467122 C101.15753509 33.87003042 101.15930596 37.67537078 101.16004276 41.48073757 C101.16188989 45.57968268 101.16943549 49.67861793 101.17617798 53.77755737 C101.1897759 62.74649554 101.19578829 71.71542924 101.20018864 80.684376 C101.20294861 86.28159636 101.20718551 91.87881498 101.21169281 97.47603416 C101.22388741 112.9643318 101.23418633 128.45262804 101.2375679 143.94093037 C101.23778747 144.93275208 101.23800703 145.9245738 101.23823325 146.94645072 C101.23845153 147.9406848 101.23866981 148.93491888 101.2388947 149.95928127 C101.23933817 151.97407488 101.23978474 153.9888685 101.24023438 156.00366211 C101.2404558 157.0030755 101.24067723 158.0024889 101.24090537 159.03218754 C101.24485438 175.23058538 101.26231067 191.42893825 101.2855939 207.62731872 C101.30928972 224.24650035 101.32176895 240.86565941 101.32293582 257.48485821 C101.32385358 266.82054573 101.32963126 276.15617467 101.34775543 285.49184608 C101.36313257 293.44071879 101.36829104 301.38951482 101.36001733 309.33839957 C101.35610232 313.39569954 101.35708168 317.45284501 101.37107468 321.51012611 C101.38376288 325.22296378 101.38266117 328.93553005 101.37048396 332.64836707 C101.36758536 334.63089685 101.37950115 336.61343111 101.39190602 338.5959242 C101.38531618 339.77158356 101.37872633 340.94724292 101.3719368 342.15852833 C101.37283243 343.68052994 101.37283243 343.68052994 101.37374616 345.23327905 C100.93550332 348.4774479 99.93112698 350.37726329 98 353 C96.02938843 353.60800171 96.02938843 353.60800171 93.76318359 353.58349609 C92.91154633 353.58634613 92.05990906 353.58919617 91.1824646 353.59213257 C90.26373566 353.5694632 89.34500671 353.54679382 88.3984375 353.5234375 C87.44740143 353.51873444 86.49636536 353.51403137 85.51651001 353.50918579 C82.46860877 353.48781463 79.42243584 353.43126479 76.375 353.375 C74.34506868 353.35849123 72.31511856 353.34414359 70.28515625 353.33203125 C54.58257969 353.19039029 54.58257969 353.19039029 47.02012634 352.22973633 C43.42108743 351.82044015 39.80531367 351.7556275 36.1875 351.625 C18.07249666 350.84254339 -0.0673064 348.65160311 -18 346 C-18.84087158 345.87882812 -19.68174316 345.75765625 -20.5480957 345.6328125 C-30.23095849 344.19727406 -39.8501399 342.43773311 -49.47338867 340.65087891 C-52.29580943 340.12809154 -55.11953056 339.61277605 -57.94335938 339.09765625 C-67.60056666 337.31806662 -77.13594604 335.33126232 -86.6418457 332.86621094 C-90.71910848 331.81451131 -94.81742287 330.92582625 -98.9375 330.0625 C-107.06254199 328.30370683 -114.98429735 326.05853977 -122.93066406 323.62792969 C-125.58645619 322.82204279 -128.25107614 322.04844152 -130.91650391 321.27514648 C-153.52983412 314.69985223 -175.73481611 307.52364694 -197.65478516 298.91601562 C-200.02030746 297.99206813 -202.3901695 297.08023137 -204.76171875 296.171875 C-211.95928068 293.41041937 -219.10082412 290.62253704 -226.0859375 287.3515625 C-228.31137321 286.3193899 -230.541409 285.31755673 -232.7890625 284.3359375 C-262.77071162 271.23305187 -292.04758061 256.53835053 -320.12207031 239.72363281 C-322.92751122 238.04341456 -325.74081356 236.37698163 -328.5546875 234.7109375 C-341.41758468 227.03700507 -353.90426088 218.84880997 -366.32666016 210.48779297 C-366.95518387 210.06487473 -367.58370758 209.64195648 -368.23127747 209.20622253 C-369.41732189 208.40721434 -370.60249589 207.60691211 -371.78666687 206.80513 C-373.82168661 205.43198496 -375.80149969 204.09925015 -378 203 C-378.00055616 203.62368686 -378.00111233 204.24737371 -378.00168534 204.88996017 C-378.06235431 272.84635929 -378.12548204 340.80275594 -378.20132446 408.75914001 C-378.20245809 409.77551023 -378.20359171 410.79188044 -378.20475969 411.83904975 C-378.22941563 433.93167983 -378.25450872 456.0243094 -378.28005161 478.11693848 C-378.29257661 488.95238923 -378.30500508 499.78784009 -378.31738281 510.62329102 C-378.31861614 511.70150359 -378.31984946 512.77971617 -378.32112016 513.89060186 C-378.36099413 548.78922465 -378.3945044 583.68785 -378.42468691 618.5864824 C-378.45575749 654.47285486 -378.49330344 690.35921492 -378.53890612 726.24557199 C-378.54535578 731.32339209 -378.55173201 736.40121227 -378.55806351 741.47903252 C-378.55931181 742.47834335 -378.56056012 743.47765419 -378.56184625 744.50724717 C-378.58168875 760.54260366 -378.59477865 776.57795876 -378.60529328 792.61332378 C-378.61603011 808.76502339 -378.63400005 824.91670248 -378.65916704 841.06838614 C-378.67387334 850.644433 -378.68322023 860.22044847 -378.68456683 869.79650672 C-378.6860202 876.21921093 -378.69479662 882.64188007 -378.70915592 889.06456828 C-378.71710182 892.70750836 -378.72221962 896.35037982 -378.71827881 899.9933281 C-378.69439162 925.51016948 -379.84212746 950.90739597 -382.9375 976.25 C-383.11344633 977.73370439 -383.28922425 979.21742876 -383.46484375 980.70117188 C-385.49621107 997.67325629 -388.31722917 1014.31156616 -392 1031 C-392.32317197 1032.48562157 -392.64609239 1033.97129788 -392.96875 1035.45703125 C-393.78261853 1039.18475514 -394.61599537 1042.90773033 -395.46142578 1046.62841797 C-395.83188923 1048.25973343 -396.1999165 1049.89160344 -396.56591797 1051.52392578 C-399.20886954 1063.26426435 -402.26763181 1074.7466741 -406.06201172 1086.16699219 C-407.1397326 1089.42203463 -408.1962408 1092.68369973 -409.25390625 1095.9453125 C-413.3406598 1108.46414608 -417.58822442 1120.89133004 -422.3125 1133.1875 C-422.70856445 1134.21883057 -423.10462891 1135.25016113 -423.51269531 1136.31274414 C-426.11730404 1142.98664396 -428.99339399 1149.49903349 -432 1156 C-432.93574419 1158.07123152 -433.87060202 1160.14286365 -434.8046875 1162.21484375 C-442.53066768 1179.19912563 -450.89254972 1195.71276578 -460 1212 C-460.47663086 1212.85335937 -460.95326172 1213.70671875 -461.44433594 1214.5859375 C-475.652201 1239.72373256 -492.36036355 1264.15696577 -510 1287 C-510.48178711 1287.6290625 -510.96357422 1288.258125 -511.45996094 1288.90625 C-517.60826769 1296.9203362 -524.01726506 1304.69301238 -530.59521484 1312.35693359 C-532.01599182 1314.01870437 -533.42502753 1315.68983978 -534.83203125 1317.36328125 C-546.23164552 1330.87600415 -558.46080157 1343.54743856 -570.9375 1356.0625 C-571.42795807 1356.5556369 -571.91841614 1357.0487738 -572.42373657 1357.55685425 C-577.56289515 1362.7173349 -582.74413782 1367.78098627 -588.27709961 1372.5222168 C-590.67705392 1374.5807294 -592.9901916 1376.72966378 -595.3125 1378.875 C-600.7149752 1383.79577302 -606.30237581 1388.4270049 -612 1393 C-613.13198786 1393.92389449 -614.26347487 1394.8484029 -615.39453125 1395.7734375 C-624.22797939 1402.96353681 -633.32373467 1409.72248394 -642.61572266 1416.30712891 C-645.0461258 1418.03274998 -647.46649045 1419.77186434 -649.88671875 1421.51171875 C-660.51381814 1429.10399593 -671.38473759 1436.06239554 -682.66845703 1442.63574219 C-684.82936029 1443.90015344 -686.97734404 1445.18334197 -689.12109375 1446.4765625 C-707.17848358 1457.32817923 -725.76550961 1467.39539752 -745 1476 C-746.02270996 1476.46148438 -747.04541992 1476.92296875 -748.09912109 1477.3984375 C-781.13026368 1492.29529848 -781.13026368 1492.29529848 -796.21875 1497.04296875 C-799.09267149 1497.99051277 -799.09267149 1497.99051277 -802.15234375 1499.375 C-807.01403613 1501.49431771 -812.03358943 1503.13889671 -817.0625 1504.8125 C-818.63837891 1505.3369873 -818.63837891 1505.3369873 -820.24609375 1505.87207031 C-834.72003057 1510.62295785 -849.44621267 1514.45081746 -864.23828125 1518.0703125 C-866.74122638 1518.68890122 -869.23883852 1519.32949213 -871.73046875 1519.9921875 C-881.56303454 1522.57812223 -891.44684931 1524.38822497 -901.47265625 1526.0625 C-905.98033397 1526.81569322 -910.45611841 1527.66715633 -914.9375 1528.5625 C-945.48023228 1534.28537448 -976.58267948 1535.3600827 -1007.57861328 1535.26074219 C-1011.15294523 1535.24937061 -1014.72697831 1535.25613647 -1018.30130005 1535.26761913 C-1033.43463216 1535.30876255 -1048.50962706 1535.01537274 -1063.6171875 1534.09765625 C-1065.57602371 1533.97907257 -1065.57602371 1533.97907257 -1067.57443237 1533.85809326 C-1128.23850759 1529.84972083 -1190.23495581 1515.93196035 -1246.625 1493.1875 C-1247.48182373 1492.84275635 -1248.33864746 1492.4980127 -1249.22143555 1492.14282227 C-1251.81521754 1491.09749528 -1254.40761492 1490.04878545 -1257 1489 C-1257.76747559 1488.69126953 -1258.53495117 1488.38253906 -1259.32568359 1488.06445312 C-1269.37013206 1484.02101516 -1279.25987978 1479.73439836 -1289 1475 C-1290.4835498 1474.28263672 -1290.4835498 1474.28263672 -1291.99707031 1473.55078125 C-1308.77834437 1465.40424445 -1325.03841312 1456.67771553 -1341 1447 C-1341.91362305 1446.44957031 -1342.82724609 1445.89914062 -1343.76855469 1445.33203125 C-1368.31235365 1430.51246959 -1391.65474527 1413.95906982 -1414 1396 C-1414.928125 1395.25492188 -1415.85625 1394.50984375 -1416.8125 1393.7421875 C-1447.26271416 1369.04564753 -1447.26271416 1369.04564753 -1460 1355 C-1460 1354.67 -1460 1354.34 -1460 1354 C-1454.74391323 1354.46300516 -1451.6581385 1355.52043263 -1447.375 1358.5625 C-1380.45125567 1403.95269044 -1297.44571584 1430.65285578 -1131 1452 C-1130.03916504 1452.02191406 -1129.07833008 1452.04382812 -1128.08837891 1452.06640625 C-1051.08795832 1453.56714532 -972.3080223 1440.21074418 -900 1414 C-899.03094727 1413.65211426 -898.06189453 1413.30422852 -897.06347656 1412.94580078 C-832.33870218 1389.63165109 -772.56174673 1355.0480279 -719 1312 C-717.6078125 1310.88238281 -717.6078125 1310.88238281 -716.1875 1309.7421875 C-704.63904233 1300.37585119 -693.46317906 1290.63691525 -682.60009766 1280.48681641 C-681.01726447 1279.01604221 -679.42309661 1277.55877052 -677.82421875 1276.10546875 C-667.38274127 1266.59783386 -656.91053365 1256.8793535 -647.79296875 1246.07421875 C-645.81784845 1243.78927565 -643.76835276 1241.58668665 -641.70629883 1239.38037109 C-636.75884883 1234.0838421 -631.99707047 1228.70866551 -627.4609375 1223.05078125 C-625.59246109 1220.73446366 -623.70384821 1218.44547949 -621.7890625 1216.16796875 C-613.94092386 1206.8073597 -606.60327362 1197.19748018 -599.56591797 1187.21435547 C-598.03663927 1185.05181138 -596.4915159 1182.90155254 -594.94140625 1180.75390625 C-573.25063892 1150.58507527 -553.73337991 1117.50585289 -539.3671875 1083.19921875 C-538.20143164 1080.47135003 -536.94361253 1077.87230843 -535.5625 1075.25 C-531.84442817 1067.97181364 -529.00939285 1060.28439482 -526.04394531 1052.67773438 C-525.3667871 1050.94081405 -524.68662775 1049.20505961 -524.00292969 1047.47070312 C-515.16763264 1025.04331898 -507.77608007 1002.27425791 -501.76123047 978.93310547 C-501.05771377 976.22237755 -500.33345136 973.51852321 -499.59765625 970.81640625 C-490.67241941 937.94533094 -484.66137783 903.57425089 -483.2109375 869.5234375 C-483 866 -483 866 -482.52135462 862.78518039 C-480.23849801 846.21100265 -480.8457153 829.20758056 -480.8427946 812.5207132 C-480.84104306 808.82127548 -480.83354568 805.12184828 -480.82681805 801.42241687 C-480.81583123 794.95654552 -480.808417 788.49067799 -480.80341911 782.02479935 C-480.795971 772.41045607 -480.78287852 762.79612611 -480.76867336 753.18179074 C-480.74492923 737.00455236 -480.72569732 720.8273116 -480.70907402 704.65006447 C-480.69260983 688.64213548 -480.67411744 672.63421093 -480.65294075 656.62628746 C-480.65096434 655.13099202 -480.65096434 655.13099202 -480.648948 653.60548859 C-480.64224553 648.54252643 -480.63550706 643.47956431 -480.62875474 638.41660222 C-480.58104418 602.59422675 -480.53784415 566.77184714 -480.49731445 530.94946289 C-480.45794018 496.15746763 -480.41651177 461.36547581 -480.37231445 426.57348633 C-480.37095192 425.50026507 -480.36958939 424.42704381 -480.36818558 423.32130069 C-480.35449971 412.54316548 -480.34077222 401.76503031 -480.32701423 390.98689519 C-480.2989908 369.03233533 -480.27124516 347.07777514 -480.2436676 325.12321472 C-480.2417653 323.60919945 -480.2417653 323.60919945 -480.23982458 322.06459801 C-480.15522777 254.70973759 -480.07710567 187.35486936 -480 120 C-474.3596323 120.66022426 -471.45119733 121.68952723 -466.9375 125.1875 C-435.55426997 148.72275697 -399.95241864 167.38000371 -365 185 C-363.96182129 185.5244873 -362.92364258 186.04897461 -361.85400391 186.58935547 C-334.48502341 200.32076397 -305.88916332 211.88820494 -277 222 C-276.35194397 222.22776123 -275.70388794 222.45552246 -275.03619385 222.69018555 C-200.4958036 248.85594662 -122.01603684 264.87596932 -43.00830078 268.00537109 C-39.97268098 268.12608638 -36.93754133 268.25585352 -33.90234375 268.38671875 C-23.26126379 268.83279469 -12.65093325 269.13250569 -2 269 C-0.8187402 266.63748041 -0.86997928 265.21939761 -0.8613348 262.58406639 C-0.85312313 261.18299332 -0.85312313 261.18299332 -0.84474558 259.75361574 C-0.84376747 258.72055822 -0.84278936 257.68750071 -0.84178162 256.62313843 C-0.83684364 255.5311211 -0.83190566 254.43910377 -0.82681805 253.313995 C-0.81137832 249.63039281 -0.80306495 245.94680812 -0.79467773 242.26318359 C-0.7851043 239.63237858 -0.77509454 237.00157513 -0.76467896 234.37077332 C-0.74289744 228.69426582 -0.72475909 223.01775597 -0.70907402 217.34122849 C-0.68639062 209.13385752 -0.65824569 200.92651249 -0.62875474 192.71916349 C-0.58106004 179.40425845 -0.53780096 166.08934283 -0.49731445 152.77441406 C-0.45796907 139.83788224 -0.41654516 126.90135983 -0.37231445 113.96484375 C-0.36959018 113.16784138 -0.36686591 112.37083901 -0.36405908 111.54968505 C-0.35037976 107.55147917 -0.33665946 103.55327344 -0.32291877 99.55506778 C-0.2089245 66.3700646 -0.10212168 33.18504187 0 0 Z " transform="translate(2330,1005)" style="fill: #EA1653;"/><path d="M0 0 C2.4454217 -0.37489682 2.4454217 -0.37489682 5.59726715 -0.37473011 C7.39359722 -0.38553992 7.39359722 -0.38553992 9.22621679 -0.39656812 C10.56703175 -0.38938995 11.90784522 -0.381931 13.24865723 -0.3742218 C14.66376752 -0.37695993 16.07887579 -0.38100988 17.49397898 -0.38626546 C21.39641796 -0.39689751 25.29862941 -0.3886943 29.20105863 -0.37751496 C33.40424701 -0.36870303 37.60740464 -0.37710772 41.81059265 -0.38337708 C50.05008498 -0.39288475 58.28948998 -0.38624806 66.52897584 -0.37411413 C76.11534112 -0.36052048 85.7016854 -0.36212966 95.28805786 -0.36424746 C112.38753182 -0.36744023 129.48696417 -0.35575319 146.58642578 -0.33618164 C163.19548815 -0.31717626 179.80450175 -0.31009374 196.41357422 -0.31567383 C214.48067725 -0.32172578 232.54775881 -0.32156528 250.61486006 -0.310188 C252.53980478 -0.30898065 254.46474949 -0.30777466 256.38969421 -0.30657005 C257.81052185 -0.30566475 257.81052185 -0.30566475 259.26005307 -0.30474115 C265.94919413 -0.3008548 272.63832722 -0.30125839 279.32746887 -0.3031559 C287.47441822 -0.30527369 295.62132476 -0.30008549 303.76826203 -0.28554235 C307.92844016 -0.27827736 312.0885558 -0.27423915 316.24873924 -0.27878571 C320.05204965 -0.28284127 323.85523065 -0.2777566 327.65852135 -0.26515963 C329.03937329 -0.26221478 330.4202373 -0.26268908 331.80108625 -0.26680271 C333.66829945 -0.27186304 335.53553494 -0.26356902 337.40273285 -0.25447559 C338.44284185 -0.25360882 339.48295085 -0.25274204 340.5545783 -0.251849 C343 0 343 0 345 2 C345.22307577 4.94740761 345.32581759 7.80743579 345.34375 10.7578125 C345.36452858 12.08881989 345.36452858 12.08881989 345.38572693 13.44671631 C345.41542823 15.35095844 345.44124559 17.2552643 345.46359253 19.15960693 C345.72202129 40.20866214 346.18796508 61.23657577 350 82 C347.17635906 82.80086288 344.66830827 83.12677536 341.73678493 83.13307858 C340.88768911 83.13731962 340.03859328 83.14156067 339.16376728 83.14593023 C338.23585552 83.1455441 337.30794375 83.14515797 336.35191345 83.14476013 C334.86763244 83.1500504 334.86763244 83.1500504 333.35336596 83.15544754 C330.02845998 83.16614587 326.70358263 83.16981745 323.37866211 83.17358398 C320.99873229 83.17988821 318.61880364 83.18665387 316.23887634 83.19384766 C311.10970747 83.2085241 305.98054318 83.22024603 300.85136223 83.22979546 C293.43215236 83.24367099 286.01297649 83.26485844 278.59379108 83.28822399 C266.55236286 83.32613264 254.51092852 83.36110202 242.46948242 83.39282227 C241.38846267 83.395673 241.38846267 83.395673 240.28560413 83.39858133 C230.05205554 83.4254287 219.81850214 83.44930012 209.58494354 83.47196633 C208.86396051 83.47356363 208.14297748 83.47516094 207.40014648 83.47680664 C206.68004066 83.47840011 205.95993483 83.47999357 205.21800762 83.48163532 C193.22049961 83.50838213 181.22302806 83.5427703 169.22555929 83.58346039 C162.48782054 83.60603141 155.75011382 83.62467995 149.01234245 83.63390923 C142.67994954 83.64281236 136.34764824 83.66072535 130.01529884 83.68567657 C127.68641891 83.69317537 125.35752508 83.69723453 123.02863312 83.69767189 C119.85934767 83.69874806 116.69034101 83.71193837 113.52110291 83.72825623 C112.12588918 83.72433094 112.12588918 83.72433094 110.70248932 83.72032636 C109.85600124 83.72717516 109.00951316 83.73402395 108.13737392 83.74108028 C107.40554282 83.74281653 106.67371171 83.74455278 105.9197039 83.74634165 C103.67278194 83.89969919 103.67278194 83.89969919 101 86 C99.75687297 91.51999461 99.85853979 97.09538202 99.87169081 102.7252273 C99.86996676 103.69327362 99.86824271 104.66131995 99.86646641 105.65870101 C99.86188756 108.91617582 99.86443524 112.17360619 99.86692142 115.43108273 C99.86508105 117.79471193 99.86280249 120.15834083 99.86012438 122.52196923 C99.8552834 127.6842482 99.85355251 132.84651874 99.85451955 138.00879949 C99.85594461 145.73706988 99.85158923 153.46532965 99.84608656 161.19359784 C99.83687112 174.36462379 99.83234366 187.53564763 99.83033562 200.70667648 C99.82827593 214.05733846 99.82402502 227.4079971 99.81707764 240.75865746 C99.81642113 242.02278438 99.81642113 242.02278438 99.81575136 243.31244921 C99.8135075 247.60957287 99.81122373 251.9066965 99.8089225 256.20382012 C99.80421911 265.01457135 99.79982286 273.82532274 99.79553688 282.63607419 C99.79510515 283.52349352 99.79467343 284.41091286 99.79422862 285.32522369 C99.78435916 305.78157278 99.77770184 326.23792278 99.77112769 346.69427315 C99.76089534 378.48319134 99.74785265 410.27210651 99.73081779 442.0610218 C99.73030489 443.01846176 99.72979198 443.97590171 99.72926353 444.962355 C99.72299641 456.63848288 99.7165966 468.31461068 99.71015793 479.99073846 C99.70034537 497.80131058 99.69081733 515.61188286 99.68130992 533.42245514 C99.68024254 535.42198288 99.67917449 537.42151061 99.67810577 539.42103835 C99.65291758 586.55751294 99.63026332 633.69398863 99.60861443 680.83046497 C99.60717738 683.95854427 99.60573769 687.08662358 99.60429762 690.21470288 C99.58213426 738.38965563 99.56126683 786.56460875 99.54260254 834.73956299 C99.54179074 836.8323621 99.54097887 838.92516121 99.54016693 841.01796033 C99.53651992 850.4218187 99.53288161 859.82567708 99.52924435 869.22953546 C99.52763089 873.40067448 99.52601661 877.57181349 99.52440243 881.74295251 C99.52319367 884.86808907 99.5219868 887.99322564 99.52078002 891.1183622 C99.50258431 938.19498121 99.48289113 985.27159862 99.4570837 1032.34821415 C99.45654196 1033.33773993 99.45600021 1034.3272657 99.45544205 1035.34677711 C99.44407013 1056.09377405 99.43230227 1076.84077075 99.42000187 1097.58776716 C99.41424451 1107.30339016 99.40858966 1117.01901321 99.40299797 1126.73463631 C99.40216994 1128.1694763 99.40216994 1128.1694763 99.40132519 1129.63330295 C99.38359694 1160.44780596 99.37265052 1191.26230688 99.36541818 1222.07681401 C99.35811971 1253.11441238 99.34485548 1284.15200162 99.32313089 1315.18959345 C99.32013116 1319.47930658 99.31720476 1323.76901977 99.31432343 1328.05873299 C99.31347266 1329.32007579 99.31347266 1329.32007579 99.3126047 1330.60690026 C99.30381385 1343.91734651 99.30173161 1357.22778504 99.30246193 1370.53823382 C99.30304462 1383.62923744 99.29653916 1396.72022162 99.28251991 1409.81121792 C99.27451823 1417.48391612 99.27195319 1425.1565692 99.27749696 1432.82926984 C99.28100645 1438.53004052 99.2740948 1444.23076109 99.26317802 1449.93152064 C99.2603974 1452.22012965 99.26094168 1454.50874578 99.26525675 1456.79735241 C99.28643667 1469.05357665 98.87152902 1480.87694143 97 1493 C96.75740176 1494.88730705 96.51921031 1496.77519676 96.2890625 1498.6640625 C94.96424577 1508.76110087 93.0883198 1518.27179262 90 1528 C89.60987305 1529.35542394 89.22468569 1530.71227675 88.84375 1532.0703125 C84.96354157 1545.84458039 80.11971423 1559.05179107 74 1572 C73.46117187 1573.20269531 72.92234375 1574.40539063 72.3671875 1575.64453125 C42.04893797 1642.8058316 -11.68508567 1695.15324285 -80.49267578 1721.76293945 C-103.06678547 1730.27902633 -126.1883524 1736.16811655 -150 1740 C-151.02512695 1740.16516113 -152.05025391 1740.33032227 -153.10644531 1740.50048828 C-199.83081004 1747.6428311 -255.92055868 1745.41531734 -298.97265625 1724.453125 C-301.42223129 1723.27732898 -303.87509779 1722.17976616 -306.37109375 1721.109375 C-325.59530224 1712.81236918 -343.21886555 1702.50521422 -360 1690 C-360.5765332 1689.57509277 -361.15306641 1689.15018555 -361.74707031 1688.71240234 C-365.56575807 1685.89033169 -369.30478186 1682.98168992 -373 1680 C-373.52609863 1679.57831543 -374.05219727 1679.15663086 -374.59423828 1678.72216797 C-384.14921737 1670.97790755 -392.85430983 1662.35416291 -401.5625 1653.6875 C-402.1333432 1653.12192383 -402.7041864 1652.55634766 -403.29232788 1651.97363281 C-409.33937516 1645.96976552 -415.128062 1640.02963286 -420 1633 C-419.67 1632.34 -419.34 1631.68 -419 1631 C-405.48178755 1635.69195425 -405.48178755 1635.69195425 -400.6875 1637.9375 C-383.50098305 1645.80144134 -365.04248416 1650.4561043 -346.5 1653.6875 C-345.33823242 1653.88996338 -344.17646484 1654.09242676 -342.97949219 1654.30102539 C-339.32481375 1654.91073148 -335.66692736 1655.46890508 -332 1656 C-331.35132965 1656.09536041 -330.7026593 1656.19072083 -330.03433228 1656.28897095 C-317.09240463 1658.13380222 -304.20934367 1658.34060903 -291.15161133 1658.31567383 C-287.70296558 1658.31251417 -284.25518117 1658.33606679 -280.80664062 1658.36132812 C-266.95010836 1658.40116996 -253.63365337 1657.50116267 -240 1655 C-238.88294678 1654.79592529 -237.76589355 1654.59185059 -236.61499023 1654.3815918 C-234.01984957 1653.86689228 -231.44866213 1653.29978252 -228.875 1652.6875 C-227.97523438 1652.47802734 -227.07546875 1652.26855469 -226.1484375 1652.05273438 C-216.94221172 1649.84815362 -207.95919776 1647.04290242 -199 1644 C-198.02595215 1643.67515625 -198.02595215 1643.67515625 -197.03222656 1643.34375 C-188.39806126 1640.45516359 -180.18600028 1636.97470534 -172 1633 C-170.81277344 1632.43796875 -169.62554688 1631.8759375 -168.40234375 1631.296875 C-150.26664395 1622.58846086 -133.10068139 1612.04684757 -117 1600 C-116.0728418 1599.30825684 -116.0728418 1599.30825684 -115.12695312 1598.60253906 C-107.31887769 1592.73189963 -100.02815102 1586.44304887 -92.9375 1579.7265625 C-90.96034168 1577.85968655 -88.93359248 1576.09570209 -86.828125 1574.375 C-84.54375838 1572.45663687 -82.65297178 1570.6485505 -80.75 1568.375 C-78.02097697 1565.16227705 -75.1970564 1562.0737833 -72.3125 1559 C-48.101979 1532.3684269 -30.24521671 1499.33241306 -18.80957031 1465.39794922 C-18.07824853 1463.23177232 -17.33474273 1461.07033614 -16.5859375 1458.91015625 C-12.10668861 1445.81591026 -8.85507167 1432.77597019 -6.3125 1419.1875 C-6.09787109 1418.04249023 -5.88324219 1416.89748047 -5.66210938 1415.71777344 C-3.84483415 1405.72275972 -2.84795763 1395.9888356 -2.87169081 1385.82951027 C-2.86996676 1384.84976484 -2.86824271 1383.87001941 -2.86646641 1382.86058473 C-2.86190699 1379.58134366 -2.86442999 1376.30214713 -2.86692142 1373.0229044 C-2.86508008 1370.63649575 -2.86280113 1368.25008741 -2.86012438 1365.86367956 C-2.85529159 1360.66082864 -2.85355094 1355.45798608 -2.85451955 1350.2551334 C-2.85594687 1342.46636455 -2.85158373 1334.6776062 -2.84608656 1326.88883954 C-2.83687949 1313.61401699 -2.83234516 1300.33919653 -2.83033562 1287.06437111 C-2.8282749 1273.61177662 -2.82402131 1260.15918544 -2.81707764 1246.70659256 C-2.81642113 1245.43214295 -2.81642113 1245.43214295 -2.81575136 1244.13194689 C-2.81350748 1239.79966641 -2.81122372 1235.46738594 -2.8089225 1231.13510548 C-2.80421963 1222.25328795 -2.79982323 1213.37147026 -2.79553688 1204.48965251 C-2.79510515 1203.59515895 -2.79467343 1202.70066538 -2.79422862 1201.77906594 C-2.7843629 1181.16784328 -2.77770348 1160.55661971 -2.77112769 1139.94539578 C-2.76089504 1107.92309778 -2.74785165 1075.90080276 -2.73081779 1043.87850761 C-2.73030489 1042.91398996 -2.72979198 1041.94947232 -2.72926353 1040.95572686 C-2.72299654 1029.19359 -2.71659673 1017.43145322 -2.71015793 1005.66931645 C-2.70034587 987.72894366 -2.69081782 969.78857072 -2.68130992 951.84819777 C-2.68024254 949.83421143 -2.67917449 947.8202251 -2.67810577 945.80623876 C-2.65292297 898.33935007 -2.63026496 850.87246028 -2.60861443 803.40556986 C-2.60717738 800.25581481 -2.60573769 797.10605977 -2.60429762 793.95630473 C-2.5821244 745.42586718 -2.56125497 696.89542927 -2.54260254 648.36499023 C-2.54179073 646.25539872 -2.54097886 644.1458072 -2.54016693 642.03621569 C-2.5365198 632.55647407 -2.5328815 623.07673245 -2.52924435 613.59699083 C-2.52763089 609.39203208 -2.52601661 605.18707333 -2.52440243 600.98211457 C-2.52319367 597.83162391 -2.5219868 594.68113324 -2.52078002 591.53064257 C-2.50259183 544.0918019 -2.48290871 496.65296283 -2.4570837 449.21412563 C-2.45627109 447.71942997 -2.45627109 447.71942997 -2.45544205 446.19453843 C-2.44407193 425.30550437 -2.43230434 404.41647056 -2.42000187 383.52743704 C-2.41424427 373.74655208 -2.40858948 363.96566708 -2.40299797 354.18478203 C-2.40216994 352.74027808 -2.40216994 352.74027808 -2.40132519 351.26659223 C-2.38357769 320.21065653 -2.3726442 289.15472292 -2.36541818 258.09878312 C-2.35813059 226.8375681 -2.34489161 195.57636218 -2.32313089 164.31515367 C-2.32013088 160.00130249 -2.31720454 155.68745127 -2.31432343 151.37360001 C-2.31375625 150.52792452 -2.31318907 149.68224904 -2.3126047 148.81094703 C-2.30379055 135.38815598 -2.30173308 121.96537258 -2.30246193 108.542579 C-2.30304251 95.36325045 -2.29659114 82.18394129 -2.28251991 69.00462005 C-2.27447503 61.26573228 -2.27198695 53.52688942 -2.27749696 45.78799916 C-2.28097334 40.06137557 -2.27417248 34.33480267 -2.26317802 28.60819029 C-2.26036969 26.29205437 -2.26098563 23.97591142 -2.26525675 21.65977773 C-2.27053938 18.5374403 -2.26372252 15.41536548 -2.25365835 12.29304558 C-2.25813499 11.38341374 -2.26261163 10.47378191 -2.26722392 9.53658547 C-2.26203514 8.71067457 -2.25684636 7.88476367 -2.25150034 7.03382516 C-2.25106224 5.9655588 -2.25106224 5.9655588 -2.2506153 4.87571131 C-2 3 -2 3 0 0 Z " transform="translate(1505,452)" style="fill: #0CB9C5;"/><path d="M0 0 C1.3481076 0.1305629 1.3481076 0.1305629 2.72344971 0.26376343 C5.25970934 0.5159695 7.79411851 0.78082432 10.328125 1.0546875 C11.41681381 1.17048409 11.41681381 1.17048409 12.52749634 1.28862 C16.25411718 1.71943333 19.96042266 2.27080534 23.65136719 2.94189453 C24.3874823 3.07145538 25.12359741 3.20101624 25.88201904 3.33450317 C27.75 4.125 27.75 4.125 28.99197388 5.7517395 C30.02850406 8.99695238 29.98880079 11.87276978 29.97705078 15.28027344 C29.97734283 15.99286819 29.97763489 16.70546295 29.97793579 17.43965149 C29.97654577 19.78801781 29.96100022 22.13606431 29.9453125 24.484375 C29.9415812 26.11533434 29.93873478 27.74629592 29.93673706 29.3772583 C29.9291098 33.66479711 29.90946912 37.9521999 29.8873291 42.23968506 C29.86685112 46.61680257 29.85773117 50.99394212 29.84765625 55.37109375 C29.82622235 63.95579151 29.79209739 72.54037882 29.75 81.125 C26.84601612 82.09299463 24.94585228 82.26173138 21.921875 82.30078125 C-6.63757614 82.89676884 -35.18012349 85.80218711 -63.25 91.125 C-64.71864402 91.39640744 -66.18738845 91.66727228 -67.65625 91.9375 C-70.26004394 92.41940912 -72.86059118 92.9133747 -75.4609375 93.4140625 C-78.13133196 93.91510558 -80.79700122 94.39117176 -83.4765625 94.8359375 C-91.60620782 96.19133691 -99.48836457 97.8706867 -107.4375 100.09375 C-110.80933939 101.00580492 -114.17935037 101.81123822 -117.5859375 102.57617188 C-125.04768644 104.25304506 -132.2185732 106.33693099 -139.453125 108.84765625 C-143.42834858 110.21375155 -147.45684914 111.35453379 -151.5 112.5 C-160.06932634 114.96373017 -168.38670995 117.99257922 -176.71728516 121.16162109 C-179.37554525 122.17275415 -182.03718457 123.17463004 -184.69921875 124.17578125 C-186.52885149 124.8666431 -188.35828328 125.5580374 -190.1875 126.25 C-191.01475586 126.56235596 -191.84201172 126.87471191 -192.69433594 127.1965332 C-204.72844705 131.78044422 -216.37182248 136.9808918 -227.9375 142.625 C-228.65687744 142.97537323 -229.37625488 143.32574646 -230.11743164 143.68673706 C-273.17239117 164.67561415 -313.90014572 189.00947081 -351.25 219.125 C-352.19101562 219.88296875 -353.13203125 220.6409375 -354.1015625 221.421875 C-356.8313472 223.64031674 -359.54461986 225.87686721 -362.25 228.125 C-363.01328613 228.75873535 -363.01328613 228.75873535 -363.79199219 229.40527344 C-371.23856471 235.60245142 -378.46734499 241.98515712 -385.56274414 248.58129883 C-386.81668301 249.72855038 -388.08360921 250.86163973 -389.35717773 251.98706055 C-396.20485944 258.05199088 -402.70161673 264.42311018 -409.15551758 270.90014648 C-410.9417467 272.6917595 -412.73329347 274.47793055 -414.52539062 276.26367188 C-420.31479998 282.04971961 -425.95463217 287.87735753 -431.25 294.125 C-432.70445517 295.73268373 -434.16220895 297.33739715 -435.625 298.9375 C-439.46806298 303.20110017 -443.14322734 307.57052273 -446.75 312.03515625 C-448.57003572 314.28460665 -450.40218882 316.51973792 -452.25 318.74609375 C-459.75008622 327.81750688 -466.78371031 337.14337517 -473.57324219 346.75683594 C-475.29032327 349.18195046 -477.02327165 351.59516291 -478.7578125 354.0078125 C-486.37380784 364.66581093 -493.32947208 375.57782713 -499.93310547 386.88818359 C-501.10190265 388.87344867 -502.29307259 390.84097831 -503.50390625 392.80078125 C-551.29880615 470.28147863 -580.40074952 561.42204818 -591.5 745.4375 C-591.43514908 746.68614838 -591.43514908 746.68614838 -591.36898804 747.96002197 C-589.24209144 787.83827317 -584.0570489 827.77054262 -573.94091797 866.45068359 C-573.24500097 869.14434958 -572.58768878 871.84480951 -571.94140625 874.55078125 C-569.83421558 883.32938638 -567.46573416 891.86967965 -564.50390625 900.40234375 C-563.11341781 904.53049167 -561.88995204 908.68923173 -560.6875 912.875 C-558.79794337 919.40308762 -556.6683768 925.7713434 -554.25 932.125 C-553.7915205 933.3809827 -553.33460223 934.63753596 -552.87890625 935.89453125 C-550.13082179 943.4250435 -547.13506461 950.71396978 -543.69140625 957.9609375 C-541.75282066 962.21636928 -540.12550353 966.56555239 -538.5234375 970.95703125 C-537.28161071 974.0463611 -535.86746689 976.95855356 -534.35693359 979.92163086 C-533.17693178 982.27044347 -532.05674322 984.64143834 -530.9453125 987.0234375 C-505.05665913 1042.32294096 -470.60217513 1095.68797838 -428.45703125 1140.15625 C-427.50074829 1141.16546509 -427.50074829 1141.16546509 -426.52514648 1142.19506836 C-425.28840029 1143.49188009 -424.04474012 1144.78214457 -422.79321289 1146.06469727 C-419.75395394 1149.2386867 -417.50899825 1151.80025925 -416.25 1156.125 C-425.60955641 1151.97643986 -433.36342676 1146.54741753 -441.25 1140.125 C-442.55680384 1139.07491346 -443.86411355 1138.02545621 -445.171875 1136.9765625 C-452.07997431 1131.41634447 -458.91082652 1125.77021125 -465.65698242 1120.01464844 C-469.08047803 1117.09689041 -472.55626888 1114.25500715 -476.0625 1111.4375 C-479.99117422 1108.24331705 -483.62089272 1104.91445732 -487.10546875 1101.2421875 C-488.88075416 1099.48953778 -490.67957864 1097.89776316 -492.578125 1096.28515625 C-498.62189817 1091.03637761 -504.21116659 1085.31269211 -509.85913086 1079.64624023 C-511.8079687 1077.69204376 -513.76209272 1075.74324853 -515.71679688 1073.79492188 C-521.77453257 1067.7404238 -527.72343234 1061.67511939 -533.25 1055.125 C-534.70445517 1053.51731627 -536.16220895 1051.91260285 -537.625 1050.3125 C-541.46928245 1046.04754692 -545.14526905 1041.6763915 -548.75390625 1037.2109375 C-550.56198156 1034.97560183 -552.38112763 1032.75311795 -554.21484375 1030.5390625 C-588.72420466 988.73689683 -619.76456532 940.39379007 -639.734375 889.875 C-641.14281421 886.32674698 -642.73408146 882.88508644 -644.375 879.4375 C-646.91480607 874.03451732 -648.97067222 868.55714715 -650.87890625 862.90234375 C-651.98224767 859.73246164 -653.28132574 856.66519686 -654.59765625 853.578125 C-657.44315831 846.80434714 -659.81937664 839.91089386 -662.125 832.9375 C-662.33932678 832.29214294 -662.55365356 831.64678589 -662.7744751 830.98187256 C-667.02837143 818.14696948 -670.80665249 805.2015791 -674.25 792.125 C-674.56275879 790.93849854 -674.56275879 790.93849854 -674.88183594 789.72802734 C-686.49151476 745.29604406 -693.61855214 698.11182337 -694.25 652.125 C-694.25988953 651.48336914 -694.26977905 650.84173828 -694.27996826 650.18066406 C-694.96545141 604.53401505 -691.40048482 560.05480664 -683.25 515.125 C-683.0636499 514.07763672 -682.8772998 513.03027344 -682.68530273 511.95117188 C-681.71542364 506.52247151 -680.65306323 501.12896217 -679.4375 495.75 C-679.26718262 494.99452881 -679.09686523 494.23905762 -678.92138672 493.46069336 C-678.55612878 491.84859406 -678.1892351 490.23686461 -677.82080078 488.62548828 C-677.43596414 486.93964702 -677.0541934 485.25310333 -676.67529297 483.56591797 C-674.1685575 472.42882054 -671.26807703 461.54278399 -667.72265625 450.69140625 C-666.27610087 446.25938675 -664.97250766 441.79351327 -663.6875 437.3125 C-661.51037568 429.80008252 -658.97994541 422.45615904 -656.25 415.125 C-655.75894362 413.79042748 -655.26806433 412.45578978 -654.77734375 411.12109375 C-650.77156396 400.2795035 -646.41545435 389.64231881 -641.61743164 379.12524414 C-640.26928399 376.16731047 -638.93141443 373.20487374 -637.59375 370.2421875 C-615.75402154 322.14022399 -588.29253672 275.69181796 -554.25 235.125 C-552.83219009 233.3759261 -551.41556182 231.62589382 -550 229.875 C-535.68836113 212.41331236 -520.31000468 196.10112245 -504.375 180.125 C-503.78700623 179.53432739 -503.19901245 178.94365479 -502.59320068 178.33508301 C-496.32041981 172.04064243 -490.01970305 165.88926195 -483.25 160.125 C-481.47429779 158.50532183 -479.70291693 156.88088282 -477.9375 155.25 C-472.53508543 150.3292822 -466.94831141 145.69707447 -461.25 141.125 C-460.12979484 140.21274711 -459.01002295 139.29996197 -457.890625 138.38671875 C-447.92546973 130.29164517 -437.66461743 122.63079151 -427.25 115.125 C-426.00911621 114.23047119 -426.00911621 114.23047119 -424.74316406 113.31787109 C-413.90114484 105.53660817 -402.887244 98.19857203 -391.40283203 91.39990234 C-389.30361777 90.15675232 -387.2118799 88.90179132 -385.12109375 87.64453125 C-362.63111612 74.18956008 -339.44526942 61.35689415 -315.0625 51.671875 C-311.53869842 50.26587817 -308.11445237 48.69198225 -304.6875 47.0625 C-298.19779096 44.0323785 -291.56742182 41.49103192 -284.8359375 39.06005859 C-282.94648049 38.37684293 -281.05868459 37.68902845 -279.171875 36.99853516 C-246.99735493 25.22771146 -214.63374366 15.78504619 -180.90673828 9.62744141 C-177.70867123 9.02262409 -174.54387983 8.30415273 -171.375 7.5625 C-153.55318979 3.68052154 -135.2689411 1.82902088 -117.1015625 0.51953125 C-114.44901663 0.32471431 -111.931418 0.06915296 -109.30859375 -0.390625 C-74.46913465 -5.90798506 -34.9045888 -3.39155911 0 0 Z " transform="translate(1271.25,1189.875)" style="fill: #0CB9C5;"/><path d="M0 0 C93 0 93 0 101 8 C101.24954766 10.46465778 101.24954766 10.46465778 101.24888897 13.64411926 C101.25578716 15.45612462 101.25578716 15.45612462 101.26282471 17.30473614 C101.25780892 18.65734105 101.25260665 20.00994527 101.24723816 21.36254883 C101.24882507 22.79003168 101.25128748 24.21751379 101.25455457 25.64499378 C101.2609932 29.58159468 101.25488061 33.51809338 101.24679029 37.4546876 C101.24023231 41.69467921 101.24515761 45.93465905 101.24867249 50.1746521 C101.25372331 58.48631844 101.2480618 66.7979451 101.23882218 75.1096065 C101.22845716 84.7799282 101.22850787 94.45024123 101.22899476 104.12056744 C101.22949582 121.36977471 101.22032217 138.61896347 101.20581055 155.86816406 C101.19172226 172.62272479 101.18463974 189.37726921 101.18530273 206.13183594 C101.18534269 207.16368015 101.18538265 208.19552437 101.18542381 209.25863659 C101.18546417 210.28866075 101.18550452 211.3186849 101.1855461 212.37992191 C101.18623529 231.42949612 101.18034963 250.47906337 101.17139288 269.52863532 C101.16837154 276.27638414 101.16731273 283.02413168 101.16686058 289.7718811 C101.16617966 297.99018343 101.16173201 306.20847405 101.15252777 314.4267714 C101.14789882 318.62338937 101.1448683 322.81999231 101.14612198 327.01661301 C101.14721256 330.85319474 101.1437261 334.68974317 101.13647345 338.52631795 C101.1346519 339.9192847 101.13453776 341.31225487 101.13624074 342.70522177 C101.13828966 344.58877535 101.13366209 346.47233275 101.12863445 348.35588074 C101.12793003 349.40510303 101.1272256 350.45432531 101.12649983 351.53534222 C101 354 101 354 100 356 C98.08223178 355.73708016 96.16584537 355.46408331 94.25 355.1875 C93.18265625 355.03667969 92.1153125 354.88585938 91.015625 354.73046875 C87.77633313 354.1992147 84.63751578 353.41463951 81.4609375 352.58984375 C74.48995755 350.81287403 67.46741654 349.56072908 60.375 348.375 C58.53615234 348.05015625 58.53615234 348.05015625 56.66015625 347.71875 C40.34027447 344.97334933 23.89110818 344.76348157 7.375 344.75 C6.50558777 344.74899292 5.63617554 344.74798584 4.74041748 344.74694824 C-15.6738989 344.76284615 -35.20165026 346.96345231 -55 352 C-55.65790527 352.1664502 -56.31581055 352.33290039 -56.99365234 352.50439453 C-61.34446126 353.61572475 -65.6733265 354.79866766 -70 356 C-71.22976563 356.33 -72.45953125 356.66 -73.7265625 357 C-79.65672831 358.62539877 -85.26725808 360.37131337 -90.8203125 363.015625 C-93.19530965 364.08820436 -95.59426945 364.91504961 -98.0625 365.75 C-129.47326183 377.04570965 -159.22366279 398.14970888 -183.546875 420.73046875 C-185.70242371 422.72469454 -187.89486135 424.65283403 -190.125 426.5625 C-197.33747773 432.86423716 -203.72143491 439.65777487 -209.6953125 447.140625 C-211.21984903 449.03208388 -212.77711945 450.89766273 -214.3671875 452.734375 C-233.93480902 475.36529829 -248.83977775 502.94467663 -259 531 C-259.48625687 532.2815243 -259.97327365 533.56276044 -260.4609375 534.84375 C-264.37131563 545.30382458 -267.03782401 555.88857699 -269.47094727 566.77758789 C-269.91474554 568.64186831 -270.45254087 570.48342548 -271.01171875 572.31640625 C-272.46879929 577.74734282 -273.23355422 583.2557266 -274.0625 588.8125 C-274.23587891 589.93720703 -274.40925781 591.06191406 -274.58789062 592.22070312 C-276.130036 602.38940883 -277.15552242 612.33543596 -277.16796875 622.625 C-277.17129715 623.61137451 -277.17462555 624.59774902 -277.17805481 625.61401367 C-277.18308676 627.69140156 -277.1854643 629.76879743 -277.18530273 631.84619141 C-277.18747493 634.96400913 -277.20563174 638.08146404 -277.22460938 641.19921875 C-277.27130049 657.38984427 -276.11526792 673.04378079 -272.875 688.9375 C-272.66472168 689.97398682 -272.45444336 691.01047363 -272.23779297 692.07836914 C-266.99536143 716.85487864 -258.87501577 740.64476577 -247 763 C-246.30849854 764.30904297 -246.30849854 764.30904297 -245.60302734 765.64453125 C-239.86862803 776.45893152 -234.01303047 786.95824736 -227 797 C-222 804.5794621 -222 804.5794621 -222 807 C-248.02008801 799.40738757 -271.89817043 777.4200272 -291 759 C-291.58555664 758.43635742 -292.17111328 757.87271484 -292.77441406 757.29199219 C-300.39919898 749.91172202 -307.43871211 742.35485794 -314 734 C-314.91647709 732.89351338 -315.83591783 731.78947691 -316.7578125 730.6875 C-365.4717793 672.01480628 -384.76181146 595.51588283 -377.8125 520.375 C-374.99282165 492.79625167 -369.21790674 465.45249607 -358 440 C-357.65630371 439.19949219 -357.31260742 438.39898438 -356.95849609 437.57421875 C-343.82978543 407.05547679 -326.09541866 379.7684809 -304 355 C-303.48373047 354.42056641 -302.96746094 353.84113281 -302.43554688 353.24414062 C-297.20909742 347.40891019 -291.97339843 341.66809748 -285.9453125 336.640625 C-284.59464721 335.50150969 -283.27853877 334.3206474 -281.9921875 333.109375 C-261.50030195 313.83129451 -237.01319791 299.5368015 -212 287 C-210.36998047 286.15888672 -210.36998047 286.15888672 -208.70703125 285.30078125 C-191.57973788 276.86426022 -172.57391417 271.25444916 -154 267 C-152.84685303 266.73195557 -152.84685303 266.73195557 -151.67041016 266.45849609 C-115.92571738 258.30490555 -78.20275629 257.19634817 -42 263 C-41.22914063 263.11746582 -40.45828125 263.23493164 -39.6640625 263.35595703 C-31.00413477 264.69832399 -22.59637108 266.80447855 -14.19921875 269.28662109 C-13.4928125 269.49367676 -12.78640625 269.70073242 -12.05859375 269.9140625 C-11.44298584 270.0992041 -10.82737793 270.2843457 -10.19311523 270.47509766 C-7.17219305 271.19812812 -4.07502341 271.56071094 -1 272 C-0.67 182.24 -0.34 92.48 0 0 Z " transform="translate(1301,1271)" style="fill: #EA1653;"/><path d="M0 0 C0.85407944 -0.0065712 1.70815887 -0.0131424 2.58811951 -0.01991272 C5.40892629 -0.03959461 8.22968014 -0.05129302 11.05053711 -0.0612793 C12.01398985 -0.06535482 12.97744259 -0.06943035 13.97009087 -0.07362938 C19.06339172 -0.09446197 24.1566658 -0.10877941 29.25 -0.11816406 C34.51849229 -0.12926077 39.78656596 -0.16370599 45.05490971 -0.20333576 C49.10144357 -0.2294201 53.14787606 -0.23784828 57.19448662 -0.24144554 C59.13742356 -0.24632777 61.08035549 -0.25798796 63.02321053 -0.27648354 C65.73586972 -0.30071544 68.447423 -0.29994021 71.16015625 -0.29296875 C71.96595123 -0.30577881 72.77174622 -0.31858887 73.60195923 -0.33178711 C79.00501903 -0.28100419 79.00501903 -0.28100419 81.51551819 1.97195435 C83.07368959 5.40826838 82.89591903 8.83337416 82.85131836 12.5324707 C82.85971389 14.26676925 82.8691189 16.00106313 82.87939453 17.73535156 C82.88023041 18.6517038 82.88106628 19.56805603 82.88192749 20.51217651 C82.9778179 52.86740062 86.66020046 84.76646867 94.51538086 116.17700195 C94.86487793 117.59770996 94.86487793 117.59770996 95.22143555 119.04711914 C98.02261787 130.28740644 101.44474089 141.30477543 105.07788086 152.30200195 C105.62375854 153.95534546 105.62375854 153.95534546 106.18066406 155.64208984 C108.64822766 162.96398577 111.45432476 170.08407763 114.51538086 177.17700195 C114.83047607 177.91305664 115.14557129 178.64911133 115.47021484 179.4074707 C116.29015611 181.3132421 117.119507 183.21457178 117.95288086 185.11450195 C118.21391602 185.71456055 118.47495117 186.31461914 118.74389648 186.93286133 C137.7351997 230.32240349 161.28954988 271.6780243 192.44897461 307.56762695 C192.95614014 308.15519775 193.46330566 308.74276855 193.98583984 309.34814453 C194.98759963 310.5050052 195.99601355 311.65614496 197.01171875 312.80078125 C200.51538086 316.84423193 200.51538086 316.84423193 200.51538086 320.17700195 C197.00215802 318.87661293 194.00772532 317.34289982 190.89038086 315.27075195 C190.02525879 314.69671631 189.16013672 314.12268066 188.26879883 313.53125 C187.3601709 312.91934814 186.45154297 312.30744629 185.51538086 311.67700195 C184.57710449 311.04769775 183.63882813 310.41839355 182.67211914 309.77001953 C175.38212193 304.84246332 168.3630624 299.70237257 161.51538086 294.17700195 C160.61174805 293.45383789 159.70811523 292.73067383 158.77709961 291.9855957 C156.00195304 289.74057843 153.25802698 287.46161214 150.51538086 285.17700195 C149.52199707 284.35603027 148.52861328 283.53505859 147.50512695 282.68920898 C138.44915887 275.12054347 130.0506142 266.99061601 121.74462891 258.61206055 C119.56140108 256.4103829 117.37008242 254.21700663 115.17749023 252.0246582 C113.75969739 250.60195445 112.34236302 249.17879364 110.92553711 247.75512695 C110.28375015 247.11222717 109.6419632 246.46932739 108.98072815 245.8069458 C104.63696963 241.41812393 100.54057894 236.85836075 96.51538086 232.17700195 C95.66975586 231.2127832 94.82413086 230.24856445 93.95288086 229.25512695 C85.63638595 219.60586042 78.06252402 209.43343135 70.51538086 199.17700195 C70.04745117 198.54681152 69.57952148 197.91662109 69.09741211 197.26733398 C57.42681138 181.53446646 47.00328634 164.83435434 37.78686523 147.55541992 C36.90449574 145.90487391 36.01463225 144.25832085 35.11889648 142.61499023 C24.73970213 123.57145506 15.85784239 103.9211474 8.68530273 83.44360352 C7.66243277 80.58759346 6.57080008 77.78301001 5.41772461 74.9777832 C3.33882471 69.85928758 1.67169532 64.65175847 0.07788086 59.36450195 C-0.22287354 58.37184326 -0.52362793 57.37918457 -0.83349609 56.35644531 C-3.56680244 47.17966951 -5.79430874 37.91887503 -7.91723633 28.58569336 C-8.46648342 26.25399292 -9.06127028 23.94037869 -9.67993164 21.6262207 C-11.53741206 14.66760002 -13.00141431 8.41213439 -12.48461914 1.17700195 C-8.32557148 0.01876783 -4.29018163 0.01435221 0 0 Z " transform="translate(1868.484619140625,533.822998046875)" style="fill: #EA1653;"/><path d="M0 0 C4.69117537 0.61002256 8.49285151 2.6063453 12.6171875 4.7890625 C13.35139923 5.17057465 14.08561096 5.55208679 14.84207153 5.94515991 C17.18950578 7.16588784 19.53250352 8.39482711 21.875 9.625 C36.63798192 17.35220636 51.34971682 24.79849629 66.9375 30.75 C67.89978516 31.12253906 68.86207031 31.49507812 69.85351562 31.87890625 C74.05721741 33.50299854 78.26875064 35.10376444 82.4921875 36.67578125 C84.75078686 37.52841509 86.98676728 38.4450127 89.1875 39.4375 C99.20342845 43.74590381 110.06859417 46.11883644 120.6015625 48.8059082 C126.04428221 50.19971854 131.42915319 51.71041496 136.80395508 53.34594727 C149.32462222 57.07500422 162.51839926 58.59603954 175.41113281 60.47070312 C178.97292714 60.99600721 182.52905033 61.55193049 186.0859375 62.109375 C201.95676256 64.50262863 217.52043197 65.53151614 233.54833984 65.76049805 C234.67219589 65.77747742 234.67219589 65.77747742 235.8187561 65.7947998 C237.86053687 65.82253647 239.90244176 65.84065594 241.94433594 65.8581543 C245 66 245 66 247 67 C248.14346098 70.43038294 248.120116 73.0563175 248.11352539 76.67456055 C248.11367142 77.347995 248.11381744 78.02142944 248.1139679 78.715271 C248.11327175 80.93911979 248.10549332 83.16288461 248.09765625 85.38671875 C248.09579101 86.92942764 248.09436761 88.47213711 248.09336853 90.0148468 C248.08955169 94.07383868 248.07972851 98.13279473 248.06866455 102.19177246 C248.05843252 106.33422359 248.05386707 110.4766805 248.04882812 114.61914062 C248.03810551 122.74611018 248.02103907 130.87305063 248 139 C241.05313796 138.295935 234.41726218 137.13085693 227.625 135.5 C226.55080811 135.24226807 225.47661621 134.98453613 224.36987305 134.71899414 C211.66671698 131.56315268 199.34347839 127.32612341 187 123 C185.53666432 122.49549587 184.07315357 121.99149891 182.609375 121.48828125 C163.49872628 114.81639178 144.93770173 106.2729025 126.95214844 97.00488281 C125.64765183 96.33338356 124.34098782 95.66607869 123.03222656 95.00292969 C92.45391059 79.49653232 63.92309745 59.89324269 37.9609375 37.52734375 C35.26673249 35.22767272 32.52332519 33.01533638 29.75 30.8125 C24.74342738 26.72625323 19.98155756 22.40079702 15.25 18 C14.54069336 17.34749268 13.83138672 16.69498535 13.10058594 16.02270508 C8.20009645 11.4154416 3.8457551 6.53110962 0 1 C0 0.67 0 0.34 0 0 Z " transform="translate(2082,865)" style="fill: #0CB9C5;"/></svg>