<svg width="564" height="653" viewBox="0 0 564 653" fill="none" xmlns="http://www.w3.org/2000/svg">
<g clip-path="url(#clip0_4335_1450)">
<path d="M453.811 126.16C477.518 151.632 507.083 167.155 536.879 174.22V155.092C508.882 153.025 479.595 143.845 453.811 126.16ZM282.553 0V427.739C282.553 483.778 243.901 519.824 196.902 519.824C181.312 519.824 166.507 516.027 153.638 509.009C169.966 530.733 195.75 543.229 224.023 543.229C271.023 543.229 309.675 507.184 309.675 451.096V23.357H384.165C382.135 15.9083 380.474 8.12179 379.182 0H282.553ZM221.44 248.666V227.47C212.031 225.837 202.622 225.308 194.827 225.308C88.7878 225.308 0 313.979 0 423.943C0 496.13 33.7164 557.84 84.9597 594.365C49.2601 557.456 27.1209 505.791 27.1209 447.301C27.1209 337.529 115.632 248.906 221.44 248.666Z" fill="#2DCCD3"/>
<path d="M390.116 420.675C390.116 557.263 289.843 629.642 195.335 629.642C154.423 629.642 116.418 616.763 84.9609 594.366C120.292 630.892 168.908 653 222.456 653C316.963 653 417.235 580.621 417.235 444.033V221.463C407.827 214.831 398.786 207.094 390.116 198.058V420.675ZM153.64 509.011C142.108 493.823 135.236 474.166 135.236 451.097C135.236 386.36 183.804 352.141 248.561 359.253V250.829C239.153 249.194 229.744 248.665 221.903 248.665H221.442V335.848C156.684 328.783 108.116 362.954 108.116 427.74C108.116 465.61 126.703 494.351 153.64 509.011ZM536.88 174.22V255.202C493.848 255.202 453.12 246.647 417.235 221.463C459.024 265.007 509.714 278.608 564.001 278.608V178.45C554.866 177.811 545.795 176.396 536.88 174.22ZM453.812 126.159C430.889 101.6 413.407 67.7653 406.304 23.3574H384.166C396.803 71.3704 422.817 104.868 453.812 126.159Z" fill="#F1204A"/>
<path d="M195.334 629.641C289.841 629.641 390.114 557.261 390.114 420.674V198.058C398.786 207.093 407.826 214.831 417.235 221.462C453.118 246.646 493.846 255.201 536.879 255.201V174.219C507.084 167.154 477.519 151.63 453.811 126.159C422.815 104.867 396.803 71.3691 384.164 23.3574H309.674V451.097C309.674 507.183 271.022 543.228 224.023 543.228C195.749 543.228 169.966 530.734 153.638 509.01C126.702 494.351 108.114 465.61 108.114 427.74C108.114 362.953 156.682 328.782 221.44 335.847V248.665C115.632 248.906 27.1211 337.529 27.1211 447.299C27.1211 505.79 49.2602 557.454 84.9611 594.364C116.417 616.762 154.422 629.641 195.334 629.641Z" fill="black"/>
</g>
<defs>
<clipPath id="clip0_4335_1450">
<rect width="564" height="653" fill="white"/>
</clipPath>
</defs>
</svg>
