<svg width="45" height="40" viewBox="0 0 45 40" fill="none" xmlns="http://www.w3.org/2000/svg">
<path d="M44.9184 11.0264C44.8238 11.8531 44.4021 12.6412 44.0914 13.4106C43.7294 14.3065 43.3673 15.2013 43.0124 16.0991C42.7337 16.8023 42.5495 17.7534 42.0455 18.3411C41.5425 18.9268 40.7402 18.8745 40.0222 18.915C39.0368 18.9703 38.0514 19.0285 37.066 19.0848C35.0931 19.1974 33.1171 19.2774 31.1534 19.5036C29.4871 19.6962 27.8279 19.9708 26.4228 20.913C23.5766 22.8192 22.4277 26.4825 23.373 29.6283C24.2175 32.4372 27.1603 34.4708 30.2277 33.5632C31.5978 33.1572 32.8239 32.1607 33.2343 30.8135C33.6324 29.5088 33.2889 27.7201 31.8303 27.1749C30.6587 26.7373 28.7979 27.4682 29.5097 28.8915C29.7761 29.4248 30.6021 29.6569 30.276 30.37C29.9654 31.0515 29.0047 30.9725 28.4111 30.7512C25.35 29.6095 26.6049 25.3793 28.8606 24.1763C31.7727 22.6227 35.4243 23.8099 37.0402 26.4884C38.6397 29.1403 38.1583 32.6772 36.3994 35.1444C34.5942 37.6778 31.5176 39.3608 28.3906 39.8349C22.0759 40.79 15.36 37.5158 12.1929 32.2357C10.4699 29.3636 9.7674 26.0065 9.70979 22.7185C9.70054 22.1861 10.0441 20.6562 9.53184 20.4686C9.20166 20.3471 8.44665 20.51 8.10515 20.5239C7.6721 20.5417 7.24213 20.5733 6.81011 20.5989C5.87921 20.6533 4.9082 20.7402 3.97729 20.6987C3.29223 20.6681 2.81495 20.4982 2.60203 19.8335C2.04657 18.0991 1.91388 16.1297 1.6269 14.3391C1.32962 12.4882 1.01281 10.6392 0.706281 8.78931C0.548902 7.83818 0.39358 6.88607 0.252659 5.93197C0.172427 5.38875 -0.267823 4.13539 0.243401 3.69983C0.769027 3.25142 2.30167 3.6781 2.90856 3.7502C3.8446 3.86279 4.78065 3.97835 5.71566 4.09687C7.70193 4.34873 9.68511 4.61639 11.6693 4.88109C12.735 5.02331 13.8006 5.16455 14.8673 5.30776C15.2921 5.36505 15.718 5.43715 16.1459 5.48061C16.7476 5.54184 16.833 5.43023 17.3031 5.06183C18.6804 3.98329 20.1359 2.9966 21.6603 2.11856C22.5264 1.6188 23.412 1.13879 24.3296 0.729891C24.6999 0.56495 25.0774 0.41186 25.4621 0.279512C25.7964 0.163954 26.2274 0.116546 26.5853 0L27.8835 0.079014C29.0458 0.744707 29.4254 2.54129 29.9098 3.6297C30.3038 4.51762 30.6864 5.41542 31.138 6.27865C31.5001 6.97298 31.7737 7.64262 32.6223 7.80855C34.4594 8.16807 36.3778 8.31128 38.2355 8.56017C39.3217 8.70635 40.4079 8.85253 41.4942 9.00068C42.4312 9.12809 43.5257 9.13204 44.4268 9.40365C45.1982 9.63674 44.9935 10.3755 44.9184 11.0264Z" fill="url(#paint0_linear_4124_1707)" fill-opacity="0.5"/>
<defs>
<linearGradient id="paint0_linear_4124_1707" x1="22.5" y1="0" x2="22.5" y2="40" gradientUnits="userSpaceOnUse">
<stop stop-color="#9A9799"/>
<stop offset="1" stop-color="#222122"/>
</linearGradient>
</defs>
</svg>
