<?xml version="1.0" encoding="UTF-8"?>
<svg id="Capa_1" data-name="Capa 1" xmlns="http://www.w3.org/2000/svg" xmlns:xlink="http://www.w3.org/1999/xlink" viewBox="0 0 1080 1080">
  <defs>
    <linearGradient id="Degradado_sin_nombre_7" data-name="Degradado sin nombre 7" x1="49.24" y1="563.3" x2="1055.06" y2="563.3" gradientUnits="userSpaceOnUse">
      <stop offset="0" stop-color="#4ab968"/>
      <stop offset="1" stop-color="#2db274"/>
    </linearGradient>
  </defs>
  <path fill="url(#Degradado_sin_nombre_7)" d="m635.73,90.32h26.37c16.29,7.25,23.7,22.58,30.24,38.1,7.91,18.76,15.48,37.68,23.34,56.46,12.28,29.36,24.3,85.82,60.49,90.99,42.18,6.02,84.14,13.79,126.37,19.31,21.29,2.78,42.14,6.64,63.25,10.43,19.93,3.58,40.19,2.69,60.18,6.42,17.01,3.17,32.76,4.43,28.35,24.75-4.1,18.87-14.12,38.13-20.93,56.19-8.55,22.7-17.16,45.39-25.72,68.09-7.2,19.12-12.49,40.95-22.21,58.89-8.19,15.1-20.62,17.72-36.77,18.93-20.34,1.53-40.73,2.98-61.1,4.12-43.05,2.39-85.84,6.24-128.77,10.14-37.6,3.42-76.11,6.59-109.77,25.25-63.15,35.01-94.7,111.74-86.61,181.62,7.97,68.84,58.56,133.73,133.94,126.73,61-5.67,123.1-82.7,74.9-138.98-18.01-21.02-71.87-25.74-70.5,13.23.6,17.1,19.3,22.04,21.86,37.25,2.53,15.01-11,23.88-24.42,24.67-33.91,2-56.22-31.49-60.73-61.42-4.53-30,6.53-61.44,27.39-83.19,50.13-52.28,143.13-39.32,188.16,12.29,46.72,53.54,49.38,136.24,20.93,198.93-31.88,70.25-99.44,120.79-173.8,138.41-161.24,38.2-332.35-58.59-398.23-207.24-16.4-37-27.23-76.48-33.17-116.47-3.32-22.35-4.93-44.92-5.51-67.5-.26-10.11-.28-20.23.03-30.33.16-5.44,4.34-22.7.81-27.61-4.24-5.89-21.81-1.26-28.2-.98-12.27.53-24.53,1.02-36.8,1.52-18.79.77-37.59,1.48-56.39,2.09-11.87.39-23.98,1.11-31.72-9.48-9.26-12.67-9.36-33.24-11.81-47.99-14.65-87.98-27.73-176.2-41.39-264.33-3.06-19.74-8.15-40.6-8.55-60.61-.53-26.44,360.73,27.25,375.85,17.39,34.14-22.25,64.13-50.98,99.03-72.64,34.95-21.7,72.58-40.31,111.61-53.41Z"/>
</svg>