<svg width="692" height="646" viewBox="0 0 692 646" fill="none" xmlns="http://www.w3.org/2000/svg">
<path d="M568.43 645.423H123.57C55.3284 645.423 0 593.819 0 530.171V115.253C0 51.6046 55.3284 0 123.57 0H568.43C636.671 0 692 51.6046 692 115.253V530.171C692 593.819 636.671 645.423 568.43 645.423Z" fill="url(#paint0_linear_4335_1504)"/>
<path d="M236.639 153.859L160.578 222.612V470.025H251.815V538.778L327.876 470.025H388.761L525.706 346.238V153.697H236.817L236.639 153.859ZM495.175 332.519L434.29 387.554H373.406L320.199 435.649V387.554H251.815V181.295H495.175V332.519Z" fill="white"/>
<path d="M449.435 229.336H419.082V311.807H449.435V229.336Z" fill="white"/>
<path d="M365.849 229.336H335.496V311.807H365.849V229.336Z" fill="white"/>
<defs>
<linearGradient id="paint0_linear_4335_1504" x1="226.158" y1="170.11" x2="596.02" y2="624.343" gradientUnits="userSpaceOnUse">
<stop stop-color="#A139DA"/>
<stop offset="1" stop-color="#49138B"/>
</linearGradient>
</defs>
</svg>
