<svg width="102" height="90" viewBox="0 0 102 90" fill="none" xmlns="http://www.w3.org/2000/svg">
<g clip-path="url(#clip0_4335_1464)">
<path d="M94.6736 80.8193L60.4962 38.006L56.6323 33.1639L32.1841 2.53803L30.1586 0H0.117188L7.44399 9.18073L39.9505 49.9061L43.8144 54.7431L69.9326 87.4649L71.959 90.0007H102L94.6736 80.82V80.8193ZM75.5293 84.1406L48.3944 50.146L44.5305 45.3069L13.0432 5.85938H26.5875L52.0514 37.7609L55.9153 42.6001L89.0735 84.1399H75.5293V84.1406Z" fill="white"/>
<path d="M44.531 45.3066L48.3949 50.1458L43.814 54.7428L8.66715 90.0005H0L39.9501 49.9059L44.531 45.3066Z" fill="white"/>
<path d="M98.3823 0L60.4955 38.006L55.9147 42.6001L52.0508 37.7609L56.6316 33.1639L82.2956 7.40677L89.7152 0H98.3823Z" fill="white"/>
</g>
<defs>
<clipPath id="clip0_4335_1464">
<rect width="102" height="90" fill="white"/>
</clipPath>
</defs>
</svg>
