<svg width="776" height="776" viewBox="0 0 776 776" fill="none" xmlns="http://www.w3.org/2000/svg">
<g clip-path="url(#clip0_4335_1575)">
<path d="M388 776C602.286 776 776 602.286 776 388C776 173.714 602.286 0 388 0C173.714 0 0 173.714 0 388C0 602.286 173.714 776 388 776Z" fill="url(#paint0_linear_4335_1575)"/>
<path d="M188.219 588.268L216.875 481.132C200.593 451.824 192.126 418.935 192.126 385.557C192.126 276.467 280.863 187.73 389.953 187.73C499.042 187.73 587.779 276.467 587.779 385.557C587.779 494.646 499.042 583.383 389.953 583.383C357.226 583.383 324.825 575.079 295.843 559.449L188.219 588.268ZM301.216 519.232L308.054 523.302C332.966 538.119 361.296 545.934 389.953 545.934C478.364 545.934 550.33 473.968 550.33 385.557C550.33 297.146 478.364 225.179 389.953 225.179C301.541 225.179 229.575 297.146 229.575 385.557C229.575 414.702 237.716 443.521 253.021 468.758L257.254 475.596L241.298 535.351L301.541 519.232H301.216Z" fill="white"/>
<path fill-rule="evenodd" clip-rule="evenodd" d="M463.548 413.074C455.407 408.189 444.824 402.816 435.218 406.724C427.891 409.655 423.169 421.215 418.447 427.076C416.005 430.17 413.074 430.496 409.329 429.03C381.65 417.959 360.483 399.56 345.341 374.16C342.736 370.252 343.224 367.159 346.318 363.414C350.877 358.041 356.738 351.854 357.878 344.527C359.181 337.2 355.762 328.733 352.668 322.22C348.76 313.917 344.527 302.031 336.223 297.309C328.571 292.913 318.476 295.355 311.637 300.891C299.914 310.497 294.216 325.477 294.378 340.456C294.378 344.69 294.867 348.923 296.007 352.993C298.449 362.763 302.845 372.043 308.055 380.673C311.963 387.186 316.033 393.698 320.592 399.723C335.409 419.75 353.808 437.171 374.974 450.36C385.558 456.873 397.118 462.571 409.004 466.479C422.355 470.875 434.241 475.434 448.569 472.666C463.548 469.735 478.365 460.455 484.389 445.964C486.18 441.73 486.994 436.846 486.018 432.287C483.901 422.843 471.364 417.307 463.711 412.748L463.548 413.074Z" fill="white"/>
</g>
<defs>
<linearGradient id="paint0_linear_4335_1575" x1="113.648" y1="113.648" x2="662.352" y2="662.352" gradientUnits="userSpaceOnUse">
<stop stop-color="#00FB73"/>
<stop offset="1" stop-color="#00B25B"/>
</linearGradient>
<clipPath id="clip0_4335_1575">
<rect width="776" height="776" fill="white"/>
</clipPath>
</defs>
</svg>
