<svg width="779" height="779" viewBox="0 0 779 779" fill="none" xmlns="http://www.w3.org/2000/svg">
<g clip-path="url(#clip0_4335_1546)">
<path d="M389.5 779C604.615 779 779 604.615 779 389.5C779 174.385 604.615 0 389.5 0C174.385 0 0 174.385 0 389.5C0 604.615 174.385 779 389.5 779Z" fill="#873EFF"/>
<path d="M346.795 380.762C337.909 395.786 328.875 410.716 320.148 425.836C312.72 438.705 305.355 454.512 294.536 464.866C274.989 483.568 232.155 479.669 232.229 446.513C232.25 434.13 230.475 421.768 232.387 408.222C219.138 417.066 213.982 440.723 205.54 453.867C195.301 469.821 178.745 480.007 159.282 475.664C140.095 471.385 134.928 456.456 134.748 438.779C134.643 427.516 134.759 416.242 134.791 404.979C134.812 397.445 138.077 378.807 134.526 372.383C128.05 360.623 104.657 373.672 97.3452 357.052C94.0909 349.656 96.9754 337.146 103.653 332.803C111.123 327.943 124.309 330.489 132.878 330.521C152.14 330.585 177.445 324.752 182.379 349.022C186.447 369.076 184.186 393.578 182.548 413.918C189.839 408.466 191.656 399.495 195.491 391.761C199.633 383.435 204.388 375.416 208.572 367.1C215.144 354.02 222.825 334.018 238.854 330.743C257.598 326.918 268.988 336.723 269.632 354.759C270.023 365.779 270.076 376.821 270.266 387.83C270.34 392.342 267.762 411.318 272.094 413.125C281.688 399.654 288.207 383.974 296.11 369.435C302.376 357.918 308.916 338.984 321.426 332.687C331.981 327.383 353.969 328.397 360.594 339.713C367.916 352.223 352.986 370.302 346.795 380.762Z" fill="white"/>
<path d="M433.255 330.183C391.435 328.884 360.012 362.705 360.055 403.32C360.118 467.423 439.816 500.22 485.493 455.494C531.296 410.653 498.753 327.595 433.255 330.183ZM439.373 432.387C421.358 436.486 406.302 419.56 406.798 402.623C406.935 365.695 460.378 365.452 460.695 402.982C460.811 416.971 454.101 429.037 439.373 432.387Z" fill="white"/>
<path d="M594.108 330.659C555.839 326.496 515.372 362.938 520.411 411.932C526.709 473.15 604.97 497.008 646.874 454.258C689.603 410.664 658.328 326.411 594.108 330.659ZM567.472 410.41C559.019 368.685 621.971 361.215 620.618 403.532C622.552 436.539 574.171 443.481 567.472 410.41Z" fill="white"/>
</g>
<defs>
<clipPath id="clip0_4335_1546">
<rect width="779" height="779" fill="white"/>
</clipPath>
</defs>
</svg>
