<svg width="45" height="42" viewBox="0 0 45 42" fill="none" xmlns="http://www.w3.org/2000/svg">
<g clip-path="url(#clip0_4124_1651)">
<path d="M22.5 42C34.9264 42 45 32.598 45 21C45 9.40202 34.9264 0 22.5 0C10.0736 0 0 9.40202 0 21C0 32.598 10.0736 42 22.5 42Z" fill="#873EFF"/>
<path d="M20.0341 20.5291C19.5208 21.3392 18.999 22.1441 18.4948 22.9593C18.0658 23.6532 17.6403 24.5054 17.0153 25.0636C15.8862 26.0719 13.4118 25.8617 13.4161 24.0741C13.4173 23.4065 13.3148 22.74 13.4253 22.0097C12.6599 22.4865 12.362 23.762 11.8744 24.4706C11.2829 25.3308 10.3265 25.88 9.20224 25.6458C8.09384 25.4151 7.79537 24.6102 7.785 23.6572C7.7789 23.0499 7.78561 22.4421 7.78744 21.8348C7.78866 21.4286 7.97726 20.4238 7.77218 20.0774C7.39804 19.4434 6.04672 20.1469 5.62435 19.2508C5.43637 18.8521 5.60299 18.1776 5.98873 17.9435C6.42025 17.6814 7.18197 17.8187 7.67697 17.8204C8.78964 17.8238 10.2514 17.5094 10.5365 18.8179C10.7714 19.8991 10.6408 21.2201 10.5462 22.3167C10.9674 22.0228 11.0724 21.5392 11.2939 21.1222C11.5332 20.6733 11.8078 20.2409 12.0495 19.7926C12.4292 19.0873 12.8729 18.009 13.7988 17.8324C14.8816 17.6261 15.5395 18.1548 15.5767 19.1272C15.5993 19.7214 15.6024 20.3167 15.6134 20.9102C15.6176 21.1535 15.4687 22.1766 15.719 22.274C16.2732 21.5477 16.6497 20.7023 17.1063 19.9185C17.4682 19.2975 17.846 18.2767 18.5687 17.9372C19.1784 17.6512 20.4486 17.7059 20.8313 18.316C21.2542 18.9905 20.3918 19.9652 20.0341 20.5291Z" fill="white"/>
<path d="M25.0293 17.802C22.6135 17.7319 20.7983 19.5554 20.8008 21.7452C20.8044 25.2013 25.4083 26.9696 28.0469 24.5582C30.6928 22.1406 28.8129 17.6624 25.0293 17.802ZM25.3827 23.3124C24.342 23.5334 23.4723 22.6208 23.501 21.7076C23.5089 19.7166 26.5961 19.7035 26.6144 21.727C26.6211 22.4812 26.2335 23.1318 25.3827 23.3124Z" fill="white"/>
<path d="M34.3209 17.828C32.1102 17.6036 29.7726 19.5683 30.0637 22.2098C30.4275 25.5105 34.9484 26.7968 37.369 24.4919C39.8373 22.1415 38.0307 17.599 34.3209 17.828ZM32.7822 22.1278C32.294 19.8782 35.9304 19.4755 35.8523 21.757C35.964 23.5366 33.1692 23.9109 32.7822 22.1278Z" fill="white"/>
</g>
<defs>
<clipPath id="clip0_4124_1651">
<rect width="45" height="42" fill="white"/>
</clipPath>
</defs>
</svg>
