<svg width="775" height="464" viewBox="0 0 775 464" fill="none" xmlns="http://www.w3.org/2000/svg">
<g clip-path="url(#clip0_4335_1456)">
<path d="M669.732 458.944C669.732 458.944 458.084 464 387.535 464C316.986 464 105.338 458.944 105.338 458.944C50.6888 458.944 5.94474 420.689 5.94474 373.911C5.94474 373.911 0.0351562 267.523 0.0351562 231.988C0.0351562 196.453 5.94474 90.0651 5.94474 90.0651C5.9166 43.3112 50.6325 5.05578 105.31 5.05578C105.31 5.05578 316.958 0 387.507 0C458.056 0 669.704 5.05578 669.704 5.05578C724.353 5.05578 769.097 43.3112 769.097 90.0891C769.097 90.0891 775.007 196.381 775.007 232.012C775.007 267.643 769.097 373.935 769.097 373.935C769.097 420.689 724.382 458.968 669.704 458.968L669.732 458.944Z" fill="#FF0000"/>
<path fill-rule="evenodd" clip-rule="evenodd" d="M313.293 335.679V128.32L509.097 231.988L313.293 335.679Z" fill="white"/>
</g>
<defs>
<clipPath id="clip0_4335_1456">
<rect width="775" height="464" fill="white"/>
</clipPath>
</defs>
</svg>
