<svg width="231" height="236" viewBox="0 0 231 236" fill="none" xmlns="http://www.w3.org/2000/svg">
<g clip-path="url(#clip0_4804_2319)">
<path d="M227.762 128.906C229.957 132.278 231.001 136.055 231.001 139.792C231.001 146.538 227.588 153.136 221.374 156.898C215.349 160.551 211.748 167.06 211.748 173.988C211.748 174.836 211.802 175.692 211.911 176.553C212.026 177.424 212.078 178.29 212.078 179.144C212.078 189.278 204.373 198.007 194.015 199C190.078 199.38 186.44 200.903 183.473 203.268C180.506 205.633 178.212 208.846 176.969 212.6C174.181 221.01 166.365 226.298 158.011 226.298C155.722 226.298 153.388 225.898 151.108 225.06C148.856 224.231 146.519 223.826 144.205 223.826C138.892 223.826 133.685 225.95 129.85 229.913C125.926 233.973 120.712 236 115.499 236C110.285 236 105.071 233.973 101.147 229.913C97.3143 225.95 92.1079 223.826 86.7922 223.826C84.478 223.826 82.1389 224.231 79.8891 225.06C77.6096 225.898 75.2755 226.298 72.986 226.298C64.6318 226.298 56.8134 221.01 54.0279 212.6C52.7852 208.844 50.4932 205.633 47.5241 203.268C44.5575 200.903 40.9187 199.38 36.9822 199C26.6213 198.005 18.9195 189.278 18.9195 179.144C18.9195 178.29 18.9741 177.424 19.0857 176.553C19.1973 175.695 19.2494 174.839 19.2494 173.988C19.2494 167.062 15.6478 160.551 9.62275 156.898C3.4092 153.134 -0.00390625 146.536 -0.00390625 139.792C-0.00390625 136.055 1.04285 132.278 3.23557 128.906C5.39357 125.591 6.47257 121.797 6.47257 118C6.47257 114.203 5.39357 110.409 3.23557 107.094C1.04037 103.722 -0.00390625 99.9454 -0.00390625 96.2084C-0.00390625 89.4615 3.4092 82.8635 9.62275 79.1017C15.6478 75.4491 19.2494 68.9404 19.2494 62.0124C19.2494 61.1638 19.1948 60.3077 19.0857 59.4467C18.9716 58.5757 18.9195 57.7097 18.9195 56.8561C18.9195 46.7221 26.6238 37.9926 36.9822 37C40.9187 36.6203 44.5575 35.0968 47.5241 32.732C50.4908 30.3672 52.7852 27.1538 54.0279 23.3995C56.8159 14.9901 64.6318 9.70223 72.986 9.70223C75.2755 9.70223 77.6096 10.1017 79.8891 10.9404C82.1414 11.7692 84.478 12.1737 86.7922 12.1737C92.1054 12.1737 97.3119 10.0496 101.147 6.08685C105.071 2.0273 110.285 0 115.499 0C120.712 0 125.926 2.0273 129.85 6.08685C135.352 11.7742 143.686 13.6774 151.108 10.9404C153.388 10.1017 155.722 9.70223 158.011 9.70223C166.365 9.70223 174.184 14.9901 176.969 23.3995C178.212 27.1563 180.504 30.3672 183.473 32.732C186.44 35.0968 190.078 36.6203 194.015 37C204.376 37.995 212.078 46.7221 212.078 56.8561C212.078 57.7097 212.023 58.5757 211.911 59.4467C211.8 60.3052 211.748 61.1613 211.748 62.0124C211.748 68.938 215.349 75.4491 221.374 79.1017C227.588 82.866 231.001 89.464 231.001 96.2084C231.001 99.9454 229.954 103.722 227.762 107.094C225.604 110.409 224.525 114.203 224.525 118C224.525 121.797 225.604 125.591 227.762 128.906Z" fill="url(#paint0_linear_4804_2319)"/>
<path d="M133.262 121.34L168.797 153.548V156.888L151.04 174.655L115.505 139.106L79.9671 174.655L62.207 156.888V153.548L97.7445 121.34L62.207 85.7887V82.4487L79.9671 68.0244L115.505 103.575L151.04 68.0244L168.797 82.4487V85.7887L133.262 121.34Z" fill="url(#paint1_linear_4804_2319)"/>
<path d="M133.262 118.002L168.797 153.548L151.04 171.315L115.505 135.766L79.9671 171.315L62.207 153.548L97.7445 118.002L62.207 82.4488L79.9671 64.6846L115.505 100.235L151.04 64.6846L168.797 82.4488L133.262 118.002Z" fill="white"/>
</g>
<defs>
<linearGradient id="paint0_linear_4804_2319" x1="187.442" y1="186.179" x2="38.2761" y2="44.917" gradientUnits="userSpaceOnUse">
<stop stop-color="#D63333"/>
<stop offset="1" stop-color="#F7875B"/>
</linearGradient>
<linearGradient id="paint1_linear_4804_2319" x1="122.038" y1="169.106" x2="109.666" y2="75.6038" gradientUnits="userSpaceOnUse">
<stop stop-color="#AD2929"/>
<stop offset="1" stop-color="#D63333"/>
</linearGradient>
<clipPath id="clip0_4804_2319">
<rect width="231" height="236" fill="white"/>
</clipPath>
</defs>
</svg>
