<svg width="223" height="222" viewBox="0 0 223 222" fill="none" xmlns="http://www.w3.org/2000/svg">
<g clip-path="url(#clip0_4804_2313)">
<path d="M219.874 121.259C221.993 124.431 223.001 127.984 223.001 131.499C223.001 137.846 219.706 144.052 213.708 147.591C207.891 151.027 204.414 157.149 204.414 163.666C204.414 164.465 204.467 165.27 204.572 166.08C204.683 166.899 204.733 167.714 204.733 168.517C204.733 178.05 197.295 186.261 187.296 187.195C183.496 187.552 179.983 188.985 177.119 191.21C174.255 193.434 172.04 196.457 170.84 199.989C168.149 207.899 160.604 212.873 152.539 212.873C150.329 212.873 148.075 212.498 145.875 211.709C143.7 210.929 141.445 210.548 139.211 210.548C134.082 210.548 129.055 212.547 125.353 216.274C121.565 220.093 116.532 222 111.498 222C106.465 222 101.432 220.093 97.6436 216.274C93.944 212.547 88.9178 210.548 83.7863 210.548C81.5522 210.548 79.2941 210.929 77.1223 211.709C74.9217 212.498 72.6684 212.873 70.4582 212.873C62.3934 212.873 54.8457 207.899 52.1567 199.989C50.957 196.455 48.7444 193.434 45.8781 191.21C43.0142 188.985 39.5014 187.552 35.7013 187.195C25.6992 186.259 18.2641 178.05 18.2641 168.517C18.2641 167.714 18.3168 166.899 18.4246 166.08C18.5323 165.272 18.5826 164.467 18.5826 163.666C18.5826 157.152 15.1057 151.027 9.28936 147.591C3.291 144.05 -0.00390625 137.843 -0.00390625 131.499C-0.00390625 127.984 1.0066 124.431 3.12338 121.259C5.20664 118.14 6.24827 114.571 6.24827 111C6.24827 107.429 5.20664 103.86 3.12338 100.741C1.0042 97.5691 -0.00390625 94.0164 -0.00390625 90.5012C-0.00390625 84.1545 3.291 77.9479 9.28936 74.4093C15.1057 70.9733 18.5826 64.8508 18.5826 58.3337C18.5826 57.5354 18.5299 56.7301 18.4246 55.9202C18.3144 55.1009 18.2641 54.2862 18.2641 53.4833C18.2641 43.9504 25.7016 35.7388 35.7013 34.8051C39.5014 34.448 43.0142 33.0148 45.8781 30.7903C48.742 28.5658 50.957 25.543 52.1567 22.0114C54.8481 14.1008 62.3934 9.12668 70.4582 9.12668C72.6684 9.12668 74.9217 9.50248 77.1223 10.2914C79.2965 11.0711 81.5522 11.4515 83.7863 11.4515C88.9154 11.4515 93.9416 9.45346 97.6436 5.72576C101.432 1.90703 106.465 0 111.498 0C116.532 0 121.565 1.90703 125.353 5.72576C130.664 11.0757 138.71 12.866 145.875 10.2914C148.075 9.50248 150.329 9.12668 152.539 9.12668C160.604 9.12668 168.151 14.1008 170.84 22.0114C172.04 25.5454 174.253 28.5658 177.119 30.7903C179.983 33.0148 183.496 34.448 187.296 34.8051C197.298 35.7411 204.733 43.9504 204.733 53.4833C204.733 54.2862 204.68 55.1009 204.572 55.9202C204.465 56.7278 204.414 57.5331 204.414 58.3337C204.414 64.8484 207.891 70.9733 213.708 74.4093C219.706 77.9502 223.001 84.1568 223.001 90.5012C223.001 94.0164 221.99 97.5691 219.874 100.741C217.79 103.86 216.749 107.429 216.749 111C216.749 114.571 217.79 118.14 219.874 121.259Z" fill="url(#paint0_linear_4804_2313)"/>
<path d="M94.5495 168.052L55.4297 129.918V124.449L72.2227 113.546L92.7177 133.525L149.136 65.8145L167.571 74.9435V80.4125L94.5495 168.052Z" fill="url(#paint1_linear_4804_2313)"/>
<path d="M94.5495 162.583L55.4297 124.449L72.2227 108.079L92.7177 128.058L149.136 60.3477L167.571 74.9433L94.5495 162.583Z" fill="white"/>
</g>
<defs>
<linearGradient id="paint0_linear_4804_2313" x1="180.95" y1="175.134" x2="40.4824" y2="38.6181" gradientUnits="userSpaceOnUse">
<stop stop-color="#33D679"/>
<stop offset="1" stop-color="#AADB53"/>
</linearGradient>
<linearGradient id="paint1_linear_4804_2313" x1="98.0049" y1="66.6968" x2="125.729" y2="143.944" gradientUnits="userSpaceOnUse">
<stop stop-color="#33D679"/>
<stop offset="1" stop-color="#1DAD59"/>
</linearGradient>
<clipPath id="clip0_4804_2313">
<rect width="223" height="222" fill="white"/>
</clipPath>
</defs>
</svg>
