<svg width="72" height="54" viewBox="0 0 72 54" fill="none" xmlns="http://www.w3.org/2000/svg">
<path d="M12 15C10.8133 15 9.65327 15.3519 8.66658 16.0112C7.67988 16.6705 6.91085 17.6076 6.45672 18.7039C6.0026 19.8003 5.88378 21.0067 6.11529 22.1706C6.3468 23.3344 6.91824 24.4035 7.75736 25.2427C8.59647 26.0818 9.66557 26.6532 10.8295 26.8847C11.9933 27.1162 13.1997 26.9974 14.2961 26.5433C15.3925 26.0892 16.3295 25.3201 16.9888 24.3334C17.6481 23.3467 18 22.1867 18 21C18 19.4087 17.3679 17.8826 16.2426 16.7574C15.1174 15.6322 13.5913 15 12 15ZM12 24C11.4067 24 10.8266 23.8241 10.3333 23.4944C9.83994 23.1648 9.45542 22.6962 9.22836 22.1481C9.0013 21.5999 8.94189 20.9967 9.05764 20.4147C9.1734 19.8328 9.45912 19.2983 9.87868 18.8787C10.2982 18.4591 10.8328 18.1734 11.4147 18.0577C11.9967 17.9419 12.5999 18.0013 13.1481 18.2284C13.6962 18.4554 14.1648 18.84 14.4944 19.3333C14.8241 19.8267 15 20.4067 15 21C15 21.7957 14.6839 22.5587 14.1213 23.1213C13.5587 23.6839 12.7956 24 12 24ZM37.5 15C34.2366 15 31.0465 15.9677 28.3331 17.7808C25.6197 19.5938 23.5048 22.1708 22.256 25.1857C21.0071 28.2007 20.6804 31.5183 21.317 34.719C21.9537 37.9197 23.5252 40.8597 25.8327 43.1673C28.1403 45.4748 31.0803 47.0463 34.281 47.683C37.4817 48.3196 40.7993 47.9929 43.8143 46.744C46.8293 45.4952 49.4062 43.3803 51.2192 40.6669C53.0323 37.9535 54 34.7634 54 31.5C53.9921 27.1264 52.2511 22.9341 49.1585 19.8415C46.0659 16.7489 41.8736 15.008 37.5 15ZM37.5 45C34.83 45 32.2199 44.2082 29.9998 42.7248C27.7797 41.2414 26.0494 39.133 25.0276 36.6662C24.0058 34.1994 23.7385 31.485 24.2594 28.8663C24.7803 26.2476 26.0661 23.8421 27.9541 21.9541C29.8421 20.0661 32.2475 18.7803 34.8663 18.2594C37.485 17.7385 40.1994 18.0059 42.6662 19.0276C45.133 20.0494 47.2414 21.7798 48.7248 23.9998C50.2082 26.2199 51 28.83 51 31.5C51 33.2729 50.6508 35.0283 49.9724 36.6662C49.2939 38.3041 48.2995 39.7924 47.0459 41.0459C45.7924 42.2995 44.3041 43.2939 42.6662 43.9724C41.0283 44.6508 39.2728 45 37.5 45ZM67.5 9.00003H66V7.50003C66 6.30656 65.5259 5.16196 64.682 4.31805C63.8381 3.47414 62.6935 3.00003 61.5 3.00003H58.5C57.3065 3.00003 56.1619 3.47414 55.318 4.31805C54.4741 5.16196 54 6.30656 54 7.50003V9.00003H51.66C51.3481 8.99771 51.0447 8.89822 50.792 8.71541C50.5392 8.53259 50.3498 8.27554 50.25 7.98003L48.6 3.00003C48.2888 2.11988 47.7116 1.35829 46.9483 0.820775C46.1851 0.283261 45.2735 -0.00356535 44.34 3.34553e-05H30.66C29.7265 -0.00356535 28.8149 0.283261 28.0516 0.820775C27.2884 1.35829 26.7112 2.11988 26.4 3.00003L24.75 7.98003C24.6502 8.27554 24.4608 8.53259 24.208 8.71541C23.9553 8.89822 23.6519 8.99771 23.34 9.00003H21V7.50003C21 6.30656 20.5259 5.16196 19.682 4.31805C18.8381 3.47414 17.6935 3.00003 16.5 3.00003H10.5C9.30653 3.00003 8.16193 3.47414 7.31802 4.31805C6.47411 5.16196 6 6.30656 6 7.50003V9.00003H4.5C3.30653 9.00003 2.16193 9.47413 1.31802 10.318C0.474106 11.162 0 12.3066 0 13.5L0 49.5C0 50.6935 0.474106 51.8381 1.31802 52.682C2.16193 53.5259 3.30653 54 4.5 54H67.5C68.6935 54 69.8381 53.5259 70.682 52.682C71.5259 51.8381 72 50.6935 72 49.5V13.5C72 12.3066 71.5259 11.162 70.682 10.318C69.8381 9.47413 68.6935 9.00003 67.5 9.00003ZM57 7.50003C57 7.1022 57.158 6.72067 57.4393 6.43937C57.7206 6.15807 58.1022 6.00003 58.5 6.00003H61.5C61.8978 6.00003 62.2794 6.15807 62.5607 6.43937C62.842 6.72067 63 7.1022 63 7.50003V9.00003H57V7.50003ZM9 7.50003C9 7.1022 9.15804 6.72067 9.43934 6.43937C9.72064 6.15807 10.1022 6.00003 10.5 6.00003H16.5C16.8978 6.00003 17.2794 6.15807 17.5607 6.43937C17.842 6.72067 18 7.1022 18 7.50003V9.00003H9V7.50003ZM69 49.5C69 49.8978 68.842 50.2794 68.5607 50.5607C68.2794 50.842 67.8978 51 67.5 51H4.5C4.10218 51 3.72064 50.842 3.43934 50.5607C3.15804 50.2794 3 49.8978 3 49.5V13.5C3 13.1022 3.15804 12.7207 3.43934 12.4394C3.72064 12.1581 4.10218 12 4.5 12H23.34C24.2735 12.0036 25.1851 11.7168 25.9484 11.1793C26.7116 10.6418 27.2888 9.88018 27.6 9.00003L29.22 4.11003C29.3054 3.79288 29.4925 3.51251 29.7527 3.31199C30.0128 3.11147 30.3316 3.00188 30.66 3.00003H44.34C44.6519 3.00235 44.9553 3.10184 45.208 3.28465C45.4608 3.46747 45.6502 3.72452 45.75 4.02003L47.4 9.00003C47.7112 9.88018 48.2884 10.6418 49.0517 11.1793C49.8149 11.7168 50.7265 12.0036 51.66 12H67.5C67.8978 12 68.2794 12.1581 68.5607 12.4394C68.842 12.7207 69 13.1022 69 13.5V49.5ZM34.5 9.00003H40.5C40.8978 9.00003 41.2794 8.84199 41.5607 8.56069C41.842 8.27938 42 7.89785 42 7.50003C42 7.1022 41.842 6.72067 41.5607 6.43937C41.2794 6.15807 40.8978 6.00003 40.5 6.00003H34.5C34.1022 6.00003 33.7206 6.15807 33.4393 6.43937C33.158 6.72067 33 7.1022 33 7.50003C33 7.89785 33.158 8.27938 33.4393 8.56069C33.7206 8.84199 34.1022 9.00003 34.5 9.00003ZM37.5 21C35.4233 21 33.3932 21.6158 31.6665 22.7696C29.9398 23.9233 28.594 25.5632 27.7993 27.4818C27.0045 29.4005 26.7966 31.5117 27.2018 33.5485C27.6069 35.5853 28.6069 37.4562 30.0754 38.9246C31.5438 40.3931 33.4147 41.3931 35.4515 41.7983C37.4883 42.2034 39.5996 41.9955 41.5182 41.2007C43.4368 40.406 45.0767 39.0602 46.2304 37.3335C47.3842 35.6068 48 33.5767 48 31.5C48 28.7152 46.8938 26.0445 44.9246 24.0754C42.9555 22.1063 40.2848 21 37.5 21ZM37.5 39C36.0166 39 34.5666 38.5601 33.3332 37.736C32.0999 36.9119 31.1386 35.7406 30.5709 34.3701C30.0032 32.9997 29.8547 31.4917 30.1441 30.0368C30.4335 28.582 31.1478 27.2456 32.1967 26.1967C33.2456 25.1478 34.582 24.4335 36.0368 24.1441C37.4917 23.8547 38.9997 24.0033 40.3701 24.5709C41.7406 25.1386 42.9119 26.0999 43.736 27.3332C44.5601 28.5666 45 30.0167 45 31.5C45 33.4891 44.2098 35.3968 42.8033 36.8033C41.3968 38.2098 39.4891 39 37.5 39ZM58.5 15C58.2033 15 57.9133 15.088 57.6666 15.2528C57.42 15.4176 57.2277 15.6519 57.1142 15.926C57.0007 16.2001 56.9709 16.5017 57.0288 16.7927C57.0867 17.0836 57.2296 17.3509 57.4393 17.5607C57.6491 17.7705 57.9164 17.9133 58.2074 17.9712C58.4983 18.0291 58.7999 17.9994 59.074 17.8858C59.3481 17.7723 59.5824 17.5801 59.7472 17.3334C59.912 17.0867 60 16.7967 60 16.5C60 16.1022 59.842 15.7207 59.5607 15.4394C59.2794 15.1581 58.8978 15 58.5 15Z" fill="white"/>
</svg>
