<svg width="253" height="35" viewBox="0 0 253 35" fill="none" xmlns="http://www.w3.org/2000/svg">
<rect width="91" height="35" rx="5" fill="white"/>
<rect x="102" width="68" height="35" rx="5" fill="white"/>
<rect x="185" width="68" height="35" rx="5" fill="white"/>
<g clip-path="url(#clip0_4953_1528)">
<path d="M39.3983 31.5816H32.5938L36.8498 3.50879H43.654L39.3983 31.5816Z" fill="#00579F"/>
<path d="M64.0682 4.19517C62.726 3.62716 60.5972 3 57.965 3C51.2452 3 46.5132 6.82248 46.4842 12.2875C46.4284 16.3195 49.8722 18.559 52.4478 19.9034C55.0805 21.2772 55.9754 22.1739 55.9754 23.3984C55.9486 25.2791 53.8481 26.146 51.889 26.146C49.1723 26.146 47.7166 25.6991 45.5045 24.6528L44.6085 24.2042L43.6562 30.5059C45.2522 31.2816 48.1925 31.9698 51.2452 32C58.3851 32 63.0333 28.2367 63.0884 22.4129C63.1156 19.2171 61.2971 16.7685 57.3767 14.7675C54.9967 13.483 53.5392 12.6169 53.5392 11.3027C53.5671 10.1079 54.772 8.88415 57.4585 8.88415C59.6707 8.82421 61.296 9.39143 62.5273 9.95905L63.1427 10.2571L64.0682 4.19517Z" fill="#00579F"/>
<path d="M73.1098 21.6364C73.6702 20.0236 75.8265 13.7818 75.8265 13.7818C75.7983 13.8418 76.3858 12.1393 76.7218 11.0942L77.1974 13.5131C77.1974 13.5131 78.4859 20.2328 78.7658 21.6364C77.7023 21.6364 74.4539 21.6364 73.1098 21.6364ZM81.5093 3.50879H76.2459C74.6228 3.50879 73.3897 4.01607 72.6894 5.838L62.582 31.5812H69.7219C69.7219 31.5812 70.8973 28.1163 71.15 27.3701C71.9333 27.3701 78.8789 27.3701 79.8865 27.3701C80.0819 28.3557 80.6985 31.5812 80.6985 31.5812H86.9988L81.5093 3.50879Z" fill="#00579F"/>
<path d="M26.9132 3.50879L20.2493 22.6517L19.5211 18.7693C18.2891 14.2895 14.4252 9.42231 10.1133 7.00221L16.2172 31.5518H23.4129L34.1085 3.50879H26.9132Z" fill="#00579F"/>
<path d="M14.0599 3.50879H3.112L3 4.07601C11.5401 6.40561 17.196 12.021 19.5197 18.7705L17.1398 5.86856C16.748 4.07561 15.5439 3.56793 14.0599 3.50879Z" fill="#FAA61A"/>
</g>
<g clip-path="url(#clip1_4953_1528)">
<path d="M163.651 17.0891C163.653 25.7888 156.647 32.8427 148.001 32.845C139.356 32.8471 132.346 25.7968 132.344 17.0971C132.344 17.0943 132.344 17.0919 132.344 17.0891C132.341 8.38954 139.348 1.33532 147.993 1.33301C156.639 1.3307 163.648 8.38136 163.651 17.0811C163.651 17.0838 163.651 17.0863 163.651 17.0891Z" fill="#FF9900"/>
<path d="M126.9 1.33699C118.306 1.39193 111.348 8.42784 111.348 17.089C111.348 25.7839 118.36 32.8408 127.001 32.8408C131.057 32.8408 134.753 31.2856 137.535 28.7366C137.535 28.7366 137.534 28.7363 137.534 28.7359H137.537C138.106 28.2136 138.638 27.6501 139.126 27.0492H135.919C135.491 26.5286 135.102 25.9862 134.752 25.4266H140.283C140.619 24.8849 140.924 24.3224 141.194 23.7398H133.839C133.588 23.199 133.37 22.646 133.185 22.0849H141.849C142.371 20.5148 142.655 18.8349 142.655 17.0888C142.655 15.9311 142.53 14.8024 142.294 13.7157H132.725C132.844 13.1564 132.993 12.6038 133.172 12.0609H141.839C141.646 11.4831 141.421 10.9201 141.165 10.3743H133.838C134.102 9.80615 134.402 9.25344 134.736 8.71975H140.263C139.895 8.13006 139.488 7.56668 139.048 7.03299H135.967C136.443 6.46873 136.968 5.93735 137.537 5.44188C134.755 2.89255 131.057 1.33699 127.001 1.33699C126.967 1.33699 126.934 1.33682 126.9 1.33699Z" fill="#CC0000"/>
<path d="M162.081 25.3242C162.166 25.3242 162.249 25.3464 162.33 25.3902C162.411 25.4339 162.473 25.497 162.519 25.579C162.564 25.66 162.587 25.7456 162.587 25.8341C162.587 25.9216 162.564 26.0062 162.52 26.0872C162.475 26.1681 162.413 26.2312 162.332 26.2762C162.252 26.3205 162.168 26.3429 162.081 26.3429C161.993 26.3429 161.909 26.3205 161.829 26.2762C161.748 26.2311 161.686 26.1683 161.641 26.0872C161.596 26.0062 161.574 25.9216 161.574 25.8341C161.574 25.7456 161.597 25.66 161.642 25.579C161.688 25.497 161.751 25.4344 161.831 25.3902C161.913 25.3464 161.996 25.3242 162.081 25.3242ZM162.081 25.4087C162.01 25.4087 161.941 25.4272 161.873 25.464C161.806 25.5008 161.753 25.5528 161.716 25.6218C161.677 25.6897 161.658 25.7601 161.658 25.8341C161.658 25.9073 161.677 25.9781 161.714 26.0453C161.752 26.1123 161.804 26.1649 161.871 26.2026C161.938 26.2401 162.008 26.2586 162.081 26.2586C162.154 26.2586 162.224 26.2401 162.291 26.2026C162.357 26.1649 162.409 26.1123 162.447 26.0453C162.484 25.9781 162.502 25.9075 162.502 25.8341C162.502 25.7601 162.483 25.6896 162.445 25.6218C162.408 25.5528 162.355 25.5008 162.287 25.464C162.22 25.427 162.152 25.4087 162.081 25.4087ZM161.859 26.1153V25.5674H162.046C162.11 25.5674 162.156 25.5724 162.185 25.5831C162.214 25.5932 162.236 25.6104 162.254 25.6359C162.27 25.6609 162.279 25.6876 162.279 25.716C162.279 25.7562 162.265 25.7911 162.236 25.8206C162.208 25.8501 162.17 25.867 162.123 25.8705C162.143 25.8785 162.158 25.8887 162.17 25.8997C162.192 25.921 162.219 25.9571 162.25 26.0081L162.317 26.1153H162.21L162.161 26.0291C162.123 25.9612 162.093 25.9189 162.069 25.9015C162.053 25.8892 162.03 25.8828 161.999 25.8828H161.948V26.1159H161.859M161.947 25.8069H162.054C162.104 25.8069 162.139 25.7991 162.157 25.784C162.176 25.7683 162.185 25.7484 162.185 25.7231C162.185 25.7068 162.181 25.6922 162.172 25.6798C162.163 25.6668 162.151 25.6576 162.135 25.651C162.119 25.6448 162.09 25.6412 162.047 25.6412H161.947V25.8069" fill="#FCB340"/>
<path d="M132.198 21.6082L132.407 20.1824C132.293 20.1824 132.125 20.232 131.977 20.232C131.397 20.232 131.325 19.92 131.37 19.6921L131.942 16.8245H132.824L133.005 15.2062H132.174L132.344 14.2256H130.605C130.568 14.2626 129.621 19.7406 129.621 20.408C129.621 21.3955 130.172 21.835 130.949 21.8281C131.557 21.8229 132.031 21.6535 132.198 21.6082Z" fill="#000066"/>
<path d="M132.727 18.8903C132.727 21.2604 134.281 21.8234 135.606 21.8234C136.828 21.8234 137.47 21.5383 137.47 21.5383L137.763 19.9205C137.763 19.9205 136.73 20.3433 135.89 20.3433C134.101 20.3433 134.414 19.0003 134.414 19.0003L137.853 19.0108C137.853 19.0108 138.072 17.9244 138.072 17.4816C138.072 16.3763 137.473 15.0195 135.643 15.0195C133.967 15.0199 132.727 16.837 132.727 18.8903ZM135.65 16.5214C136.59 16.5214 136.417 17.5852 136.417 17.6714H134.566C134.566 17.5612 134.741 16.5214 135.65 16.5214Z" fill="#000066"/>
<path d="M146.203 21.608L146.502 19.7797C146.502 19.7797 145.684 20.1923 145.123 20.1923C143.94 20.1923 143.466 19.2839 143.466 18.3077C143.466 16.3278 144.483 15.2384 145.616 15.2384C146.465 15.2384 147.146 15.7182 147.146 15.7182L147.418 13.9416C147.418 13.9416 146.614 13.3569 145.748 13.3536C143.143 13.3432 141.652 15.1683 141.652 18.3233C141.652 20.4145 142.756 21.8376 144.745 21.8376C145.307 21.8376 146.203 21.608 146.203 21.608Z" fill="#000066"/>
<path d="M123.031 15.0459C121.888 15.0459 121.012 15.4155 121.012 15.4155L120.77 16.8603C120.77 16.8603 121.493 16.5647 122.586 16.5647C123.207 16.5647 123.661 16.6349 123.661 17.1424C123.661 17.4507 123.606 17.5645 123.606 17.5645C123.606 17.5645 123.116 17.5234 122.889 17.5234C121.262 17.5234 119.934 18.1424 119.934 20.0087C119.934 21.4795 120.927 21.8167 121.543 21.8167C122.719 21.8167 123.184 21.0695 123.211 21.0674L123.198 21.6875H124.665L125.32 17.0688C125.32 15.1088 123.621 15.0459 123.031 15.0459ZM123.285 18.7963C123.317 19.0783 123.213 20.4116 122.209 20.4116C121.691 20.4116 121.557 20.0134 121.557 19.7783C121.557 19.319 121.804 18.768 123.026 18.768C123.31 18.768 123.237 18.7887 123.285 18.7963Z" fill="#000066"/>
<path d="M126.878 21.783C127.254 21.783 129.4 21.8792 129.4 19.6508C129.4 17.567 127.413 17.979 127.413 17.1416C127.413 16.7253 127.737 16.5941 128.329 16.5941C128.564 16.5941 129.468 16.6693 129.468 16.6693L129.678 15.1884C129.678 15.1884 129.093 15.0566 128.14 15.0566C126.907 15.0566 125.656 15.5519 125.656 17.2465C125.656 19.1669 127.743 18.974 127.743 19.7829C127.743 20.3228 127.16 20.3672 126.71 20.3672C125.933 20.3672 125.233 20.0986 125.23 20.1116L125.008 21.5774C125.048 21.5898 125.48 21.783 126.878 21.783Z" fill="#000066"/>
<path d="M159.949 13.7021L159.648 15.9615C159.648 15.9615 159.02 15.0895 158.038 15.0895C156.191 15.0895 155.238 16.9425 155.238 19.071C155.238 20.4453 155.917 21.7923 157.305 21.7923C158.303 21.7923 158.857 21.0917 158.857 21.0917L158.784 21.6899H160.405L161.678 13.7144L159.949 13.7021ZM159.233 18.0934C159.233 18.9793 158.797 20.1628 157.894 20.1628C157.294 20.1628 157.013 19.6559 157.013 18.8607C157.013 17.5603 157.593 16.7025 158.326 16.7025C158.925 16.7025 159.233 17.1167 159.233 18.0934Z" fill="#000066"/>
<path d="M114.006 21.6964L115.021 15.6751L115.17 21.6964H116.318L118.46 15.6751L117.511 21.6964H119.217L120.531 13.7103L117.821 13.6895L116.209 18.5791L116.164 13.7103H113.68L112.348 21.6964H114.006Z" fill="#000066"/>
<path d="M139.684 21.7086C140.17 18.9326 140.342 16.7403 141.757 17.1943C141.96 16.1198 142.444 15.1854 142.666 14.7307C142.666 14.7307 142.596 14.626 142.158 14.626C141.412 14.626 140.415 16.1502 140.415 16.1502L140.564 15.2078H139.012L137.973 21.7085L139.684 21.7086Z" fill="#000066"/>
<path d="M149.691 15.0459C148.548 15.0459 147.672 15.4155 147.672 15.4155L147.43 16.8603C147.43 16.8603 148.154 16.5647 149.246 16.5647C149.867 16.5647 150.321 16.6349 150.321 17.1424C150.321 17.4507 150.266 17.5645 150.266 17.5645C150.266 17.5645 149.776 17.5234 149.549 17.5234C147.922 17.5234 146.594 18.1424 146.594 20.0087C146.594 21.4795 147.587 21.8167 148.203 21.8167C149.378 21.8167 149.844 21.0695 149.871 21.0674L149.857 21.6875H151.325L151.98 17.0688C151.98 15.1088 150.281 15.0459 149.691 15.0459ZM149.945 18.7963C149.977 19.0783 149.872 20.4116 148.869 20.4116C148.351 20.4116 148.216 20.0134 148.216 19.7783C148.216 19.319 148.464 18.768 149.685 18.768C149.97 18.768 149.897 18.7887 149.945 18.7963Z" fill="#000066"/>
<path d="M153.669 21.708C153.936 19.6657 154.429 16.7985 155.742 17.1937C155.945 16.1192 155.749 16.1221 155.312 16.1221C154.565 16.1221 154.399 16.1494 154.399 16.1494L154.549 15.207H152.997L151.957 21.7078L153.669 21.708Z" fill="#000066"/>
<path d="M132.628 21.0996L132.837 19.674C132.723 19.674 132.555 19.723 132.407 19.723C131.827 19.723 131.763 19.4126 131.8 19.1831L132.269 16.2743H133.151L133.363 14.6974H132.532L132.701 13.7168H131.035C130.998 13.7538 130.051 19.232 130.051 19.899C130.051 20.8866 130.602 21.3264 131.379 21.3193C131.987 21.3141 132.461 21.1447 132.628 21.0996Z" fill="white"/>
<path d="M133.156 18.3817C133.156 20.7518 134.711 21.315 136.035 21.315C137.258 21.315 137.796 21.04 137.796 21.04L138.089 19.4224C138.089 19.4224 137.16 19.8347 136.32 19.8347C134.53 19.8347 134.843 18.4919 134.843 18.4919H138.23C138.23 18.4919 138.449 17.4051 138.449 16.9623C138.449 15.8572 137.903 14.5107 136.073 14.5107C134.397 14.5111 133.156 16.3282 133.156 18.3817ZM136.079 16.0128C137.02 16.0128 136.846 17.0764 136.846 17.1625H134.996C134.996 17.0526 135.171 16.0128 136.079 16.0128Z" fill="white"/>
<path d="M146.633 21.0992L146.932 19.2707C146.932 19.2707 146.114 19.6834 145.553 19.6834C144.37 19.6834 143.896 18.7749 143.896 17.7989C143.896 15.819 144.913 14.7298 146.046 14.7298C146.895 14.7298 147.577 15.2096 147.577 15.2096L147.849 13.433C147.849 13.433 146.838 13.0215 145.972 13.0215C144.048 13.0215 142.176 14.7011 142.176 17.8556C142.176 19.9474 143.186 21.3289 145.175 21.3289C145.738 21.329 146.633 21.0992 146.633 21.0992Z" fill="white"/>
<path d="M123.465 14.5371C122.322 14.5371 121.446 14.9067 121.446 14.9067L121.204 16.3515C121.204 16.3515 121.927 16.0559 123.02 16.0559C123.641 16.0559 124.095 16.1261 124.095 16.6336C124.095 16.9419 124.039 17.0557 124.039 17.0557C124.039 17.0557 123.549 17.0144 123.323 17.0144C121.881 17.0144 120.367 17.6335 120.367 19.4998C120.367 20.9704 121.361 21.3078 121.976 21.3078C123.152 21.3078 123.659 20.54 123.686 20.5376L123.631 21.1785H125.099L125.753 16.5597C125.753 14.6002 124.055 14.5371 123.465 14.5371ZM123.822 18.2978C123.854 18.58 123.646 19.9024 122.642 19.9024C122.125 19.9024 121.99 19.5046 121.99 19.2692C121.99 18.8102 122.238 18.2591 123.459 18.2591C123.743 18.2594 123.774 18.29 123.822 18.2978Z" fill="white"/>
<path d="M127.312 21.2735C127.687 21.2735 129.833 21.3695 129.833 19.141C129.833 17.0576 127.847 17.4692 127.847 16.6322C127.847 16.2155 128.17 16.0843 128.762 16.0843C128.997 16.0843 129.901 16.1595 129.901 16.1595L130.111 14.6786C130.111 14.6786 129.526 14.5469 128.574 14.5469C127.341 14.5469 126.089 15.0422 126.089 16.7367C126.089 18.6569 128.176 18.4642 128.176 19.2731C128.176 19.813 127.593 19.8569 127.144 19.8569C126.366 19.8569 125.666 19.5885 125.664 19.6013L125.441 21.0672C125.482 21.0797 125.913 21.2735 127.312 21.2735Z" fill="white"/>
<path d="M160.441 13.2077L160.081 15.4525C160.081 15.4525 159.454 14.5805 158.472 14.5805C156.945 14.5805 155.672 16.4333 155.672 18.5622C155.672 19.9365 156.351 21.2829 157.739 21.2829C158.737 21.2829 159.291 20.5825 159.291 20.5825L159.217 21.1807H160.838L162.112 13.2051L160.441 13.2077ZM159.667 17.5846C159.667 18.4705 159.231 19.6538 158.327 19.6538C157.728 19.6538 157.446 19.1471 157.446 18.3519C157.446 17.0517 158.027 16.1937 158.759 16.1937C159.359 16.1935 159.667 16.6083 159.667 17.5846Z" fill="white"/>
<path d="M114.439 21.1885L115.454 15.1671L115.603 21.1885H116.751L118.893 15.1671L117.944 21.1885H119.65L120.964 13.2021H118.326L116.683 18.1022L116.597 13.2021H114.165L112.832 21.1885H114.439Z" fill="white"/>
<path d="M140.118 21.1988C140.603 18.4226 140.693 16.1684 141.851 16.581C142.053 15.5065 142.249 15.0909 142.47 14.6361C142.47 14.6361 142.366 14.6143 142.149 14.6143C141.402 14.6143 140.849 15.6404 140.849 15.6404L140.998 14.698H139.446L138.406 21.1988H140.118Z" fill="white"/>
<path d="M150.48 14.5371C149.337 14.5371 148.461 14.9067 148.461 14.9067L148.219 16.3515C148.219 16.3515 148.943 16.0559 150.036 16.0559C150.656 16.0559 151.11 16.1261 151.11 16.6336C151.11 16.9419 151.055 17.0557 151.055 17.0557C151.055 17.0557 150.565 17.0144 150.338 17.0144C148.897 17.0144 147.383 17.6335 147.383 19.4998C147.383 20.9704 148.376 21.3078 148.992 21.3078C150.168 21.3078 150.674 20.54 150.701 20.5376L150.647 21.1785C150.647 21.1785 152.114 21.1785 152.114 21.1785L152.769 16.5597C152.769 14.6002 151.07 14.5371 150.48 14.5371ZM150.838 18.2978C150.87 18.58 150.662 19.9024 149.658 19.9024C149.14 19.9024 149.006 19.5046 149.006 19.2692C149.006 18.8102 149.254 18.2591 150.475 18.2591C150.759 18.2594 150.789 18.29 150.838 18.2978Z" fill="white"/>
<path d="M154.11 21.1988C154.595 18.4226 154.685 16.1684 155.842 16.581C156.045 15.5065 156.241 15.0909 156.462 14.6361C156.462 14.6361 156.358 14.6143 156.141 14.6143C155.394 14.6143 154.841 15.6404 154.841 15.6404L154.99 14.698H153.438L152.398 21.1988H154.11Z" fill="white"/>
<path d="M162.073 20.1963C162.158 20.1963 162.241 20.2182 162.322 20.2626C162.403 20.3056 162.466 20.3689 162.511 20.4509C162.556 20.5323 162.579 20.6171 162.579 20.7058C162.579 20.7934 162.556 20.8781 162.512 20.959C162.467 21.0398 162.405 21.1033 162.325 21.1479C162.244 21.1924 162.16 21.2148 162.073 21.2148C161.985 21.2148 161.901 21.1924 161.821 21.1479C161.74 21.103 161.678 21.0398 161.634 20.959C161.588 20.8781 161.566 20.7934 161.566 20.7058C161.566 20.6171 161.589 20.5323 161.634 20.4509C161.68 20.3689 161.743 20.306 161.824 20.2626C161.905 20.2182 161.989 20.1963 162.073 20.1963ZM162.073 20.2802C162.002 20.2802 161.933 20.2987 161.866 20.3358C161.798 20.3721 161.746 20.4246 161.708 20.4932C161.67 20.5609 161.651 20.6318 161.651 20.7054C161.651 20.779 161.669 20.8494 161.706 20.9166C161.744 20.9837 161.796 21.0363 161.863 21.0742C161.93 21.1111 162 21.1298 162.073 21.1298C162.146 21.1298 162.216 21.1111 162.283 21.0742C162.35 21.0363 162.402 20.9837 162.439 20.9166C162.477 20.8489 162.495 20.779 162.495 20.7054C162.495 20.6318 162.476 20.5609 162.438 20.4932C162.4 20.4246 162.348 20.3721 162.28 20.3358C162.213 20.2989 162.144 20.2802 162.073 20.2802ZM161.852 20.987V20.439H162.039C162.103 20.439 162.149 20.4441 162.178 20.4546C162.206 20.4644 162.229 20.482 162.246 20.5074C162.263 20.5326 162.272 20.5591 162.272 20.5876C162.272 20.6276 162.258 20.6626 162.229 20.6921C162.201 20.7216 162.163 20.7387 162.116 20.7419C162.135 20.7501 162.151 20.7598 162.163 20.7709C162.184 20.7926 162.211 20.8288 162.243 20.8795L162.31 20.9869H162.202L162.154 20.9006C162.116 20.8326 162.085 20.7902 162.062 20.773C162.046 20.7604 162.023 20.7542 161.992 20.7542H161.94V20.9872L161.852 20.987ZM161.94 20.6786H162.046C162.097 20.6786 162.132 20.671 162.15 20.6557C162.169 20.6407 162.178 20.6203 162.178 20.5949C162.178 20.5787 162.174 20.5641 162.165 20.5518C162.156 20.5387 162.144 20.5293 162.127 20.5227C162.111 20.5165 162.083 20.5133 162.04 20.5133H161.94V20.6786" fill="white"/>
</g>
<path d="M225.191 28.9147H211.918V6.11133H225.191V28.9147Z" fill="#F1511B"/>
<path d="M212.772 17.4975C212.772 13.0576 214.889 8.8594 218.555 6.11092C215.869 4.08731 212.582 3 209.169 3C200.794 3 194 9.49367 194 17.4975C194 25.5013 200.794 31.995 209.169 31.995C212.582 31.995 215.869 30.9077 218.555 28.884C214.889 26.1658 212.772 21.9675 212.772 17.4975Z" fill="#E71F22"/>
<path d="M243.113 17.4975C243.113 25.5013 236.319 31.995 227.944 31.995C224.531 31.995 221.245 30.9077 218.559 28.884C222.224 26.1356 224.342 21.9373 224.342 17.4975C224.342 13.0576 222.224 8.8594 218.559 6.11092C221.213 4.08731 224.531 3 227.944 3C236.319 3 243.113 9.49367 243.113 17.4975Z" fill="#F79410"/>
<defs>
<clipPath id="clip0_4953_1528">
<rect width="84" height="29" fill="white" transform="translate(3 3)"/>
</clipPath>
<clipPath id="clip1_4953_1528">
<rect width="53" height="32" fill="white" transform="translate(111 1)"/>
</clipPath>
</defs>
</svg>
