<svg width="21" height="21" viewBox="0 0 21 21" fill="none" xmlns="http://www.w3.org/2000/svg">
<circle cx="10.5" cy="10.5" r="10.5" fill="#08A915"/>
<path d="M10.6195 4.08755C10.4968 4.1431 10.3848 4.2264 10.2897 4.33266L5.29385 10.1684C5.20069 10.2772 5.12679 10.4064 5.07637 10.5486C5.02595 10.6908 5 10.8432 5 10.9971C5 11.3079 5.1057 11.606 5.29385 11.8258C5.38701 11.9346 5.49761 12.0209 5.61933 12.0798C5.74105 12.1387 5.87151 12.169 6.00326 12.169C6.26935 12.169 6.52453 12.0455 6.71268 11.8258L9.99997 7.97417L9.99997 16.8328C9.99997 17.1424 10.1052 17.4393 10.2926 17.6581C10.48 17.877 10.7341 18 10.9991 18C11.2641 18 11.5183 17.877 11.7057 17.6581C11.8931 17.4393 11.9983 17.1424 11.9983 16.8328L11.9983 7.97417L15.2856 11.8258C15.3785 11.9352 15.489 12.022 15.6108 12.0812C15.7325 12.1405 15.8631 12.171 15.995 12.171C16.1269 12.171 16.2575 12.1405 16.3793 12.0812C16.501 12.022 16.6116 11.9352 16.7044 11.8258C16.7981 11.7173 16.8724 11.5882 16.9232 11.4459C16.9739 11.3037 17 11.1512 17 10.9971C17 10.843 16.9739 10.6905 16.9232 10.5482C16.8724 10.406 16.7981 10.2769 16.7044 10.1684L11.7086 4.33266C11.6135 4.2264 11.5015 4.1431 11.3788 4.08755C11.1356 3.97082 10.8627 3.97082 10.6195 4.08755Z" fill="white"/>
</svg>
