<svg width="11" height="43" viewBox="0 0 11 43" fill="none" xmlns="http://www.w3.org/2000/svg">
<path d="M5.38364 9.58718C6.37024 9.58718 7.33469 9.30982 8.15503 8.79018C8.97536 8.27054 9.61473 7.53195 9.99229 6.66781C10.3698 5.80367 10.4686 4.8528 10.2762 3.93544C10.0837 3.01807 9.60858 2.17542 8.91094 1.51404C8.21331 0.852658 7.32447 0.402252 6.35682 0.219777C5.38917 0.0373026 4.38618 0.130955 3.47467 0.488892C2.56316 0.84683 1.78409 1.45297 1.23596 2.23068C0.687829 3.00838 0.395266 3.92271 0.395266 4.85805C0.395266 6.11229 0.920826 7.31517 1.85633 8.20205C2.79183 9.08894 4.06064 9.58718 5.38364 9.58718ZM5.38364 33.2329C4.39703 33.2329 3.43258 33.5102 2.61225 34.0299C1.79191 34.5495 1.15254 35.2881 0.774983 36.1522C0.397425 37.0164 0.298639 37.9672 0.491116 38.8846C0.683593 39.802 1.15869 40.6446 1.85633 41.306C2.55396 41.9674 3.4428 42.4178 4.41045 42.6003C5.3781 42.7827 6.3811 42.6891 7.2926 42.3312C8.20411 41.9732 8.98318 41.3671 9.53131 40.5894C10.0794 39.8117 10.372 38.8973 10.372 37.962C10.372 36.7078 9.84645 35.5049 8.91094 34.618C7.97544 33.7311 6.70663 33.2329 5.38364 33.2329ZM5.38364 16.6809C4.39703 16.6809 3.43258 16.9582 2.61225 17.4779C1.79191 17.9975 1.15254 18.7361 0.774983 19.6003C0.397425 20.4644 0.298639 21.4153 0.491116 22.3326C0.683593 23.25 1.15869 24.0926 1.85633 24.754C2.55396 25.4154 3.4428 25.8658 4.41045 26.0483C5.3781 26.2308 6.3811 26.1371 7.2926 25.7792C8.20411 25.4212 8.98318 24.8151 9.53131 24.0374C10.0794 23.2597 10.372 22.3454 10.372 21.41C10.372 20.1558 9.84645 18.9529 8.91094 18.066C7.97544 17.1791 6.70663 16.6809 5.38364 16.6809Z" fill="#EEEEEE" fill-opacity="0.62"/>
</svg>
