<svg width="21" height="21" viewBox="0 0 21 21" fill="none" xmlns="http://www.w3.org/2000/svg">
<circle cx="10.5" cy="10.5" r="10.5" fill="#A51A40"/>
<path d="M11.3805 17.9124C11.5032 17.8569 11.6152 17.7736 11.7103 17.6673L16.7062 11.8316C16.7993 11.7228 16.8732 11.5936 16.9236 11.4514C16.974 11.3092 17 11.1568 17 11.0029C17 10.6921 16.8943 10.394 16.7062 10.1742C16.613 10.0654 16.5024 9.97908 16.3807 9.92019C16.2589 9.8613 16.1285 9.83098 15.9967 9.83098C15.7307 9.83098 15.4755 9.95445 15.2873 10.1742L12 14.0258L12 5.16715C12 4.8576 11.8948 4.56073 11.7074 4.34185C11.52 4.12297 11.2659 4 11.0009 4C10.7359 4 10.4817 4.12297 10.2943 4.34185C10.1069 4.56073 10.0017 4.8576 10.0017 5.16715L10.0017 14.0258L6.71438 10.1742C6.6215 10.0648 6.51099 9.97801 6.38923 9.91875C6.26747 9.8595 6.13687 9.82899 6.00497 9.82899C5.87307 9.82899 5.74247 9.8595 5.62071 9.91875C5.49895 9.97801 5.38844 10.0648 5.29555 10.1742C5.2019 10.2827 5.12757 10.4118 5.07684 10.554C5.02612 10.6963 5 10.8488 5 11.0029C5 11.157 5.02612 11.3095 5.07684 11.4518C5.12757 11.594 5.2019 11.7231 5.29555 11.8316L10.2914 17.6673C10.3865 17.7736 10.4985 17.8569 10.6212 17.9124C10.8644 18.0292 11.1373 18.0292 11.3805 17.9124Z" fill="white"/>
</svg>
