<?xml version="1.0" encoding="utf-8"?>
<!-- Generator: Adobe Illustrator 27.1.0, SVG Export Plug-In . SVG Version: 6.00 Build 0)  -->
<svg version="1.1" id="Capa_1" xmlns="http://www.w3.org/2000/svg" xmlns:xlink="http://www.w3.org/1999/xlink" x="0px" y="0px"
	 viewBox="0 0 1080 1080" style="enable-background:new 0 0 1080 1080;" xml:space="preserve">
<style type="text/css">
	.st0{fill:url(#SVGID_1_);}
</style>
<g>
	
		<linearGradient id="SVGID_1_" gradientUnits="userSpaceOnUse" x1="543.6968" y1="1047.7021" x2="543.6968" y2="25.0957" gradientTransform="matrix(1 0 0 -1 0 1081)">
		<stop  offset="0" style="stop-color:#00FB73"/>
		<stop  offset="1" style="stop-color:#00B25B"/>
	</linearGradient>
	<path class="st0" d="M852.1,289.1h-18c11.7-23.9,17.9-50.1,18-76.7c0.2-35.6-10.4-70.5-30.3-100c-19.9-29.6-48.3-52.6-81.5-66
		c-33.2-13.4-69.6-16.7-104.7-9.3s-67.1,25-91.9,50.6c-24.9-25.6-56.9-43.2-91.9-50.6c-35-7.4-71.5-4.1-104.7,9.3
		c-33.2,13.4-61.5,36.4-81.5,66c-19.9,29.6-30.5,64.4-30.3,100c0.1,26.6,6.3,52.8,18,76.7h-18c-40.9,0-80.1,16.2-109,44.9
		c-28.9,28.8-45.2,67.8-45.2,108.4v102.2c0,13.6,5.4,26.6,15.1,36.1c9.6,9.6,22.7,15,36.3,15h51.4v306.7
		c0,40.7,16.2,79.7,45.2,108.4c28.9,28.8,68.1,44.9,109,44.9h411.2c40.9,0,80.1-16.2,109-44.9c28.9-28.8,45.2-67.8,45.2-108.4V595.8
		h51.4c13.6,0,26.7-5.4,36.3-15c9.6-9.6,15.1-22.6,15.1-36.1V442.5c0-40.7-16.2-79.7-45.2-108.4C932.2,305.3,893,289.1,852.1,289.1z
		 M492.3,953.7H338.1c-13.6,0-26.7-5.4-36.3-15c-9.6-9.6-15.1-22.6-15.1-36.1V595.8h205.6V953.7z M492.3,493.6H183.9v-51.1
		c0-13.6,5.4-26.6,15.1-36.1c9.6-9.6,22.7-15,36.3-15h257V493.6z M492.3,289.1h-77.1c-15.2,0-30.2-4.5-42.8-12.9
		c-12.7-8.4-22.6-20.4-28.4-34.4c-5.8-14-7.4-29.4-4.4-44.3c3-14.9,10.3-28.5,21.1-39.3c10.8-10.7,24.5-18,39.5-21
		c15-3,30.5-1.4,44.5,4.4c14.1,5.8,26.1,15.6,34.6,28.2c8.5,12.6,13,27.4,13,42.6V289.1z M595.1,212.5c0-15.2,4.5-30,13-42.6
		c8.5-12.6,20.5-22.4,34.6-28.2c14.1-5.8,29.6-7.3,44.5-4.4c15,3,28.7,10.3,39.5,21c10.8,10.7,18.1,24.4,21.1,39.3
		c3,14.9,1.4,30.3-4.4,44.3c-5.8,14-15.7,26-28.4,34.4c-12.7,8.4-27.6,12.9-42.8,12.9h-77.1V212.5z M800.7,902.6
		c0,13.6-5.4,26.6-15.1,36.1c-9.6,9.6-22.7,15-36.3,15H595.1V595.8h205.6V902.6z M903.5,493.6H595.1V391.4h257
		c13.6,0,26.7,5.4,36.3,15c9.6,9.6,15.1,22.6,15.1,36.1V493.6z"/>
</g>
</svg>
