<svg width="63" height="52" viewBox="0 0 63 52" fill="none" xmlns="http://www.w3.org/2000/svg">
<path fill-rule="evenodd" clip-rule="evenodd" d="M62.1931 0.420889C62.4358 0.622501 62.6011 0.879091 62.668 1.15833C62.735 1.43757 62.7006 1.72698 62.5693 1.99008L38.1846 51.0274C38.0446 51.3077 37.8015 51.5444 37.4898 51.7038C37.1781 51.8632 36.8136 51.9371 36.4482 51.915C36.0829 51.893 35.7352 51.7761 35.4546 51.581C35.1741 51.3859 34.975 51.1225 34.8856 50.8283L28.1729 28.5914L1.31478 23.0328C0.959677 22.9585 0.641919 22.7933 0.406683 22.5609C0.171448 22.3284 0.0307077 22.0404 0.00447428 21.7379C-0.0217591 21.4354 0.067849 21.1337 0.260558 20.8758C0.453267 20.6178 0.739269 20.4168 1.0779 20.3012L60.298 0.109359C60.6158 0.000616603 60.9653 -0.0278279 61.3025 0.0276098C61.6397 0.0830475 61.9496 0.219887 62.1931 0.420889ZM7.2995 21.2992L30.0296 26.001C30.3365 26.0646 30.6167 26.1962 30.8401 26.3817C31.0635 26.5672 31.2216 26.7996 31.2976 27.0539L36.9792 45.8756L57.7585 4.0958L7.2995 21.2992Z" fill="white"/>
<path fill-rule="evenodd" clip-rule="evenodd" d="M62.1869 0.427022C62.3504 0.56204 62.4801 0.722436 62.5686 0.899023C62.6571 1.07561 62.7026 1.26492 62.7026 1.4561C62.7026 1.64729 62.6571 1.8366 62.5686 2.01319C62.4801 2.18977 62.3504 2.35017 62.1869 2.48519L30.5902 28.6483C30.427 28.7834 30.2333 28.8906 30.02 28.9638C29.8068 29.0369 29.5782 29.0745 29.3474 29.0745C29.1166 29.0745 28.8881 29.0369 28.6748 28.9638C28.4616 28.8906 28.2678 28.7834 28.1046 28.6483C27.9414 28.5131 27.812 28.3527 27.7236 28.1761C27.6353 27.9996 27.5898 27.8103 27.5898 27.6192C27.5898 27.4281 27.6353 27.2388 27.7236 27.0623C27.812 26.8857 27.9414 26.7253 28.1046 26.5901L59.7013 0.427022C59.8644 0.291662 60.0581 0.184269 60.2713 0.110993C60.4846 0.0377181 60.7132 0 60.9441 0C61.175 0 61.4036 0.0377181 61.6169 0.110993C61.8301 0.184269 62.0238 0.291662 62.1869 0.427022Z" fill="white"/>
</svg>
