<svg width="53" height="32" viewBox="0 0 53 32" fill="none" xmlns="http://www.w3.org/2000/svg">
<g clip-path="url(#clip0_4802_2153)">
<path d="M52.6507 16.0891C52.6532 24.7888 45.6465 31.8427 37.0012 31.845C28.3556 31.8471 21.346 24.7968 21.3438 16.0971C21.3438 16.0943 21.3438 16.0919 21.3438 16.0891C21.3415 7.38954 28.3481 0.335319 36.9931 0.333008C45.6386 0.330697 52.6484 7.38136 52.6507 16.0811C52.6507 16.0838 52.6507 16.0863 52.6507 16.0891Z" fill="#FF9900"/>
<path d="M15.9003 0.336993C7.3062 0.391926 0.347656 7.42784 0.347656 16.089C0.347656 24.7839 7.36044 31.8408 16.0012 31.8408C20.0566 31.8408 23.7532 30.2856 26.5348 27.7366C26.5348 27.7366 26.5342 27.7363 26.5335 27.7359H26.5369C27.1065 27.2136 27.6377 26.6501 28.126 26.0492H24.919C24.4907 25.5286 24.1015 24.9862 23.7519 24.4266H29.283C29.6194 23.8849 29.924 23.3224 30.1943 22.7398H22.8387C22.588 22.199 22.3704 21.646 22.1845 21.0849H30.8492C31.3714 19.5148 31.6548 17.8349 31.6548 16.0888C31.6548 14.9311 31.53 13.8024 31.294 12.7157H21.725C21.8436 12.1564 21.9932 11.6038 22.1716 11.0609H30.8394C30.6456 10.4831 30.4206 9.9201 30.1646 9.37433H22.8379C23.1021 8.80615 23.4016 8.25344 23.736 7.71975H29.263C28.8952 7.13006 28.4882 6.56668 28.0481 6.03299H24.9665C25.443 5.46873 25.9675 4.93735 26.5369 4.44188C23.7551 1.89255 20.0575 0.336993 16.0012 0.336993C15.9675 0.336993 15.9341 0.336815 15.9003 0.336993Z" fill="#CC0000"/>
<path d="M51.0807 24.3242C51.1659 24.3242 51.2487 24.3464 51.3296 24.3902C51.4109 24.4339 51.4735 24.497 51.5187 24.579C51.5639 24.66 51.5865 24.7456 51.5865 24.8341C51.5865 24.9216 51.5641 25.0062 51.5196 25.0872C51.4752 25.1681 51.4127 25.2312 51.3321 25.2762C51.2524 25.3205 51.1682 25.3429 51.0805 25.3429C50.9929 25.3429 50.9088 25.3205 50.8286 25.2762C50.7482 25.2311 50.6861 25.1683 50.6408 25.0872C50.5963 25.0062 50.5742 24.9216 50.5742 24.8341C50.5742 24.7456 50.5967 24.66 50.6421 24.579C50.6876 24.497 50.7505 24.4344 50.8313 24.3902C50.9129 24.3464 50.9957 24.3242 51.0807 24.3242ZM51.0807 24.4087C51.0099 24.4087 50.9406 24.4272 50.873 24.464C50.8058 24.5008 50.7534 24.5528 50.7155 24.6218C50.6772 24.6897 50.6581 24.7601 50.6581 24.8341C50.6581 24.9073 50.6769 24.9781 50.7138 25.0453C50.7516 25.1123 50.8039 25.1649 50.8707 25.2026C50.938 25.2401 51.0078 25.2586 51.0805 25.2586C51.1537 25.2586 51.2236 25.2401 51.2906 25.2026C51.3574 25.1649 51.4095 25.1123 51.4468 25.0453C51.4837 24.9781 51.5021 24.9075 51.5021 24.8341C51.5021 24.7601 51.4833 24.6896 51.4454 24.6218C51.4077 24.5528 51.3551 24.5008 51.2874 24.464C51.2205 24.427 51.1516 24.4087 51.0807 24.4087ZM50.8588 25.1153V24.5674H51.0464C51.11 24.5674 51.1563 24.5724 51.185 24.5831C51.2136 24.5932 51.2364 24.6104 51.2535 24.6359C51.2703 24.6609 51.2789 24.6876 51.2789 24.716C51.2789 24.7562 51.2648 24.7911 51.2362 24.8206C51.2083 24.8501 51.1703 24.867 51.1233 24.8705C51.1426 24.8785 51.1579 24.8887 51.1699 24.8997C51.192 24.921 51.2185 24.9571 51.2503 25.0081L51.3166 25.1153H51.2095L51.1615 25.0291C51.1235 24.9612 51.0929 24.9189 51.0694 24.9015C51.0533 24.8892 51.0298 24.8828 50.9993 24.8828H50.9475V25.1159H50.8592M50.9468 24.8069H51.0535C51.1044 24.8069 51.1388 24.7991 51.1574 24.784C51.1761 24.7683 51.1855 24.7484 51.1855 24.7231C51.1855 24.7068 51.1812 24.6922 51.1722 24.6798C51.1631 24.6668 51.1507 24.6576 51.1346 24.651C51.1189 24.6448 51.0896 24.6412 51.0468 24.6412H50.9472V24.8069" fill="#FCB340"/>
<path d="M21.1981 20.6082L21.4066 19.1824C21.2926 19.1824 21.1252 19.232 20.9771 19.232C20.3969 19.232 20.3245 18.92 20.3701 18.6921L20.9418 15.8245H21.8237L22.0055 14.2062H21.1743L21.3435 13.2256H19.6048C19.568 13.2626 18.6211 18.7406 18.6211 19.408C18.6211 20.3955 19.1719 20.835 19.9489 20.8281C20.557 20.8229 21.031 20.6535 21.1981 20.6082Z" fill="#000066"/>
<path d="M21.7266 17.8903C21.7266 20.2604 23.2811 20.8234 24.6057 20.8234C25.8284 20.8234 26.4695 20.5383 26.4695 20.5383L26.7632 18.9205C26.7632 18.9205 25.73 19.3433 24.8903 19.3433C23.1005 19.3433 23.4143 18.0003 23.4143 18.0003L26.8527 18.0108C26.8527 18.0108 27.0716 16.9244 27.0716 16.4816C27.0716 15.3763 26.4732 14.0195 24.6433 14.0195C22.9675 14.0199 21.7266 15.837 21.7266 17.8903ZM24.6497 15.5214C25.5903 15.5214 25.4168 16.5852 25.4168 16.6714H23.5664C23.5664 16.5612 23.7411 15.5214 24.6497 15.5214Z" fill="#000066"/>
<path d="M35.2035 20.608L35.5018 18.7797C35.5018 18.7797 34.6835 19.1923 34.1226 19.1923C32.9402 19.1923 32.4658 18.2839 32.4658 17.3077C32.4658 15.3278 33.4831 14.2384 34.6155 14.2384C35.4649 14.2384 36.1463 14.7182 36.1463 14.7182L36.4184 12.9416C36.4184 12.9416 35.6138 12.3569 34.7478 12.3536C32.1429 12.3432 30.6523 14.1683 30.6523 17.3233C30.6523 19.4145 31.7562 20.8376 33.7451 20.8376C34.3074 20.8376 35.2035 20.608 35.2035 20.608Z" fill="#000066"/>
<path d="M12.0309 14.0459C10.8881 14.0459 10.0121 14.4155 10.0121 14.4155L9.77011 15.8603C9.77011 15.8603 10.4932 15.5647 11.5864 15.5647C12.2071 15.5647 12.6611 15.6349 12.6611 16.1424C12.6611 16.4507 12.6056 16.5645 12.6056 16.5645C12.6056 16.5645 12.1159 16.5234 11.8891 16.5234C10.262 16.5234 8.93359 17.1424 8.93359 19.0087C8.93359 20.4795 9.92699 20.8167 10.5427 20.8167C11.7187 20.8167 12.1843 20.0695 12.2111 20.0674L12.1975 20.6875H13.6651L14.3198 16.0688C14.3198 14.1088 12.621 14.0459 12.0309 14.0459ZM12.285 17.7963C12.3169 18.0783 12.2125 19.4116 11.2087 19.4116C10.6911 19.4116 10.5566 19.0134 10.5566 18.7783C10.5566 18.319 10.8045 17.768 12.0256 17.768C12.31 17.768 12.2371 17.7887 12.285 17.7963Z" fill="#000066"/>
<path d="M15.8782 20.783C16.2536 20.783 18.3996 20.8792 18.3996 18.6508C18.3996 16.567 16.4131 16.979 16.4131 16.1416C16.4131 15.7253 16.737 15.5941 17.329 15.5941C17.5638 15.5941 18.4679 15.6693 18.4679 15.6693L18.678 14.1884C18.678 14.1884 18.0929 14.0566 17.1403 14.0566C15.9073 14.0566 14.6558 14.5519 14.6558 16.2465C14.6558 18.1669 16.7426 17.974 16.7426 18.7829C16.7426 19.3228 16.1596 19.3672 15.7102 19.3672C14.9327 19.3672 14.2327 19.0986 14.2302 19.1116L14.0078 20.5774C14.0483 20.5898 14.4802 20.783 15.8782 20.783Z" fill="#000066"/>
<path d="M48.9493 12.7021L48.6481 14.9615C48.6481 14.9615 48.0204 14.0895 47.0383 14.0895C45.1905 14.0895 44.2383 15.9425 44.2383 18.071C44.2383 19.4453 44.9174 20.7923 46.3051 20.7923C47.3034 20.7923 47.8569 20.0917 47.8569 20.0917L47.7836 20.6899H49.4051L50.6783 12.7144L48.9493 12.7021ZM48.2334 17.0934C48.2334 17.9793 47.7974 19.1628 46.8941 19.1628C46.2942 19.1628 46.0129 18.6559 46.0129 17.8607C46.0129 16.5603 46.5933 15.7025 47.3259 15.7025C47.9255 15.7025 48.2334 16.1167 48.2334 17.0934Z" fill="#000066"/>
<path d="M3.00603 20.6964L4.02062 14.6751L4.16973 20.6964H5.31789L7.45997 14.6751L6.51109 20.6964H8.21734L9.53121 12.7103L6.82079 12.6895L5.20853 17.5791L5.16436 12.7103H2.68043L1.34766 20.6964H3.00603Z" fill="#000066"/>
<path d="M28.6844 20.7086C29.1695 17.9326 29.3423 15.7403 30.757 16.1943C30.9602 15.1198 31.4444 14.1854 31.6656 13.7307C31.6656 13.7307 31.5957 13.626 31.1584 13.626C30.412 13.626 29.4154 15.1502 29.4154 15.1502L29.5644 14.2078H28.0122L26.9727 20.7085L28.6844 20.7086Z" fill="#000066"/>
<path d="M38.6913 14.0459C37.5479 14.0459 36.672 14.4155 36.672 14.4155L36.4301 15.8603C36.4301 15.8603 37.1535 15.5647 38.2462 15.5647C38.867 15.5647 39.3209 15.6349 39.3209 16.1424C39.3209 16.4507 39.2656 16.5645 39.2656 16.5645C39.2656 16.5645 38.776 16.5234 38.5492 16.5234C36.9219 16.5234 35.5938 17.1424 35.5938 19.0087C35.5938 20.4795 36.587 20.8167 37.2027 20.8167C38.3784 20.8167 38.8442 20.0695 38.8709 20.0674L38.8571 20.6875H40.3251L40.9796 16.0688C40.9798 14.1088 39.281 14.0459 38.6913 14.0459ZM38.9449 17.7963C38.9767 18.0783 38.8723 19.4116 37.8687 19.4116C37.3507 19.4116 37.2164 19.0134 37.2164 18.7783C37.2164 18.319 37.4641 17.768 38.6854 17.768C38.97 17.768 38.8972 17.7887 38.9449 17.7963Z" fill="#000066"/>
<path d="M42.6691 20.708C42.9355 18.6657 43.4286 15.7985 44.7416 16.1937C44.9446 15.1192 44.7488 15.1221 44.3118 15.1221C43.5648 15.1221 43.3994 15.1494 43.3994 15.1494L43.5486 14.207H41.9965L40.957 20.7078L42.6691 20.708Z" fill="#000066"/>
<path d="M21.6282 20.0996L21.8368 18.674C21.7229 18.674 21.5552 18.723 21.4073 18.723C20.8272 18.723 20.7632 18.4126 20.8001 18.1831L21.2688 15.2743H22.1506L22.3635 13.6974H21.5321L21.7013 12.7168H20.0346C19.9979 12.7538 19.0508 18.232 19.0508 18.899C19.0508 19.8866 19.6018 20.3264 20.3788 20.3193C20.9872 20.3141 21.461 20.1447 21.6282 20.0996Z" fill="white"/>
<path d="M22.1562 17.3817C22.1562 19.7518 23.7109 20.315 25.0354 20.315C26.2579 20.315 26.7959 20.04 26.7959 20.04L27.0895 18.4224C27.0895 18.4224 26.1595 18.8347 25.3196 18.8347C23.53 18.8347 23.8434 17.4919 23.8434 17.4919H27.2305C27.2305 17.4919 27.4492 16.4051 27.4492 15.9623C27.4492 14.8572 26.9026 13.5107 25.0727 13.5107C23.3968 13.5111 22.1562 15.3282 22.1562 17.3817ZM25.079 15.0128C26.0196 15.0128 25.8461 16.0764 25.8461 16.1625H23.9957C23.9957 16.0526 24.1706 15.0128 25.079 15.0128Z" fill="white"/>
<path d="M35.6334 20.0992L35.9316 18.2707C35.9316 18.2707 35.1139 18.6834 34.5526 18.6834C33.3703 18.6834 32.8962 17.7749 32.8962 16.7989C32.8962 14.819 33.9134 13.7298 35.0458 13.7298C35.8951 13.7298 36.5767 14.2096 36.5767 14.2096L36.8487 12.433C36.8487 12.433 35.838 12.0215 34.9716 12.0215C33.0476 12.0215 31.1758 13.7011 31.1758 16.8556C31.1758 18.9474 32.1865 20.3289 34.1754 20.3289C34.7377 20.329 35.6334 20.0992 35.6334 20.0992Z" fill="white"/>
<path d="M12.4647 13.5371C11.3218 13.5371 10.4457 13.9067 10.4457 13.9067L10.2039 15.3515C10.2039 15.3515 10.927 15.0559 12.02 15.0559C12.6406 15.0559 13.0947 15.1261 13.0947 15.6336C13.0947 15.9419 13.039 16.0557 13.039 16.0557C13.039 16.0557 12.5495 16.0144 12.3228 16.0144C10.8814 16.0144 9.36719 16.6335 9.36719 18.4998C9.36719 19.9704 10.3606 20.3078 10.9763 20.3078C12.1522 20.3078 12.659 19.54 12.686 19.5376L12.6311 20.1785H14.0987L14.7534 15.5597C14.7534 13.6002 13.0548 13.5371 12.4647 13.5371ZM12.8217 17.2978C12.8535 17.58 12.6459 18.9024 11.6425 18.9024C11.1248 18.9024 10.9902 18.5046 10.9902 18.2692C10.9902 17.8102 11.2381 17.2591 12.4594 17.2591C12.7435 17.2594 12.7739 17.29 12.8217 17.2978Z" fill="white"/>
<path d="M16.3116 20.2735C16.687 20.2735 18.8332 20.3695 18.8332 18.141C18.8332 16.0576 16.8465 16.4692 16.8465 15.6322C16.8465 15.2155 17.1704 15.0843 17.7622 15.0843C17.9972 15.0843 18.9012 15.1595 18.9012 15.1595L19.1114 13.6786C19.1114 13.6786 18.5263 13.5469 17.5737 13.5469C16.3407 13.5469 15.0892 14.0422 15.0892 15.7367C15.0892 17.6569 17.176 17.4642 17.176 18.2731C17.176 18.813 16.593 18.8569 16.1438 18.8569C15.3663 18.8569 14.6661 18.5885 14.6637 18.6013L14.4414 20.0672C14.4817 20.0797 14.9135 20.2735 16.3116 20.2735Z" fill="white"/>
<path d="M49.4408 12.2077L49.0813 14.4525C49.0813 14.4525 48.454 13.5805 47.4719 13.5805C45.9448 13.5805 44.6719 15.4333 44.6719 17.5622C44.6719 18.9365 45.3508 20.2829 46.7387 20.2829C47.737 20.2829 48.2905 19.5825 48.2905 19.5825L48.2172 20.1807H49.8383L51.1115 12.2051L49.4408 12.2077ZM48.6668 16.5846C48.6668 17.4705 48.231 18.6538 47.3274 18.6538C46.7276 18.6538 46.4465 18.1471 46.4465 17.3519C46.4465 16.0517 47.0268 15.1937 47.7591 15.1937C48.3591 15.1935 48.6668 15.6083 48.6668 16.5846Z" fill="white"/>
<path d="M3.43899 20.1885L4.45359 14.1671L4.60252 20.1885H5.75085L7.89293 14.1671L6.94406 20.1885H8.65031L9.96435 12.2021H7.32583L5.68266 17.1022L5.59715 12.2021H3.16498L1.83203 20.1885H3.43899Z" fill="white"/>
<path d="M29.1178 20.1988C29.6029 17.4226 29.6928 15.1684 30.8505 15.581C31.0532 14.5065 31.2487 14.0909 31.4699 13.6361C31.4699 13.6361 31.3662 13.6143 31.1486 13.6143C30.4022 13.6143 29.8492 14.6404 29.8492 14.6404L29.9978 13.698H28.4459L27.4062 20.1988H29.1178Z" fill="white"/>
<path d="M39.4801 13.5371C38.3373 13.5371 37.4612 13.9067 37.4612 13.9067L37.2195 15.3515C37.2195 15.3515 37.9426 15.0559 39.0356 15.0559C39.6563 15.0559 40.1099 15.1261 40.1099 15.6336C40.1099 15.9419 40.0547 16.0557 40.0547 16.0557C40.0547 16.0557 39.5651 16.0144 39.3383 16.0144C37.897 16.0144 36.3828 16.6335 36.3828 18.4998C36.3828 19.9704 37.376 20.3078 37.9917 20.3078C39.1676 20.3078 39.6745 19.54 39.7013 19.5376L39.6467 20.1785C39.6467 20.1785 41.1138 20.1785 41.1143 20.1785L41.7688 15.5597C41.769 13.6002 40.0702 13.5371 39.4801 13.5371ZM39.8377 17.2978C39.8695 17.58 39.6617 18.9024 38.6579 18.9024C38.1403 18.9024 38.006 18.5046 38.006 18.2692C38.006 17.8102 38.2539 17.2591 39.475 17.2591C39.7591 17.2594 39.7893 17.29 39.8377 17.2978Z" fill="white"/>
<path d="M43.1098 20.1988C43.5951 17.4226 43.685 15.1684 44.8424 15.581C45.0454 14.5065 45.2411 14.0909 45.4621 13.6361C45.4621 13.6361 45.3584 13.6143 45.1408 13.6143C44.3944 13.6143 43.8414 14.6404 43.8414 14.6404L43.99 13.698H42.4381L41.3984 20.1988H43.1098Z" fill="white"/>
<path d="M51.0733 19.1963C51.1579 19.1963 51.2413 19.2182 51.3217 19.2626C51.4027 19.3056 51.4658 19.3689 51.511 19.4509C51.5564 19.5323 51.5787 19.6171 51.5787 19.7058C51.5787 19.7934 51.5564 19.8781 51.5118 19.959C51.4674 20.0398 51.405 20.1033 51.3247 20.1479C51.2445 20.1924 51.1604 20.2148 51.0731 20.2148C50.9851 20.2148 50.901 20.1924 50.8206 20.1479C50.7404 20.103 50.6782 20.0398 50.6337 19.959C50.5885 19.8781 50.5664 19.7934 50.5664 19.7058C50.5664 19.6171 50.5888 19.5323 50.6342 19.4509C50.6798 19.3689 50.7431 19.306 50.8238 19.2626C50.9053 19.2182 50.9886 19.1963 51.0733 19.1963ZM51.0733 19.2802C51.0024 19.2802 50.9332 19.2987 50.8655 19.3358C50.798 19.3721 50.7455 19.4246 50.7076 19.4932C50.6698 19.5609 50.6507 19.6318 50.6507 19.7054C50.6507 19.779 50.6691 19.8494 50.706 19.9166C50.7436 19.9837 50.7959 20.0363 50.8634 20.0742C50.9302 20.1111 50.9999 20.1298 51.0733 20.1298C51.1461 20.1298 51.2164 20.1111 51.2831 20.0742C51.3499 20.0363 51.4022 19.9837 51.4393 19.9166C51.4766 19.8489 51.4948 19.779 51.4948 19.7054C51.4948 19.6318 51.4759 19.5609 51.4381 19.4932C51.4005 19.4246 51.348 19.3721 51.2801 19.3358C51.213 19.2989 51.1443 19.2802 51.0733 19.2802ZM50.8515 19.987V19.439H51.039C51.1028 19.439 51.1494 19.4441 51.1777 19.4546C51.2063 19.4644 51.2287 19.482 51.2462 19.5074C51.2634 19.5326 51.272 19.5591 51.272 19.5876C51.272 19.6276 51.2575 19.6626 51.2289 19.6921C51.201 19.7216 51.1634 19.7387 51.1164 19.7419C51.1351 19.7501 51.1506 19.7598 51.1627 19.7709C51.1844 19.7926 51.2112 19.8288 51.243 19.8795L51.3096 19.9869H51.2021L51.1542 19.9006C51.116 19.8326 51.0855 19.7902 51.0621 19.773C51.0461 19.7604 51.0226 19.7542 50.9916 19.7542H50.9402V19.9872L50.8515 19.987ZM50.9395 19.6786H51.0462C51.0973 19.6786 51.1317 19.671 51.1501 19.6557C51.1687 19.6407 51.1784 19.6203 51.1784 19.5949C51.1784 19.5787 51.174 19.5641 51.1651 19.5518C51.1561 19.5387 51.1436 19.5293 51.1275 19.5227C51.1114 19.5165 51.0826 19.5133 51.0395 19.5133H50.9397V19.6786" fill="white"/>
</g>
<defs>
<clipPath id="clip0_4802_2153">
<rect width="53" height="32" fill="white"/>
</clipPath>
</defs>
</svg>
