<?xml version="1.0" encoding="UTF-8"?>
<svg id="Capa_1" data-name="Capa 1" xmlns="http://www.w3.org/2000/svg" xmlns:xlink="http://www.w3.org/1999/xlink" viewBox="0 0 1080 1080">
  <defs>
    <style>
      .cls-1 {
        fill: #fff;
      }

      .cls-2 {
        fill: url(#Degradado_sin_nombre_27);
      }

      .cls-3 {
        fill: #f79d47;
      }
    </style>
    <linearGradient id="Degradado_sin_nombre_27" data-name="Degradado sin nombre 27" x1="16.68" y1="540" x2="1063.32" y2="540" gradientUnits="userSpaceOnUse">
      <stop offset="0" stop-color="#662d91"/>
      <stop offset=".38" stop-color="#ba17e3"/>
      <stop offset="1" stop-color="#e44f9c"/>
    </linearGradient>
  </defs>
  <rect class="cls-2" x="16.68" y="50.55" width="1046.64" height="978.9" rx="32.43" ry="32.43"/>
  <g>
    <path class="cls-1" d="m786.5,300.48c-27.59-24.82-29.79-66.9-4.92-94.33,24.76-27.32,66.89-29.29,94.5-4.4,27.03,24.37,29.2,66.84,4.79,94.04-24.63,27.45-66.74,29.55-94.37,4.69Z"/>
    <path class="cls-1" d="m290.79,800.66c28.12,25.13,30.25,66.11,4.91,94.59-23.97,26.95-66.25,29.27-93.29,5.14-27.85-24.86-30.38-66.56-5.71-94.22,24.89-27.91,66.31-30.33,94.09-5.51Z"/>
    <path class="cls-1" d="m670.05,276.52c80.62-.14,145.44,55,156.28,129.98,7.25,50.14-7.04,94.12-42.49,130.51-28.49,29.25-57.65,57.86-86.58,86.67-12.85,12.79-32.12,12.66-44.37-.08-11.42-11.88-11.22-30.91.59-42.76,28.83-28.93,57.95-57.58,86.53-86.76,24.25-24.75,31.7-54.46,23.79-88.07-5.41-23-18.55-41.07-38.24-53.35-29.07-18.13-59.83-20.04-91.22-5.4-11.79,5.5-21.03,14.21-30.06,23.27-26.68,26.78-53.4,53.51-80.19,80.18-8.84,8.8-19.47,11.55-31.38,7.79-11.78-3.72-18.71-12.15-20.84-24.18-1.75-9.88.96-18.84,8.04-25.95,30.19-30.35,60.1-61.01,90.96-90.66,28.85-27.72,64.16-40.64,99.19-41.2Z"/>
    <path class="cls-1" d="m425.09,841.93c-79.64.13-141.38-47.59-157.67-115.39-13.42-55.86.36-104.93,40.5-146.09,28.2-28.91,57-57.23,85.6-85.75,16.6-16.56,44.31-10.14,51.15,12,3.65,11.83.92,22.56-7.92,31.42-28.32,28.37-56.82,56.56-85,85.06-25.25,25.53-34.06,56.16-24.29,90.71,9.71,34.33,32.94,56.27,67.73,64.32,32.39,7.49,61.2-.99,84.97-24.26,29.08-28.46,57.58-57.52,86.43-86.21,9.79-9.74,23.56-12.05,35.23-6.37,18.97,9.24,23.41,33.84,8.58,49.11-14.07,14.48-28.5,28.62-42.78,42.89-15.14,15.13-30.11,30.45-45.5,45.33-29.76,28.79-65.67,42.7-97.02,43.22Z"/>
    <path class="cls-3" d="m458.66,675.98c-12.26-.02-22.9-7.13-27.79-18.59-5.08-11.9-2.84-24.07,6.49-33.54,12.57-12.75,25.31-25.33,37.97-37.99,44.63-44.63,89.25-89.27,133.91-133.88,12.46-12.45,30.69-13.29,43.03-2.1,13.09,11.87,13.84,31.71,1.35,44.27-26.94,27.12-54.03,54.11-81.06,81.14-23.81,23.82-47.62,47.64-71.46,71.43-6.96,6.95-13.99,13.84-21.08,20.65-5.94,5.71-13.1,8.61-21.38,8.6Z"/>
  </g>
</svg>