<svg width="241" height="70" viewBox="0 0 241 70" fill="none" xmlns="http://www.w3.org/2000/svg">
<path d="M89.8114 14.3164H76.5195C75.6099 14.3164 74.8364 15.0376 74.6945 16.0176L69.3186 53.2173C69.2117 53.9512 69.7326 54.6131 70.4148 54.6131H76.7605C77.6701 54.6131 78.4436 53.8919 78.5855 52.9097L80.0354 42.8764C80.1753 41.8943 80.9508 41.1731 81.8584 41.1731H86.0662C94.8219 41.1731 99.8751 36.5488 101.195 27.3852C101.79 23.3761 101.22 20.2261 99.5 18.02C97.6109 15.5976 94.2602 14.3164 89.8114 14.3164ZM91.3449 27.9028C90.618 33.1082 86.9738 33.1082 83.4502 33.1082H81.4444L82.8516 23.3867C82.9351 22.7991 83.4016 22.3664 83.9458 22.3664H84.8651C87.2654 22.3664 89.5296 22.3664 90.6996 23.8597C91.3974 24.7506 91.6111 26.0743 91.3449 27.9028Z" fill="#253B80"/>
<path d="M129.547 27.7344H123.182C122.64 27.7344 122.171 28.1671 122.088 28.7547L121.806 30.6977L121.361 29.9935C119.983 27.8108 116.91 27.0811 113.843 27.0811C106.809 27.0811 100.802 32.8953 99.6318 41.0514C99.0235 45.1198 99.8884 49.0101 102.003 51.7232C103.943 54.2177 106.718 55.2571 110.02 55.2571C115.687 55.2571 118.83 51.2798 118.83 51.2798L118.546 53.2101C118.44 53.9483 118.96 54.6101 119.639 54.6101H125.372C126.284 54.6101 127.053 53.8889 127.197 52.9068L130.637 29.1301C130.746 28.3983 130.227 27.7344 129.547 27.7344ZM120.675 41.255C120.06 45.2238 117.174 47.888 113.493 47.888C111.645 47.888 110.168 47.2411 109.219 46.015C108.279 44.7974 107.921 43.0644 108.22 41.1341C108.794 37.1992 111.728 34.448 115.353 34.448C117.161 34.448 118.63 35.1035 119.598 36.3401C120.568 37.5895 120.953 39.3332 120.675 41.255Z" fill="#253B80"/>
<path d="M163.445 27.7344H157.049C156.438 27.7344 155.865 28.0653 155.519 28.6189L146.697 42.8013L142.958 29.1726C142.723 28.3198 142.002 27.7344 141.185 27.7344H134.9C134.136 27.7344 133.606 28.5489 133.849 29.3338L140.894 51.8992L134.27 62.1044C133.749 62.9083 134.274 64.0135 135.174 64.0135H141.563C142.169 64.0135 142.736 63.691 143.08 63.148L164.355 29.6329C164.864 28.831 164.341 27.7344 163.445 27.7344Z" fill="#253B80"/>
<path d="M184.62 14.3164H171.326C170.419 14.3164 169.645 15.0376 169.503 16.0176L164.127 53.2173C164.02 53.9512 164.541 54.6131 165.22 54.6131H172.041C172.675 54.6131 173.217 54.1082 173.316 53.4209L174.842 42.8764C174.982 41.8943 175.757 41.1731 176.665 41.1731H180.871C189.629 41.1731 194.68 36.5488 196.001 27.3852C196.598 23.3761 196.025 20.2261 194.305 18.02C192.418 15.5976 189.069 14.3164 184.62 14.3164ZM186.153 27.9028C185.429 33.1082 181.784 33.1082 178.259 33.1082H176.255L177.664 23.3867C177.748 22.7991 178.21 22.3664 178.756 22.3664H179.676C182.074 22.3664 184.34 22.3664 185.51 23.8597C186.208 24.7506 186.42 26.0743 186.153 27.9028Z" fill="#179BD7"/>
<path d="M224.351 27.7344H217.99C217.444 27.7344 216.979 28.1671 216.898 28.7547L216.616 30.6977L216.169 29.9935C214.791 27.8108 211.72 27.0811 208.653 27.0811C201.619 27.0811 195.614 32.8953 194.444 41.0514C193.837 45.1198 194.698 49.0101 196.813 51.7232C198.757 54.2177 201.528 55.2571 204.83 55.2571C210.497 55.2571 213.64 51.2798 213.64 51.2798L213.356 53.2101C213.25 53.9483 213.77 54.6101 214.453 54.6101H220.184C221.092 54.6101 221.865 53.8889 222.007 52.9068L225.449 29.1301C225.554 28.3983 225.033 27.7344 224.351 27.7344ZM215.479 41.255C214.869 45.2238 211.978 47.888 208.297 47.888C206.453 47.888 204.972 47.2411 204.024 46.015C203.083 44.7974 202.729 43.0644 203.025 41.1341C203.602 37.1992 206.533 34.448 210.157 34.448C211.965 34.448 213.434 35.1035 214.402 36.3401C215.376 37.5895 215.761 39.3332 215.479 41.255Z" fill="#179BD7"/>
<path d="M231.856 15.3359L226.401 53.2165C226.294 53.9504 226.815 54.6123 227.493 54.6123H232.978C233.889 54.6123 234.663 53.891 234.803 52.9089L240.182 15.7114C240.289 14.9774 239.768 14.3135 239.09 14.3135H232.948C232.406 14.3156 231.94 14.7483 231.856 15.3359Z" fill="#179BD7"/>
<path d="M14.1222 61.8416L15.1387 54.7949L12.8745 54.7376H2.0625L9.57626 2.74036C9.59958 2.58339 9.67538 2.43703 9.78616 2.33309C9.89694 2.22915 10.0388 2.17188 10.1865 2.17188H28.417C34.4692 2.17188 38.6459 3.54642 40.8266 6.25945C41.8489 7.53218 42.5 8.86218 42.8148 10.3258C43.1452 11.8616 43.1511 13.6964 42.8284 15.9343L42.8051 16.0976V17.5316L43.8274 18.1637C44.6884 18.6622 45.3725 19.2328 45.8973 19.8861C46.7719 20.9743 47.3375 22.3573 47.5765 23.997C47.8233 25.6834 47.7417 27.6901 47.3375 29.9619C46.871 32.5752 46.1169 34.8513 45.0985 36.7137C44.1617 38.4298 42.9684 39.8531 41.5515 40.9561C40.1988 42.004 38.5915 42.7995 36.7743 43.3085C35.0134 43.8092 33.0057 44.0616 30.8037 44.0616H29.3849C28.3704 44.0616 27.385 44.4604 26.6115 45.1752C25.836 45.9049 25.3229 46.9019 25.1655 47.9922L25.0586 48.6264L23.2627 61.0461L23.1811 61.5022C23.1597 61.6464 23.1228 61.7185 23.0684 61.7673C23.0198 61.8119 22.9498 61.8416 22.8818 61.8416H14.1222Z" fill="#253B80"/>
<path d="M44.7949 16.2637C44.7405 16.6434 44.6783 17.0316 44.6083 17.4303C42.2042 30.9022 33.9791 35.5561 23.4742 35.5561H18.1256C16.8409 35.5561 15.7583 36.5743 15.5581 37.9573L12.8197 56.9125L12.0442 62.2855C11.914 63.1934 12.5553 64.0122 13.395 64.0122H22.8814C24.0048 64.0122 24.9591 63.1213 25.1359 61.9122L25.2292 61.3861L27.0153 49.0152L27.13 48.3364C27.3049 47.1231 28.2612 46.2322 29.3845 46.2322H30.8033C39.9944 46.2322 47.1894 42.1594 49.2923 30.374C50.1708 25.4506 49.716 21.3397 47.3915 18.4485C46.6879 17.5767 45.8153 16.8534 44.7949 16.2637Z" fill="#179BD7"/>
<path d="M42.2804 15.1684C41.9131 15.0517 41.5341 14.9457 41.1454 14.8502C40.7548 14.7569 40.3544 14.6741 39.9424 14.602C38.5002 14.3475 36.9201 14.2266 35.2273 14.2266H20.9383C20.5866 14.2266 20.2523 14.3135 19.953 14.4705C19.2941 14.8163 18.8043 15.4972 18.6858 16.3308L15.6461 37.3435L15.5586 37.9566C15.7588 36.5735 16.8413 35.5553 18.126 35.5553H23.4747C33.9795 35.5553 42.2046 30.8993 44.6088 17.4296C44.6807 17.0308 44.741 16.6426 44.7954 16.2629C44.1871 15.9108 43.5282 15.6096 42.8188 15.3529C42.6439 15.2893 42.4631 15.2278 42.2804 15.1684Z" fill="#222D65"/>
<path d="M18.6853 16.3312C18.8038 15.4976 19.2936 14.8167 19.9524 14.473C20.2537 14.3161 20.586 14.2291 20.9378 14.2291H35.2268C36.9196 14.2291 38.4997 14.35 39.9418 14.6045C40.3539 14.6767 40.7542 14.7594 41.1449 14.8527C41.5336 14.9482 41.9126 15.0542 42.2799 15.1709C42.4626 15.2303 42.6434 15.2918 42.8202 15.3533C43.5296 15.61 44.1885 15.9133 44.7968 16.2633C45.512 11.2848 44.791 7.89515 42.3246 4.82576C39.6056 1.44667 34.6981 0 28.4185 0H10.1881C8.90532 0 7.8111 1.01818 7.61286 2.40333L0.0194138 54.9352C-0.130239 55.9745 0.604422 56.9121 1.56453 56.9121H12.8196L15.6455 37.3439L18.6853 16.3312Z" fill="#253B80"/>
</svg>
