<svg width="457" height="456" viewBox="0 0 457 456" fill="none" xmlns="http://www.w3.org/2000/svg">
<g clip-path="url(#clip0_4335_1167)">
<path d="M445.864 470.74C445.864 470.74 452.579 402.602 432.992 384.172C413.4 365.742 324.962 332.23 324.962 332.23C324.962 332.23 270.668 319.943 276.824 271.354C276.824 271.354 302.014 255.715 298.096 228.351C298.096 228.351 326.083 216.621 315.449 166.356C315.449 166.356 343.436 107.152 318.809 82.5784C318.234 82.0042 317.663 81.4384 317.104 80.8811C298.904 62.8395 275.779 50.5529 250.61 45.5833L231.488 41.8087C231.488 41.8087 205.181 37.8989 193.985 16.1164L189.508 21.7024L181.671 8.29688C181.671 8.29688 144.73 26.7269 146.969 63.0295C146.969 63.0295 147.527 78.6687 138.015 87.6029C128.503 96.5371 105.551 126.139 130.737 164.118C130.737 164.118 120.103 175.29 127.377 198.744C134.651 222.199 145.289 224.994 145.289 224.994C145.289 224.994 136.894 257.944 164.881 272.469C164.881 272.469 171.037 288.665 159.841 303.185C148.644 317.706 137.452 325.525 137.452 325.525L41.1775 361.828C41.1775 361.828 -0.807251 380.819 4.23244 419.356V465.711L445.864 470.74Z" fill="black"/>
</g>
<defs>
<clipPath id="clip0_4335_1167">
<rect width="457" height="456" fill="white"/>
</clipPath>
</defs>
</svg>
