<svg width="258" height="495" viewBox="0 0 258 495" fill="none" xmlns="http://www.w3.org/2000/svg">
<path d="M170.842 252.238C157.122 242.485 142.625 237.096 128.129 237.096C114.15 237.096 100.689 241.459 87.7461 249.672C100.948 256.088 115.962 259.938 131.753 259.938C145.732 260.195 158.934 257.372 170.842 252.238Z" fill="#4E118E"/>
<path d="M132.01 252.498C185.909 252.498 229.602 210.326 229.602 158.305C229.602 106.284 185.909 64.1123 132.01 64.1123C78.1115 64.1123 34.418 106.284 34.418 158.305C34.418 210.326 78.1115 252.498 132.01 252.498Z" fill="#C178BA"/>
<path d="M146.777 453.203L120.372 453.46C30.805 452.947 7.50712 436.777 1.81209 429.847C0.517762 442.167 0 454.743 0 467.576C0 467.833 0 468.089 0 468.089H0.258881C2.07094 472.196 17.0851 493.755 120.631 494.268H147.035V494.012C241.262 492.215 255.241 471.939 257.053 467.833H257.312C257.312 467.576 257.312 467.319 257.312 467.319C257.312 454.486 256.535 441.91 255.241 429.591C249.287 436.521 227.284 451.663 146.777 453.203Z" fill="#4E118E"/>
<path d="M182.751 261.737C178.868 258.144 174.986 255.064 171.103 252.497C159.195 257.631 145.993 260.454 132.273 260.454C116.482 260.454 101.468 256.861 88.2657 250.188C84.1238 252.754 80.2408 255.834 76.099 259.17C38.8224 290.739 9.31178 354.133 1.80469 429.847C7.75859 436.776 30.7976 453.202 120.365 453.459H146.769V453.202C227.535 451.662 249.28 436.52 254.975 429.847C247.209 355.93 218.216 294.076 182.751 261.737Z" fill="#7833E5"/>
<path d="M229.612 158.303C229.612 158.303 234.272 60.7741 208.385 34.8519C208.385 34.8519 56.6905 -4.67317 36.2401 0.45995C15.7897 5.59307 34.4281 158.303 34.4281 158.303C34.4281 158.303 50.2188 113.902 57.7259 105.689C65.233 97.476 125.549 84.8998 185.864 93.1128C185.864 93.3695 219.517 149.834 229.612 158.303Z" fill="#111111"/>
</svg>
