<svg width="46" height="46" viewBox="0 0 46 46" fill="none" xmlns="http://www.w3.org/2000/svg">
<path d="M36.4679 14.5686C40.767 14.5686 44.2522 11.5312 44.2522 7.78431C44.2522 4.03744 40.767 1 36.4679 1C32.1687 1 28.6836 4.03744 28.6836 7.78431C28.6836 11.5312 32.1687 14.5686 36.4679 14.5686Z" stroke="white" stroke-width="2" stroke-linecap="round" stroke-linejoin="round"/>
<path d="M8.78429 29.6458C13.0834 29.6458 16.5686 26.6083 16.5686 22.8615C16.5686 19.1146 13.0834 16.0771 8.78429 16.0771C4.48514 16.0771 1 19.1146 1 22.8615C1 26.6083 4.48514 29.6458 8.78429 29.6458Z" stroke="white" stroke-width="2" stroke-linecap="round" stroke-linejoin="round"/>
<path d="M36.4679 44.7215C40.767 44.7215 44.2522 41.684 44.2522 37.9371C44.2522 34.1903 40.767 31.1528 36.4679 31.1528C32.1687 31.1528 28.6836 34.1903 28.6836 37.9371C28.6836 41.684 32.1687 44.7215 36.4679 44.7215Z" stroke="white" stroke-width="2" stroke-linecap="round" stroke-linejoin="round"/>
<path d="M14.8438 26.6304L28.6825 35.6761" stroke="white" stroke-linecap="round" stroke-linejoin="round"/>
<path d="M28.6825 10.0464L14.8438 19.0921" stroke="white" stroke-linecap="round" stroke-linejoin="round"/>
</svg>
