<svg width="17" height="19" viewBox="0 0 17 19" fill="none" xmlns="http://www.w3.org/2000/svg">
<path d="M12.8567 5.8995C14.1664 5.8995 15.2281 4.80271 15.2281 3.44975C15.2281 2.09679 14.1664 1 12.8567 1C11.547 1 10.4854 2.09679 10.4854 3.44975C10.4854 4.80271 11.547 5.8995 12.8567 5.8995Z" stroke="#0D0D0D" stroke-width="2" stroke-linecap="round" stroke-linejoin="round"/>
<path d="M3.37136 11.6158C4.68103 11.6158 5.74272 10.519 5.74272 9.16606C5.74272 7.8131 4.68103 6.71631 3.37136 6.71631C2.06169 6.71631 1 7.8131 1 9.16606C1 10.519 2.06169 11.6158 3.37136 11.6158Z" stroke="#0D0D0D" stroke-width="2" stroke-linecap="round" stroke-linejoin="round"/>
<path d="M12.8567 17.3316C14.1664 17.3316 15.2281 16.2348 15.2281 14.8819C15.2281 13.5289 14.1664 12.4321 12.8567 12.4321C11.547 12.4321 10.4854 13.5289 10.4854 14.8819C10.4854 16.2348 11.547 17.3316 12.8567 17.3316Z" stroke="#0D0D0D" stroke-width="2" stroke-linecap="round" stroke-linejoin="round"/>
<path d="M5.41895 10.3989L10.8177 13.6489" stroke="#0D0D0D" stroke-width="2" stroke-linecap="round" stroke-linejoin="round"/>
<path d="M10.8098 4.68262L5.41895 7.93262" stroke="#0D0D0D" stroke-width="2" stroke-linecap="round" stroke-linejoin="round"/>
</svg>
