<svg width="84" height="29" viewBox="0 0 84 29" fill="none" xmlns="http://www.w3.org/2000/svg">
<g clip-path="url(#clip0_4802_2142)">
<path d="M36.3983 28.5816H29.5938L33.8498 0.508789H40.654L36.3983 28.5816Z" fill="#00579F"/>
<path d="M61.0682 1.19517C59.726 0.627157 57.5972 0 54.965 0C48.2452 0 43.5132 3.82248 43.4842 9.28747C43.4284 13.3195 46.8722 15.559 49.4478 16.9034C52.0805 18.2772 52.9754 19.1739 52.9754 20.3984C52.9486 22.2791 50.8481 23.146 48.889 23.146C46.1723 23.146 44.7166 22.6991 42.5045 21.6528L41.6085 21.2042L40.6562 27.5059C42.2522 28.2816 45.1925 28.9698 48.2452 29C55.3851 29 60.0333 25.2367 60.0884 19.4129C60.1156 16.2171 58.2971 13.7685 54.3767 11.7675C51.9967 10.483 50.5392 9.61692 50.5392 8.30267C50.5671 7.1079 51.772 5.88415 54.4585 5.88415C56.6707 5.82421 58.296 6.39143 59.5273 6.95905L60.1427 7.25715L61.0682 1.19517Z" fill="#00579F"/>
<path d="M70.1098 18.6364C70.6702 17.0236 72.8265 10.7818 72.8265 10.7818C72.7983 10.8418 73.3858 9.13933 73.7218 8.0942L74.1974 10.5131C74.1974 10.5131 75.4859 17.2328 75.7658 18.6364C74.7023 18.6364 71.4539 18.6364 70.1098 18.6364ZM78.5093 0.508789H73.2459C71.6228 0.508789 70.3897 1.01607 69.6894 2.838L59.582 28.5812H66.7219C66.7219 28.5812 67.8973 25.1163 68.15 24.3701C68.9333 24.3701 75.8789 24.3701 76.8865 24.3701C77.0819 25.3557 77.6985 28.5812 77.6985 28.5812H83.9988L78.5093 0.508789Z" fill="#00579F"/>
<path d="M23.9132 0.508789L17.2493 19.6517L16.5211 15.7693C15.2891 11.2895 11.4252 6.42231 7.11328 4.00221L13.2172 28.5518H20.4129L31.1085 0.508789H23.9132Z" fill="#00579F"/>
<path d="M11.0599 0.508789H0.112002L0 1.07601C8.54006 3.40561 14.196 9.02104 16.5197 15.7705L14.1398 2.86856C13.748 1.07561 12.5439 0.567932 11.0599 0.508789Z" fill="#FAA61A"/>
</g>
<defs>
<clipPath id="clip0_4802_2142">
<rect width="84" height="29" fill="white"/>
</clipPath>
</defs>
</svg>
