<svg width="129" height="123" viewBox="0 0 129 123" fill="none" xmlns="http://www.w3.org/2000/svg">
<g clip-path="url(#clip0_4798_1828)">
<path d="M93.2074 112.805C74.1719 113.36 56.216 96.3333 57.581 73.997C58.673 56.1311 73.2645 40.0066 93.2586 39.9844C113.043 39.9638 129.053 56.3322 128.997 76.7435C128.942 96.2209 112.918 113.292 93.2074 112.805ZM77.1873 67.065C77.2152 66.9193 77.2106 66.8149 77.2555 66.7373C85.005 52.9825 105.376 52.9287 112.344 67.5193C118.207 79.7956 110.399 95.146 96.8665 96.5122C94.9447 96.7053 92.9297 96.6119 91.0219 96.3079C89.8228 96.1164 88.6269 95.5054 87.5938 96.4409C84.5366 99.2064 90.1362 100.468 91.8067 100.642C98.5324 101.345 105.202 99.4138 110.329 94.8231C121.28 85.0147 121.007 66.9605 109.691 57.5352C98.1648 47.9359 81.1985 51.7145 73.7376 64.4672C72.5944 64.0857 72.9465 61.3202 71.6839 60.5683C70.111 59.6296 68.7041 60.9292 68.6421 62.5708C68.5738 64.3406 69.7713 66.4634 70.3142 68.1446C70.7935 69.6295 71.0665 72.1433 72.7216 72.7575C74.2029 73.3068 76.4071 72.1005 77.8465 71.5971C79.3946 71.0557 82.1494 70.6362 83.2352 69.3366C84.2031 68.1762 83.7346 66.6455 82.3758 66.0946C80.744 65.4345 78.4902 67.8549 77.1904 67.0634L77.1873 67.065ZM97.4932 73.1722C97.4932 70.8056 98.2563 66.7515 97.3256 64.5369C96.2228 61.9139 93.5548 63.6378 93.3703 65.8476C93.1066 69.0105 93.3842 72.3317 93.3811 75.5103C93.3811 76.7182 93.696 78.3645 93.3516 79.5375C93.0461 80.5791 91.8548 81.3501 91.0606 82.0593C89.6057 83.3589 85.1493 85.8062 85.793 88.0937C86.6926 91.2882 89.8244 88.5844 91.0839 87.4858C92.8646 85.9313 96.3345 83.9494 97.2807 81.7347C98.2346 79.5027 97.4963 75.5832 97.4932 73.1707V73.1722Z" fill="url(#paint0_linear_4798_1828)"/>
<path d="M5.11541 117.735C5.66141 117.961 6.07867 117.882 6.48351 117.882C31.8476 117.887 57.2118 117.889 82.5759 117.879C83.4663 117.879 84.2279 117.977 84.8235 118.802C85.9543 120.368 85.3664 122.332 83.5221 122.858C83.1033 122.976 82.6473 122.999 82.2083 122.999C56.717 123.003 31.2272 122.999 5.73587 123C4.25143 123 2.86007 122.748 1.65794 121.757C-0.291836 120.152 -0.299592 117.387 0.499242 115.585C1.84097 112.559 2.84145 109.421 3.69613 106.219C4.15371 104.507 4.52288 102.779 4.93083 101.06C5.74828 97.6165 6.1857 94.0975 6.6681 90.5943C8.00052 80.9189 8.28128 71.1802 8.17425 61.4241C7.9726 43.0707 8.15098 24.7157 8.07808 6.36064C8.07653 5.81292 8.1029 5.26362 8.14788 4.71748C8.39296 1.76833 10.5258 0.258133 13.1782 0.0507585C13.5877 0.0190983 14.0019 0.0412604 14.4129 0.0412604C31.1015 0.0396774 47.7886 0.0665886 64.4757 0.000102137C66.4224 -0.00781292 68.0263 0.443345 69.5216 1.68759C72.7433 4.36763 75.9215 7.08408 78.9261 10.0285C81.6592 12.7069 84.1689 15.5659 86.6197 18.5008C89.9748 22.5169 92.8491 26.867 95.4891 31.3865C96.0351 32.3204 96.5237 33.3098 95.9281 34.4813C95.3262 35.6654 94.0683 36.2748 92.8506 35.7762C90.6139 34.858 88.2763 34.3071 85.9202 33.8924C83.3856 33.446 80.8107 33.59 78.2482 33.609C75.9991 33.6249 73.7717 33.7895 71.5458 34.1821C69.3292 34.5731 67.5547 33.6391 66.4286 31.6841C65.6996 30.4177 65.9167 28.955 65.9912 27.5287C66.2223 23.1437 66.3712 18.7493 65.8283 14.3786C65.4995 11.7271 65.2482 9.06284 64.727 6.43346C64.5316 5.4425 64.119 5.14647 63.1418 5.14806C46.8657 5.17655 30.5897 5.16705 14.3136 5.16705C13.4822 5.16705 13.0665 5.59394 13.0665 6.44771C13.0665 28.4547 13.0588 50.4633 13.0727 72.4704C13.0758 76.6131 12.5484 80.7099 12.201 84.8258C11.8272 89.2313 11.2424 93.5925 10.4606 97.9426C9.97667 100.635 9.46945 103.312 8.83348 105.972C8.23474 108.473 7.57086 110.949 6.75496 113.382C6.26946 114.83 5.67848 116.244 5.11231 117.733L5.11541 117.735Z" fill="url(#paint1_linear_4798_1828)"/>
<path d="M38.1267 46.9596C41.792 46.9596 45.4573 46.9596 49.1227 46.9596C51.1422 46.9596 56.2579 46.0953 56.0764 49.5969C55.9073 52.8469 51.3392 52.0237 49.2747 52.0237C45.3844 52.0237 41.4942 52.0221 37.6055 52.0205C33.8921 52.0205 30.1787 52.019 26.4668 52.0158C24.4845 52.0158 20.74 52.801 20.1118 50.0734C19.2044 46.1317 24.9607 46.9612 27.1338 46.9628C30.7991 46.9628 34.4645 46.9628 38.1298 46.9596H38.1267Z" fill="url(#paint2_linear_4798_1828)"/>
<path d="M33.5986 71.2157C36.5287 71.2157 39.4588 71.2062 42.3889 71.2188C44.3449 71.2267 47.8163 71.2426 46.9446 74.4007C46.2791 76.8084 43.3413 76.2861 41.4846 76.2861C38.5142 76.2861 35.5438 76.2861 32.5733 76.2861C29.7782 76.2861 26.9815 76.3161 24.1864 76.2829C22.4165 76.2623 20.0914 76.1531 20.0324 73.7786C19.9673 71.1698 22.6337 71.2299 24.464 71.2157C27.5089 71.1935 30.5553 71.2125 33.6002 71.2157H33.5986Z" fill="url(#paint3_linear_4798_1828)"/>
<path d="M33.5141 64.1094C29.9387 64.1094 26.3634 64.1126 22.788 64.1078C21.6774 64.1062 20.7467 63.777 20.2426 62.642C19.5942 61.1824 20.39 59.5329 21.9302 59.2179C22.2374 59.1546 22.5584 59.1419 22.8733 59.1403C30.024 59.1356 37.1748 59.1783 44.3255 59.1134C46.6568 59.0928 47.5534 61.2584 46.7266 62.862C46.2039 63.8751 45.312 64.0936 44.3363 64.0983C40.73 64.1173 37.122 64.1062 33.5156 64.1078L33.5141 64.1094Z" fill="url(#paint4_linear_4798_1828)"/>
<path d="M33.5324 83.3689C37.2334 83.3689 40.9375 83.4227 44.637 83.3404C45.9306 83.3119 46.9125 84.4516 47.0474 85.6975C47.187 86.9813 46.2114 88.1622 44.9177 88.3348C44.699 88.3633 44.4756 88.3554 44.2538 88.3554C37.1357 88.3554 30.016 88.3585 22.8978 88.3522C21.8617 88.3522 20.9279 88.2034 20.3757 87.07C19.4791 85.2305 20.5168 83.3736 22.5209 83.372C26.1909 83.3689 29.8609 83.372 33.5309 83.372L33.5324 83.3689Z" fill="url(#paint5_linear_4798_1828)"/>
</g>
<defs>
<linearGradient id="paint0_linear_4798_1828" x1="57.5078" y1="76.4011" x2="128.997" y2="76.4011" gradientUnits="userSpaceOnUse">
<stop stop-color="#9022BA"/>
<stop offset="1" stop-color="#DC44AA"/>
</linearGradient>
<linearGradient id="paint1_linear_4798_1828" x1="0" y1="61.5003" x2="96.2005" y2="61.5003" gradientUnits="userSpaceOnUse">
<stop stop-color="#9022BA"/>
<stop offset="1" stop-color="#DC44AA"/>
</linearGradient>
<linearGradient id="paint2_linear_4798_1828" x1="20.0156" y1="49.4929" x2="56.0811" y2="49.4929" gradientUnits="userSpaceOnUse">
<stop stop-color="#9022BA"/>
<stop offset="1" stop-color="#DC44AA"/>
</linearGradient>
<linearGradient id="paint3_linear_4798_1828" x1="20.0312" y1="73.7695" x2="47.0824" y2="73.7695" gradientUnits="userSpaceOnUse">
<stop stop-color="#9022BA"/>
<stop offset="1" stop-color="#DC44AA"/>
</linearGradient>
<linearGradient id="paint4_linear_4798_1828" x1="20.0156" y1="61.6119" x2="47.0282" y2="61.6119" gradientUnits="userSpaceOnUse">
<stop stop-color="#9022BA"/>
<stop offset="1" stop-color="#DC44AA"/>
</linearGradient>
<linearGradient id="paint5_linear_4798_1828" x1="20.0508" y1="85.8481" x2="47.0607" y2="85.8481" gradientUnits="userSpaceOnUse">
<stop stop-color="#9022BA"/>
<stop offset="1" stop-color="#DC44AA"/>
</linearGradient>
<clipPath id="clip0_4798_1828">
<rect width="129" height="123" fill="white"/>
</clipPath>
</defs>
</svg>
