<svg width="26" height="26" viewBox="0 0 26 26" fill="none" xmlns="http://www.w3.org/2000/svg">
<path d="M12.1755 0.162596C11.9098 0.265759 11.667 0.42045 11.4611 0.617787L0.636674 11.4556C0.434824 11.6577 0.274708 11.8977 0.165467 12.1617C0.0562263 12.4258 1.58496e-07 12.7088 1.55088e-07 12.9946C1.48205e-07 13.5718 0.229019 14.1254 0.636674 14.5336C0.838525 14.7357 1.07816 14.896 1.34189 15.0054C1.60562 15.1147 1.88828 15.171 2.17374 15.171C2.75025 15.171 3.30315 14.9417 3.71081 14.5336L10.8333 7.38059L10.8333 23.8324C10.8333 24.4073 11.0614 24.9586 11.4674 25.3651C11.8733 25.7716 12.424 26 12.9982 26C13.5723 26 14.123 25.7716 14.529 25.3651C14.9349 24.9586 15.163 24.4073 15.163 23.8324L15.163 7.38059L22.2855 14.5336C22.4868 14.7367 22.7262 14.898 22.99 15.008C23.2538 15.1181 23.5368 15.1747 23.8226 15.1747C24.1084 15.1747 24.3913 15.1181 24.6551 15.008C24.9189 14.898 25.1584 14.7367 25.3596 14.5336C25.5625 14.3321 25.7236 14.0923 25.8335 13.8282C25.9434 13.5641 26 13.2807 26 12.9946C26 12.7085 25.9434 12.4251 25.8335 12.161C25.7236 11.8969 25.5625 11.6571 25.3596 11.4556L14.5352 0.617787C14.3293 0.42045 14.0866 0.265759 13.8208 0.162596C13.2937 -0.054201 12.7026 -0.054201 12.1755 0.162596Z" fill="white"/>
</svg>
