<svg viewBox="0 0 24 24" fill="none" xmlns="http://www.w3.org/2000/svg">
  <path d="M15.5161 18.3067C15.5161 19.0556 15.5161 19.8052 15.5161 20.5541C15.5161 22.2011 14.2583 23.6829 12.6355 23.9478C10.6115 24.2787 8.83875 23.0123 8.49559 20.9812C8.46268 20.7857 8.47835 20.5813 8.47835 20.3817C8.47731 18.9093 8.47835 17.4375 8.47835 15.9651C8.47835 15.5553 8.45694 15.5344 8.05371 15.5344C6.5651 15.5344 5.07649 15.536 3.58789 15.5344C1.77701 15.5323 0.29728 14.3135 0.0402998 12.5196C-0.276225 10.3093 1.31893 8.64352 3.17055 8.49874C4.71557 8.37748 6.26738 8.47836 7.81605 8.45118C8.47208 8.43968 8.47835 8.59387 8.47783 7.79052C8.47731 6.32704 8.48149 4.86357 8.4794 3.40009C8.47731 1.69827 9.89279 0.186707 11.6321 0.0173612C13.5485 -0.169755 15.2335 1.17612 15.5035 3.0661C15.5182 3.16907 15.5145 3.27465 15.515 3.37918C15.5155 4.92994 15.515 6.48019 15.515 8.03095C15.515 8.31215 15.6601 8.45275 15.9501 8.45275C17.4126 8.45275 18.8751 8.44804 20.3376 8.45431C21.2548 8.4585 22.0952 8.7099 22.7826 9.33867C23.8632 10.3276 24.243 11.5653 23.846 12.9634C23.4454 14.373 22.4671 15.2198 21.0103 15.4889C20.8113 15.5255 20.6134 15.5344 20.4138 15.5344C18.908 15.5344 17.4022 15.5344 15.8958 15.5344C15.6426 15.5344 15.5159 15.6569 15.5155 15.9019C15.5155 16.7031 15.5155 17.5049 15.5155 18.3061L15.5161 18.3067Z" fill="white"/>
</svg>