<svg width="26" height="26" viewBox="0 0 26 26" fill="none" xmlns="http://www.w3.org/2000/svg">
<path d="M13.8245 25.8374C14.0902 25.7342 14.333 25.5795 14.5389 25.3822L25.3633 14.5444C25.5652 14.3423 25.7253 14.1023 25.8345 13.8383C25.9438 13.5742 26 13.2912 26 13.0054C26 12.4282 25.771 11.8746 25.3633 11.4664C25.1615 11.2643 24.9218 11.104 24.6581 10.9946C24.3944 10.8853 24.1117 10.829 23.8263 10.829C23.2497 10.829 22.6968 11.0583 22.2892 11.4664L15.1667 18.6194L15.1667 2.16757C15.1667 1.59269 14.9386 1.04136 14.5326 0.634866C14.1267 0.228368 13.576 -5.4307e-07 13.0018 -5.68167e-07C12.4277 -5.93265e-07 11.877 0.228368 11.471 0.634866C11.0651 1.04136 10.837 1.59269 10.837 2.16757L10.837 18.6194L3.7145 11.4664C3.51325 11.2633 3.27381 11.102 3.01 10.992C2.74619 10.8819 2.46323 10.8253 2.17744 10.8253C1.89164 10.8253 1.60868 10.8819 1.34487 10.992C1.08106 11.102 0.841625 11.2633 0.640371 11.4664C0.437459 11.6679 0.276401 11.9077 0.166494 12.1718C0.0565848 12.4359 1.35137e-06 12.7193 1.33886e-06 13.0054C1.32636e-06 13.2915 0.0565847 13.5749 0.166494 13.839C0.276401 14.1031 0.437459 14.3429 0.640371 14.5444L11.4648 25.3822C11.6707 25.5795 11.9134 25.7342 12.1792 25.8374C12.7063 26.0542 13.2974 26.0542 13.8245 25.8374Z" fill="white"/>
</svg>
